<svg width="200" height="195" viewBox="0 0 200 195" fill="none" xmlns="http://www.w3.org/2000/svg">
<rect width="200" height="194.286" rx="35" fill="#BA9864"/>
<path d="M176.891 92.3128C176.702 111.701 171.57 126.869 160.899 140.049C149.44 154.207 134.519 163.198 116.26 166.837C102.158 169.62 88.4324 168.397 74.959 163.657C71.9684 162.586 69.0408 161.333 66.2391 159.834C65.3891 159.375 64.6651 159.314 63.7207 159.62C50.9714 163.626 38.1906 167.602 25.4098 171.546C24.8432 171.73 24.0877 172.25 23.647 171.852C23.1433 171.363 23.7729 170.629 23.9618 170.048C26.5116 162.678 29.0615 155.278 31.6428 147.908C33.2168 143.413 34.7278 138.948 36.3648 134.483C36.8055 133.321 36.6481 132.434 35.987 131.364C32.7446 125.982 30.3522 120.233 28.6523 114.208C25.4728 102.894 25.1265 91.4565 27.6134 80.0195C30.3207 67.5427 35.987 56.4114 44.7069 46.8092C55.2527 35.1887 68.2538 27.513 83.7104 23.8128C93.5635 21.4581 103.511 21.0912 113.522 22.6813C126.617 24.7608 138.422 29.8066 148.716 37.9409C159.419 46.4117 167.226 56.9313 172.137 69.561C174.844 76.3804 176.985 87.5422 176.891 92.3128ZM42.8496 153.382C50.6566 150.935 58.1173 148.611 65.5151 146.257C66.4909 145.951 67.2779 146.012 68.1279 146.562C70.9611 148.397 74.0146 149.865 77.1626 151.149C87.3935 155.369 98.0337 156.898 109.02 155.522C122.493 153.84 134.33 148.581 144.277 139.437C156.806 127.908 163.512 113.78 164.11 97.0833C164.676 80.7228 159.262 66.3501 147.961 54.1485C137.226 42.5586 123.753 35.9532 107.855 34.3019C94.0357 32.8646 81.0976 35.7697 69.1352 42.742C58.9043 48.7358 51.0659 56.9007 45.6199 67.2063C39.6072 78.5516 37.561 90.6003 39.2924 103.23C40.5831 112.771 44.1088 121.548 49.7752 129.437C50.4048 130.324 50.5937 131.058 50.2159 132.098C49.0511 135.217 48.0123 138.367 46.9105 141.486C45.5884 145.339 44.2977 149.192 42.8496 153.382Z" fill="#363232"/>
<path d="M63.7521 77.9094C63.9095 70.6313 66.5538 65.2185 71.5591 60.9067C73.1646 59.5 75.1478 58.8884 77.3829 59.1942C78.3273 59.3165 79.2717 59.4083 80.2161 59.3471C81.9789 59.2554 83.1752 60.081 83.7733 61.5795C85.8824 66.9005 87.9286 72.2214 89.9748 77.573C90.6673 79.4078 89.4711 80.8451 88.4638 82.1601C87.299 83.7197 85.8824 85.0958 84.4973 86.4719C83.0807 87.8786 82.8918 88.6737 83.8677 90.3862C89.5655 100.447 97.5614 108.184 108.422 112.954C108.8 113.107 109.177 113.321 109.555 113.505C111.003 114.147 112.294 113.994 113.396 112.771C115.41 110.477 117.614 108.367 119.471 105.952C120.699 104.361 121.549 104.086 123.406 104.881C128.947 107.205 134.141 110.141 139.43 112.985C140.405 113.505 140.752 114.3 140.72 115.401C140.437 124.422 135.117 129.131 125.767 131.211C121.234 132.22 117.047 131.119 112.892 129.651C104.172 126.593 95.7671 122.985 88.7156 116.93C83.1122 112.098 78.1699 106.716 73.9831 100.692C70.7721 96.0435 67.4353 91.4871 65.578 86.0743C64.5076 83.1998 63.7207 80.2641 63.7521 77.9094Z" fill="#363232"/>
</svg>
