<svg width="81" height="94" viewBox="0 0 81 94" fill="none" xmlns="http://www.w3.org/2000/svg">
<path d="M37.429 2.42462C38.3126 1.40666 39.5445 0.758295 40.8814 0.607641C41.058 0.598885 41.235 0.598885 41.4116 0.607641C42.1351 0.593243 42.854 0.725612 43.5252 0.996811C44.1965 1.26801 44.8062 1.67245 45.3178 2.18588C45.8295 2.6993 46.2326 3.31114 46.5028 3.98468C46.7731 4.65823 46.905 5.37961 46.8907 6.10556V25.969H75.2578C77.0483 25.969 78.4392 27.3647 78.4392 29.1613V32.4423C78.4392 34.239 77.0483 35.7234 75.2578 35.7234H42.2069C41.6796 35.8023 41.1436 35.8023 40.6163 35.7234H7.74217C5.95173 35.7234 4.56079 34.239 4.56079 32.4423V29.1613C4.56079 27.3647 5.95173 25.969 7.74217 25.969H36.1094V6.10556C36.0746 4.75608 36.5455 3.44258 37.429 2.42462Z" fill="#1D1D1D"/>
<path d="M74.1133 37.7827C73.4022 37.7782 72.5782 37.9023 71.6389 38.0487H13.4022C4.37854 38.0487 3.60563 37.5419 5.44879 46.4729C7.49503 62.7188 6.91809 77.7699 0.5 93.5599H14.3743L22.7696 74.1399L18.9696 93.5599H28.2486L31.7834 87.0866L32.8439 93.5599H51.3135L58.4715 69.6174L55.9972 93.5599H65.1878L68.7226 86.2885L69.7831 93.5599H74.4668C79.9592 77.3274 81.7921 62.7367 79.5923 46.5616C78.8891 41.4496 79.0907 37.816 74.1133 37.7827Z" fill="#BA9864"/>
</svg>
