<svg width="91" height="91" viewBox="0 0 91 91" fill="none" xmlns="http://www.w3.org/2000/svg">
<g clip-path="url(#clip0_8_433)">
<path d="M28.7823 53.4363L37.1372 61.7938L10.6733 88.2621L2.31836 79.8992L28.7823 53.4363Z" fill="#BA9864"/>
<path d="M88.6819 29.7537C88.6819 45.1408 76.2104 57.6159 60.8215 57.6159C45.4363 57.6159 32.9612 45.1408 32.9612 29.7537C32.9612 14.3703 45.4363 1.89868 60.8215 1.89868C76.2104 1.89868 88.6819 14.3703 88.6819 29.7537Z" fill="#646464"/>
<path d="M60.8213 59.4341C44.4568 59.4341 31.1428 46.1192 31.1428 29.7538C31.1428 13.392 44.4568 0.0805664 60.8213 0.0805664C77.1858 0.0805664 90.4999 13.392 90.4999 29.7538C90.4999 46.1192 77.1858 59.4341 60.8213 59.4341ZM60.8213 3.71693C46.4614 3.71693 34.7791 15.3966 34.7791 29.7538C34.7791 44.1146 46.4614 55.7977 60.8213 55.7977C75.1813 55.7977 86.8635 44.1146 86.8635 29.7538C86.8635 15.3966 75.1813 3.71693 60.8213 3.71693Z" fill="#1D1D1D"/>
<path d="M34.2465 58.9014L31.6755 56.3304L40.0357 47.9711L42.6068 50.542L34.2465 58.9014Z" fill="#1D1D1D"/>
<path d="M10.6732 90.0804C10.1903 90.0804 9.72773 89.8886 9.38683 89.5468L1.03193 81.184C0.322544 80.4746 0.322544 79.3232 1.0328 78.6138L27.4967 52.1508C27.8376 51.8099 28.3002 51.6182 28.7822 51.6182C29.2643 51.6182 29.7268 51.8099 30.0677 52.1508L38.4226 60.5083C39.1329 61.2186 39.1329 62.3692 38.4226 63.0794L11.9587 89.5477C11.6178 89.8886 11.1553 90.0804 10.6732 90.0804ZM4.88931 79.9003L10.6741 85.6903L34.5661 61.7939L28.7822 56.0082L4.88931 79.9003Z" fill="#1D1D1D"/>
<path d="M51.2982 23.0972C50.2941 23.0972 49.48 22.2831 49.48 21.279V16.1742C49.48 15.1702 50.2941 14.3561 51.2982 14.3561C52.3022 14.3561 53.1164 15.1702 53.1164 16.1742V21.279C53.1164 22.2831 52.3022 23.0972 51.2982 23.0972Z" fill="#D9D9D9"/>
<path d="M52.3616 30.5438C51.8964 30.5438 51.4312 30.3663 51.0762 30.0112C50.3659 29.3009 50.3659 28.1495 51.0762 27.4402L54.2677 24.2495C54.978 23.5392 56.1285 23.5392 56.8387 24.2495C57.5489 24.9597 57.5489 26.1112 56.8387 26.8205L53.6472 30.0112C53.292 30.3663 52.8268 30.5438 52.3616 30.5438Z" fill="#D9D9D9"/>
<path d="M67.0438 44.7679C66.4907 44.7679 65.9438 44.5166 65.587 44.0399C64.985 43.2365 65.1484 42.0966 65.9518 41.4947L69.5633 38.7887C70.3686 38.1877 71.5076 38.3519 72.1086 39.1535C72.7105 39.957 72.5472 41.0969 71.7437 41.6989L68.1322 44.4048C67.8055 44.6498 67.4229 44.7679 67.0438 44.7679Z" fill="#D9D9D9"/>
<path d="M67.0421 34.1607C66.5769 34.1607 66.1117 33.9831 65.7565 33.628L63.2033 31.0748C62.4931 30.3645 62.4931 29.214 63.2033 28.5038C63.9135 27.7935 65.0641 27.7935 65.7743 28.5038L68.3276 31.057C69.0378 31.7672 69.0378 32.9178 68.3276 33.628C67.9724 33.9831 67.5073 34.1607 67.0421 34.1607Z" fill="#D9D9D9"/>
<path d="M46.3283 39.0808C45.4937 39.0808 44.7418 38.5029 44.5545 37.6542L43.5646 33.1602C43.3489 32.1792 43.9685 31.2089 44.9486 30.9931C45.9279 30.7721 46.8991 31.3962 47.1157 32.3772L48.1057 36.8712C48.3214 37.8521 47.7017 38.8225 46.7216 39.0382C46.5892 39.0675 46.4579 39.0808 46.3283 39.0808Z" fill="#D9D9D9"/>
<path d="M55.8231 45.8039C54.3156 45.8039 52.8969 45.2163 51.8289 44.1491C50.7618 43.0811 50.1741 41.6624 50.1741 40.155C50.1741 38.6475 50.7618 37.2298 51.8289 36.1626C53.9631 34.0284 57.683 34.0266 59.8172 36.1644C60.8834 37.2298 61.4711 38.6475 61.4711 40.155C61.4711 41.6624 60.8834 43.0811 59.8172 44.1483C58.7492 45.2153 57.3305 45.8039 55.8231 45.8039ZM55.8231 38.1433C55.2869 38.1433 54.7817 38.3528 54.4008 38.7346C54.0199 39.1145 53.8105 39.6188 53.8105 40.155C53.8105 40.6921 54.0199 41.1973 54.4008 41.5772C55.159 42.3354 56.4818 42.3372 57.2453 41.5772C57.6253 41.1973 57.8348 40.6921 57.8348 40.155C57.8348 39.6188 57.6253 39.1145 57.2453 38.7354C56.8635 38.3528 56.3593 38.1433 55.8231 38.1433Z" fill="#D9D9D9"/>
<path d="M78.2476 31.3341C77.2435 31.3341 76.4294 30.52 76.4294 29.5159C76.4294 22.0088 70.3215 15.9009 62.8135 15.9009C61.8094 15.9009 60.9954 15.0868 60.9954 14.0827C60.9954 13.0786 61.8094 12.2645 62.8135 12.2645C72.3261 12.2645 80.0658 20.0033 80.0658 29.5159C80.0658 30.52 79.2517 31.3341 78.2476 31.3341Z" fill="#1D1D1D"/>
</g>
<defs>
<clipPath id="clip0_8_433">
<rect width="90" height="89.9998" fill="white" transform="translate(0.5 0.0805664)"/>
</clipPath>
</defs>
</svg>
