<svg width="91" height="91" viewBox="0 0 91 91" fill="none" xmlns="http://www.w3.org/2000/svg">
<path d="M84.875 42.268C84.2888 42.2642 83.7185 42.0774 83.2437 41.7336L45.5 14.7899L7.75622 41.7336C7.15069 42.0923 6.43272 42.2108 5.74404 42.066C5.05535 41.9211 4.44601 41.5233 4.03629 40.9511C3.62657 40.3789 3.44626 39.6739 3.53094 38.9753C3.61563 38.2766 3.95916 37.6351 4.49372 37.1774L43.8687 9.0524C44.345 8.71325 44.9152 8.53101 45.5 8.53101C46.0847 8.53101 46.6549 8.71325 47.1312 9.0524L86.5062 37.1774C86.9864 37.525 87.3445 38.0155 87.5293 38.5788C87.7141 39.142 87.7162 39.7493 87.5353 40.3138C87.3544 40.8784 86.9997 41.3713 86.522 41.7223C86.0442 42.0732 85.4678 42.2642 84.875 42.268Z" fill="#BA9864"/>
<path d="M14.5625 25.3931C13.8166 25.3931 13.1012 25.0967 12.5738 24.5693C12.0463 24.0419 11.75 23.3265 11.75 22.5806V11.3306C11.75 10.5846 12.0463 9.86927 12.5738 9.34183C13.1012 8.81438 13.8166 8.51807 14.5625 8.51807H25.8125C26.5584 8.51807 27.2738 8.81438 27.8012 9.34183C28.3287 9.86927 28.625 10.5846 28.625 11.3306C28.625 12.0765 28.3287 12.7919 27.8012 13.3193C27.2738 13.8467 26.5584 14.1431 25.8125 14.1431H17.375V22.5806C17.375 23.3265 17.0787 24.0419 16.5512 24.5693C16.0238 25.0967 15.3084 25.3931 14.5625 25.3931Z" fill="#BA9864"/>
<path d="M70.8125 81.6431H56.75C56.0041 81.6431 55.2887 81.3467 54.7613 80.8193C54.2338 80.2919 53.9375 79.5765 53.9375 78.8306V59.1431H37.0625V78.8306C37.0625 79.5765 36.7662 80.2919 36.2387 80.8193C35.7113 81.3467 34.9959 81.6431 34.25 81.6431H20.1875C17.9497 81.6431 15.8036 80.7541 14.2213 79.1718C12.6389 77.5894 11.75 75.4433 11.75 73.2056V45.0806C11.75 44.3346 12.0463 43.6193 12.5738 43.0918C13.1012 42.5644 13.8166 42.2681 14.5625 42.2681C15.3084 42.2681 16.0238 42.5644 16.5512 43.0918C17.0787 43.6193 17.375 44.3346 17.375 45.0806V73.2056C17.375 73.9515 17.6713 74.6669 18.1988 75.1943C18.7262 75.7217 19.4416 76.0181 20.1875 76.0181H31.4375V56.3306C31.4375 55.5846 31.7338 54.8693 32.2613 54.3418C32.7887 53.8144 33.5041 53.5181 34.25 53.5181H56.75C57.4959 53.5181 58.2113 53.8144 58.7387 54.3418C59.2662 54.8693 59.5625 55.5846 59.5625 56.3306V76.0181H70.8125C71.5584 76.0181 72.2738 75.7217 72.8012 75.1943C73.3287 74.6669 73.625 73.9515 73.625 73.2056V45.0806C73.625 44.3346 73.9213 43.6193 74.4488 43.0918C74.9762 42.5644 75.6916 42.2681 76.4375 42.2681C77.1834 42.2681 77.8988 42.5644 78.4262 43.0918C78.9537 43.6193 79.25 44.3346 79.25 45.0806V73.2056C79.25 75.4433 78.361 77.5894 76.7787 79.1718C75.1964 80.7541 73.0503 81.6431 70.8125 81.6431Z" fill="#BA9864"/>
</svg>
