<svg width="91" height="93" viewBox="0 0 91 93" fill="none" xmlns="http://www.w3.org/2000/svg">
<rect width="91" height="93" fill="#1E1E1E"/>
<g id="Frame 2" clip-path="url(#clip0_0_1)">
<rect width="1920" height="4880" transform="translate(-395 -1730)" fill="#363232"/>
<g id="background">
</g>
<g id="SERVI&#195;&#135;OS">
<g id="JANITORIAL">
<rect x="-205" y="-87" width="500" height="530" rx="35" fill="url(#paint0_linear_0_1)"/>
<g id="Frame 13">
<g id="group-155svg">
<path id="path-1_62_" d="M63.7953 64.4252H74.9002C76.8569 64.4252 78.4429 65.6828 78.4429 67.2339C78.4429 68.785 76.8569 70.0422 74.9002 70.0422H74.4118H69.905C67.9483 70.0422 66.3624 71.2998 66.3624 72.8513C66.3624 74.4024 67.9483 75.66 69.905 75.66H80.6281C82.5844 75.66 84.1703 76.9177 84.1703 78.4692C84.1703 80.0203 82.5844 81.2775 80.6281 81.2775H68.4393L66.3951 81.1743C64.4383 81.1743 62.8524 82.4319 62.8524 83.983C62.8524 85.5345 64.4383 86.7921 66.3951 86.7921H77.1181C79.0744 86.7921 80.6604 88.0497 80.6604 89.6008C80.6604 91.1524 79.0744 92.41 77.1181 92.41L38.127 92.5128C36.1702 92.5128 34.5843 91.2551 34.5843 89.704C34.5843 88.1529 36.1702 86.8953 38.127 86.8953H48.85C50.8063 86.8953 52.3923 85.6377 52.3923 84.0862C52.3923 82.5351 50.8063 81.2775 48.85 81.2775H22.2035H10.0152C8.05844 81.2775 6.47251 80.0203 6.47251 78.4692C6.47251 76.9177 8.05844 75.66 10.0152 75.66H20.7378C22.6941 75.66 24.2804 74.4024 24.2804 72.8513C24.2804 71.2998 22.6941 70.0422 20.7378 70.0422H16.231H4.04265C2.08593 70.0422 0.5 68.785 0.5 67.2339C0.5 65.6828 2.08593 64.4252 4.04265 64.4252H26.8475H63.7953Z" fill="#D9D9D9"/>
<path id="path-2_62_" d="M61.4454 74.1148H28.6858L16.9858 18.6731H73.1457L61.4454 74.1148Z" fill="#BA9864"/>
<path id="path-4_62_" d="M45.0652 51.5946C27.386 51.5946 13.0022 37.3459 13.0022 19.8323C13.0022 19.2873 13.0166 18.7462 13.0447 18.2077L13.1194 16.7551H20.9323V19.8174H16.0934C16.0934 19.8225 16.0934 19.8272 16.0934 19.8323C16.0934 35.6572 29.09 48.5327 45.0652 48.5327C61.0405 48.5327 74.0371 35.6572 74.0371 19.8323C74.0371 19.8272 74.0371 19.8225 74.0371 19.8174H71.5368V16.7551H77.014L77.0867 18.2102C77.1138 18.7479 77.1283 19.2878 77.1283 19.8323C77.1283 37.3459 62.7445 51.5946 45.0652 51.5946Z" fill="#1D1D1D"/>
<path id="path-5_62_" d="M55.5466 51.8234H34.5842V44.6761H55.5466V51.8234Z" fill="#1D1D1D"/>
<path id="path-6_61_" d="M65.4751 11.79C63.5957 11.79 61.876 12.501 60.5423 13.6771C58.8591 10.1761 55.4082 7.76831 51.4133 7.76831C46.2435 7.76831 41.9814 11.7939 41.2942 17.0163C40.3147 15.0248 38.3563 13.6491 36.0726 13.6491C34.9216 13.6491 33.8555 14.0092 32.9483 14.6068C31.5412 12.885 29.4562 11.79 27.124 11.79C22.8878 11.79 19.4539 15.3905 19.4539 19.8314H73.1457C73.1457 15.3905 69.7113 11.79 65.4751 11.79Z" fill="#D9D9D9"/>
<path id="path-7_61_" d="M45.0661 17.566C45.033 17.566 44.9986 17.5638 44.9659 17.5592C44.5424 17.5048 44.2434 17.1204 44.2995 16.7021C44.8652 12.3992 48.4308 9.15552 52.5931 9.15552C55.7798 9.15552 58.6489 11.0069 60.0819 13.9876C60.2654 14.3699 60.1019 14.8265 59.7162 15.0078C59.3289 15.19 58.8693 15.0278 58.6862 14.646C57.5127 12.2038 55.1776 10.6867 52.5931 10.6867C49.2046 10.6867 46.2982 13.3573 45.8315 16.8996C45.7809 17.2848 45.4488 17.566 45.0661 17.566Z" fill="#EFEFEF"/>
<path id="path-8_60_" d="M21.6039 19.8344C21.214 19.8344 20.8797 19.5439 20.8364 19.1514C20.565 16.6562 22.1314 14.3495 24.4806 13.7871C24.8972 13.6878 25.3139 13.94 25.4137 14.3512C25.5139 14.7627 25.2591 15.176 24.8446 15.2758C23.2472 15.6581 22.1845 17.2538 22.3731 18.9875C22.4189 19.4076 22.1119 19.7843 21.688 19.8297C21.6591 19.8331 21.6311 19.8344 21.6039 19.8344Z" fill="#EFEFEF"/>
<path id="path-9_57_" d="M90.5001 18.2867C90.5001 21.0075 88.2737 23.2127 85.5279 23.2127C82.7816 23.2127 80.5552 21.0075 80.5552 18.2867C80.5552 15.5663 82.7816 13.3607 85.5279 13.3607C88.2737 13.3607 90.5001 15.5663 90.5001 18.2867Z" fill="#D9D9D9"/>
<path id="path-10_52_" d="M11.2833 11.8491C11.2833 13.8411 9.65275 15.4563 7.64167 15.4563C5.63101 15.4563 4.00049 13.8411 4.00049 11.8491C4.00049 9.85669 5.63101 8.24146 7.64167 8.24146C9.65275 8.24146 11.2833 9.85669 11.2833 11.8491Z" fill="#D9D9D9"/>
<path id="path-11_44_" d="M8.54948 10.933C8.54948 11.8802 7.77478 12.6481 6.81914 12.6481C5.86308 12.6481 5.08838 11.8802 5.08838 10.933C5.08838 9.98629 5.86308 9.21924 6.81914 9.21924C7.77478 9.21924 8.54948 9.98629 8.54948 10.933Z" fill="#FFF5F5"/>
<path id="path-12_37_" d="M88.9894 16.8005C88.9894 17.7476 88.2142 18.5147 87.2582 18.5147C86.3025 18.5147 85.5278 17.7476 85.5278 16.8005C85.5278 15.8538 86.3025 15.0863 87.2582 15.0863C88.2142 15.0863 88.9894 15.8538 88.9894 16.8005Z" fill="#FFF5F5"/>
<path id="path-13_31_" d="M29.0271 3.72067C29.0271 5.41745 27.6387 6.79271 25.9258 6.79271C24.2128 6.79271 22.824 5.41745 22.824 3.72067C22.824 2.02346 24.2128 0.648193 25.9258 0.648193C27.6387 0.648193 29.0271 2.02346 29.0271 3.72067Z" fill="#D9D9D9"/>
<path id="path-14_26_" d="M74.7541 5.34443C74.7541 6.22404 74.0338 6.93758 73.1457 6.93758C72.2567 6.93758 71.5364 6.22404 71.5364 5.34443C71.5364 4.46397 72.2567 3.75085 73.1457 3.75085C74.0338 3.75085 74.7541 4.46397 74.7541 5.34443Z" fill="#D9D9D9"/>
<path id="path-15_24_" opacity="0.35" d="M63.4904 64.4252L61.4454 74.1149H28.6858V76.1939L60.7922 77.291C62.0825 77.3352 63.2348 76.38 63.592 74.9703L67.9017 64.4252H63.4904Z" fill="#010101"/>
</g>
</g>
</g>
</g>
</g>
<defs>
<linearGradient id="paint0_linear_0_1" x1="45" y1="-87" x2="45" y2="443" gradientUnits="userSpaceOnUse">
<stop stop-color="#363232"/>
<stop offset="1" stop-color="#544E4E"/>
</linearGradient>
<clipPath id="clip0_0_1">
<rect width="1920" height="4880" fill="white" transform="translate(-395 -1730)"/>
</clipPath>
</defs>
</svg>
