<svg width="101" height="82" viewBox="0 0 101 82" fill="none" xmlns="http://www.w3.org/2000/svg">
<g clip-path="url(#clip0_8_296)">
<path d="M81.7231 51.8585C84.9269 51.8585 87.5241 49.2613 87.5241 46.0575C87.5241 42.8537 84.9269 40.2565 81.7231 40.2565C78.5193 40.2565 75.9221 42.8537 75.9221 46.0575C75.9221 49.2613 78.5193 51.8585 81.7231 51.8585Z" fill="#8D7652"/>
<path d="M87.183 49.1286C91.1407 49.1286 94.349 45.9203 94.349 41.9627C94.349 38.0051 91.1407 34.7968 87.183 34.7968C83.2254 34.7968 80.0171 38.0051 80.0171 41.9627C80.0171 45.9203 83.2254 49.1286 87.183 49.1286Z" fill="#8D7652"/>
<path d="M94.69 42.304C97.0457 42.304 98.9555 40.3943 98.9555 38.0385C98.9555 35.6828 97.0457 33.7731 94.69 33.7731C92.3343 33.7731 90.4246 35.6828 90.4246 38.0385C90.4246 40.3943 92.3343 42.304 94.69 42.304Z" fill="#8D7652"/>
<path d="M76.6046 37.6972C78.2065 37.6972 79.5051 36.3986 79.5051 34.7967C79.5051 33.1948 78.2065 31.8962 76.6046 31.8962C75.0027 31.8962 73.7041 33.1948 73.7041 34.7967C73.7041 36.3986 75.0027 37.6972 76.6046 37.6972Z" fill="#BA9864"/>
<path d="M78.3108 43.3277C80.7608 43.3277 82.7469 41.3416 82.7469 38.8916C82.7469 36.4417 80.7608 34.4556 78.3108 34.4556C75.8608 34.4556 73.8748 36.4417 73.8748 38.8916C73.8748 41.3416 75.8608 43.3277 78.3108 43.3277Z" fill="#BA9864"/>
<path d="M78.3109 51.3467C81.1378 51.3467 83.4295 49.055 83.4295 46.2282C83.4295 43.4013 81.1378 41.1096 78.3109 41.1096C75.484 41.1096 73.1924 43.4013 73.1924 46.2282C73.1924 49.055 75.484 51.3467 78.3109 51.3467Z" fill="#BA9864"/>
<path d="M87.3537 32.4081L85.8181 31.0431C86.33 29.3369 85.8181 27.4601 84.4532 26.0952C83.6001 25.2421 82.4057 24.7303 81.2114 24.5596C79.3346 24.389 77.4578 23.5359 76.0929 22.171L70.2919 16.8818L68.5857 19.953L73.0218 24.7303C74.5573 26.2658 75.4104 28.1426 75.581 30.3606C75.7516 31.555 76.2635 32.5787 77.1166 33.4318C78.6521 34.9673 80.6996 35.3086 82.5764 34.6261L83.7707 35.991L87.3537 32.4081Z" fill="#BA9864"/>
<path d="M70.4625 16.8818L68.5857 19.953L73.1924 24.5596L75.9223 21.8298L70.4625 16.8818Z" fill="#8D7652"/>
<path d="M86.1593 35.9911C89.0804 35.9911 91.4484 33.6231 91.4484 30.702C91.4484 27.7809 89.0804 25.4128 86.1593 25.4128C83.2382 25.4128 80.8701 27.7809 80.8701 30.702C80.8701 33.6231 83.2382 35.9911 86.1593 35.9911Z" fill="#BA9864"/>
<path d="M88.2066 32.0669C86.8417 32.5787 85.9886 33.6024 85.6473 34.7968C83.0881 33.2612 79.6757 33.7731 77.7989 36.3323C76.2634 38.3797 76.434 41.2802 77.9695 43.3276C80.1876 46.2281 84.2824 46.3988 86.8417 43.8395C87.0123 43.6689 87.1829 43.4983 87.3535 43.3276C88.2066 42.1333 89.4009 41.2802 90.7659 40.939C91.7896 40.7684 92.6427 40.4271 93.4958 39.5741C95.7138 37.356 95.2019 33.7731 92.472 32.0669C90.9365 31.555 89.4009 31.555 88.2066 32.0669Z" fill="#BA9864"/>
<path d="M94.8607 36.5029C97.6876 36.5029 99.9793 34.2113 99.9793 31.3844C99.9793 28.5575 97.6876 26.2659 94.8607 26.2659C92.0338 26.2659 89.7422 28.5575 89.7422 31.3844C89.7422 34.2113 92.0338 36.5029 94.8607 36.5029Z" fill="#BA9864"/>
<path d="M93.1545 23.1948C93.8141 23.1948 94.3489 22.6601 94.3489 22.0005C94.3489 21.3409 93.8141 20.8062 93.1545 20.8062C92.4949 20.8062 91.9602 21.3409 91.9602 22.0005C91.9602 22.6601 92.4949 23.1948 93.1545 23.1948Z" fill="#BA9864"/>
<path d="M89.0597 23.7066C89.3424 23.7066 89.5716 23.4774 89.5716 23.1947C89.5716 22.912 89.3424 22.6829 89.0597 22.6829C88.777 22.6829 88.5479 22.912 88.5479 23.1947C88.5479 23.4774 88.777 23.7066 89.0597 23.7066Z" fill="#BA9864"/>
<path d="M87.524 20.8062C88.4663 20.8062 89.2302 20.0423 89.2302 19.1C89.2302 18.1577 88.4663 17.3938 87.524 17.3938C86.5818 17.3938 85.8179 18.1577 85.8179 19.1C85.8179 20.0423 86.5818 20.8062 87.524 20.8062Z" fill="#BA9864"/>
<path d="M83.4294 23.1947C83.5236 23.1947 83.6 23.1184 83.6 23.0241C83.6 22.9299 83.5236 22.8535 83.4294 22.8535C83.3352 22.8535 83.2588 22.9299 83.2588 23.0241C83.2588 23.1184 83.3352 23.1947 83.4294 23.1947Z" fill="#BA9864"/>
<path d="M93.4957 17.9056C93.9668 17.9056 94.3488 17.5237 94.3488 17.0526C94.3488 16.5814 93.9668 16.1995 93.4957 16.1995C93.0245 16.1995 92.6426 16.5814 92.6426 17.0526C92.6426 17.5237 93.0245 17.9056 93.4957 17.9056Z" fill="#BA9864"/>
<path d="M80.5289 21.6592C80.8116 21.6592 81.0408 21.43 81.0408 21.1474C81.0408 20.8647 80.8116 20.6355 80.5289 20.6355C80.2463 20.6355 80.0171 20.8647 80.0171 21.1474C80.0171 21.43 80.2463 21.6592 80.5289 21.6592Z" fill="#BA9864"/>
<path d="M83.6 21.1473C83.7885 21.1473 83.9413 20.9945 83.9413 20.8061C83.9413 20.6176 83.7885 20.4648 83.6 20.4648C83.4116 20.4648 83.2588 20.6176 83.2588 20.8061C83.2588 20.9945 83.4116 21.1473 83.6 21.1473Z" fill="#BA9864"/>
<path d="M56.4716 15.517L55.1067 22.1711C55.1067 22.6829 55.1067 23.0242 55.4479 23.3654C55.9598 23.8772 56.9835 23.8772 57.4953 23.1948L62.102 16.1994" fill="#6D6D6D"/>
<path d="M24.7368 78.8161L47.9408 43.3276C49.1351 41.4508 48.9645 39.0622 47.2584 37.356L44.8697 34.9673C41.4573 31.555 41.4573 25.9246 44.8697 22.3416L47.429 19.7823L39.4099 11.7633L27.2961 23.8772L26.6136 24.5596L5.45699 45.8869C-0.514634 51.8585 -0.514634 61.5837 5.45699 67.5553L17.4002 79.4986C19.6183 81.7166 23.0306 81.3754 24.7368 78.8161Z" fill="#D9D9D9"/>
<path d="M42.8224 51.1761L32.9265 41.2802C31.9028 40.2565 30.1967 40.2565 29.0023 41.2802L15.0117 55.2709C13.988 56.2946 13.988 58.0008 15.0117 59.1951L28.6611 72.8445L42.8224 51.1761Z" fill="#BA9864"/>
<path d="M24.7368 78.8162L47.9408 43.3277C49.1352 41.4509 48.9645 39.0622 47.2584 37.3561L44.8697 34.9674" stroke="#D9D9D9" stroke-width="0.5" stroke-miterlimit="10" stroke-linecap="round"/>
<path d="M25.4193 56.4652L22.1776 53.2234C21.8363 52.8822 21.8363 52.3704 22.1776 52.0291C22.5188 51.6879 23.0306 51.6879 23.3719 52.0291L26.6136 55.1002C26.9549 55.4415 26.9549 55.9533 26.6136 56.2946C26.2724 56.8064 25.7605 56.8064 25.4193 56.4652Z" fill="#D9D9D9"/>
<path d="M23.2013 58.5127L19.9595 55.2709C19.6183 54.9297 19.6183 54.4178 19.9595 54.0766C20.3008 53.7354 20.8126 53.7354 21.1539 54.0766L24.3956 57.3183C24.7368 57.6596 24.7368 58.1714 24.3956 58.5127C24.225 58.8539 23.5425 58.8539 23.2013 58.5127Z" fill="#D9D9D9"/>
<path d="M18.9359 58.5127L17.9122 57.4889C17.5709 57.1477 17.5709 56.6359 17.9122 56.2946C18.2534 55.9534 18.7653 55.9534 19.1065 56.2946L20.1302 57.3183C20.4714 57.6596 20.4714 58.1714 20.1302 58.5127C19.789 58.8539 19.2771 58.8539 18.9359 58.5127Z" fill="#D9D9D9"/>
<path d="M46.0641 22.683L37.3626 13.9814C37.0214 13.6402 37.0214 12.9577 37.3626 12.6165L38.0451 11.934C38.3863 11.5928 39.0688 11.5928 39.41 11.934L48.1115 20.6355C48.4528 20.9768 48.4528 21.6592 48.1115 22.0005L47.2585 22.683C46.9172 23.0242 46.4054 23.0242 46.0641 22.683Z" fill="#6D6D6D"/>
<path d="M56.6423 5.10926L51.5238 2.37938C49.8176 1.52629 47.7702 1.86752 46.5759 3.40308L39.4099 12.1046L47.429 20.1236C48.9645 21.6592 51.5238 21.8298 53.23 20.2942L56.4717 17.5644C58.0073 16.1994 60.0547 16.0288 61.7608 17.2231L66.8794 20.4649C67.5618 20.9767 68.5856 20.8061 69.0974 20.2942L71.6567 17.735C71.9979 17.3937 71.9979 16.7113 71.6567 16.1994C67.2206 11.7634 62.1021 8.00976 56.6423 5.10926Z" fill="#AFAFAF"/>
<path d="M56.6423 5.10926L51.5238 2.37938C49.8176 1.52629 47.7702 1.86752 46.5759 3.40308L39.4099 12.1046" stroke="#D9D9D9" stroke-width="0.5" stroke-miterlimit="10" stroke-linecap="round"/>
<path d="M69.7798 49.2993C70.251 49.2993 70.6329 48.9174 70.6329 48.4462C70.6329 47.9751 70.251 47.5931 69.7798 47.5931C69.3087 47.5931 68.9268 47.9751 68.9268 48.4462C68.9268 48.9174 69.3087 49.2993 69.7798 49.2993Z" fill="#BA9864"/>
<path d="M67.0501 43.6689C68.0867 43.6689 68.9269 42.8286 68.9269 41.7921C68.9269 40.7556 68.0867 39.9153 67.0501 39.9153C66.0136 39.9153 65.1733 40.7556 65.1733 41.7921C65.1733 42.8286 66.0136 43.6689 67.0501 43.6689Z" fill="#BA9864"/>
<path d="M71.486 42.1333C71.6745 42.1333 71.8272 41.9805 71.8272 41.792C71.8272 41.6036 71.6745 41.4508 71.486 41.4508C71.2976 41.4508 71.1448 41.6036 71.1448 41.792C71.1448 41.9805 71.2976 42.1333 71.486 42.1333Z" fill="#BA9864"/>
<path d="M81.2113 57.8302L82.7469 55.2709C82.9175 54.9297 82.5762 54.5885 82.235 54.7591L79.6757 56.2947C78.8226 56.8065 77.7989 56.8065 76.9458 56.2947L74.3866 54.5885C74.0453 54.4179 73.7041 54.7591 73.8747 55.1003L75.4103 57.6596C75.9221 58.5127 75.9221 59.5364 75.4103 60.3895L73.8747 62.9487C73.7041 63.29 74.0453 63.6312 74.3866 63.4606L76.9458 61.925C77.7989 61.4132 78.8226 61.4132 79.6757 61.925L82.235 63.4606C82.5762 63.6312 82.9175 63.29 82.7469 62.9487L81.2113 60.5601C80.6994 59.707 80.6994 58.6833 81.2113 57.8302Z" fill="#BA9864"/>
<path d="M95.3726 55.7828L97.5907 55.2709C97.9319 55.2709 97.9319 54.759 97.5907 54.759L95.3726 54.2472C94.6902 54.0766 94.1783 53.5647 93.8371 52.7116L93.3252 50.4936C93.3252 50.1524 92.8134 50.1524 92.8134 50.4936L92.3015 52.7116C92.1309 53.3941 91.619 53.906 90.7659 54.2472L88.5479 54.759C88.2067 54.759 88.2067 55.2709 88.5479 55.2709L90.7659 55.7828C91.4484 55.9534 91.9603 56.4652 92.3015 57.3183L92.8134 59.5363C92.8134 59.8776 93.3252 59.8776 93.3252 59.5363L93.8371 57.3183C94.1783 56.4652 94.6902 55.9534 95.3726 55.7828Z" fill="#BA9864"/>
<path d="M62.2728 47.0813L62.1022 46.2282C62.1022 46.0576 61.9316 46.0576 61.9316 46.2282L61.761 47.0813C61.761 47.4225 61.4197 47.5931 61.2491 47.5931L60.396 47.7637C60.2254 47.7637 60.2254 47.9344 60.396 47.9344L61.2491 48.105C61.5904 48.105 61.761 48.4462 61.761 48.6168L61.9316 49.4699C61.9316 49.6405 62.1022 49.6405 62.1022 49.4699L62.2728 48.6168C62.2728 48.2756 62.6141 48.105 62.7847 48.105L63.6378 47.9344C63.8084 47.9344 63.8084 47.7637 63.6378 47.7637L62.7847 47.5931C62.6141 47.5931 62.2728 47.4225 62.2728 47.0813Z" fill="#BA9864"/>
<path d="M69.268 38.0385C69.4565 38.0385 69.6092 37.8858 69.6092 37.6973C69.6092 37.5089 69.4565 37.3561 69.268 37.3561C69.0795 37.3561 68.9268 37.5089 68.9268 37.6973C68.9268 37.8858 69.0795 38.0385 69.268 38.0385Z" fill="#BA9864"/>
<path d="M71.3156 35.9911C71.5983 35.9911 71.8274 35.7619 71.8274 35.4793C71.8274 35.1966 71.5983 34.9674 71.3156 34.9674C71.0329 34.9674 70.8037 35.1966 70.8037 35.4793C70.8037 35.7619 71.0329 35.9911 71.3156 35.9911Z" fill="#BA9864"/>
<path d="M70.8037 32.92C70.8979 32.92 70.9743 32.8436 70.9743 32.7494C70.9743 32.6551 70.8979 32.5787 70.8037 32.5787C70.7094 32.5787 70.6331 32.6551 70.6331 32.7494C70.6331 32.8436 70.7094 32.92 70.8037 32.92Z" fill="#BA9864"/>
</g>
<defs>
<clipPath id="clip0_8_296">
<rect width="100" height="80.4598" fill="white" transform="translate(0.5 0.850586)"/>
</clipPath>
</defs>
</svg>
