<svg width="101" height="101" viewBox="0 0 101 101" fill="none" xmlns="http://www.w3.org/2000/svg">
<g clip-path="url(#clip0_8_403)">
<path d="M98.3516 99.8853H63.8984C62.8197 99.8853 61.9453 99.0106 61.9453 97.9321V92.0728C61.9453 87.7649 65.3975 84.2603 69.6406 84.2603H76.0643C77.1428 84.2603 78.0174 85.1349 78.0174 86.2134C78.0174 87.2919 77.1428 88.1665 76.0643 88.1665H69.6406C67.5514 88.1665 65.8516 89.9188 65.8516 92.0728V95.979H96.3984V92.0728C96.3984 89.9188 94.6986 88.1665 92.6094 88.1665H86.1857C85.1072 88.1665 84.2326 87.2919 84.2326 86.2134C84.2326 85.1349 85.1072 84.2603 86.1857 84.2603H92.6094C96.8527 84.2603 100.305 87.7649 100.305 92.0728V97.9321C100.305 99.0106 99.4301 99.8853 98.3516 99.8853Z" fill="#1D1D1D"/>
<path d="M28.4883 84.2603C20.551 84.2603 14.0938 77.803 14.0938 69.8657V54.9634C14.0938 53.8849 14.9684 53.0103 16.0469 53.0103H40.9297C42.0084 53.0103 42.8828 53.8849 42.8828 54.9634V69.8657C42.8828 77.803 36.4256 84.2603 28.4883 84.2603ZM18 56.9165V69.8657C18 75.6489 22.7051 80.354 28.4883 80.354C34.2715 80.354 38.9766 75.6489 38.9766 69.8657V56.9165H18Z" fill="#1D1D1D"/>
<path d="M88.7812 78.4009H86.9062V39.3384C86.9062 38.2597 86.0318 37.3853 84.9531 37.3853H83.0301C82.0283 16.7499 65.2453 0.275879 44.758 0.275879H34.2307C29.9873 0.275879 26.5353 3.78057 26.5353 8.08838V8.34404C23.235 9.22392 20.793 12.2782 20.793 15.9009V17.3395C12.2584 20.6493 6.4375 29.1903 6.4375 38.6042V81.1829C3.05977 82.6981 0.695312 86.1325 0.695312 90.1196C0.695312 95.5044 5.00605 99.8852 10.3047 99.8852C14.1459 99.8852 17.4662 97.5821 19.0031 94.2642L42.8539 94.229C47.0916 94.2237 50.5393 90.7188 50.5393 86.4165V38.3618C50.5393 28.6226 44.4853 20.446 36.1836 17.3028V15.9009C36.1836 12.278 33.7418 9.22392 30.4414 8.34404V8.08838C30.4414 5.93447 32.1412 4.18213 34.2305 4.18213H44.7578C63.092 4.18213 78.1221 18.9052 79.1178 37.3853H77.2969C76.2184 37.3853 75.3438 38.2597 75.3438 39.3384V78.4009H73.4687C72.39 78.4009 71.5156 79.2755 71.5156 80.354C71.5156 85.7388 75.8264 90.1196 81.125 90.1196C86.4236 90.1196 90.7344 85.7388 90.7344 80.354C90.7344 79.2755 89.8598 78.4009 88.7812 78.4009ZM46.633 43.2446H10.3438C10.3561 38.7403 10.3148 38.461 10.385 37.3853H46.608C46.6514 38.2464 46.6254 38.4354 46.633 43.2446ZM10.3047 95.979C7.16016 95.979 4.60156 93.3505 4.60156 90.1196C4.60156 86.8888 7.16016 84.2602 10.3047 84.2602C13.4492 84.2602 16.0078 86.8888 16.0078 90.1196C16.0078 93.3505 13.4494 95.979 10.3047 95.979ZM42.8486 90.3227L19.9082 90.3565C20.0373 84.8515 15.6814 80.3769 10.3438 80.355V47.1509H46.633V86.4165C46.633 88.5679 44.9355 90.32 42.8486 90.3227ZM46.0008 33.479H11.0518C13.2879 25.4917 20.4031 19.7386 28.6352 19.8071C37.0326 19.8759 43.9504 25.7403 46.0008 33.479ZM32.2773 15.9009V16.2308C29.7975 15.795 27.2369 15.7819 24.6992 16.2403V15.9009C24.6992 13.747 26.3988 11.9946 28.4881 11.9946C30.5775 11.9946 32.2773 13.747 32.2773 15.9009ZM79.25 41.2915H83V78.4009H79.25V41.2915ZM81.125 86.2134C78.6465 86.2134 76.5322 84.5808 75.7477 82.3071C79.6336 82.3071 82.6133 82.3071 86.5023 82.3071C85.7178 84.5808 83.6035 86.2134 81.125 86.2134Z" fill="#BA9864"/>
<path d="M10.3047 92.0728C11.3834 92.0728 12.2578 91.1983 12.2578 90.1196C12.2578 89.0409 11.3834 88.1665 10.3047 88.1665C9.22601 88.1665 8.35156 89.0409 8.35156 90.1196C8.35156 91.1983 9.22601 92.0728 10.3047 92.0728Z" fill="#BA9864"/>
</g>
<defs>
<clipPath id="clip0_8_403">
<rect width="100" height="100" fill="white" transform="translate(0.5 0.0805664)"/>
</clipPath>
</defs>
</svg>
