<svg width="171" height="170" viewBox="0 0 171 170" fill="none" xmlns="http://www.w3.org/2000/svg">
<rect x="0.765625" width="170" height="170" rx="35" fill="#D9D9D9"/>
<path d="M151.123 80.7736C150.962 97.7381 146.601 111.01 137.53 122.543C127.79 134.931 115.107 142.798 99.5871 145.982C87.5996 148.417 75.9332 147.347 64.4808 143.2C61.9388 142.263 59.4504 141.166 57.0689 139.855C56.3465 139.454 55.731 139.4 54.9283 139.668C44.0914 143.173 33.2277 146.651 22.364 150.103C21.8824 150.264 21.2402 150.719 20.8656 150.371C20.4375 149.943 20.9726 149.3 21.1332 148.792C23.3006 142.343 25.468 135.868 27.6621 129.419C29 125.486 30.2844 121.579 31.6758 117.673C32.0504 116.656 31.9166 115.88 31.3547 114.943C28.5986 110.234 26.565 105.204 25.1201 99.9322C22.4176 90.0318 22.1232 80.0244 24.2371 70.017C26.5383 59.0998 31.3547 49.36 38.7666 40.958C47.7304 30.79 58.7814 24.0738 71.9195 20.8361C80.2947 18.7758 88.7502 18.4547 97.2592 19.8461C108.39 21.6656 118.425 26.0807 127.174 33.1982C136.272 40.6102 142.908 49.8148 147.082 60.8658C149.383 66.8328 151.203 76.5994 151.123 80.7736ZM37.1879 134.209C43.8238 132.068 50.1654 130.035 56.4535 127.974C57.283 127.707 57.9519 127.76 58.6744 128.242C61.0826 129.847 63.6781 131.132 66.3539 132.256C75.0502 135.948 84.0943 137.286 93.4328 136.082C104.885 134.61 114.946 130.008 123.402 122.007C134.051 111.92 139.751 99.5576 140.259 84.9479C140.741 70.6324 136.138 58.0563 126.532 47.3799C117.408 37.2387 105.955 31.459 92.4427 30.0141C80.6961 28.7565 69.6986 31.2984 59.5306 37.3992C50.8344 42.6438 44.1717 49.7881 39.5426 58.8055C34.4318 68.7326 32.6926 79.2752 34.1642 90.3262C35.2613 98.6746 38.2582 106.354 43.0746 113.258C43.6097 114.034 43.7703 114.676 43.4492 115.586C42.4592 118.315 41.5762 121.071 40.6396 123.8C39.5158 127.172 38.4187 130.543 37.1879 134.209Z" fill="#363232"/>
<path d="M54.9551 68.1707C55.0889 61.8024 57.3366 57.0662 61.5911 53.2934C62.9557 52.0625 64.6414 51.5274 66.5413 51.7949C67.344 51.902 68.1467 51.9822 68.9495 51.9287C70.4479 51.8485 71.4647 52.5709 71.9731 53.882C73.7659 58.5379 75.5051 63.1938 77.2444 67.8764C77.833 69.4819 76.8163 70.7395 75.96 71.8901C74.97 73.2547 73.7659 74.4588 72.5885 75.6629C71.3844 76.8938 71.2239 77.5895 72.0534 79.0879C76.8965 87.8912 83.693 94.6609 92.9244 98.8352C93.2455 98.969 93.5666 99.1563 93.8877 99.3168C95.1186 99.8787 96.2157 99.7449 97.1522 98.6746C98.8647 96.6678 100.738 94.8215 102.316 92.7076C103.36 91.3162 104.082 91.0754 105.661 91.7711C110.371 93.8047 114.786 96.3734 119.281 98.8619C120.11 99.3168 120.405 100.013 120.378 100.976C120.137 108.869 115.615 112.99 107.668 114.81C103.815 115.693 100.256 114.729 96.7241 113.445C89.3121 110.769 82.1678 107.612 76.1741 102.314C71.4112 98.0859 67.2102 93.3766 63.6514 88.1053C60.9221 84.0381 58.0858 80.0512 56.5071 75.3151C55.5973 72.7998 54.9284 70.2311 54.9551 68.1707Z" fill="#363232"/>
</svg>
