<svg width="1117" height="959" viewBox="0 0 1117 959" fill="none" xmlns="http://www.w3.org/2000/svg">
<path fill-rule="evenodd" clip-rule="evenodd" d="M2.25281 468.536C-14.5643 399.005 86.2692 351.573 127.016 290.825C165.246 233.829 183.337 169.156 236.161 119.817C365.784 -1.25786 572.141 -15.1401 693.902 13.4769C814.803 41.8917 940.499 185.671 1019.55 295.597C1065.2 359.088 1117.59 426.195 1116.81 501.437C1114.11 765.523 901.22 677.204 776.409 762.757C709.028 808.942 730.933 938.346 648.322 956.391C567.811 973.979 519.149 863.165 441.76 835.859C375.895 812.62 283.511 855.875 234.258 810.294C183.198 763.04 244.203 673.9 206.084 617.751C159.954 549.799 21.0145 546.111 2.25281 468.536Z" fill="#363232" fill-opacity="0.84"/>
</svg>
