<svg width="737" height="516" viewBox="0 0 737 516" fill="none" xmlns="http://www.w3.org/2000/svg">
<g clip-path="url(#clip0_8_60)">
<rect width="737" height="516" rx="47" fill="#363232"/>
<path d="M96.3691 414V399.5C108.702 399.5 117.536 398.833 122.869 397.5C128.202 396.167 131.536 393.333 132.869 389C134.202 384.667 134.869 378.167 134.869 369.5V128.5C134.869 119.833 134.202 113.5 132.869 109.5C131.536 105.167 128.202 102.333 122.869 101C117.536 99.3333 108.702 98.5 96.3691 98.5V84H219.869V98.5C207.536 98.5 198.536 99.3333 192.869 101C187.536 102.333 184.202 105.167 182.869 109.5C181.536 113.5 180.869 119.833 180.869 128.5V357C180.869 369 182.369 377.833 185.369 383.5C188.702 389.167 194.702 392.833 203.369 394.5C212.036 396.167 224.536 397 240.869 397C259.869 397 274.869 395.333 285.869 392C296.869 388.333 305.369 381.5 311.369 371.5C317.369 361.5 322.369 347.167 326.369 328.5H339.869L334.369 414H96.3691ZM522.447 420C488.781 420 460.114 413.167 436.447 399.5C413.114 385.833 395.447 366.5 383.447 341.5C371.447 316.5 365.447 287 365.447 253C365.447 216.667 371.781 185.5 384.447 159.5C397.114 133.167 415.447 113 439.447 99C463.447 85 492.447 78 526.447 78C542.447 78 555.614 79.5 565.947 82.5C576.281 85.5 584.614 88.6666 590.947 92C597.614 95 603.114 96.5 607.447 96.5C611.114 96.5 613.781 95.8333 615.447 94.5C617.447 92.8333 618.781 91.1666 619.447 89.5L621.447 84H634.447L639.447 174H626.447C624.447 165.667 621.281 157 616.947 148C612.947 138.667 607.281 130 599.947 122C592.614 114 583.114 107.5 571.447 102.5C560.114 97.5 546.114 95 529.447 95C511.447 95 496.114 98.3333 483.447 105C470.781 111.667 460.281 120.667 451.947 132C443.614 143 436.947 155.333 431.947 169C427.281 182.333 423.947 196 421.947 210C419.947 223.667 418.947 236.5 418.947 248.5C418.947 267.5 420.947 286.167 424.947 304.5C428.947 322.833 435.281 339.5 443.947 354.5C452.947 369.167 464.447 381 478.447 390C492.781 398.667 509.947 403 529.947 403C546.281 403 559.947 400.833 570.947 396.5C582.281 392.167 591.614 386.5 598.947 379.5C606.281 372.5 612.281 365 616.947 357C621.614 348.667 625.614 340.833 628.947 333.5L641.947 340C638.947 347.667 634.781 356.167 629.447 365.5C624.114 374.5 616.947 383.167 607.947 391.5C598.947 399.833 587.447 406.667 573.447 412C559.781 417.333 542.781 420 522.447 420Z" fill="#1D1D1D"/>
<path d="M481 243.379L531 295.597L581 243.379L557.333 221H504.667L481 243.379Z" fill="#1D1D1D"/>
<path d="M247.659 218.307C243.187 218.198 238.729 217.699 234.329 216.815C229.924 215.932 225.806 213.81 222.382 210.659C219.14 207.58 216.741 203.582 215.451 199.106C214.078 194.64 213.521 189.922 213.814 185.222C214.198 180.863 215.36 176.629 217.235 172.758C219.115 168.884 221.487 165.32 224.281 162.17C227.1 158.989 230.243 156.171 233.65 153.772C237.003 151.391 240.567 149.385 244.288 147.785C247.522 146.471 250.901 145.633 254.337 145.292C258.287 144.867 262.271 145.556 265.908 147.294C266.41 147.835 266.8 148.487 267.053 149.206C267.296 149.834 267.375 150.524 267.282 151.198C267.189 151.789 266.897 152.321 266.464 152.69C265.853 153.117 265.113 153.268 264.402 153.11C263.441 153.094 262.509 152.743 261.742 152.11C260.925 151.473 260.026 150.97 259.075 150.618C257.977 150.175 256.816 149.948 255.646 149.947C254.499 149.947 253.354 150.061 252.226 150.287C248.374 150.831 244.695 152.361 241.489 154.754C238.177 157.216 235.29 160.298 232.963 163.859C230.583 167.445 228.756 171.432 227.554 175.662C226.364 179.665 225.899 183.883 226.187 188.081C226.463 192.167 227.636 196.12 229.608 199.606C231.572 203.084 234.25 206.014 237.431 208.166C238.793 209.306 240.308 210.21 241.923 210.846C243.561 211.503 245.279 211.894 247.021 212.008C249.154 212.008 250.753 211.397 251.816 210.176C253.022 208.764 254.072 207.202 254.942 205.521C259.438 196.124 264.472 187.046 270.016 178.342C275.546 169.693 281.995 161.79 289.229 154.799C292.501 151.548 295.985 148.562 299.655 145.864C303.393 143.135 307.404 140.878 311.61 139.136C313.132 138.583 314.831 138.055 316.708 137.555C318.604 137.052 320.543 136.774 322.493 136.724C324.417 136.664 326.341 136.859 328.221 137.305C330.037 137.737 331.725 138.659 333.131 139.985C335.003 141.851 336.124 144.449 336.249 147.213C336.384 150.176 335.998 153.139 335.112 155.943C334.198 158.929 332.997 161.802 331.527 164.511C330.279 166.839 328.916 169.09 327.444 171.257C321.57 179.885 314.693 187.643 306.987 194.335C299.25 201.167 290.597 206.66 281.333 210.623C279.226 211.538 277.063 212.291 274.86 212.875C272.638 213.442 270.608 214.681 269.001 216.448C266.281 219.425 263.964 222.809 262.119 226.5C260.188 230.324 258.259 234.231 256.333 238.222C254.431 242.167 252.297 245.972 249.943 249.614C247.607 253.213 244.659 256.289 241.26 258.674C243.59 259.674 245.873 260.616 248.11 261.497C250.346 262.379 252.632 263.272 254.967 264.178C257.395 265.178 259.806 266.119 262.201 267.001C264.654 267.91 267.176 268.58 269.737 269.002C271.607 269.227 273.49 269.281 275.367 269.163C277.218 269.084 278.989 268.322 280.392 267.001C281.027 266.418 281.591 265.748 282.069 265.008C282.307 264.603 282.655 264.289 283.064 264.109C283.473 263.93 283.924 263.894 284.352 264.008C285.171 264.231 285.572 264.651 285.572 265.259C285.565 265.901 285.347 266.519 284.958 267.001C284.391 268.605 283.508 270.054 282.372 271.245C281.226 272.43 279.917 273.413 278.493 274.158C277.02 274.934 275.49 275.574 273.919 276.07C272.348 276.561 270.899 276.963 269.582 277.312C267.232 277.868 264.822 278.064 262.422 277.892C259.947 277.721 257.486 277.359 255.057 276.811C252.571 276.258 250.113 275.566 247.692 274.738C245.254 273.91 242.968 273.106 240.835 272.326C239.009 271.724 237.267 270.856 235.655 269.744C234.056 268.626 232.223 267.971 230.328 267.841C229.266 267.828 228.218 268.111 227.284 268.663C226.367 269.226 225.402 269.78 224.387 270.334C222.147 271.492 219.802 272.391 217.39 273.014C215.257 273.687 213.048 274.324 210.762 274.926C208.482 275.539 206.166 275.984 203.831 276.257C201.481 276.533 199.115 276.617 196.753 276.507C194.398 276.405 192.067 275.957 189.822 275.176C188.1 274.527 186.452 273.664 184.912 272.603C183.281 271.519 181.841 270.128 180.657 268.493C179.579 267.05 178.941 265.276 178.832 263.418C178.726 261.631 179.544 259.737 181.287 257.852C184.254 254.654 188.001 252.455 192.08 251.517C196.076 250.49 200.154 249.892 204.257 249.73C206.961 249.628 209.666 249.853 212.325 250.4C215.054 250.948 217.751 251.67 220.402 252.562C221.428 252.83 222.424 253.219 223.372 253.724C224.333 254.26 225.429 254.436 226.49 254.224C227.003 254.152 227.492 253.949 227.919 253.63C228.346 253.312 228.697 252.888 228.945 252.393C229.452 251.392 229.96 250.454 230.467 249.569C233.74 244.363 236.76 239.265 239.526 234.273C242.291 229.282 245.003 223.959 247.659 218.307ZM219.019 261.533C215.651 259.823 212.166 258.407 208.594 257.298C204.961 256.147 201.147 255.843 197.399 256.404C196.27 256.656 195.155 256.981 194.061 257.378C192.916 257.791 191.837 258.393 190.861 259.165C189.947 259.877 189.236 260.856 188.807 261.989C188.58 262.612 188.47 263.278 188.483 263.949C188.495 264.619 188.631 265.28 188.881 265.893C189.223 267.034 189.925 268.006 190.861 268.636C191.817 269.269 192.875 269.693 193.979 269.887C195.135 270.108 196.307 270.218 197.481 270.217C198.651 270.217 199.789 270.164 200.91 270.048C204.283 269.736 207.594 268.868 210.729 267.474C213.816 266.087 216.632 264.071 219.027 261.533H219.019ZM273.993 207.174C276.627 206.066 279.216 204.902 281.758 203.681C284.271 202.474 286.627 200.909 288.763 199.026C291.375 197.164 293.866 195.107 296.218 192.87L303.222 186.222C307.097 182.324 310.712 178.129 314.04 173.669C317.458 169.084 320.472 164.157 323.042 158.954C324.088 157.02 325.031 155.021 325.865 152.967C326.801 150.85 327.087 148.46 326.683 146.15C326.447 144.935 325.794 143.864 324.858 143.157C323.976 142.51 322.949 142.136 321.888 142.076C320.759 142.032 319.631 142.173 318.541 142.496C317.472 142.792 316.427 143.18 315.415 143.657C313.2 144.864 311.151 146.404 309.327 148.232C307.446 150.119 305.713 152.175 304.147 154.379C302.51 156.657 300.972 158.98 299.507 161.366C298.042 163.752 296.635 165.994 295.318 168.103C291.455 174.524 287.825 180.978 284.426 187.464C281.027 193.951 277.552 200.521 274.001 207.174H273.993Z" fill="url(#paint0_linear_8_60)"/>
<path d="M327.289 255.386C324.561 258.71 321.746 262.146 318.844 265.697C316.071 269.131 312.804 272.05 309.171 274.336C307.776 275.213 306.294 275.912 304.752 276.418C303.299 276.907 301.777 277.103 300.26 276.999C298.813 276.89 297.41 276.406 296.168 275.587C294.779 274.601 293.692 273.182 293.051 271.513C292.334 269.734 291.996 267.8 292.061 265.857C292.114 263.838 292.369 261.83 292.822 259.871C293.278 257.869 293.914 255.921 294.72 254.055C295.538 252.166 296.357 250.38 297.175 248.694C299.51 244.477 301.869 240.179 304.253 235.801C306.637 231.423 308.997 227.075 311.332 222.756C312.248 221.095 313.088 219.403 313.852 217.682C314.613 215.966 315.341 214.108 316.053 212.115C316.16 211.668 316.258 211.088 316.364 210.328C316.471 209.569 316.561 208.89 316.667 208.166C316.764 207.462 316.917 206.768 317.125 206.093C317.279 205.503 317.597 204.979 318.034 204.592C318.339 204.592 319.051 204.565 320.169 204.512L324.048 204.342C325.521 204.288 326.994 204.262 328.467 204.262H332.043C332.24 204.365 332.405 204.532 332.514 204.739C332.624 204.946 332.673 205.185 332.657 205.423V206.844C332.738 208.982 332.4 211.114 331.667 213.098C330.98 215.085 330.14 217.004 329.154 218.834C327.016 223.486 324.73 227.974 322.297 232.299C320.066 236.742 317.731 241.067 315.292 245.272C312.854 249.477 310.47 253.745 308.14 258.075C307.403 259.603 306.766 261.185 306.234 262.811C305.568 264.746 305.797 266.325 306.921 267.546C307.239 267.911 307.635 268.183 308.074 268.339C308.512 268.495 308.979 268.53 309.433 268.439C310.444 268.254 311.419 267.888 312.322 267.358C313.265 266.821 314.137 266.148 314.916 265.357C315.677 264.589 316.307 263.919 316.814 263.365C320.11 260.079 323.063 256.405 325.619 252.411C328.254 248.307 330.791 244.316 333.229 240.438C335.864 236.227 338.319 231.906 340.594 227.474C342.86 223.072 344.868 218.518 346.609 213.84C347.164 212.144 347.798 210.48 348.507 208.854C349.073 207.484 349.709 206.151 350.414 204.86C352.05 204.753 354.104 204.586 356.576 204.36C359.031 204.145 361.175 204.029 362.901 204.029H365.945C365.84 204.814 365.687 205.59 365.487 206.352C365.265 207.089 365.087 207.842 364.955 208.604C364.834 209.332 364.601 210.033 364.268 210.677C362.429 215.136 360.293 219.443 357.877 223.561C355.438 227.73 353.052 231.9 350.717 236.069C348.382 240.239 346.2 244.48 344.17 248.792C342.133 253.126 340.549 257.697 339.449 262.418C339.146 265.196 339.629 266.769 340.897 267.162C342.165 267.555 343.663 266.965 345.389 265.375C349.983 261.135 354.12 256.339 357.721 251.079C361.382 245.76 364.832 240.328 368.073 234.783C368.337 234.521 368.655 234.333 368.999 234.232C369.343 234.131 369.705 234.12 370.053 234.202C370.765 234.372 371.019 235.095 370.814 236.284C367.361 242.377 363.632 248.28 359.628 253.992C355.569 259.758 351.113 265.176 346.298 270.2C344.132 272.146 341.754 273.793 339.219 275.105C336.828 276.367 334.109 276.683 331.527 275.998C330.614 275.827 329.743 275.45 328.969 274.892C328.196 274.333 327.537 273.606 327.035 272.755C326.157 271.084 325.686 269.195 325.668 267.269C325.623 265.148 325.801 263.029 326.2 260.952C326.626 258.79 326.986 256.941 327.289 255.386Z" fill="url(#paint1_linear_8_60)"/>
<path d="M410.911 157.292C411.028 156.359 411.285 155.453 411.672 154.611C411.937 154.269 412.262 153.989 412.63 153.789C412.997 153.589 413.398 153.474 413.808 153.45C415.7 153.195 417.579 152.834 419.438 152.369C421.282 151.883 423.189 151.744 425.076 151.958C426.713 152.181 427.588 152.949 427.735 154.281C427.866 155.83 427.685 157.391 427.204 158.855C426.686 160.593 425.997 162.265 425.15 163.841C424.282 165.449 423.652 166.646 423.243 167.415C418.977 175.39 414.713 183.262 410.453 191.029C406.192 198.796 401.828 206.608 397.36 214.465C399.084 213.023 400.887 211.501 402.769 209.899C404.597 208.327 406.531 206.909 408.554 205.655C410.508 204.441 412.61 203.539 414.798 202.975C417.023 202.42 419.328 202.365 421.574 202.814C423.16 203.03 424.66 203.719 425.911 204.806C426.945 205.759 427.732 206.991 428.194 208.38C428.658 209.813 428.863 211.33 428.799 212.848C428.741 214.502 428.514 216.145 428.12 217.744C427.097 221.952 425.438 225.944 423.21 229.555C420.974 233.213 418.791 236.813 416.664 240.358C415.747 242.019 414.733 243.681 413.62 245.343C412.499 247.005 411.41 248.729 410.346 250.498C409.283 252.267 408.293 254.072 407.376 255.859C406.491 257.557 405.777 259.354 405.248 261.22C404.539 263.656 404.812 265.181 406.067 265.795C407.321 266.408 408.819 266.215 410.559 265.214C416.05 261.101 421.038 256.24 425.403 250.749C429.796 245.248 433.894 239.476 437.678 233.46C438.496 232.352 439.314 231.852 440.19 231.959C441.066 232.066 441.229 232.96 440.722 234.639C437.994 238.737 435.228 242.907 432.424 247.148C429.677 251.306 426.73 255.303 423.595 259.12C420.494 262.857 417.068 266.256 413.366 269.27C409.562 272.39 405.335 274.841 400.838 276.534C399.657 276.753 398.459 276.837 397.262 276.784C396.077 276.732 394.912 276.429 393.833 275.891C393.012 275.494 392.272 274.921 391.658 274.205C391.044 273.49 390.567 272.647 390.257 271.727C389.692 269.912 389.534 267.976 389.799 266.081C390.071 264.005 390.556 261.97 391.247 260.014C391.849 258.216 392.559 256.464 393.375 254.769C395.306 250.558 397.387 246.514 399.619 242.636C401.85 238.758 404.133 234.887 406.468 231.021C406.975 230.139 407.793 228.784 408.923 226.956C410.066 225.081 411.11 223.136 412.049 221.13C412.947 219.279 413.587 217.291 413.947 215.233C414.252 213.345 413.898 211.904 412.883 210.909C412.065 210.239 410.878 210.274 409.307 210.989C407.595 211.8 405.952 212.775 404.397 213.902C402.717 215.079 401.114 216.383 399.602 217.806C398.494 218.809 397.45 219.893 396.476 221.05C393.33 224.929 390.432 229.04 387.802 233.353C385.156 237.677 382.617 242.082 380.184 246.567C377.751 251.052 375.339 255.57 372.95 260.121C370.571 264.672 368.059 269.106 365.413 273.425C364.096 275.525 362.697 276.579 361.232 276.579H355.667C354.885 276.47 354.093 276.47 353.311 276.579C352.51 276.712 351.69 276.598 350.946 276.248C350.133 275.801 349.879 274.997 350.185 273.836C350.555 272.514 351.04 271.233 351.633 270.012C352.281 268.653 353.019 267.348 353.843 266.107C354.661 264.883 355.209 263.999 355.52 263.427C363.638 248.464 371.758 233.445 379.881 218.369C388.004 203.293 395.852 188.134 403.424 172.892C404.847 170.342 406.32 167.823 407.842 165.333C409.348 162.904 410.392 160.169 410.911 157.292Z" fill="url(#paint2_linear_8_60)"/>
<path d="M484.739 161.276C484.094 164.338 482.79 167.186 480.933 169.586C478.585 172.236 475.921 174.529 473.012 176.403C471.67 177.466 470.178 178.281 468.593 178.815C467.479 179.297 466.254 179.384 465.091 179.065C464.847 178.968 464.59 178.91 464.33 178.896C464.077 178.501 463.919 178.043 463.872 177.564C463.95 177.26 464.123 176.996 464.36 176.815C464.597 176.634 464.885 176.548 465.173 176.573C465.978 176.541 466.773 176.372 467.53 176.072C468.244 175.745 469.36 175.149 470.877 174.285C472.172 173.657 473.205 172.522 473.773 171.105C473.9 170.668 473.911 170.201 473.804 169.758C473.696 169.315 473.476 168.914 473.168 168.603C471.917 167.466 470.837 166.121 469.968 164.618C469.508 163.83 469.214 162.94 469.108 162.013C469.002 161.086 469.086 160.145 469.354 159.257C470.009 156.758 471.506 154.623 473.544 153.28C474.463 152.543 475.521 152.04 476.642 151.81C477.762 151.58 478.916 151.627 480.017 151.949C480.854 152.193 481.637 152.621 482.318 153.206C482.998 153.792 483.563 154.522 483.978 155.353C484.477 156.227 484.804 157.206 484.935 158.226C485.066 159.247 484.999 160.286 484.739 161.276Z" fill="url(#paint3_linear_8_60)"/>
<path d="M519.746 181.567C521.775 186.88 523.78 192.45 525.76 198.275C527.708 203.949 529.166 209.808 530.114 215.778C531.022 221.601 531.201 227.531 530.645 233.406C530.051 239.416 528.258 245.211 525.392 250.382C523.713 253.969 521.47 257.205 518.764 259.942C516.049 262.683 513.119 265.159 510.008 267.34C506.724 269.636 503.26 271.61 499.656 273.237C495.872 274.971 491.946 276.308 487.93 277.231C483.93 278.166 479.843 278.583 475.754 278.473C471.804 278.387 467.894 277.603 464.175 276.15C461.063 274.891 458.132 273.155 455.468 270.995C452.76 268.838 450.462 266.129 448.701 263.016C446.853 259.588 445.622 255.807 445.075 251.874C444.515 247.972 444.334 244.016 444.535 240.072C444.645 236.271 445.296 232.512 446.467 228.93C447.658 225.267 449.211 221.755 451.098 218.459C453.008 215.138 455.2 212.021 457.645 209.149C460.009 206.343 462.558 203.73 465.271 201.331C467.755 199.211 470.464 197.426 473.34 196.015C476.505 194.382 479.862 193.234 483.315 192.602C486.579 191.99 489.924 192.133 493.134 193.022C496.334 193.951 499.069 196.221 500.745 199.338C501.744 201.098 502.458 203.032 502.856 205.057C503.26 207.132 503.439 209.252 503.388 211.373C503.34 213.524 503.11 215.666 502.7 217.771C502.332 219.753 501.823 221.7 501.178 223.596C500.5 226.118 499.362 228.465 497.831 230.494C496.441 232.168 494.913 233.7 493.265 235.068C492.553 235.622 492.12 235.756 491.964 235.479C491.793 235.062 491.742 234.598 491.817 234.148C491.885 233.464 492.039 232.794 492.275 232.156C492.447 231.603 492.675 231.072 492.954 230.574C493.638 229.418 494.082 228.113 494.256 226.75C494.381 225.335 494.655 223.941 495.074 222.595C495.783 219.349 495.678 215.954 494.771 212.767C494.013 209.639 492.614 206.74 490.68 204.288C488.535 201.629 485.594 199.89 482.382 199.383C479.187 198.882 475.927 199.433 473.021 200.965C470.017 202.682 467.392 205.094 465.328 208.032C463.247 210.903 461.435 213.995 459.919 217.261C458.282 220.522 457.077 224.021 456.343 227.652C455.586 231.332 455.311 235.11 455.525 238.874C455.729 242.563 456.317 246.214 457.276 249.757C458.191 253.257 459.569 256.592 461.368 259.657C463.139 262.643 465.383 265.26 467.996 267.385C470.792 269.62 474.019 271.127 477.431 271.79C480.854 272.575 484.379 272.669 487.832 272.067C491.307 271.54 494.678 270.387 497.807 268.654C501.028 266.798 503.855 264.223 506.105 261.095C508.343 258.01 510.305 254.698 511.964 251.204C513.675 247.818 514.835 244.133 515.392 240.313C515.949 236.52 516.078 232.668 515.777 228.841C515.457 224.968 514.74 221.147 513.641 217.449C512.563 213.779 511.194 210.218 509.55 206.808C507.091 201.443 505.292 195.747 504.198 189.868C503.091 184.075 502.861 178.123 503.519 172.248C504.157 166.516 505.826 160.978 508.429 155.952C511.25 150.653 515.227 146.2 520.008 142.987C522.686 140.796 525.667 139.084 528.837 137.912C532.089 136.659 535.511 136.013 538.959 136C542.27 135.98 545.545 136.745 548.558 138.243C551.642 139.836 554.254 142.344 556.095 145.48C558.037 148.76 559.139 152.549 559.286 156.452C559.515 160.509 559.018 164.575 557.821 168.424C556.63 172.262 554.74 175.796 552.265 178.815C549.903 181.783 546.814 183.953 543.362 185.07C542.215 185.532 541 185.756 539.778 185.731C539.123 185.624 538.788 185.347 538.788 184.9C538.833 184.342 539.049 183.816 539.401 183.408C539.779 182.877 540.242 182.426 540.768 182.077C542.14 180.904 543.303 179.466 544.197 177.833C545.162 176.117 546.046 174.536 546.864 173.097C548.52 169.723 549.383 165.953 549.376 162.125C549.463 158.244 548.788 154.387 547.396 150.814C546.136 147.528 543.982 144.743 541.226 142.835C538.498 140.947 535.149 140.56 531.177 141.674C527.98 143.315 525.207 145.799 523.109 148.902C521.086 151.933 519.588 155.343 518.69 158.963C517.771 162.671 517.411 166.519 517.626 170.354C517.812 174.187 518.527 177.967 519.746 181.567Z" fill="url(#paint4_linear_8_60)"/>
<path d="M150.084 302.251C149.561 302.882 149.109 303.578 148.74 304.325C148.363 305.077 148.081 305.881 147.903 306.715C147.737 307.529 147.696 308.367 147.782 309.196C147.873 310.053 148.183 310.865 148.677 311.542C149.088 312.248 149.652 312.834 150.32 313.251C150.988 313.667 151.74 313.901 152.511 313.931C154.036 314.032 155.558 313.698 156.926 312.962C158.425 312.179 159.78 311.108 160.925 309.802C162.105 308.466 163.114 306.965 163.925 305.338C164.76 303.681 165.418 301.927 165.887 300.109C166.346 298.361 166.61 296.56 166.675 294.744C166.723 293.102 166.513 291.463 166.052 289.898C165.597 288.303 164.677 286.91 163.428 285.929C162.723 285.338 161.914 284.909 161.05 284.669C160.172 284.423 159.271 284.287 158.364 284.262C157.444 284.232 156.524 284.292 155.614 284.441C154.73 284.585 153.854 284.781 152.99 285.028C149.581 285.89 146.389 287.552 143.64 289.898C140.875 292.255 138.422 295.011 136.349 298.088C134.009 301.528 131.946 305.18 130.183 309.002C128.407 312.84 126.984 316.858 125.933 320.997C125.542 322.499 125.209 324.077 124.935 325.732C124.655 327.381 124.515 329.056 124.518 330.733C124.512 332.385 124.662 334.033 124.966 335.652C125.266 337.23 125.816 338.74 126.591 340.115C127.446 341.705 128.685 343.014 130.174 343.9C131.629 344.754 133.217 345.309 134.858 345.538C136.561 345.781 138.287 345.75 139.981 345.446C141.663 345.167 143.322 344.746 144.943 344.186C149.072 342.611 152.899 340.228 156.232 337.154C159.601 334.102 162.347 330.325 164.293 326.061C164.4 325.882 164.57 325.577 164.79 325.203C164.996 324.843 165.249 324.516 165.542 324.234C165.768 323.992 166.06 323.834 166.375 323.783C166.653 323.754 166.872 323.953 167.042 324.37C167.154 324.719 167.168 325.097 167.082 325.455C166.997 325.872 166.885 326.308 166.751 326.759C166.615 327.194 166.447 327.617 166.25 328.024C166.091 328.361 165.91 328.685 165.708 328.993C163.031 333.337 160.05 337.453 156.792 341.303C153.52 345.172 149.693 348.445 145.458 350.995C143.916 351.917 142.315 352.716 140.666 353.385C138.993 354.068 137.264 354.581 135.503 354.916C133.769 355.246 132.005 355.337 130.25 355.187C128.482 355.033 126.751 354.559 125.127 353.787C123.495 353.033 122.021 351.93 120.792 350.545C119.577 349.17 118.541 347.623 117.711 345.946C116.873 344.247 116.229 342.443 115.795 340.576C115.347 338.727 115.086 336.83 115.016 334.92C114.907 330.959 115.371 327.003 116.39 323.197C117.416 319.357 118.828 315.65 120.6 312.143C122.383 308.618 124.446 305.267 126.766 302.13C129.042 299.034 131.52 296.119 134.182 293.407C136.971 290.57 139.951 287.962 143.098 285.604C146.263 283.232 149.711 281.336 153.348 279.968C154.751 279.468 156.184 279.077 157.638 278.795C159.134 278.502 160.658 278.414 162.174 278.533C163.65 278.649 165.099 279.015 166.469 279.619C167.856 280.241 169.095 281.195 170.092 282.411C171.281 283.841 172.102 285.584 172.474 287.465C172.831 289.319 172.901 291.223 172.68 293.101C172.445 295.031 171.994 296.922 171.337 298.733C170.726 300.485 169.977 302.176 169.098 303.788C168.235 305.45 167.268 307.046 166.205 308.566C165.123 310.123 163.924 311.582 162.622 312.928C161.335 314.264 159.94 315.472 158.453 316.538C157.006 317.578 155.427 318.383 153.765 318.927C152.221 319.399 150.614 319.581 149.013 319.465C147.417 319.328 145.915 318.595 144.764 317.391C143.515 316.074 142.747 314.314 142.601 312.433C142.426 310.582 142.595 308.712 143.098 306.933C143.707 305.015 144.624 303.228 145.807 301.655C146.981 300.085 148.407 298.756 150.016 297.735C150.428 297.431 150.859 297.159 151.306 296.92C151.949 296.56 152.618 296.258 153.308 296.019C153.939 295.792 154.599 295.671 155.265 295.66C155.515 295.629 155.768 295.693 155.98 295.84C156.193 295.988 156.351 296.21 156.429 296.47C156.548 296.752 156.563 297.073 156.47 297.366C156.378 297.66 156.185 297.904 155.932 298.05C155.461 298.391 154.958 298.679 154.432 298.907C153.653 299.392 152.891 299.852 152.139 300.303C151.341 300.798 150.642 301.461 150.084 302.251Z" fill="url(#paint5_linear_8_60)"/>
<path d="M191.6 290.646C189.438 294.993 187.198 299.31 184.882 303.597C182.566 307.884 180.233 312.203 177.885 316.553C175.537 320.9 173.203 325.261 170.884 329.637C168.565 334.012 166.353 338.461 164.248 342.985C163.889 343.64 163.565 344.316 163.278 345.012C162.919 345.772 162.778 346.631 162.874 347.479C162.872 347.734 162.94 347.984 163.069 348.197C163.199 348.409 163.383 348.575 163.6 348.672C164.087 348.933 164.761 348.862 165.622 348.45C167.077 347.512 168.423 346.388 169.631 345.102C170.84 343.814 171.974 342.446 173.028 341.006C174.088 339.552 175.074 338.036 175.98 336.465C176.899 334.886 177.789 333.33 178.65 331.796C178.866 331.298 179.124 330.822 179.42 330.375C179.823 329.744 180.214 329.428 180.594 329.428C180.706 329.412 180.82 329.444 180.911 329.517C181.002 329.59 181.063 329.7 181.081 329.821C181.134 330.112 181.134 330.411 181.081 330.702C181.027 331.031 180.931 331.35 180.794 331.649C180.659 331.943 180.568 332.146 180.512 332.265C179.111 334.263 177.723 336.422 176.346 338.742C174.973 341.049 173.473 343.263 171.854 345.372C170.278 347.442 168.486 349.304 166.514 350.922C164.577 352.505 162.337 353.589 159.96 354.094C158.015 354.214 156.693 353.7 155.994 352.55C155.266 351.301 154.9 349.843 154.942 348.364C154.953 346.645 155.199 344.938 155.673 343.298C156.052 341.863 156.539 340.464 157.129 339.117C158.74 335.486 160.536 331.955 162.509 328.543C164.477 325.133 166.406 321.661 168.296 318.125C170.563 314.021 172.802 309.917 175.011 305.813C177.22 301.71 179.432 297.595 181.647 293.469C181.848 293.088 182.024 292.693 182.173 292.285C182.307 291.901 182.402 291.503 182.455 291.096V289.941C182.448 289.557 182.476 289.173 182.538 288.795C182.751 288.738 183.251 288.653 184.034 288.534C184.817 288.416 185.678 288.298 186.621 288.179C187.565 288.061 188.456 287.947 189.291 287.829C189.895 287.731 190.503 287.671 191.113 287.649C191.548 287.829 191.748 288.298 191.722 289.07C191.712 289.597 191.671 290.124 191.6 290.646Z" fill="url(#paint6_linear_8_60)"/>
<path d="M179.541 347.33C179.699 348.734 180.128 349.664 180.828 350.119C181.572 350.584 182.428 350.757 183.266 350.61C184.245 350.477 185.201 350.169 186.097 349.697C186.932 349.284 187.734 348.791 188.496 348.224C190.126 347.063 191.639 345.698 193.005 344.154C194.524 342.481 195.954 340.776 197.296 339.038C198.638 337.3 199.835 335.672 200.887 334.153C201.951 332.631 202.81 331.474 203.462 330.682C203.835 330.191 204.088 330.088 204.221 330.363C204.359 330.723 204.374 331.129 204.264 331.502C203.865 332.691 203.327 333.813 202.664 334.835C201.773 336.28 200.815 337.668 199.793 338.994C198.672 340.457 197.461 341.949 196.159 343.471C194.858 344.993 193.57 346.394 192.297 347.674C191.01 348.95 189.835 350.08 188.745 351.052C187.905 351.834 187.011 352.537 186.072 353.153C184.98 353.86 183.812 354.398 182.596 354.754C181.349 355.141 180.056 355.306 178.765 355.244C177.524 355.204 176.308 354.836 175.212 354.169C174.073 353.445 173.164 352.326 172.616 350.973C172.077 349.687 171.785 348.285 171.758 346.859C171.734 345.384 171.868 343.912 172.157 342.475C172.45 341.022 172.852 339.601 173.358 338.228C173.844 336.902 174.389 335.606 174.993 334.345C176.492 331.005 178.399 327.927 180.657 325.203C182.923 322.504 185.503 320.175 188.324 318.28C189.692 317.255 191.15 316.397 192.675 315.723C194.183 315.052 195.748 314.558 197.343 314.25C198.421 314.004 199.524 313.943 200.617 314.068C201.163 314.105 201.691 314.301 202.152 314.637C202.613 314.973 202.991 315.438 203.251 315.988C203.717 316.782 203.941 317.729 203.891 318.683C203.835 319.639 203.647 320.579 203.333 321.467C203.015 322.375 202.598 323.235 202.093 324.025C201.62 324.774 201.096 325.48 200.527 326.136C199.244 327.726 197.779 329.109 196.172 330.25C194.595 331.376 192.955 332.383 191.263 333.264C190.359 333.69 189.468 334.07 188.59 334.403C187.712 334.737 186.794 335.065 185.836 335.385C185.202 335.521 184.561 335.613 183.918 335.66C183.604 335.662 183.294 335.735 183.006 335.876C182.718 336.017 182.458 336.222 182.24 336.48C181.752 337.104 181.41 337.859 181.245 338.675C181.045 339.513 180.791 340.334 180.485 341.13C180.103 342.111 179.816 343.136 179.627 344.188C179.453 345.224 179.424 346.284 179.541 347.33ZM183.45 333.628C185.27 333.524 187.027 332.827 188.513 331.62C190.026 330.405 191.479 329.093 192.864 327.692C193.554 327.022 194.208 326.304 194.82 325.542C195.427 324.791 195.975 323.981 196.459 323.121C196.777 322.454 197.15 321.614 197.575 320.613C197.966 319.786 198.158 318.856 198.133 317.917C198.081 317.245 197.892 316.852 197.575 316.729C197.174 316.613 196.75 316.662 196.378 316.867C195.825 317.118 195.302 317.448 194.82 317.848C194.282 318.305 193.765 318.793 193.271 319.311C192.795 319.802 192.366 320.293 191.984 320.725C191.602 321.157 191.371 321.472 191.263 321.594C189.734 323.399 188.332 325.339 187.071 327.398C185.827 329.417 184.62 331.494 183.45 333.628Z" fill="url(#paint7_linear_8_60)"/>
<path d="M230.512 315.255H238.825C236.5 319.65 234.227 324.045 232.009 328.44C229.79 332.835 227.435 337.111 224.942 341.266C224.557 341.957 224.211 342.672 223.906 343.406C223.447 344.434 223.085 345.509 222.825 346.614C222.579 347.481 222.55 348.402 222.74 349.286C222.936 349.999 223.584 350.176 224.692 349.817C226.22 348.89 227.609 347.719 228.81 346.346C230.014 344.962 231.124 343.488 232.134 341.937C233.155 340.36 234.166 338.785 235.167 337.211C236.149 335.66 237.232 334.187 238.41 332.802C238.857 332.323 239.209 332.15 239.491 332.27C239.704 332.348 239.901 332.468 240.072 332.624C239.962 332.909 239.823 333.178 239.656 333.429C238.125 335.381 236.709 337.434 235.417 339.576C234.094 341.761 232.665 343.87 231.138 345.896C229.652 347.872 227.965 349.665 226.108 351.239C224.226 352.811 222.038 353.907 219.707 354.447C218.432 354.504 217.49 354.207 216.879 353.556C216.253 352.867 215.821 352.003 215.633 351.062C215.409 350.01 215.312 348.932 215.342 347.854C215.369 346.729 215.441 345.685 215.552 344.737C214.939 345.449 214.148 346.325 213.18 347.366C212.213 348.406 211.146 349.46 209.982 350.526C208.84 351.579 207.631 352.547 206.364 353.422C205.253 354.222 204.014 354.796 202.71 355.117C201.594 355.389 200.425 355.263 199.382 354.758C198.361 354.257 197.516 353.173 196.849 351.507C196.199 349.924 195.886 348.205 195.933 346.475C195.995 344.764 196.274 343.069 196.764 341.439C197.266 339.776 197.917 338.169 198.707 336.641C199.511 335.1 200.329 333.646 201.16 332.28C202.981 329.322 205.115 326.6 207.521 324.169C209.918 321.752 212.584 319.662 215.459 317.945C216.577 317.293 217.732 316.714 218.916 316.212C220.136 315.67 221.425 315.325 222.74 315.188C223.921 315.057 225.112 315.272 226.188 315.81C227.242 316.346 228.047 317.415 228.6 319.018C228.937 318.379 229.269 317.755 229.597 317.146C229.936 316.535 230.242 315.904 230.512 315.255ZM219.541 335.564C219.91 334.859 220.312 334.175 220.747 333.515C221.382 332.506 222.061 331.349 222.784 330.044C223.529 328.686 224.207 327.288 224.817 325.855C225.402 324.545 225.852 323.171 226.157 321.756C226.412 320.733 226.398 319.655 226.117 318.64C225.84 317.806 225.095 317.328 223.883 317.203C222.954 317.4 222.067 317.778 221.266 318.319C220.365 318.917 219.517 319.603 218.733 320.368C217.915 321.153 217.138 321.986 216.406 322.862C215.682 323.724 214.99 324.54 214.328 325.309C212.997 327.224 211.694 329.184 210.42 331.188C209.145 333.193 207.954 335.242 206.846 337.336C206.511 337.991 206.096 338.805 205.6 339.787C205.092 340.78 204.645 341.806 204.26 342.861C203.884 343.879 203.618 344.941 203.469 346.025C203.308 346.958 203.467 347.922 203.916 348.74C204.054 349.078 204.265 349.376 204.533 349.608C204.8 349.841 205.115 350.001 205.453 350.076C206.107 350.195 206.778 350.134 207.405 349.899C208.094 349.65 208.751 349.306 209.357 348.874C209.91 348.501 210.427 348.068 210.898 347.581C212.62 345.856 214.203 343.979 215.633 341.97C217.081 339.944 218.388 337.806 219.541 335.574V335.564Z" fill="url(#paint8_linear_8_60)"/>
<path d="M243.558 319.949C243.966 319.375 244.197 318.673 244.216 317.945C244.216 317.28 244.248 316.551 244.301 315.764C244.352 315.387 244.365 315.005 244.341 314.625C244.314 314.537 244.523 314.488 244.964 314.488C245.404 314.488 245.982 314.459 246.868 314.4C247.753 314.341 248.647 314.292 249.536 314.263C250.426 314.234 251.244 314.204 251.934 314.17L252.886 314.126C253.033 314.385 253.158 314.658 253.259 314.943C253.395 315.289 253.466 315.661 253.468 316.038C253.337 316.957 253.071 317.847 252.681 318.673C252.266 319.582 251.894 320.462 251.565 321.313C252.668 320.283 253.771 319.283 254.874 318.311C255.983 317.339 257.175 316.486 258.433 315.764C259.04 315.378 259.677 315.051 260.336 314.786C261.054 314.484 261.8 314.27 262.56 314.151C263.328 314.029 264.103 313.984 264.878 314.014C265.615 314.032 266.343 314.198 267.026 314.503C268.509 315.295 269.323 316.478 269.468 318.052C269.609 319.606 269.511 321.174 269.179 322.692C268.543 324.902 267.577 326.981 266.319 328.842C264.993 330.798 263.779 332.693 262.676 334.529C261.683 336.158 260.717 337.788 259.78 339.418C258.843 341.047 257.936 342.746 257.058 344.512C256.894 344.874 256.644 345.378 256.311 346.013C255.994 346.615 255.745 347.257 255.568 347.925C255.402 348.456 255.402 349.032 255.568 349.563C255.733 350.017 256.231 350.184 257.058 350.052C258.75 349.607 260.34 348.786 261.733 347.641C263.093 346.513 264.329 345.215 265.416 343.774C266.537 342.297 267.577 340.748 268.53 339.134C269.493 337.504 270.474 335.958 271.47 334.494C271.577 334.313 271.741 333.981 271.964 333.492C272.172 333.031 272.437 332.603 272.751 332.221C272.99 331.903 273.295 331.653 273.641 331.492C273.943 331.37 274.259 331.556 274.592 332.04C274.671 332.186 274.723 332.347 274.744 332.515C274.765 332.683 274.756 332.854 274.717 333.018C274.622 333.42 274.472 333.804 274.272 334.157C274.05 334.553 273.827 334.915 273.609 335.247C273.435 335.522 273.242 335.782 273.031 336.025C271.706 338.023 270.312 340.07 268.85 342.165C267.418 344.232 265.856 346.186 264.175 348.013C262.532 349.797 260.698 351.355 258.713 352.653C256.7 353.966 254.478 354.846 252.165 355.244C251.243 355.313 250.322 355.109 249.496 354.652C248.634 354.119 247.973 353.264 247.633 352.242C247.141 350.981 246.987 349.592 247.188 348.238C247.39 346.803 247.781 345.408 248.349 344.097C248.928 342.731 249.591 341.409 250.333 340.141C251.08 338.865 251.752 337.697 252.361 336.685C253.354 334.925 254.392 333.164 255.475 331.404C256.557 329.644 257.564 327.886 258.495 326.129C258.94 325.464 259.384 324.78 259.78 324.085C260.188 323.395 260.561 322.68 260.897 321.944C261.199 321.382 261.408 320.767 261.515 320.125C261.601 319.825 261.595 319.502 261.497 319.206C261.4 318.911 261.217 318.658 260.977 318.487C260.763 318.339 260.518 318.252 260.265 318.236C260.012 318.22 259.76 318.274 259.531 318.394C259.006 318.639 258.522 318.854 258.081 319.035C256.178 319.956 254.467 321.297 253.055 322.975C251.59 324.706 250.224 326.39 248.958 328.026C248.422 328.673 247.924 329.357 247.468 330.075C247.026 330.769 246.581 331.481 246.134 332.211C244.2 335.471 242.255 338.73 240.298 341.989C238.341 345.249 236.395 348.508 234.462 351.768C234.304 352.174 234.125 352.569 233.924 352.951C233.732 353.345 233.496 353.712 233.221 354.041C233.023 354.174 232.803 354.262 232.574 354.301C232.345 354.34 232.111 354.328 231.886 354.266C231.446 354.18 230.996 354.165 230.552 354.222H226.953C226.153 354.222 225.655 354.085 225.463 353.811C225.272 353.538 225.339 353.039 225.668 352.31C225.997 351.582 226.558 350.492 227.323 349.035C229.811 344.732 232.253 340.457 234.649 336.21C237.045 331.963 239.432 327.656 241.81 323.288C242.086 322.746 242.375 322.198 242.7 321.651C243.024 321.103 243.269 320.555 243.558 319.949Z" fill="url(#paint9_linear_8_60)"/>
<path d="M286.377 316.904C285.612 319.163 284.686 321.353 283.607 323.452C282.586 325.394 281.527 327.305 280.429 329.185C279.986 329.971 279.531 330.755 279.067 331.534C278.596 332.316 278.144 333.131 277.704 333.961C276.932 335.469 276.107 336.976 275.228 338.481C274.349 339.985 273.522 341.461 272.747 342.907C272.424 343.399 272.127 343.912 271.859 344.441C271.552 345.05 271.289 345.685 271.074 346.339C270.856 346.976 270.731 347.646 270.701 348.325C270.671 348.992 270.825 349.653 271.145 350.222C271.368 350.621 271.722 350.911 272.134 351.033C272.797 351.276 273.609 351.125 274.571 350.582C275.662 349.943 276.675 349.155 277.585 348.237C278.706 347.132 279.767 345.955 280.762 344.713C281.836 343.386 282.842 342.061 283.78 340.738C284.717 339.413 285.525 338.15 286.217 336.947C286.78 335.986 287.29 334.989 287.744 333.961H287.708L288.041 333.33L288.867 332.068C289.142 331.646 289.31 331.704 289.443 332.248C289.504 332.452 289.518 332.668 289.483 332.879C289.44 333.219 289.343 333.547 289.195 333.85V333.758C288.734 334.462 288.32 335.201 287.957 335.971C287.572 336.786 287.187 337.555 286.803 338.277C285.696 340.442 284.513 342.545 283.252 344.587C282.042 346.565 280.629 348.384 279.04 350.009C277.544 351.541 275.846 352.819 274.003 353.8C272.122 354.784 270.06 355.282 267.976 355.256C267.214 355.259 266.459 355.094 265.757 354.771C264.982 354.375 264.365 353.685 264.021 352.829C263.454 351.794 263.168 350.604 263.196 349.397C263.204 347.962 263.442 346.54 263.897 345.194C264.341 343.781 264.82 342.529 265.26 341.446C266.197 339.34 267.174 337.353 268.189 335.486C269.204 333.618 270.264 331.811 271.371 330.064C272.14 328.682 272.911 327.268 273.683 325.821C274.456 324.375 275.226 322.93 275.996 321.487C276.335 320.881 276.6 320.228 276.781 319.545C276.917 318.972 277.065 318.385 277.225 317.783C277.225 317.66 277.239 317.538 277.265 317.419C277.293 317.302 277.308 317.181 277.309 317.06C277.423 316.743 277.519 316.419 277.598 316.089C277.651 315.786 277.78 315.505 277.971 315.278C278.732 314.941 279.542 314.757 280.363 314.735C281.353 314.676 282.178 314.642 282.839 314.642C283.336 314.642 283.9 314.642 284.535 314.691C285.129 314.724 285.725 314.678 286.31 314.555V314.735L286.394 314.914C286.45 315.235 286.49 315.559 286.514 315.885C286.532 316.232 286.486 316.578 286.377 316.904ZM285.218 302.27C285.226 301.492 285.377 300.725 285.662 300.012C285.959 299.242 286.364 298.527 286.86 297.891C287.352 297.276 287.94 296.762 288.596 296.372C289.189 295.995 289.851 295.764 290.535 295.697C291.142 295.614 291.759 295.724 292.311 296.013C292.765 296.268 293.128 296.681 293.345 297.187C293.568 297.725 293.68 298.31 293.673 298.901C293.672 299.536 293.56 300.165 293.345 300.755C292.832 301.994 292.036 303.068 291.032 303.871C290.131 304.717 288.997 305.209 287.81 305.269C287.511 305.271 287.215 305.208 286.939 305.084C286.662 304.96 286.411 304.777 286.199 304.546C285.659 303.923 285.321 303.123 285.236 302.27H285.218Z" fill="url(#paint10_linear_8_60)"/>
<path d="M294.006 319.953C294.416 319.379 294.648 318.676 294.669 317.947C294.669 317.282 294.696 316.553 294.749 315.765C294.8 315.388 294.815 315.006 294.793 314.625C294.762 314.537 294.971 314.488 295.412 314.488C295.852 314.488 296.435 314.459 297.316 314.4C298.197 314.341 299.096 314.293 299.986 314.263C300.876 314.234 301.695 314.204 302.389 314.17L303.341 314.126C303.485 314.387 303.608 314.66 303.71 314.943C303.845 315.29 303.917 315.662 303.919 316.039C303.799 316.957 303.545 317.847 303.167 318.676C302.752 319.586 302.38 320.466 302.051 321.318C303.154 320.287 304.258 319.286 305.361 318.314C306.471 317.341 307.663 316.487 308.921 315.765C309.528 315.379 310.166 315.051 310.825 314.787C311.543 314.484 312.289 314.271 313.05 314.151C313.817 314.029 314.593 313.984 315.368 314.014C316.107 314.033 316.837 314.198 317.522 314.503C319.012 315.295 319.822 316.46 319.964 318.055C320.102 319.609 320.003 321.178 319.671 322.697C319.025 324.912 318.046 326.993 316.774 328.851C315.448 330.808 314.233 332.705 313.13 334.541C312.136 336.171 311.171 337.802 310.233 339.433C309.296 341.063 308.385 342.763 307.501 344.53C307.337 344.892 307.088 345.396 306.758 346.032C306.439 346.634 306.188 347.276 306.011 347.945C305.845 348.476 305.845 349.053 306.011 349.584C306.175 350.039 306.674 350.205 307.501 350.073C309.193 349.628 310.785 348.807 312.178 347.661C313.538 346.532 314.774 345.234 315.862 343.792C316.983 342.314 318.024 340.763 318.977 339.149C319.941 337.518 320.921 335.971 321.918 334.506C322.101 334.183 322.265 333.848 322.412 333.504C322.62 333.042 322.885 332.614 323.199 332.232C323.439 331.915 323.744 331.665 324.089 331.503C324.392 331.38 324.712 331.566 325.041 332.051C325.12 332.197 325.171 332.358 325.193 332.526C325.214 332.694 325.205 332.865 325.166 333.029C325.07 333.431 324.92 333.815 324.721 334.169C324.499 334.565 324.276 334.927 324.058 335.26C323.882 335.535 323.687 335.795 323.475 336.038C322.152 338.037 320.759 340.085 319.297 342.182C317.861 344.239 316.297 346.184 314.616 348.004C312.973 349.789 311.138 351.348 309.152 352.646C307.142 353.962 304.922 354.843 302.611 355.244C301.689 355.313 300.767 355.109 299.942 354.652C299.079 354.119 298.419 353.263 298.082 352.24C297.59 350.978 297.436 349.588 297.637 348.234C297.843 346.799 298.234 345.404 298.798 344.09C299.378 342.723 300.041 341.401 300.783 340.132L302.812 336.674C303.808 334.913 304.846 333.151 305.926 331.39C307.006 329.629 308.013 327.87 308.947 326.112C309.392 325.446 309.837 324.762 310.233 324.067C310.643 323.377 311.016 322.661 311.35 321.924C311.652 321.362 311.863 320.746 311.973 320.104C312.054 319.804 312.046 319.482 311.949 319.188C311.852 318.893 311.672 318.64 311.435 318.465C311.22 318.317 310.974 318.231 310.72 318.214C310.467 318.198 310.214 318.252 309.984 318.373C309.459 318.617 308.974 318.832 308.534 319.013C306.62 319.939 304.9 321.29 303.483 322.981C302.024 324.713 300.658 326.397 299.385 328.034C298.85 328.681 298.354 329.366 297.899 330.084C297.454 330.779 297.009 331.491 296.564 332.222C294.63 335.483 292.684 338.745 290.727 342.006C288.769 345.267 286.823 348.529 284.889 351.79C284.731 352.196 284.551 352.592 284.35 352.974C284.159 353.369 283.922 353.735 283.647 354.065C283.45 354.198 283.23 354.287 283.001 354.326C282.771 354.364 282.537 354.352 282.312 354.29C281.872 354.204 281.422 354.189 280.978 354.246H277.405C276.604 354.246 276.11 354.109 275.914 353.835C275.718 353.561 275.789 353.062 276.123 352.333C276.457 351.604 277.013 350.513 277.778 349.055C280.261 344.75 282.704 340.473 285.107 336.224C287.51 331.974 289.896 327.664 292.266 323.294C292.542 322.751 292.831 322.203 293.156 321.655C293.481 321.107 293.73 320.559 294.006 319.953Z" fill="url(#paint11_linear_8_60)"/>
<path d="M316.941 353.825C316.062 353.216 315.337 352.374 314.834 351.375C314.35 350.405 314.022 349.352 313.862 348.26C313.697 347.142 313.656 346.006 313.74 344.877C313.811 343.75 313.956 342.631 314.176 341.528C314.868 338.892 315.923 336.388 317.303 334.101C318.678 331.824 320.209 329.666 321.885 327.647C323.66 325.458 325.569 323.406 327.599 321.503C329.632 319.602 331.912 318.042 334.362 316.876C335.401 316.377 336.47 315.961 337.563 315.632C338.657 315.288 339.792 315.127 340.93 315.153C341.991 315.18 343.033 315.469 343.978 316C344.986 316.614 345.771 317.588 346.204 318.761C346.504 318.386 346.775 317.985 347.014 317.56C347.216 317.205 347.462 316.883 347.746 316.603C348.008 316.332 348.302 316.102 348.621 315.919C349.034 315.714 349.476 315.593 349.928 315.56C351.086 315.445 352.249 315.4 353.412 315.426C354.547 315.458 355.655 315.474 356.735 315.474C353.648 321.455 350.508 327.323 347.315 333.078C344.121 338.832 340.851 344.62 337.507 350.442L333.413 357.653C332.048 360.083 330.585 362.441 329.023 364.725C327.468 366.997 325.733 369.112 323.836 371.045C320.144 374.822 315.592 377.432 310.661 378.601C308.254 379.179 305.789 379.411 303.327 379.29C302.569 379.229 301.758 379.124 300.893 378.974C300.045 378.832 299.216 378.578 298.423 378.218C297.648 377.868 296.934 377.37 296.315 376.749C295.698 376.134 295.237 375.352 294.978 374.481C294.654 373.384 294.64 372.204 294.939 371.098C295.21 370.006 295.865 369.077 296.759 368.514C297.604 367.85 298.648 367.565 299.677 367.715C300.202 367.746 300.707 367.949 301.126 368.298C301.545 368.647 301.86 369.125 302.029 369.672C302.185 370.13 302.227 370.626 302.151 371.108C302.073 371.52 301.925 371.913 301.716 372.266C301.501 372.619 301.312 372.99 301.149 373.376C300.984 373.782 300.9 374.223 300.906 374.668C300.938 375.259 301.183 375.813 301.585 376.208C301.997 376.596 302.479 376.884 303 377.05C303.54 377.231 304.101 377.321 304.664 377.318C305.165 377.322 305.665 377.294 306.162 377.232C307.536 377.062 308.876 376.655 310.134 376.026C311.39 375.396 312.572 374.604 313.658 373.668C314.774 372.709 315.805 371.635 316.737 370.462C317.683 369.275 318.562 368.088 319.372 366.902C321.364 364.007 323.203 360.989 324.881 357.863C326.559 354.747 328.181 351.587 329.746 348.384C328.936 349.21 328.017 350.07 326.989 350.963C326 351.825 324.941 352.585 323.827 353.236C322.766 353.853 321.615 354.259 320.426 354.437C319.235 354.618 318.022 354.404 316.941 353.825ZM322.695 349.284C323.923 349.358 325.148 349.097 326.262 348.523C327.363 347.946 328.375 347.181 329.258 346.255C330.198 345.289 331.071 344.248 331.871 343.14C332.681 342.011 333.407 340.942 334.049 339.934C334.92 338.572 335.811 337.221 336.723 335.881C337.634 334.542 338.526 333.176 339.397 331.786C340.253 330.408 341.024 328.97 341.705 327.479C342.381 325.991 342.937 324.441 343.369 322.847C343.494 322.335 343.589 321.814 343.652 321.288C343.734 320.699 343.747 320.1 343.691 319.508C343.657 318.988 343.489 318.491 343.208 318.072C343.046 317.87 342.844 317.713 342.617 317.613C342.39 317.513 342.145 317.474 341.901 317.498C341.219 317.443 340.536 317.58 339.915 317.895C339.233 318.228 338.582 318.63 337.968 319.096C337.346 319.575 336.751 320.096 336.187 320.656C335.606 321.221 335.107 321.741 334.689 322.216C332.427 324.698 330.353 327.378 328.487 330.231C326.624 333.086 324.912 336.058 323.361 339.13C323.143 339.609 322.795 340.394 322.307 341.489C321.828 342.567 321.435 343.687 321.131 344.839C320.846 345.816 320.762 346.851 320.887 347.868C321.012 348.751 321.615 349.223 322.695 349.284Z" fill="url(#paint12_linear_8_60)"/>
<path d="M437.412 307.833C438.733 311.249 440.035 314.829 441.316 318.574C442.579 322.222 443.523 325.989 444.137 329.826C444.726 333.57 444.843 337.382 444.482 341.159C444.096 345.023 442.932 348.748 441.072 352.072C439.983 354.377 438.528 356.457 436.775 358.218C435.011 359.978 433.109 361.569 431.092 362.974C428.958 364.449 426.707 365.718 424.367 366.765C421.908 367.884 419.356 368.748 416.745 369.344C414.149 369.945 411.496 370.213 408.841 370.143C406.28 370.088 403.743 369.584 401.331 368.649C399.309 367.841 397.404 366.725 395.674 365.335C393.917 363.949 392.425 362.207 391.281 360.206C390.084 358.001 389.286 355.57 388.928 353.043C388.564 350.534 388.447 347.991 388.578 345.455C388.649 343.012 389.072 340.595 389.831 338.293C390.606 335.933 391.615 333.672 392.843 331.55C394.083 329.415 395.505 327.411 397.092 325.564C398.628 323.762 400.283 322.083 402.043 320.539C403.655 319.168 405.413 318.011 407.28 317.092C409.335 316.043 411.513 315.304 413.755 314.898C415.873 314.505 418.045 314.597 420.129 315.168C422.205 315.765 423.981 317.225 425.068 319.229C425.723 320.363 426.192 321.61 426.455 322.917C426.717 324.251 426.833 325.614 426.8 326.977C426.769 328.36 426.62 329.737 426.354 331.09C426.115 332.364 425.784 333.616 425.366 334.835C424.926 336.456 424.187 337.965 423.193 339.269C422.292 340.347 421.3 341.332 420.229 342.21C419.767 342.566 419.486 342.652 419.39 342.474C419.277 342.207 419.242 341.908 419.289 341.619C419.333 341.179 419.434 340.748 419.587 340.338C419.702 339.984 419.849 339.643 420.028 339.321C420.473 338.579 420.762 337.739 420.872 336.863C420.953 335.953 421.132 335.057 421.403 334.192C421.863 332.105 421.795 329.922 421.207 327.874C420.715 325.862 419.807 323.998 418.551 322.423C417.159 320.713 415.25 319.595 413.165 319.269C411.091 318.95 408.976 319.304 407.089 320.286C405.139 321.39 403.435 322.94 402.096 324.829C400.745 326.674 399.571 328.662 398.59 330.763C397.523 332.857 396.739 335.107 396.264 337.443C395.775 339.809 395.596 342.237 395.732 344.657C395.867 347.028 396.249 349.375 396.869 351.653C397.463 353.903 398.357 356.047 399.525 358.017C400.674 359.937 402.131 361.619 403.827 362.986C405.642 364.423 407.737 365.391 409.952 365.817C412.181 366.319 414.476 366.374 416.724 365.978C418.98 365.64 421.168 364.898 423.199 363.784C425.289 362.591 427.125 360.936 428.585 358.925C430.037 356.942 431.311 354.812 432.388 352.566C433.499 350.389 434.252 348.02 434.613 345.565C434.975 343.126 435.058 340.65 434.863 338.189C434.655 335.7 434.19 333.244 433.477 330.866C432.777 328.507 431.888 326.218 430.821 324.025C429.227 320.568 428.062 316.899 427.358 313.112C426.639 309.388 426.49 305.561 426.917 301.785C427.331 298.1 428.414 294.54 430.104 291.308C431.935 287.902 434.517 285.039 437.62 282.974C439.359 281.566 441.293 280.465 443.351 279.711C445.462 278.905 447.683 278.49 449.921 278.482C452.071 278.468 454.197 278.962 456.152 279.929C458.154 280.95 459.85 282.56 461.044 284.576C462.306 286.685 463.023 289.12 463.121 291.63C463.252 294.241 462.915 296.854 462.127 299.327C461.354 301.793 460.127 304.066 458.521 306.007C456.987 307.914 454.983 309.309 452.742 310.027C451.997 310.324 451.208 310.469 450.415 310.452C449.99 310.383 449.773 310.205 449.773 309.918C449.802 309.559 449.942 309.221 450.171 308.959C450.416 308.618 450.716 308.327 451.058 308.103C451.949 307.35 452.703 306.425 453.284 305.375C453.91 304.272 454.484 303.255 455.015 302.331C456.09 300.162 456.65 297.738 456.646 295.277C456.702 292.782 456.264 290.302 455.36 288.005C454.542 285.893 453.144 284.102 451.355 282.876C449.585 281.666 447.411 281.417 444.833 282.129C442.757 283.184 440.957 284.781 439.596 286.776C438.284 288.726 437.312 290.917 436.727 293.244C436.133 295.629 435.9 298.102 436.037 300.567C436.152 303.051 436.616 305.501 437.412 307.833Z" fill="url(#paint13_linear_8_60)"/>
<path d="M453.479 360.933C453.671 362.572 454.184 363.656 455.018 364.187C455.906 364.729 456.928 364.93 457.927 364.76C459.1 364.604 460.244 364.244 461.319 363.695C462.314 363.211 463.271 362.636 464.181 361.976C466.131 360.621 467.94 359.029 469.573 357.227C471.39 355.276 473.1 353.286 474.704 351.258C476.308 349.23 477.74 347.321 478.998 345.529C480.271 343.754 481.297 342.404 482.077 341.479C482.518 340.907 482.82 340.786 482.98 341.107C483.144 341.528 483.162 342.001 483.031 342.436C482.558 343.825 481.916 345.134 481.122 346.326C480.056 348.011 478.908 349.631 477.685 351.178C476.344 352.885 474.896 354.626 473.339 356.402C471.783 358.178 470.244 359.813 468.722 361.306C467.193 362.795 465.777 364.109 464.474 365.247C463.468 366.159 462.397 366.979 461.272 367.699C459.969 368.524 458.573 369.152 457.122 369.566C455.628 370.018 454.081 370.211 452.535 370.139C451.067 370.076 449.632 369.639 448.338 368.862C446.976 368.017 445.889 366.711 445.234 365.132C444.597 363.631 444.255 361.994 444.234 360.332C444.202 358.611 444.363 356.893 444.711 355.216C445.058 353.521 445.537 351.863 446.142 350.261C446.725 348.715 447.377 347.203 448.097 345.73C449.875 341.855 452.136 338.281 454.813 335.115C457.523 331.959 460.608 329.234 463.981 327.015C465.616 325.818 467.36 324.818 469.184 324.03C470.988 323.251 472.858 322.675 474.766 322.312C476.054 322.025 477.373 321.953 478.68 322.1C479.332 322.143 479.964 322.372 480.515 322.764C481.067 323.156 481.519 323.698 481.83 324.34C482.389 325.265 482.657 326.371 482.595 327.485C482.528 328.6 482.303 329.697 481.928 330.733C481.549 331.793 481.052 332.795 480.45 333.717C479.89 334.6 479.267 335.432 478.588 336.204C477.054 338.057 475.305 339.672 473.385 341.004C471.499 342.32 469.537 343.495 467.511 344.521C466.428 345.02 465.366 345.461 464.315 345.85C463.263 346.24 462.165 346.618 461.021 346.996C460.263 347.155 459.497 347.262 458.728 347.317C458.354 347.318 457.984 347.403 457.64 347.567C457.296 347.732 456.985 347.972 456.727 348.273C456.14 349 455.728 349.881 455.531 350.834C455.292 351.813 454.989 352.77 454.623 353.698C454.167 354.843 453.823 356.04 453.597 357.267C453.383 358.474 453.343 359.712 453.479 360.933ZM458.158 344.945C460.338 344.826 462.442 344.013 464.222 342.602C466.033 341.186 467.77 339.656 469.425 338.019C470.253 337.241 471.034 336.403 471.764 335.51C472.49 334.634 473.145 333.689 473.724 332.686C474.104 331.907 474.55 330.928 475.058 329.759C475.523 328.794 475.755 327.71 475.73 326.614C475.663 325.829 475.443 325.371 475.058 325.228C474.579 325.092 474.072 325.149 473.627 325.388C472.966 325.684 472.341 326.069 471.764 326.534C471.118 327.05 470.497 327.602 469.902 328.189C469.332 328.762 468.819 329.306 468.363 329.839C467.906 330.372 467.629 330.71 467.501 330.853C465.673 332.96 463.997 335.224 462.488 337.624C461.004 340.019 459.56 342.459 458.158 344.945Z" fill="url(#paint14_linear_8_60)"/>
<path d="M511.425 341.705C511.628 342.197 511.393 343.005 510.731 344.124C509.407 346.091 508.216 347.828 507.155 349.335C506.088 350.838 505.069 352.262 504.076 353.59C503.083 354.918 502.075 356.258 501.05 357.586C500.025 358.914 498.814 360.412 497.426 362.107C496.631 362.949 495.686 363.865 494.592 364.843C493.514 365.816 492.351 366.679 491.118 367.42C489.948 368.133 488.672 368.631 487.345 368.895C486.083 369.144 484.779 368.979 483.609 368.42C482.908 368.1 482.275 367.636 481.746 367.054C481.217 366.471 480.804 365.783 480.53 365.029C480.061 363.522 479.926 361.921 480.135 360.35C480.343 358.629 480.778 356.947 481.426 355.354C482.088 353.707 482.716 352.289 483.31 351.098C484.166 349.353 485.199 347.712 486.39 346.204C487.581 344.697 488.827 343.226 490.125 341.79C491.424 340.355 492.698 338.917 493.947 337.478C495.219 336.025 496.413 334.496 497.522 332.9C496.664 332.764 495.791 332.783 494.939 332.957C494.106 333.134 493.241 333.041 492.458 332.691C491.849 332.525 491.252 332.315 490.67 332.064C490.205 331.849 489.645 332.024 488.983 332.589C487.062 335.743 485.159 339.038 483.273 342.474C481.387 345.91 479.373 349.248 477.232 352.488C475.108 355.713 472.768 358.77 470.23 361.638C467.728 364.464 464.852 366.89 461.691 368.838C460.831 368.979 460.298 368.753 460.09 368.154C459.993 367.846 459.97 367.517 460.023 367.196C460.075 366.876 460.2 366.574 460.388 366.318C464.063 363.822 467.417 360.834 470.368 357.428C473.329 354.01 476.034 350.354 478.459 346.492C480.922 342.585 483.197 338.548 485.274 334.398C487.363 330.227 489.432 326.143 491.481 322.145C491.813 322.006 492.179 321.988 492.522 322.095C492.909 322.211 493.278 322.389 493.616 322.62C493.979 322.869 494.325 323.129 494.683 323.411C494.957 323.655 495.256 323.865 495.574 324.039C496.39 324.448 497.262 324.715 498.157 324.83C499.017 324.934 499.885 324.917 500.74 324.779C501.877 324.563 502.991 324.227 504.065 323.779C505.102 323.338 506.187 323.038 507.294 322.886C508.089 322.812 508.602 322.937 508.831 323.253C508.944 323.412 509.021 323.597 509.055 323.794C509.09 323.99 509.08 324.192 509.029 324.383C508.907 324.906 508.707 325.404 508.436 325.858C508.137 326.384 507.854 326.859 507.593 327.277C505.27 330.363 503.101 333.518 501.087 336.743C499.074 339.968 497.129 343.307 495.254 346.758C494.724 347.602 494.19 348.478 493.653 349.386C493.119 350.296 492.628 351.228 492.164 352.172C491.716 353.095 491.358 354.065 491.097 355.065C490.828 356.054 490.727 357.085 490.798 358.112C490.818 358.934 490.951 359.749 491.193 360.53C491.46 361.446 491.988 361.83 492.794 361.689C493.92 361.48 495.158 360.728 496.53 359.428C498.033 357.969 499.443 356.406 500.751 354.749C502.249 352.862 503.656 350.897 504.967 348.86C506.326 346.758 507.572 344.864 508.703 343.18C509.036 342.599 509.411 342.045 509.824 341.524C510.24 341.02 510.774 341.08 511.425 341.705Z" fill="url(#paint15_linear_8_60)"/>
<path d="M516.614 323.128C517.603 322.99 518.608 322.881 519.634 322.812L522.552 322.594C523.143 322.526 523.935 322.434 524.924 322.331C525.912 322.227 526.572 322.491 526.906 323.128C527.035 323.47 527.035 323.852 526.906 324.194C526.769 324.634 526.604 325.063 526.412 325.479C526.21 325.903 525.997 326.333 525.769 326.758C525.575 327.089 525.425 327.448 525.322 327.824C524.259 330.321 523.105 332.741 521.861 335.085C520.617 337.428 519.347 339.776 518.05 342.127C516.763 344.474 515.51 346.839 514.291 349.221C513.075 351.584 511.995 354.025 511.059 356.532C510.781 357.339 510.602 358.182 510.527 359.039C510.425 359.944 510.441 360.861 510.575 361.763C510.68 362.554 511.028 363.285 511.564 363.839C512.095 364.372 512.882 364.532 513.94 364.32C515.527 363.929 517.014 363.163 518.294 362.078C519.619 361 520.844 359.786 521.952 358.454C524.456 355.244 526.676 351.788 528.581 348.131C530.482 344.492 532.104 340.69 533.43 336.765C534.157 334.763 534.768 332.713 535.258 330.629C535.75 328.554 535.835 326.392 535.508 324.28C535.376 323.561 535.342 322.825 535.407 322.095C535.501 321.351 535.812 320.658 536.295 320.117C536.886 319.51 537.596 319.055 538.374 318.787C539.144 318.506 539.981 318.524 540.74 318.838C541.499 319.152 542.133 319.742 542.531 320.507C542.869 321.291 543.038 322.148 543.025 323.013C543.024 323.945 542.94 324.874 542.775 325.789C542.611 326.712 542.43 327.509 542.244 328.243C541.712 330.235 541.103 332.173 540.415 334.058C539.705 335.973 538.896 337.844 537.991 339.661C536.243 343.413 534.154 346.969 531.755 350.276C529.299 353.667 526.83 356.89 524.349 359.945C523.17 361.276 521.928 362.542 520.628 363.735C519.202 365.055 517.68 366.25 516.077 367.308C514.519 368.348 512.839 369.156 511.08 369.711C509.441 370.241 507.701 370.296 506.035 369.871C503.908 369.371 502.507 368.304 501.83 366.671C501.126 364.944 500.855 363.048 501.043 361.172C501.221 359.075 501.654 357.012 502.33 355.036C502.899 353.265 503.61 351.551 504.456 349.915C506.561 345.507 508.737 341.131 510.984 336.788C513.234 332.424 515.118 327.853 516.614 323.128Z" fill="url(#paint16_linear_8_60)"/>
<path d="M559.491 325.178C558.573 327.826 557.461 330.394 556.164 332.857C554.932 335.134 553.651 337.375 552.323 339.579C551.787 340.501 551.251 341.418 550.678 342.334C550.105 343.251 549.564 344.207 549.033 345.181C548.101 346.953 547.105 348.719 546.044 350.48C544.983 352.241 543.987 353.971 543.055 355.671C542.663 356.247 542.305 356.848 541.983 357.47C541.614 358.184 541.299 358.929 541.04 359.696C540.778 360.443 540.626 361.228 540.59 362.024C540.553 362.806 540.74 363.582 541.126 364.25C541.397 364.715 541.824 365.055 542.321 365.2C543.121 365.485 544.101 365.308 545.262 364.671C546.581 363.923 547.805 362.999 548.905 361.922C550.256 360.622 551.537 359.243 552.741 357.789C554.037 356.233 555.25 354.679 556.378 353.127C557.507 351.575 558.487 350.093 559.319 348.681C560.001 347.556 560.617 346.387 561.162 345.181H561.066L561.462 344.441L562.459 342.961C562.791 342.465 563.021 342.534 563.161 343.171C563.234 343.41 563.25 343.664 563.209 343.911C563.154 344.309 563.036 344.694 562.861 345.05V344.941C562.3 345.764 561.8 346.632 561.366 347.537C560.898 348.493 560.432 349.395 559.968 350.241C558.639 352.78 557.21 355.246 555.682 357.641C554.218 359.957 552.513 362.09 550.598 363.999C548.79 365.794 546.74 367.292 544.517 368.445C542.245 369.599 539.755 370.183 537.237 370.153C536.317 370.156 535.406 369.962 534.558 369.583C533.625 369.117 532.881 368.309 532.463 367.306C531.778 366.093 531.433 364.697 531.467 363.282C531.477 361.599 531.764 359.931 532.313 358.353C532.881 356.696 533.428 355.227 533.958 353.958C535.087 351.488 536.267 349.158 537.499 346.968C538.731 344.778 540.01 342.659 541.335 340.61C542.267 338.989 543.198 337.331 544.126 335.635L546.917 330.551C547.327 329.841 547.646 329.075 547.866 328.274C548.032 327.603 548.214 326.914 548.401 326.208C548.399 326.064 548.415 325.92 548.449 325.781C548.482 325.643 548.498 325.502 548.498 325.36C548.641 324.981 548.757 324.591 548.846 324.193C548.914 323.84 549.07 323.512 549.296 323.242C550.216 322.846 551.196 322.63 552.189 322.605C553.383 322.537 554.38 322.497 555.178 322.497C555.778 322.497 556.459 322.497 557.219 322.554C557.937 322.592 558.657 322.539 559.362 322.394V322.605L559.464 322.816C559.533 323.192 559.583 323.572 559.614 323.954C559.653 324.367 559.611 324.783 559.491 325.178ZM558.098 308.016C558.107 307.104 558.29 306.204 558.634 305.369C558.99 304.464 559.478 303.625 560.08 302.881C560.654 302.155 561.345 301.544 562.121 301.077C562.839 300.636 563.637 300.366 564.462 300.285C565.195 300.188 565.939 300.317 566.605 300.655C567.155 300.953 567.594 301.438 567.854 302.033C568.123 302.664 568.259 303.35 568.25 304.042C568.249 304.787 568.114 305.525 567.854 306.217C567.238 307.672 566.276 308.932 565.062 309.871C563.976 310.866 562.606 311.443 561.173 311.511C560.813 311.512 560.456 311.438 560.124 311.293C559.791 311.147 559.488 310.933 559.234 310.663C558.596 309.934 558.197 309.005 558.098 308.016Z" fill="url(#paint17_linear_8_60)"/>
<path d="M592.645 342.587C590.728 345.407 588.728 348.244 586.647 351.099C584.566 353.951 582.315 356.649 579.908 359.175C577.517 361.683 574.911 363.933 572.125 365.893C569.354 367.84 566.306 369.268 563.106 370.118C562.295 370.189 561.48 370.154 560.677 370.013C558.124 369.521 555.828 368.014 554.231 365.783C553.346 364.357 552.785 362.721 552.595 361.011C552.399 359.222 552.465 357.41 552.792 355.644C553.113 353.855 553.578 352.1 554.183 350.4C555.662 346.444 557.54 342.68 559.782 339.178C562.018 335.651 564.669 332.462 567.666 329.692C569.217 328.215 570.856 326.853 572.572 325.614C574.323 324.349 576.202 323.31 578.171 322.52C579.027 322.232 580.018 321.925 581.144 321.599C582.282 321.27 583.444 321.054 584.617 320.952C585.756 320.841 586.902 320.858 588.037 321.005C589.059 321.13 590.05 321.459 590.962 321.978C591.386 322.209 591.76 322.536 592.058 322.938C592.357 323.34 592.574 323.807 592.693 324.309C592.858 325.234 592.79 326.19 592.496 327.076C592.168 328.078 591.718 329.026 591.159 329.896C590.562 330.834 590.035 331.644 589.561 332.279L589.066 333.095C588.862 333.425 588.63 333.734 588.373 334.016C588.118 334.298 587.814 334.52 587.478 334.668C587.338 334.738 587.187 334.775 587.033 334.775C586.88 334.775 586.728 334.738 586.588 334.668C586.351 334.466 586.169 334.196 586.063 333.887C585.958 333.578 585.933 333.244 585.992 332.92C586.056 332.122 586.093 331.545 586.093 331.172C586.093 330.59 586.056 329.925 585.992 329.168C585.934 328.449 585.802 327.739 585.597 327.053C585.407 326.412 585.102 325.818 584.703 325.305C584.49 325.05 584.23 324.851 583.938 324.72C583.647 324.589 583.333 324.53 583.019 324.547C582.085 324.551 581.172 324.853 580.393 325.416C579.531 326.024 578.733 326.733 578.011 327.531C577.247 328.363 576.535 329.25 575.881 330.188L574.197 332.571C572.699 334.558 571.308 336.64 570.031 338.805C568.774 340.938 567.584 343.125 566.462 345.366C565.535 347.242 564.578 349.229 563.591 351.327C562.628 353.319 562.022 355.495 561.806 357.736C561.723 358.605 561.799 359.484 562.028 360.321C562.258 361.158 562.637 361.937 563.143 362.613C564.166 363.988 565.571 364.53 567.357 364.238C569.795 363.302 572.12 362.045 574.282 360.498C576.467 358.948 578.524 357.194 580.43 355.254C582.362 353.302 584.174 351.211 585.853 348.996C587.54 346.751 589.11 344.473 590.562 342.161C590.685 341.807 590.835 341.464 591.01 341.136C591.249 340.649 591.514 340.179 591.804 339.726C592.081 339.279 592.397 338.861 592.747 338.479C592.862 338.317 593.014 338.191 593.188 338.115C593.362 338.038 593.552 338.013 593.738 338.042C594.27 338.042 594.526 338.263 594.526 338.695C594.507 339.194 594.372 339.679 594.132 340.105C593.857 340.626 593.559 341.132 593.237 341.619C593.022 341.928 592.824 342.251 592.645 342.587Z" fill="url(#paint18_linear_8_60)"/>
<path d="M592.514 360.878C592.707 362.514 593.234 363.597 594.093 364.127C595.005 364.669 596.055 364.87 597.082 364.699C598.284 364.544 599.456 364.185 600.556 363.635C601.579 363.154 602.563 362.58 603.497 361.919C605.496 360.565 607.351 358.975 609.028 357.177C610.884 355.228 612.638 353.241 614.291 351.216C615.943 349.191 617.413 347.285 618.701 345.496C620.006 343.723 621.049 342.375 621.832 341.452C622.29 340.88 622.6 340.76 622.763 341.08C622.932 341.5 622.949 341.974 622.811 342.407C622.326 343.794 621.667 345.101 620.853 346.291C619.761 347.975 618.583 349.593 617.327 351.136C615.959 352.852 614.47 354.568 612.875 356.353C611.281 358.138 609.718 359.757 608.139 361.25C606.56 362.743 605.118 364.053 603.781 365.185C602.738 366.124 601.623 366.966 600.45 367.702C599.112 368.526 597.678 369.154 596.188 369.567C594.657 370.018 593.072 370.211 591.488 370.139C589.981 370.077 588.506 369.641 587.178 368.864C585.79 368.016 584.685 366.712 584.021 365.14C583.36 363.641 583.001 362.007 582.968 360.346C582.938 358.628 583.103 356.912 583.458 355.238C583.818 353.546 584.309 351.891 584.926 350.29C585.523 348.744 586.194 347.234 586.936 345.765C588.771 341.866 591.11 338.274 593.883 335.096C596.66 331.945 599.823 329.224 603.282 327.008C604.961 325.814 606.751 324.815 608.623 324.028C610.474 323.249 612.392 322.674 614.349 322.312C615.67 322.025 617.023 321.954 618.364 322.1C619.033 322.144 619.68 322.373 620.245 322.764C620.811 323.155 621.275 323.697 621.595 324.337C622.165 325.262 622.441 326.365 622.379 327.477C622.308 328.59 622.078 329.685 621.695 330.72C621.304 331.779 620.794 332.78 620.174 333.701C619.598 334.571 618.959 335.389 618.264 336.149C616.693 338.003 614.898 339.615 612.928 340.943C610.995 342.257 608.983 343.43 606.907 344.455C605.799 344.954 604.706 345.397 603.629 345.782C602.552 346.167 601.426 346.549 600.25 346.926C599.473 347.084 598.687 347.191 597.898 347.246C597.514 347.248 597.134 347.333 596.78 347.497C596.427 347.662 596.107 347.901 595.84 348.202C595.239 348.927 594.819 349.807 594.619 350.759C594.374 351.736 594.063 352.692 593.688 353.619C593.222 354.763 592.869 355.958 592.635 357.183C592.415 358.4 592.375 359.647 592.514 360.878ZM597.293 344.913C599.529 344.791 601.686 343.98 603.513 342.573C605.368 341.156 607.15 339.628 608.849 337.997C609.696 337.216 610.497 336.379 611.249 335.491C611.991 334.616 612.662 333.673 613.254 332.671C613.649 331.893 614.101 330.915 614.627 329.748C615.104 328.784 615.34 327.701 615.312 326.607C615.248 325.824 615.017 325.366 614.627 325.223C614.136 325.087 613.616 325.144 613.159 325.383C612.481 325.676 611.839 326.061 611.249 326.527C610.587 327.042 609.949 327.594 609.339 328.181C608.749 328.753 608.228 329.296 607.76 329.828C607.292 330.36 607.013 330.698 606.881 330.841C605.005 332.943 603.286 335.204 601.74 337.602C600.221 339.993 598.738 342.43 597.293 344.913Z" fill="url(#paint19_linear_8_60)"/>
</g>
<rect x="2.5" y="2.5" width="732" height="511" rx="44.5" stroke="#363232" stroke-width="5"/>
<defs>
<linearGradient id="paint0_linear_8_60" x1="257.549" y1="136.714" x2="257.549" y2="277.952" gradientUnits="userSpaceOnUse">
<stop stop-color="#BC9A63"/>
<stop offset="0.48" stop-color="#715B38"/>
<stop offset="0.615" stop-color="#C4A067"/>
<stop offset="0.995" stop-color="#74654D"/>
</linearGradient>
<linearGradient id="paint1_linear_8_60" x1="331.468" y1="204.029" x2="331.468" y2="277.026" gradientUnits="userSpaceOnUse">
<stop stop-color="#BC9A63"/>
<stop offset="0.48" stop-color="#715B38"/>
<stop offset="0.615" stop-color="#C4A067"/>
<stop offset="0.995" stop-color="#74654D"/>
</linearGradient>
<linearGradient id="paint2_linear_8_60" x1="395.534" y1="151.86" x2="395.534" y2="276.8" gradientUnits="userSpaceOnUse">
<stop stop-color="#BC9A63"/>
<stop offset="0.48" stop-color="#715B38"/>
<stop offset="0.615" stop-color="#C4A067"/>
<stop offset="0.995" stop-color="#74654D"/>
</linearGradient>
<linearGradient id="paint3_linear_8_60" x1="474.436" y1="151.666" x2="474.436" y2="179.254" gradientUnits="userSpaceOnUse">
<stop stop-color="#BC9A63"/>
<stop offset="0.48" stop-color="#715B38"/>
<stop offset="0.615" stop-color="#C4A067"/>
<stop offset="0.995" stop-color="#74654D"/>
</linearGradient>
<linearGradient id="paint4_linear_8_60" x1="501.898" y1="136" x2="501.898" y2="278.49" gradientUnits="userSpaceOnUse">
<stop stop-color="#BC9A63"/>
<stop offset="0.48" stop-color="#715B38"/>
<stop offset="0.615" stop-color="#C4A067"/>
<stop offset="0.995" stop-color="#74654D"/>
</linearGradient>
<linearGradient id="paint5_linear_8_60" x1="143.903" y1="278.482" x2="143.903" y2="355.257" gradientUnits="userSpaceOnUse">
<stop stop-color="#BC9A63"/>
<stop offset="0.48" stop-color="#715B38"/>
<stop offset="0.615" stop-color="#C4A067"/>
<stop offset="0.995" stop-color="#74654D"/>
</linearGradient>
<linearGradient id="paint6_linear_8_60" x1="173.332" y1="287.649" x2="173.332" y2="354.111" gradientUnits="userSpaceOnUse">
<stop stop-color="#BC9A63"/>
<stop offset="0.48" stop-color="#715B38"/>
<stop offset="0.615" stop-color="#C4A067"/>
<stop offset="0.995" stop-color="#74654D"/>
</linearGradient>
<linearGradient id="paint7_linear_8_60" x1="188.046" y1="314.005" x2="188.046" y2="355.257" gradientUnits="userSpaceOnUse">
<stop stop-color="#BC9A63"/>
<stop offset="0.48" stop-color="#715B38"/>
<stop offset="0.615" stop-color="#C4A067"/>
<stop offset="0.995" stop-color="#74654D"/>
</linearGradient>
<linearGradient id="paint8_linear_8_60" x1="218" y1="315.151" x2="218" y2="355.257" gradientUnits="userSpaceOnUse">
<stop stop-color="#BC9A63"/>
<stop offset="0.48" stop-color="#715B38"/>
<stop offset="0.615" stop-color="#C4A067"/>
<stop offset="0.995" stop-color="#74654D"/>
</linearGradient>
<linearGradient id="paint9_linear_8_60" x1="250.056" y1="314.005" x2="250.056" y2="355.257" gradientUnits="userSpaceOnUse">
<stop stop-color="#BC9A63"/>
<stop offset="0.48" stop-color="#715B38"/>
<stop offset="0.615" stop-color="#C4A067"/>
<stop offset="0.995" stop-color="#74654D"/>
</linearGradient>
<linearGradient id="paint10_linear_8_60" x1="278.434" y1="295.67" x2="278.434" y2="355.257" gradientUnits="userSpaceOnUse">
<stop stop-color="#BC9A63"/>
<stop offset="0.48" stop-color="#715B38"/>
<stop offset="0.615" stop-color="#C4A067"/>
<stop offset="0.995" stop-color="#74654D"/>
</linearGradient>
<linearGradient id="paint11_linear_8_60" x1="300.505" y1="314.005" x2="300.505" y2="355.257" gradientUnits="userSpaceOnUse">
<stop stop-color="#BC9A63"/>
<stop offset="0.48" stop-color="#715B38"/>
<stop offset="0.615" stop-color="#C4A067"/>
<stop offset="0.995" stop-color="#74654D"/>
</linearGradient>
<linearGradient id="paint12_linear_8_60" x1="325.73" y1="315.151" x2="325.73" y2="379.321" gradientUnits="userSpaceOnUse">
<stop stop-color="#BC9A63"/>
<stop offset="0.48" stop-color="#715B38"/>
<stop offset="0.615" stop-color="#C4A067"/>
<stop offset="0.995" stop-color="#74654D"/>
</linearGradient>
<linearGradient id="paint13_linear_8_60" x1="425.837" y1="278.482" x2="425.837" y2="370.154" gradientUnits="userSpaceOnUse">
<stop stop-color="#BC9A63"/>
<stop offset="0.48" stop-color="#715B38"/>
<stop offset="0.615" stop-color="#C4A067"/>
<stop offset="0.995" stop-color="#74654D"/>
</linearGradient>
<linearGradient id="paint14_linear_8_60" x1="463.674" y1="322.026" x2="463.674" y2="370.154" gradientUnits="userSpaceOnUse">
<stop stop-color="#BC9A63"/>
<stop offset="0.48" stop-color="#715B38"/>
<stop offset="0.615" stop-color="#C4A067"/>
<stop offset="0.995" stop-color="#74654D"/>
</linearGradient>
<linearGradient id="paint15_linear_8_60" x1="485.745" y1="322.026" x2="485.745" y2="369.008" gradientUnits="userSpaceOnUse">
<stop stop-color="#BC9A63"/>
<stop offset="0.48" stop-color="#715B38"/>
<stop offset="0.615" stop-color="#C4A067"/>
<stop offset="0.995" stop-color="#74654D"/>
</linearGradient>
<linearGradient id="paint16_linear_8_60" x1="522.006" y1="318.588" x2="522.006" y2="370.154" gradientUnits="userSpaceOnUse">
<stop stop-color="#BC9A63"/>
<stop offset="0.48" stop-color="#715B38"/>
<stop offset="0.615" stop-color="#C4A067"/>
<stop offset="0.995" stop-color="#74654D"/>
</linearGradient>
<linearGradient id="paint17_linear_8_60" x1="549.857" y1="300.254" x2="549.857" y2="370.154" gradientUnits="userSpaceOnUse">
<stop stop-color="#BC9A63"/>
<stop offset="0.48" stop-color="#715B38"/>
<stop offset="0.615" stop-color="#C4A067"/>
<stop offset="0.995" stop-color="#74654D"/>
</linearGradient>
<linearGradient id="paint18_linear_8_60" x1="573.506" y1="320.88" x2="573.506" y2="370.154" gradientUnits="userSpaceOnUse">
<stop stop-color="#BC9A63"/>
<stop offset="0.48" stop-color="#715B38"/>
<stop offset="0.615" stop-color="#C4A067"/>
<stop offset="0.995" stop-color="#74654D"/>
</linearGradient>
<linearGradient id="paint19_linear_8_60" x1="602.934" y1="322.026" x2="602.934" y2="370.154" gradientUnits="userSpaceOnUse">
<stop stop-color="#BC9A63"/>
<stop offset="0.48" stop-color="#715B38"/>
<stop offset="0.615" stop-color="#C4A067"/>
<stop offset="0.995" stop-color="#74654D"/>
</linearGradient>
<clipPath id="clip0_8_60">
<rect width="737" height="516" rx="47" fill="white"/>
</clipPath>
</defs>
</svg>
