<svg width="1196" height="719" viewBox="0 0 1196 719" fill="none" xmlns="http://www.w3.org/2000/svg">
<path d="M54.7382 672V643C79.4049 643 97.0716 641.667 107.738 639C118.405 636.333 125.072 630.667 127.738 622C130.405 613.333 131.738 600.333 131.738 583V101C131.738 83.6667 130.405 71 127.738 63C125.072 54.3333 118.405 48.6666 107.738 46C97.0716 42.6666 79.4049 41 54.7382 41V12H301.738V41C277.072 41 259.072 42.6666 247.738 46C237.072 48.6666 230.405 54.3333 227.738 63C225.072 71 223.738 83.6667 223.738 101V558C223.738 582 226.738 599.667 232.738 611C239.405 622.333 251.405 629.667 268.738 633C286.072 636.333 311.072 638 343.738 638C381.738 638 411.738 634.667 433.738 628C455.738 620.667 472.738 607 484.738 587C496.738 567 506.738 538.333 514.738 501H541.738L530.738 672H54.7382ZM906.894 684C839.561 684 782.228 670.333 734.894 643C688.228 615.667 652.894 577 628.894 527C604.894 477 592.894 418 592.894 350C592.894 277.333 605.561 215 630.894 163C656.228 110.333 692.894 70 740.894 41.9999C788.894 13.9999 846.894 -5.05447e-05 914.895 -5.05447e-05C946.894 -5.05447e-05 973.228 2.99995 993.894 8.99995C1014.56 15 1031.23 21.3333 1043.89 27.9999C1057.23 33.9999 1068.23 36.9999 1076.89 36.9999C1084.23 36.9999 1089.56 35.6666 1092.89 32.9999C1096.89 29.6666 1099.56 26.3333 1100.89 23L1104.89 12H1130.89L1140.89 192H1114.89C1110.89 175.333 1104.56 158 1095.89 140C1087.89 121.333 1076.56 104 1061.89 87.9999C1047.23 72 1028.23 59 1004.89 49C982.228 39 954.228 34 920.894 34C884.894 34 854.228 40.6666 828.894 54C803.561 67.3333 782.561 85.3333 765.894 108C749.228 130 735.894 154.667 725.894 182C716.561 208.667 709.894 236 705.894 264C701.894 291.333 699.894 317 699.894 341C699.894 379 703.894 416.333 711.894 453C719.894 489.667 732.561 523 749.894 553C767.894 582.333 790.894 606 818.894 624C847.561 641.333 881.894 650 921.894 650C954.561 650 981.894 645.667 1003.89 637C1026.56 628.333 1045.23 617 1059.89 603C1074.56 589 1086.56 574 1095.89 558C1105.23 541.333 1113.23 525.667 1119.89 511L1145.89 524C1139.89 539.333 1131.56 556.333 1120.89 575C1110.23 593 1095.89 610.333 1077.89 627C1059.89 643.667 1036.89 657.333 1008.89 668C981.561 678.667 947.561 684 906.894 684Z" fill="#C7C7C7"/>
<path d="M813 323.5L937 453L1061 323.5L1002.31 268H871.693L813 323.5Z" fill="#C7C7C7"/>
</svg>
