<svg width="900" height="131" viewBox="0 0 900 131" fill="none" xmlns="http://www.w3.org/2000/svg">
<g clip-path="url(#clip0_18_503)">
<path d="M46.8203 66.6066C49.1679 62.5892 46.2248 57.5941 41.6485 56.7523C38.3432 56.146 35.2533 54.6882 32.6841 52.5227C30.2511 50.4075 28.4511 47.6603 27.4835 44.5854C26.4529 41.5167 26.0357 38.2755 26.2555 35.0459C26.5434 32.0512 27.4153 29.1419 28.822 26.4824C30.233 23.821 32.0128 21.3721 34.1085 19.2081C36.2237 17.0223 38.5825 15.0862 41.1389 13.4377C43.6544 11.8019 46.3287 10.4239 49.1209 9.32477C51.547 8.4219 54.0826 7.84595 56.6608 7.61207C59.0988 7.3714 61.5539 7.649 63.8669 8.41963C64.8589 8.75013 65.8271 9.3249 66.2024 10.3008C66.3846 10.7326 66.444 11.2063 66.3743 11.6697C66.3043 12.0759 66.0854 12.4414 65.7603 12.6949C64.8559 13.2727 63.6124 13.0888 62.6659 12.5828C62.5099 12.4995 62.3599 12.4036 62.2175 12.2959C61.6038 11.8585 60.9295 11.5132 60.2159 11.2707C59.3922 10.9666 58.5212 10.8107 57.6432 10.8103C56.7824 10.8102 55.9234 10.8882 55.0767 11.0436C52.1869 11.4171 49.4265 12.4688 47.021 14.1129C44.5356 15.804 42.3696 17.9218 40.6231 20.3683C38.8373 22.8322 37.4664 25.5714 36.5645 28.4775C35.6716 31.2281 35.3233 34.1264 35.5392 37.0103C35.7462 39.8177 36.6265 42.5339 38.1057 44.9292C39.5793 47.3183 41.589 49.3318 43.9755 50.8101C44.9979 51.5934 46.1348 52.2146 47.3464 52.6517C48.5757 53.1029 49.8644 53.3718 51.1716 53.4497C52.7721 53.4497 53.9715 53.0302 54.7697 52.1913C55.6746 51.2211 56.4618 50.1476 57.1152 48.993C60.4883 42.5366 64.2658 36.2996 68.4251 30.3191C72.5745 24.3767 77.4139 18.947 82.8419 14.1436C85.2967 11.9102 87.9111 9.8585 90.6642 8.00495C93.4697 6.12946 96.4792 4.57871 99.6348 3.38251C100.777 3.00191 102.052 2.63973 103.46 2.29596C104.882 1.95059 106.338 1.75919 107.801 1.72506C109.245 1.6838 110.688 1.81779 112.099 2.12408C113.461 2.42102 114.728 3.05412 115.783 3.96569C117.188 5.24773 118.028 7.03277 118.122 8.93189C118.223 10.9672 117.934 13.003 117.269 14.9294C116.584 16.9815 115.682 18.9549 114.58 20.8164C113.643 22.4156 112.62 23.9627 111.516 25.4511C107.108 31.3795 101.948 36.7096 96.1657 41.3074C90.3604 46.0011 83.8684 49.7754 76.9167 52.4982C75.3362 53.1272 73.7132 53.6441 72.06 54.0451C70.3932 54.4351 68.8697 55.286 67.6637 56.5006C65.623 58.5456 63.8843 60.871 62.5 63.4067C61.0509 66.034 59.6039 68.7187 58.159 71.4606C56.7318 74.1706 55.13 76.7851 53.3636 79.2874C52.6732 80.2615 51.9116 81.1797 51.0861 82.0352C49.4944 83.6847 49.8322 86.6738 51.9883 87.4519C53.6665 88.0576 55.3816 88.6715 57.1336 89.2935C58.9551 89.9811 60.7644 90.6277 62.5614 91.2334C64.4019 91.8583 66.2943 92.3185 68.2163 92.6084C69.6189 92.7628 71.0319 92.7998 72.4407 92.7189C73.8293 92.6645 75.1583 92.1408 76.2106 91.2334C76.6872 90.833 77.1103 90.3729 77.4693 89.8644C77.6478 89.5859 77.9088 89.37 78.2159 89.2467C78.5229 89.1235 78.8608 89.0991 79.1824 89.1769C79.7964 89.3304 80.0973 89.6189 80.0973 90.0363C80.0873 90.9027 79.5066 91.6646 79.0681 92.4119C78.6939 93.0494 78.2328 93.6344 77.6965 94.1492C76.8363 94.9635 75.8544 95.6387 74.7861 96.1504C73.681 96.6839 72.5328 97.1233 71.3539 97.4641C70.175 97.8018 69.0882 98.078 68.0997 98.3174C66.3362 98.6999 64.5278 98.8342 62.7272 98.7164C60.87 98.5984 59.0235 98.3502 57.2011 97.9736C55.3361 97.5932 53.4917 97.1179 51.6751 96.5495C49.8454 95.9806 48.1303 95.4281 46.5298 94.892C45.1601 94.4788 43.8527 93.882 42.6432 93.1179C41.4434 92.35 40.0678 91.9 38.646 91.8104C37.8491 91.8019 37.063 91.9962 36.3619 92.3752C35.6742 92.7619 34.9497 93.1425 34.1884 93.5231C32.5078 94.3191 30.7482 94.9364 28.9386 95.3647C27.3381 95.8271 25.6803 96.265 23.9652 96.6784C22.2542 97.0997 20.5168 97.4053 18.7646 97.593C17.001 97.7827 15.2257 97.8402 13.4535 97.7649C11.6868 97.6946 9.93758 97.387 8.25293 96.8503C6.96101 96.4045 5.72483 95.8113 4.56892 95.0823C3.34553 94.3379 2.2644 93.3817 1.37611 92.2585C0.567501 91.2673 0.0887999 90.0482 0.00688714 88.7717C-0.0729331 87.544 0.541069 86.2426 1.84889 84.9473C4.07525 82.7503 6.88647 81.2395 9.94757 80.595C12.9458 79.8894 16.0058 79.4782 19.0839 79.3673C21.1127 79.297 23.1431 79.4514 25.138 79.8277C27.1854 80.2039 29.2089 80.6999 31.1982 81.3132C31.9681 81.497 32.7155 81.7646 33.427 82.1113C34.1478 82.4797 34.97 82.6005 35.7663 82.455C36.1509 82.4055 36.5184 82.2657 36.8385 82.047C37.1587 81.8282 37.4225 81.5368 37.6083 81.1966C37.989 80.509 38.3697 79.8645 38.7504 79.2568C41.2064 75.6799 43.4721 72.1768 45.5474 68.7473C45.9734 68.0433 46.3977 67.3297 46.8203 66.6066ZM30.161 87.4765C30.1607 87.4765 30.1604 87.4764 30.16 87.4763C27.6336 86.3017 25.0181 85.3289 22.3381 84.5667C19.6122 83.7762 16.7505 83.567 13.9386 83.9529C13.091 84.1259 12.2544 84.3493 11.4335 84.622C10.5748 84.9054 9.76506 85.3195 9.03271 85.8497C8.34711 86.3389 7.81305 87.0112 7.49157 87.7895C7.32144 88.2178 7.23869 88.6757 7.24818 89.1364C7.25767 89.5971 7.35921 90.0513 7.54683 90.4722C7.80397 91.2561 8.33035 91.9237 9.03271 92.3567C9.7497 92.7915 10.5441 93.0833 11.3721 93.2161C12.2398 93.3679 13.1191 93.4439 14 93.4433C14.878 93.4433 15.7315 93.4065 16.5726 93.3267C19.1038 93.1124 21.5879 92.5163 23.9407 91.5587C26.2547 90.6062 28.3662 89.2222 30.1626 87.4804C30.1641 87.479 30.1631 87.4765 30.161 87.4765ZM71.4147 50.1287C71.4135 50.1287 71.4132 50.1271 71.4143 50.1267C73.3896 49.3661 75.3302 48.5667 77.236 47.7284C79.1218 46.8996 80.8892 45.8241 82.4919 44.5302C84.4516 43.2508 86.3206 41.8376 88.0854 40.3006L93.3413 35.7334C96.2487 33.0551 98.9613 30.1728 101.458 27.1086C104.023 23.9586 106.285 20.5734 108.212 16.9981C108.997 15.6693 109.705 14.296 110.331 12.8852C111.033 11.4303 111.248 9.78808 110.945 8.20138C110.767 7.36636 110.278 6.63066 109.575 6.14492C108.913 5.70032 108.143 5.44361 107.347 5.40214C106.5 5.37158 105.653 5.46885 104.835 5.69066C104.034 5.89409 103.249 6.16094 102.49 6.48869C100.828 7.31793 99.2902 8.37588 97.9217 9.6317C96.5103 10.9283 95.2101 12.3411 94.0351 13.8551C92.8071 15.4205 91.6528 17.0165 90.5537 18.6556C89.4546 20.2946 88.3986 21.8354 87.41 23.2842C84.5119 27.6958 81.7878 32.13 79.2377 36.5867C76.6876 41.0432 74.0802 45.557 71.4156 50.1281C71.4154 50.1285 71.4151 50.1287 71.4147 50.1287Z" fill="url(#paint0_linear_18_503)"/>
<path d="M110.582 87.0776C110.807 86.0333 109.503 85.3704 108.79 86.1664C107.57 87.5305 106.327 88.9208 105.063 90.3373C102.982 92.6972 100.531 94.7022 97.8051 96.2734C96.7585 96.8758 95.646 97.3558 94.4895 97.7037C93.3992 98.0393 92.2572 98.1745 91.1186 98.1027C90.0328 98.0276 88.9805 97.6951 88.0486 97.1328C87.0057 96.4554 86.1907 95.4801 85.7093 94.3336C85.1716 93.1109 84.9176 91.7825 84.9663 90.4478C85.0061 89.0601 85.1975 87.6809 85.5374 86.3349C85.8795 84.9591 86.3567 83.6206 86.9618 82.3386C87.5759 81.0413 88.1899 79.8135 88.8039 78.6553C90.5558 75.7579 92.3262 72.8052 94.115 69.7972C95.9038 66.7893 97.6741 63.8018 99.4261 60.8347C100.114 59.6929 100.744 58.5307 101.317 57.3479C101.888 56.1693 102.435 54.8925 102.969 53.5235C103.049 53.2166 103.122 52.8176 103.202 52.2958C103.282 51.774 103.35 51.3075 103.429 50.8102C103.502 50.3263 103.617 49.8497 103.773 49.3861C103.996 48.6048 104.898 48.3485 105.71 48.3145C105.819 48.3099 105.935 48.3049 106.057 48.2995L108.968 48.1829C110.073 48.146 111.178 48.1276 112.283 48.1276H114.477C114.799 48.1276 115.159 48.1764 115.32 48.4555C115.402 48.5979 115.439 48.7618 115.427 48.9257V49.9017C115.488 51.3706 115.235 52.8356 114.684 54.1988C114.169 55.5637 113.538 56.8821 112.799 58.1398C111.194 61.336 109.479 64.4197 107.654 67.3908C105.98 70.4438 104.228 73.4149 102.398 76.3042C100.568 79.1935 98.7793 82.1258 97.0315 85.101C96.4783 86.1503 96.0002 87.2375 95.6009 88.3545C95.1015 89.6845 95.2734 90.769 96.1166 91.608C96.3553 91.8585 96.6525 92.0457 96.9816 92.1529C97.3106 92.2601 97.6611 92.2838 98.0016 92.2219C98.7598 92.0941 99.4919 91.8432 100.169 91.4791C100.877 91.1101 101.531 90.6476 102.115 90.104C102.686 89.5761 103.159 89.1157 103.54 88.7351C106.013 86.4778 108.229 83.9537 110.147 81.209C112.124 78.3893 114.027 75.6474 115.857 72.9832C117.834 70.0898 119.676 67.1207 121.383 64.0759C123.083 61.0514 124.59 57.9226 125.896 54.7083C126.312 53.5432 126.788 52.4 127.32 51.2829C128.116 49.5171 129.908 48.4723 131.839 48.3202C132.324 48.282 132.836 48.2403 133.374 48.1952C135.216 48.0478 136.825 47.968 138.12 47.968H138.771C139.632 47.968 140.298 48.736 140.061 49.5641C139.894 50.0705 139.761 50.5873 139.662 51.111C139.571 51.6113 139.396 52.0927 139.146 52.5352C137.766 55.5993 136.164 58.5579 134.35 61.3872C132.521 64.2519 130.73 67.1166 128.978 69.9814C127.226 72.8461 125.589 75.7599 124.066 78.7229C122.537 81.7005 121.349 84.8408 120.523 88.0844C120.296 89.9935 120.658 91.0739 121.61 91.344C122.562 91.6141 123.685 91.209 124.981 90.1163C128.427 87.2034 131.532 83.9083 134.234 80.2944C136.819 76.855 139.264 73.3468 141.57 69.7697C141.857 69.3242 142.184 68.8563 142.696 68.7189C142.954 68.6495 143.225 68.6425 143.487 68.6984C144.604 68.9422 143.752 70.629 143.139 71.5939C140.809 75.2632 138.317 78.8304 135.664 82.2956C132.619 86.2568 129.275 89.9795 125.662 93.4312C124.037 94.7684 122.253 95.9003 120.351 96.8013C118.557 97.6688 116.517 97.8858 114.58 97.4152C113.894 97.2974 113.24 97.0385 112.66 96.6549C112.08 96.2713 111.586 95.7714 111.209 95.1869C110.55 94.039 110.197 92.7411 110.183 91.4177C110.149 89.9605 110.283 88.5042 110.582 87.0776Z" fill="url(#paint1_linear_18_503)"/>
<path d="M174.144 15.8565C174.19 15.5201 174.265 15.1889 174.368 14.8665C174.554 14.2839 174.886 13.7225 175.433 13.45C175.709 13.3127 176.01 13.2334 176.317 13.2169C177.737 13.042 179.147 12.7941 180.542 12.4741C181.926 12.1402 183.356 12.0447 184.772 12.1917C186 12.3452 186.657 12.8731 186.768 13.7878C186.866 14.852 186.73 15.9248 186.369 16.9308C185.98 18.1248 185.463 19.2733 184.827 20.3562C184.177 21.4611 183.704 22.2837 183.397 22.8117C180.196 28.2915 176.997 33.6997 173.8 39.0362C171.466 42.9327 169.09 46.8455 166.673 50.7747C166.127 51.6625 167.212 52.642 168.035 52.0011C169.406 50.9212 170.857 49.9464 172.376 49.0853C173.841 48.2512 175.419 47.6311 177.06 47.2437C178.73 46.8623 180.46 46.8247 182.144 47.1332C183.334 47.2816 184.46 47.7553 185.399 48.5021C186.175 49.1566 186.765 50.0033 187.112 50.9576C187.46 51.9418 187.614 52.9841 187.566 54.0269C187.523 55.1638 187.352 56.2922 187.056 57.3909C186.289 60.2822 185.044 63.0251 183.372 65.5063C181.694 68.019 180.057 70.4929 178.46 72.9279C177.773 74.0697 177.011 75.2115 176.176 76.3533C175.335 77.4951 174.518 78.6799 173.72 79.8954C172.922 81.1108 172.179 82.3508 171.491 83.5786C170.827 84.7448 170.292 85.9798 169.895 87.2618C169.363 88.9356 169.567 89.9833 170.509 90.4048C171.45 90.8263 172.574 90.6933 173.88 90.0058C178 87.1797 181.743 83.8399 185.018 80.0672C188.314 76.2881 191.389 72.3221 194.228 68.1889C194.842 67.4277 195.456 67.0839 196.113 67.1576C197.561 67.3199 196.076 69.5991 195.22 70.7783C193.593 73.0193 191.948 75.291 190.286 77.5934C188.225 80.4504 186.013 83.1962 183.661 85.8192C181.334 88.3863 178.764 90.7218 175.986 92.7928C173.851 94.3963 171.538 95.7427 169.095 96.8064C167.451 97.5221 165.694 98.0279 163.902 97.9554C163.013 97.9198 162.139 97.7113 161.33 97.3415C160.714 97.0688 160.158 96.675 159.698 96.1836C159.237 95.6922 158.879 95.1131 158.646 94.4809C158.222 93.234 158.104 91.9033 158.303 90.6012C158.506 89.1753 158.871 87.777 159.389 86.4331C159.841 85.1977 160.374 83.9939 160.986 82.8297C162.435 79.9363 163.996 77.1575 165.671 74.4933C167.345 71.8291 169.058 69.169 170.81 66.513C171.191 65.9073 171.805 64.9763 172.652 63.7199C173.51 62.4319 174.293 61.0956 174.997 59.7175C175.671 58.4454 176.151 57.0798 176.422 55.6659C176.651 54.3686 176.385 53.3783 175.624 52.6948C175.01 52.2344 174.119 52.259 172.94 52.7501C171.656 53.3071 170.423 53.9768 169.256 54.7513C167.995 55.5598 166.793 56.4562 165.658 57.4339C164.827 58.1229 164.044 58.8674 163.313 59.6622C160.952 62.3275 158.778 65.1518 156.804 68.1152C154.819 71.0863 152.914 74.1127 151.088 77.1943C149.262 80.276 147.453 83.3801 145.66 86.5067C143.876 89.6334 141.991 92.6802 140.005 95.6473C139.017 97.0899 137.967 97.8142 136.868 97.8142H132.693C132.106 97.7395 131.511 97.7395 130.924 97.8142C130.323 97.9061 129.708 97.8274 129.15 97.5871C128.54 97.2801 128.35 96.7277 128.579 95.9296C128.857 95.0214 129.221 94.1416 129.666 93.3023C130.151 92.3685 130.705 91.4718 131.323 90.6197C131.937 89.7787 132.349 89.1709 132.582 88.7781C138.673 78.4978 144.766 68.1786 150.861 57.8206C156.956 47.4626 162.844 37.0473 168.526 26.5747C169.594 24.8231 170.699 23.092 171.841 21.3813C172.971 19.7125 173.754 17.8337 174.144 15.8565Z" fill="url(#paint2_linear_18_503)"/>
<path d="M229.539 18.5944C229.056 20.6975 228.077 22.6548 226.684 24.3033C224.922 26.1241 222.923 27.6995 220.74 28.9872C219.733 29.7177 218.613 30.2777 217.425 30.6446C216.588 30.9754 215.669 31.0355 214.797 30.8165C214.45 30.6896 214.079 30.5296 213.966 30.1783C213.953 30.1396 213.942 30.1006 213.932 30.0613C213.886 29.8816 213.896 29.686 213.997 29.5303C214.063 29.4289 214.148 29.3403 214.248 29.2701C214.426 29.1459 214.642 29.0871 214.858 29.1038C215.462 29.0819 216.058 28.9659 216.626 28.76C217.163 28.535 218 28.1257 219.138 27.5323C220.11 27.1006 220.885 26.321 221.311 25.3469C221.407 25.0469 221.415 24.7258 221.334 24.4214C221.254 24.117 221.088 23.8419 220.857 23.6281C219.918 22.8468 219.108 21.9229 218.456 20.8902C218.111 20.3489 217.891 19.7375 217.811 19.1005C217.731 18.4634 217.794 17.8167 217.996 17.207C218.487 15.4901 219.61 14.0228 221.139 13.1002C221.829 12.5938 222.623 12.2487 223.464 12.0904C224.304 11.9321 225.17 11.9646 225.996 12.1856C226.624 12.3536 227.211 12.6476 227.722 13.0497C228.233 13.4518 228.657 13.9535 228.968 14.5244C229.343 15.1249 229.588 15.7976 229.686 16.4987C229.784 17.1999 229.734 17.9138 229.539 18.5944Z" fill="url(#paint3_linear_18_503)"/>
<path d="M255.806 32.5354C257.329 36.1859 258.833 40.0123 260.319 44.0147C261.781 47.9127 262.874 51.9388 263.586 56.0404C264.267 60.0409 264.401 64.1154 263.985 68.1521C263.539 72.2811 262.193 76.2623 260.043 79.8156C258.783 82.2798 257.1 84.5032 255.069 86.384C253.032 88.2672 250.834 89.968 248.5 91.4668C246.036 93.0443 243.436 94.4001 240.733 95.5184C237.893 96.7094 234.947 97.6282 231.934 98.2624C228.933 98.9048 225.866 99.1912 222.798 99.1156C219.834 99.0569 216.9 98.5179 214.109 97.5196C211.775 96.6543 209.575 95.4617 207.576 93.9776C205.545 92.496 203.82 90.6343 202.499 88.4957C201.112 86.1407 200.189 83.5424 199.779 80.8408C199.358 78.1595 199.222 75.4414 199.373 72.7316C199.455 70.1201 199.944 67.5374 200.822 65.0766C201.716 62.5595 202.882 60.1472 204.298 57.8821C205.731 55.6007 207.375 53.459 209.21 51.4855C210.984 49.558 212.896 47.7628 214.932 46.1142C216.796 44.6577 218.829 43.4314 220.986 42.4617C223.362 41.34 225.88 40.551 228.471 40.1167C230.92 39.6963 233.43 39.7946 235.839 40.4052C238.24 41.0435 240.292 42.6031 241.549 44.7453C242.299 45.9543 242.834 47.2833 243.133 48.674C243.437 50.1 243.571 51.5567 243.532 53.0141C243.497 54.492 243.324 55.9633 243.017 57.4094C242.74 58.7711 242.359 60.1093 241.875 61.4118C241.366 63.1447 240.511 64.7567 239.363 66.1509C238.32 67.3014 237.173 68.3535 235.937 69.2939C235.403 69.6745 235.078 69.7666 234.961 69.5763C234.833 69.2895 234.794 68.9707 234.85 68.6616C234.901 68.1917 235.017 67.731 235.194 67.2927C235.323 66.9127 235.494 66.5483 235.704 66.2061C236.216 65.4117 236.55 64.5151 236.68 63.5788C236.774 62.6068 236.98 61.6489 237.294 60.7243C237.826 58.4938 237.747 56.1614 237.067 53.9717C236.498 51.8224 235.449 49.8303 233.997 48.1461C232.388 46.3189 230.181 45.1241 227.771 44.7759C225.374 44.4316 222.928 44.8099 220.747 45.8625C218.493 47.0425 216.523 48.6995 214.975 50.7182C213.413 52.6907 212.054 54.8151 210.917 57.0595C209.688 59.2998 208.784 61.7037 208.233 64.1988C207.665 66.7269 207.458 69.3228 207.619 71.909C207.772 74.443 208.213 76.9515 208.933 79.3859C209.62 81.7906 210.654 84.0821 212.003 86.1876C213.332 88.2391 215.016 90.0373 216.977 91.4975C219.075 93.0333 221.496 94.0686 224.056 94.5239C226.624 95.0631 229.269 95.1276 231.86 94.7142C234.468 94.3524 236.997 93.5599 239.345 92.3692C241.762 91.0943 243.883 89.3248 245.571 87.1759C247.25 85.0565 248.722 82.7809 249.967 80.3804C251.251 78.0537 252.122 75.5217 252.54 72.8973C252.957 70.2916 253.054 67.6445 252.828 65.0152C252.588 62.3546 252.051 59.7293 251.226 57.1884C250.417 54.6667 249.39 52.2203 248.156 49.8772C246.311 46.191 244.961 42.2776 244.14 38.2382C243.31 34.2581 243.137 30.1686 243.631 26.1327C244.11 22.1944 245.362 18.3894 247.315 14.9358C249.431 11.2955 252.416 8.23549 256.003 6.02851C258.013 4.52327 260.249 3.34639 262.628 2.54174C265.068 1.68061 267.635 1.2365 270.223 1.22805C272.707 1.21408 275.164 1.73981 277.425 2.76887C279.739 3.86333 281.699 5.58637 283.08 7.74121C284.538 9.99499 285.364 12.598 285.475 15.2795C285.647 18.0668 285.273 20.8609 284.376 23.5054C283.482 26.1418 282.064 28.5703 280.207 30.6447C278.434 32.6834 276.117 34.1742 273.526 34.9418C272.666 35.2592 271.754 35.4132 270.837 35.396C270.346 35.3224 270.094 35.1321 270.094 34.8251C270.128 34.4415 270.29 34.0804 270.555 33.8C270.838 33.435 271.185 33.125 271.58 32.8853C272.61 32.0799 273.482 31.0914 274.153 29.9694C274.877 28.7908 275.54 27.7042 276.154 26.7159C277.397 24.3978 278.044 21.8076 278.039 19.1776C278.104 16.5107 277.598 13.8609 276.553 11.406C275.608 9.14805 273.992 7.23462 271.924 5.92416C270.721 5.1618 269.357 4.75558 267.832 4.70549C265.515 4.62937 263.25 5.52251 261.415 6.9395C260.25 7.83921 259.211 8.89915 258.33 10.0923C256.812 12.1746 255.688 14.5173 255.014 17.0045C254.324 19.5527 254.055 22.1964 254.216 24.8313C254.355 27.4647 254.891 30.062 255.806 32.5354Z" fill="url(#paint4_linear_18_503)"/>
<path d="M329.487 31.8475C328.769 32.6463 328.151 33.5284 327.645 34.4749C327.127 35.4272 326.741 36.4453 326.496 37.5013C326.269 38.5328 326.213 39.5946 326.331 40.6443C326.456 41.7295 326.881 42.7583 327.559 43.6154C328.122 44.5096 328.895 45.2528 329.811 45.7802C330.727 46.3076 331.758 46.6034 332.814 46.6418C334.905 46.7699 336.993 46.3465 338.869 45.414C340.923 44.4228 342.781 43.0666 344.352 41.4116C345.969 39.7194 347.353 37.8178 348.465 35.7579C349.609 33.6587 350.512 31.4366 351.155 29.1342C351.784 26.92 352.146 24.6387 352.235 22.3387C352.302 20.2588 352.013 18.1828 351.382 16.2C350.758 14.1792 349.495 12.4152 347.784 11.1724C346.817 10.4239 345.708 9.88081 344.523 9.57634C343.319 9.26522 342.083 9.09222 340.839 9.06069C339.578 9.0229 338.317 9.09892 337.069 9.28782C335.858 9.47068 334.657 9.71863 333.471 10.0306C328.797 11.1226 324.42 13.2288 320.651 16.2C316.861 19.1856 313.498 22.6762 310.655 26.5744C307.446 30.9319 304.617 35.557 302.2 40.3987C299.765 45.2603 297.814 50.3492 296.373 55.592C295.837 57.495 295.381 59.4942 295.004 61.5895C294.621 63.6793 294.43 65.7999 294.433 67.9246C294.425 70.0171 294.631 72.1048 295.047 74.1554C295.459 76.1543 296.213 78.067 297.276 79.8091C298.448 81.8232 300.146 83.4805 302.188 84.6035C304.183 85.6847 306.36 86.3881 308.61 86.6783C310.945 86.9855 313.312 86.9462 315.635 86.5617C317.941 86.2083 320.215 85.6746 322.438 84.9656C328.1 82.9708 333.347 79.9514 337.917 76.0584C342.537 72.1927 346.301 67.4072 348.969 62.0069C349.116 61.7798 349.35 61.3931 349.65 60.9204C349.933 60.4636 350.281 60.05 350.682 59.6926C350.992 59.386 351.392 59.1861 351.824 59.1217C352.205 59.0849 352.505 59.3366 352.739 59.8645C352.892 60.3074 352.912 60.7858 352.794 61.2396C352.677 61.7675 352.524 62.32 352.34 62.8909C352.153 63.4421 351.923 63.9778 351.652 64.4931C351.435 64.92 351.186 65.3303 350.909 65.7208C347.239 71.2234 343.152 76.4362 338.684 81.3131C334.198 86.2142 328.951 90.3599 323.144 93.5905C321.031 94.7582 318.835 95.7697 316.574 96.6169C314.28 97.4828 311.91 98.1322 309.495 98.5567C307.118 98.974 304.698 99.0895 302.292 98.9005C299.869 98.7043 297.494 98.1047 295.268 97.1264C293.031 96.1711 291.009 94.7743 289.325 93.0196C287.659 91.2781 286.238 89.3183 285.1 87.194C283.951 85.0421 283.068 82.758 282.472 80.3923C281.859 78.0499 281.501 75.6479 281.404 73.2285C281.255 68.2107 281.891 63.2004 283.289 58.379C284.696 53.5148 286.631 48.8193 289.061 44.3766C291.505 39.9116 294.334 35.668 297.515 31.6941C300.636 27.7722 304.034 24.0794 307.683 20.6444C311.507 17.0514 315.594 13.7478 319.908 10.7611C324.248 7.7558 328.976 5.35406 333.963 3.62181C335.886 2.98906 337.852 2.49265 339.845 2.13624C341.896 1.76471 343.986 1.65334 346.065 1.80475C348.087 1.95102 350.075 2.41507 351.953 3.17982C353.855 3.96756 355.553 5.17654 356.92 6.71571C358.55 8.52747 359.677 10.7352 360.187 13.1184C360.676 15.466 360.772 17.8787 360.469 20.2577C360.147 22.7014 359.529 25.0967 358.627 27.3908C357.79 29.6096 356.763 31.7518 355.557 33.7935C354.374 35.899 353.049 37.9213 351.591 39.8462C350.107 41.8187 348.464 43.6665 346.679 45.3711C344.914 47.0639 343.001 48.5945 340.962 49.9444C338.979 51.2616 336.813 52.2812 334.534 52.9708C332.417 53.5687 330.214 53.7992 328.019 53.6522C325.831 53.4782 323.771 52.5494 322.192 51.0248C320.481 49.3562 319.428 47.1266 319.227 44.7449C318.987 42.4002 319.219 40.0314 319.908 37.7775C320.743 35.3479 322.001 33.0848 323.623 31.0925C325.232 29.1031 327.187 27.4207 329.394 26.1263C329.959 25.7423 330.55 25.3977 331.163 25.095C332.044 24.6381 332.962 24.2561 333.907 23.9532C334.773 23.6653 335.678 23.5121 336.591 23.4989C336.934 23.4593 337.281 23.5398 337.572 23.7266C337.863 23.9135 338.08 24.1952 338.187 24.5241C338.35 24.8816 338.37 25.288 338.244 25.66C338.117 26.032 337.853 26.3415 337.505 26.5253C336.86 26.9584 336.17 27.3226 335.449 27.6118C334.38 28.2257 333.336 28.8089 332.305 29.3798C331.211 30.0071 330.253 30.846 329.487 31.8475Z" fill="url(#paint5_linear_18_503)"/>
<path d="M387.835 13.8123C387.805 15.1699 387.333 16.468 386.682 17.6594C383.933 22.6859 381.098 27.6814 378.177 32.6458C374.906 38.2034 371.613 43.8019 368.298 49.4413C364.982 55.0766 361.687 60.7303 358.412 66.4025C355.137 72.0747 352.014 77.843 349.042 83.7075C348.535 84.5559 348.078 85.4331 347.673 86.3348C347.167 87.3196 346.968 88.4339 347.102 89.5331C347.099 89.8638 347.195 90.1878 347.378 90.4635C347.561 90.7392 347.822 90.9539 348.128 91.08C348.815 91.4177 349.767 91.3256 350.983 90.7915C353.037 89.5765 354.937 88.1194 356.644 86.4515C358.351 84.7823 359.952 83.0089 361.439 81.1415C362.936 79.2573 364.328 77.292 365.608 75.2545C366.906 73.2083 368.162 71.1907 369.378 69.2017C369.683 68.5559 370.047 67.9394 370.465 67.3601C371.034 66.5416 371.587 66.1324 372.123 66.1324C372.281 66.1111 372.442 66.1525 372.57 66.2476C372.698 66.3428 372.785 66.4842 372.81 66.6419C372.884 67.0189 372.884 67.4067 372.81 67.7837C372.734 68.2101 372.598 68.6235 372.405 69.0114C372.14 69.5425 371.824 70.0461 371.468 70.5208C369.673 72.9105 367.892 75.4726 366.124 78.2072C364.185 81.1973 362.067 84.0673 359.781 86.8014C357.556 89.4846 355.026 91.8991 352.241 93.9959C349.508 96.0484 346.344 97.4546 342.988 98.1089C340.242 98.2644 338.375 97.5973 337.389 96.1076C336.361 94.4885 335.843 92.5979 335.903 90.681C335.918 88.4525 336.266 86.2386 336.934 84.1126C337.47 82.2524 338.158 80.4394 338.991 78.6922C341.266 73.9851 343.801 69.4087 346.586 64.9845C349.366 60.5646 352.09 56.0629 354.759 51.4793C357.96 46.1591 361.12 40.8389 364.239 35.5187C367.358 30.1985 370.481 24.864 373.609 19.5152C373.893 19.0223 374.142 18.5094 374.352 17.9805C374.363 17.9502 374.374 17.9199 374.386 17.8896C374.728 16.953 374.751 15.9391 374.751 14.9418C374.732 14.0346 375.441 13.3393 376.339 13.2093C376.535 13.1809 376.748 13.1507 376.98 13.1186C378.085 12.9652 379.3 12.8117 380.633 12.6582C381.965 12.5048 383.224 12.3574 384.403 12.204C384.535 12.1843 384.668 12.1658 384.8 12.1485C386.229 11.9621 387.888 12.3722 387.835 13.8123Z" fill="url(#paint6_linear_18_503)"/>
<path d="M370.065 88.6186C370.29 90.3743 370.904 91.5366 371.907 92.1054C372.971 92.687 374.196 92.9027 375.395 92.7193C376.797 92.5528 378.164 92.1675 379.447 91.5775C380.641 91.0609 381.789 90.4448 382.88 89.7359C385.213 88.2843 387.377 86.5774 389.333 84.6469C391.506 82.5556 393.553 80.4235 395.473 78.2504C397.392 76.0773 399.106 74.0413 400.612 72.1424C402.135 70.2394 403.363 68.7927 404.296 67.8023C404.83 67.1885 405.192 67.0595 405.383 67.4033C405.58 67.8539 405.602 68.3616 405.444 68.8275C404.874 70.3144 404.103 71.7167 403.154 72.9957C401.879 74.8016 400.508 76.5373 399.046 78.1951C397.442 80.0245 395.708 81.8906 393.846 83.7936C391.983 85.6966 390.141 87.4482 388.32 89.0483C386.478 90.6444 384.795 92.0563 383.236 93.2718C382.034 94.2505 380.755 95.1292 379.41 95.8991C377.849 96.7835 376.176 97.4564 374.437 97.9003C372.652 98.3845 370.802 98.5915 368.954 98.5142C367.178 98.464 365.438 98.0039 363.87 97.1698C362.24 96.2646 360.939 94.8653 360.155 93.1735C359.385 91.5657 358.966 89.8119 358.927 88.0293C358.893 86.1856 359.084 84.3445 359.498 82.5475C359.918 80.7314 360.493 78.9549 361.218 77.2375C361.912 75.5793 362.693 73.9585 363.557 72.3818C365.701 68.2058 368.43 64.357 371.662 60.9515C374.905 57.5768 378.597 54.6643 382.634 52.296C384.591 51.0132 386.678 49.9412 388.86 49.0977C391.019 48.2592 393.257 47.6421 395.54 47.2561C397.082 46.9485 398.661 46.8719 400.225 47.029C401.006 47.0756 401.762 47.3204 402.421 47.7404C403.081 48.1604 403.623 48.7417 403.995 49.4292C404.661 50.4223 404.982 51.6062 404.91 52.7994C404.83 53.9946 404.561 55.1695 404.112 56.28C403.656 57.4159 403.06 58.4904 402.337 59.4782C401.66 60.4152 400.911 61.2978 400.096 62.1179C398.26 64.1056 396.164 65.8361 393.864 67.2621C391.607 68.6702 389.261 69.9293 386.84 71.0313C385.546 71.5633 384.271 72.038 383.015 72.4555C381.758 72.8729 380.444 73.2821 379.073 73.6832C378.166 73.8532 377.249 73.968 376.328 74.027C375.88 74.0286 375.436 74.1202 375.024 74.2963C374.612 74.4724 374.239 74.7294 373.927 75.0521C373.23 75.8326 372.74 76.7763 372.503 77.7961C372.217 78.8447 371.854 79.8706 371.416 80.8655C370.87 82.0922 370.458 83.3744 370.188 84.6899C369.938 85.9846 369.897 87.3109 370.065 88.6186ZM379.933 64.9957C378.071 67.6893 380.234 70.87 382.904 68.9748C385.07 67.4554 387.148 65.8158 389.13 64.0639C390.118 63.2264 391.053 62.3284 391.93 61.3751C392.798 60.4362 393.583 59.4236 394.275 58.3487C394.73 57.5139 395.264 56.4642 395.872 55.2119C396.431 54.1787 396.706 53.0159 396.67 51.8417C396.596 51.0007 396.326 50.5096 395.872 50.3562C395.298 50.2109 394.692 50.2717 394.159 50.528C393.367 50.8426 392.619 51.255 391.93 51.7558C391.16 52.3268 390.42 52.9374 389.713 53.5851C389.032 54.199 388.418 54.8128 387.871 55.353C387.325 55.8933 386.993 56.2861 386.84 56.4396C384.651 58.6956 382.645 61.1219 380.841 63.6955C380.537 64.1268 380.234 64.5602 379.933 64.9957Z" fill="url(#paint7_linear_18_503)"/>
<path d="M440.098 50.4851C440.95 49.0568 442.428 48.0604 444.091 48.0604H444.49C448.192 48.0604 450.521 52.0559 448.722 55.2914C446.929 58.5164 445.159 61.7413 443.414 64.9663C440.365 70.6016 437.127 76.0835 433.701 81.4119C433.172 82.2974 432.696 83.2137 432.276 84.1559C431.645 85.474 431.147 86.8518 430.79 88.2688C430.453 89.3808 430.413 90.5618 430.674 91.6942C431.262 93.6863 434.31 91.913 435.968 90.6629C437.06 89.8404 438.08 88.9247 439.018 87.925C440.672 86.1501 442.198 84.2609 443.586 82.2713C444.99 80.2496 446.38 78.23 447.755 76.2124C449.104 74.2241 450.594 72.3347 452.213 70.5587C452.827 69.9448 453.312 69.7238 453.699 69.8773C454.22 70.0554 454.367 70.6858 454.07 71.1495C454.024 71.2218 453.976 71.2929 453.926 71.3628C451.821 73.8661 449.875 76.4986 448.099 79.2449C446.28 82.0459 444.316 84.7506 442.217 87.348C440.175 89.8821 437.856 92.18 435.303 94.1988C433.551 95.5637 431.607 96.6491 429.538 97.4224C427.566 98.1596 425.284 98.7508 423.426 97.7621C423.121 97.6 422.852 97.4026 422.618 97.1699C421.757 96.2864 421.163 95.1777 420.905 93.9716C420.598 92.6232 420.463 91.2411 420.506 89.8587C420.538 88.6094 418.894 87.8618 418.014 88.7495C417.858 88.9074 417.698 89.0684 417.534 89.2326C416.204 90.5667 414.738 91.9172 413.138 93.2841C411.567 94.6353 409.906 95.8762 408.164 96.998C406.637 98.0231 404.935 98.7596 403.142 99.1711C401.607 99.5196 400.001 99.3579 398.567 98.7107C397.163 98.0682 396.003 96.6788 395.086 94.5425C394.192 92.5123 393.762 90.3082 393.827 88.0908C393.911 85.8961 394.296 83.7233 394.969 81.6329C395.659 79.5011 396.553 77.4412 397.64 75.4819C398.745 73.5052 399.869 71.6411 401.011 69.8895C403.514 66.0973 406.448 62.6077 409.755 59.4906C413.049 56.3916 416.714 53.7113 420.665 51.5103C422.203 50.6741 423.79 49.932 425.418 49.2881C427.095 48.5931 428.866 48.1504 430.674 47.9744C432.297 47.8075 433.935 48.0832 435.414 48.7724C436.186 49.1389 436.86 49.6994 437.437 50.454C438.1 51.3213 439.554 51.4312 440.098 50.4851ZM426.277 74.1069C426.277 74.1028 426.278 74.0988 426.28 74.0953C426.786 73.193 427.338 72.3178 427.935 71.4733C428.807 70.1801 429.74 68.6966 430.735 67.0228C431.758 65.2816 432.69 63.4887 433.529 61.6514C434.333 59.9726 434.951 58.2104 435.371 56.3967C435.721 55.085 435.702 53.702 435.315 52.4004C434.471 50.0309 430.874 50.6171 428.732 51.9361C428.704 51.9537 428.676 51.9713 428.647 51.9891C427.409 52.7564 426.243 53.6359 425.166 54.6165C424.042 55.6234 422.974 56.6911 421.967 57.8147C420.972 58.9197 420.021 59.9653 419.112 60.9516C417.282 63.4071 415.491 65.9199 413.739 68.4899C411.987 71.06 410.35 73.6874 408.827 76.372C408.367 77.213 407.796 78.2566 407.114 79.515C406.417 80.7879 405.801 82.1043 405.272 83.4561C404.755 84.7624 404.391 86.1239 404.186 87.5137C403.964 88.71 404.182 89.9461 404.8 90.9944C404.989 91.4279 405.28 91.8096 405.647 92.1077C406.015 92.4057 406.448 92.6112 406.912 92.7071C407.811 92.8595 408.734 92.7814 409.595 92.4799C410.543 92.1614 411.445 91.7197 412.278 91.1663C413.039 90.6877 413.749 90.1323 414.396 89.5088C416.763 87.2965 418.94 84.8899 420.905 82.3143C422.895 79.7186 424.689 76.9791 426.274 74.1183C426.276 74.1148 426.277 74.1109 426.277 74.1069Z" fill="url(#paint8_linear_18_503)"/>
<path d="M459.483 56.8321C460.371 55.47 461.406 54.0743 461.56 52.4555C461.568 52.3637 461.574 52.2715 461.577 52.179C461.577 51.3441 461.62 50.4294 461.693 49.4411C461.718 49.2735 461.737 49.1051 461.749 48.9363C461.792 48.3228 461.993 47.8389 462.608 47.8389C463.216 47.8389 464.014 47.8021 465.236 47.7284C466.458 47.6547 467.692 47.5934 468.92 47.5565C470.148 47.5197 471.278 47.4829 472.23 47.4399L472.395 47.4329C473.105 47.4031 473.8 47.7485 474.059 48.4098C474.43 49.2748 474.304 50.2608 474.037 51.1636C473.841 51.8292 473.582 52.4756 473.261 53.0936C472.852 53.9089 473.822 54.6443 474.527 54.0661C475.114 53.585 475.701 53.1095 476.288 52.6394C477.819 51.4182 479.464 50.3472 481.2 49.4411C482.039 48.9561 482.918 48.5453 483.828 48.2134C484.818 47.8334 485.848 47.5657 486.898 47.4153C487.957 47.2631 489.028 47.2056 490.097 47.2435C491.115 47.267 492.119 47.475 493.063 47.8573C495.109 48.8518 496.233 50.3374 496.434 52.314C496.628 54.2645 496.493 56.2339 496.035 58.1396C495.157 60.9151 493.822 63.525 492.086 65.8621C490.257 68.3176 488.581 70.6974 487.058 73.0014C485.687 75.0476 484.354 77.0939 483.061 79.1401C481.767 81.1863 480.515 83.3185 479.303 85.5366C479.076 85.9909 478.732 86.6232 478.271 87.4212C477.835 88.1773 477.491 88.9832 477.246 89.8214C477.017 90.4878 477.017 91.2115 477.246 91.8779C477.473 92.4488 478.161 92.6575 479.303 92.4918C481.638 91.933 483.834 90.9031 485.756 89.4654C487.633 88.0489 489.339 86.4194 490.84 84.6097C492.388 82.7552 493.823 80.8098 495.138 78.7841C496.468 76.7378 497.821 74.796 499.197 72.9584C499.344 72.7313 499.571 72.3139 499.878 71.7C500.165 71.1205 500.531 70.5834 500.965 70.104C501.295 69.705 501.716 69.3913 502.193 69.1893C502.611 69.0358 503.046 69.2691 503.507 69.8768C503.615 70.0599 503.686 70.2627 503.716 70.4735C503.745 70.6842 503.733 70.8987 503.679 71.1046C503.548 71.6097 503.341 72.092 503.065 72.5349C502.758 73.0321 502.451 73.4864 502.15 73.9038C501.909 74.249 501.642 74.5753 501.352 74.8799C499.522 77.3885 497.598 79.9586 495.58 82.59C493.603 85.1852 491.447 87.6385 489.127 89.9319C486.859 92.1721 484.327 94.1283 481.587 95.7575C478.809 97.4066 475.741 98.5109 472.549 99.0111C471.277 99.098 470.004 98.8414 468.865 98.2683C467.674 97.5981 466.762 96.5249 466.292 95.2419C465.614 93.6584 465.401 91.9145 465.678 90.2143C465.958 88.4127 466.497 86.6612 467.281 85.0148C468.081 83.2997 468.996 81.6405 470.019 80.0486C471.051 78.4464 471.978 76.9793 472.819 75.7086C474.19 73.4986 475.623 71.2887 477.117 69.0788C478.611 66.8689 480.001 64.661 481.286 62.4551C481.9 61.6203 482.514 60.7609 483.061 59.8892C483.624 59.022 484.138 58.1244 484.602 57.2004C485.019 56.4954 485.307 55.7223 485.455 54.9168C485.574 54.54 485.565 54.1348 485.431 53.7633C485.297 53.3918 485.044 53.0746 484.712 52.8604C484.417 52.674 484.079 52.5655 483.73 52.5452C483.381 52.5248 483.032 52.5931 482.717 52.7437C481.992 53.0507 481.323 53.3208 480.715 53.5479C478.088 54.7042 475.726 56.3883 473.777 58.4957C471.755 60.6688 469.87 62.7825 468.122 64.837C467.381 65.6488 466.694 66.508 466.065 67.4091C465.455 68.2808 464.841 69.175 464.223 70.0917C461.554 74.1841 458.869 78.2766 456.167 82.3691C453.772 85.9976 451.39 89.6261 449.02 93.2546C448.415 94.1805 447.922 95.1747 447.369 96.132C447.255 96.3456 447.129 96.5527 446.993 96.7523C446.635 97.2763 446.133 97.7309 445.506 97.8271C445.19 97.8756 444.867 97.8607 444.557 97.7833C443.949 97.6755 443.328 97.6569 442.715 97.7281H437.747C436.642 97.7281 435.954 97.5562 435.69 97.2124C435.426 96.8687 435.519 96.2425 435.973 95.3278C436.427 94.4132 437.201 93.0442 438.257 91.2149C441.691 85.8129 445.062 80.4456 448.37 75.1131C451.677 69.7806 454.972 64.3725 458.255 58.8886C458.636 58.2072 459.035 57.5196 459.483 56.8321Z" fill="url(#paint9_linear_18_503)"/>
<path d="M519.827 50.6999C518.769 53.5567 517.488 56.3257 515.995 58.981C514.583 61.4365 513.118 63.8531 511.599 66.2308C510.985 67.2253 510.357 68.2157 509.714 69.202C509.063 70.1903 508.437 71.2216 507.829 72.2713C506.761 74.1784 505.619 76.0834 504.403 77.9864C503.187 79.8894 502.043 81.7556 500.971 83.5849C500.524 84.207 500.114 84.8548 499.743 85.5247C499.318 86.2949 498.954 87.0975 498.656 87.925C498.355 88.7302 498.181 89.5772 498.14 90.4357C498.098 91.2794 498.312 92.116 498.754 92.8359C499.063 93.3395 499.553 93.7061 500.123 93.8611C501.04 94.168 502.164 93.9777 503.494 93.2902C505.004 92.4829 506.405 91.4866 507.663 90.3252C509.215 88.9272 510.683 87.439 512.06 85.8685C513.546 84.1906 514.937 82.5147 516.235 80.8409C517.53 79.1651 518.648 77.569 519.606 76.0466C520.381 74.8382 521.083 73.5846 521.708 72.2925C521.712 72.2827 521.705 72.2713 521.694 72.2713C521.683 72.2713 521.676 72.259 521.682 72.2491L522.129 71.4733L523.271 69.8772C523.652 69.3432 523.885 69.4168 524.07 70.1044C524.153 70.3618 524.172 70.6359 524.125 70.9024C524.068 71.3103 523.943 71.7056 523.756 72.072C523.748 72.0872 523.726 72.0816 523.726 72.0646C523.726 72.0486 523.705 72.042 523.696 72.055C523.07 72.9329 522.507 73.8545 522.013 74.8127C521.481 75.844 520.948 76.816 520.416 77.7286C518.885 80.4665 517.248 83.1266 515.504 85.7089C513.831 88.2099 511.876 90.5106 509.677 92.5658C507.607 94.5036 505.258 96.1197 502.708 97.3601C500.107 98.6051 497.254 99.2352 494.37 99.2018C493.316 99.2057 492.272 98.9969 491.3 98.5879C490.229 98.0876 489.375 97.215 488.9 96.1324C488.115 94.8234 487.719 93.3181 487.758 91.7924C487.77 89.9774 488.098 88.1785 488.728 86.4762C489.342 84.6899 490.005 83.1061 490.613 81.7372C491.91 79.073 493.261 76.5602 494.665 74.1989C496.069 71.8375 497.536 69.5519 499.067 67.3419C500.132 65.5945 501.198 63.806 502.266 61.9767C503.335 60.1474 504.401 58.3201 505.465 56.4949C505.935 55.7284 506.301 54.9026 506.552 54.0394C506.703 53.4574 506.865 52.8635 507.038 52.2577C507.122 51.9612 507.149 51.6503 507.221 51.3506C507.298 51.0567 507.343 50.7524 507.441 50.4651C507.532 50.2029 507.612 49.9372 507.682 49.6686C507.825 48.9167 508.56 48.4723 509.299 48.2742C510.019 48.0815 510.76 47.9743 511.507 47.9559C512.876 47.8823 514.018 47.8393 514.933 47.8393C515.621 47.8393 516.401 47.8393 517.279 47.9007C518.038 47.939 518.799 47.8928 519.548 47.7629C519.645 47.7461 519.735 47.8199 519.735 47.9181C519.735 47.943 519.741 47.9675 519.752 47.9896L519.808 48.0979C519.837 48.1544 519.857 48.2147 519.869 48.2772C519.936 48.6524 519.986 49.0308 520.017 49.4108C520.042 49.849 519.978 50.2877 519.827 50.6999ZM518.237 32.1918C518.23 32.1918 518.224 32.1859 518.224 32.1788C518.237 31.2002 518.446 30.234 518.838 29.3373C519.249 28.3631 519.809 27.4582 520.496 26.6547C521.176 25.8771 521.989 25.2265 522.897 24.7333C523.718 24.2563 524.634 23.9651 525.58 23.88C526.42 23.7752 527.272 23.9136 528.036 24.279C528.664 24.6023 529.167 25.1248 529.467 25.7646C529.776 26.4446 529.931 27.1846 529.921 27.9315C529.919 28.7349 529.765 29.5306 529.467 30.2765C528.758 31.8437 527.656 33.2012 526.268 34.2175C525.021 35.2873 523.452 35.9096 521.81 35.9855C521.396 35.9877 520.987 35.908 520.604 35.751C520.222 35.5941 519.874 35.3629 519.581 35.0708C518.837 34.2854 518.369 33.2785 518.25 32.2033C518.249 32.1967 518.244 32.1918 518.237 32.1918Z" fill="url(#paint10_linear_18_503)"/>
<path d="M528.73 56.8321C529.615 55.4738 530.64 54.0769 530.799 52.4632C530.808 52.3689 530.814 52.2741 530.817 52.179C530.817 51.3441 530.854 50.4294 530.928 49.4411C530.953 49.2724 530.972 49.1028 530.984 48.9329C531.029 48.323 531.231 47.8389 531.843 47.8389C532.451 47.8389 533.255 47.8021 534.471 47.7284C535.686 47.6547 536.927 47.5934 538.155 47.5565C539.383 47.5197 540.512 47.4829 541.47 47.4399L541.639 47.4328C542.345 47.4031 543.033 47.7526 543.294 48.4098C543.665 49.2751 543.544 50.2611 543.29 51.1675C543.103 51.8307 542.854 52.4757 542.545 53.0936C542.136 53.9089 543.105 54.6443 543.811 54.0661C544.398 53.585 544.985 53.1095 545.572 52.6394C547.103 51.4182 548.748 50.3472 550.484 49.4411C551.322 48.9561 552.202 48.5453 553.112 48.2134C554.102 47.8334 555.132 47.5657 556.182 47.4153C557.241 47.2631 558.311 47.2056 559.381 47.2435C560.4 47.2671 561.407 47.4751 562.353 47.8573C564.409 48.8518 565.527 50.3128 565.723 52.314C565.913 54.2649 565.776 56.2337 565.318 58.1396C564.428 60.9194 563.076 63.5298 561.321 65.8621C559.491 68.3176 557.815 70.6974 556.292 73.0014C554.921 75.0476 553.589 77.0939 552.295 79.1401C551.002 81.1863 549.745 83.3185 548.525 85.5366C548.298 85.9909 547.954 86.6232 547.5 87.4212C547.059 88.1759 546.712 88.982 546.468 89.8214C546.24 90.4878 546.24 91.2115 546.468 91.8779C546.695 92.4488 547.383 92.6575 548.525 92.4918C550.86 91.933 553.056 90.9031 554.978 89.4654C556.855 88.0489 558.561 86.4194 560.062 84.6097C561.61 82.7552 563.045 80.8098 564.36 78.7841C565.691 76.7378 567.044 74.796 568.419 72.9584C568.671 72.553 568.899 72.1327 569.1 71.7C569.387 71.1205 569.753 70.5834 570.187 70.104C570.518 69.7063 570.939 69.3928 571.415 69.1893C571.833 69.0358 572.275 69.2691 572.729 69.8768C572.838 70.0599 572.909 70.2627 572.938 70.4735C572.968 70.6842 572.955 70.8987 572.901 71.1046C572.768 71.609 572.561 72.091 572.287 72.5349C571.98 73.0321 571.673 73.4864 571.372 73.9038C571.13 74.2493 570.861 74.5757 570.568 74.8799C568.742 77.3885 566.82 79.9586 564.802 82.59C562.82 85.1711 560.662 87.612 558.343 89.8951C556.075 92.1353 553.543 94.0915 550.803 95.7207C548.029 97.3714 544.966 98.4778 541.777 98.9804C540.505 99.0673 539.233 98.8108 538.093 98.2376C536.903 97.5689 535.992 96.4949 535.527 95.2112C534.849 93.6277 534.636 91.8838 534.913 90.1836C535.198 88.3833 535.737 86.6326 536.515 84.9841C537.315 83.269 538.23 81.6098 539.254 80.0179L542.054 75.6779C543.429 73.468 544.862 71.258 546.352 69.0481C547.842 66.8382 549.231 64.6303 550.521 62.4244C551.135 61.5896 551.749 60.7302 552.295 59.8585C552.86 58.9927 553.375 58.0949 553.836 57.1697C554.253 56.4639 554.543 55.6912 554.696 54.8861C554.808 54.509 554.796 54.1058 554.663 53.7357C554.529 53.3657 554.28 53.0481 553.953 52.8297C553.656 52.6433 553.317 52.5349 552.967 52.5145C552.617 52.4941 552.268 52.5624 551.951 52.713C551.227 53.02 550.558 53.2901 549.95 53.5172C547.308 54.6788 544.936 56.3738 542.981 58.4957C540.967 60.6688 539.082 62.7825 537.326 64.837C536.587 65.6488 535.902 66.508 535.275 67.4091C534.661 68.2808 534.047 69.175 533.433 70.0917C530.764 74.1841 528.079 78.2766 525.377 82.3691C522.982 85.9976 520.6 89.6261 518.23 93.2546C517.625 94.1805 517.132 95.1747 516.579 96.132C516.465 96.3455 516.339 96.5525 516.203 96.752C515.845 97.2762 515.344 97.7319 514.716 97.8281C514.4 97.8766 514.077 97.8614 513.767 97.7833C513.159 97.6755 512.538 97.6569 511.925 97.7281H506.994C505.889 97.7281 505.207 97.5562 504.937 97.2124C504.667 96.8687 504.765 96.2425 505.226 95.3278C505.686 94.4132 506.454 93.0442 507.51 91.2149C510.936 85.8129 514.307 80.4456 517.622 75.1131C520.938 69.7806 524.231 64.3725 527.502 58.8886C527.882 58.2072 528.282 57.5196 528.73 56.8321Z" fill="url(#paint11_linear_18_503)"/>
<path d="M562.353 97.3049C561.113 96.5243 560.091 95.4432 559.381 94.1619C558.699 92.9179 558.236 91.5662 558.012 90.1656C557.778 88.7313 557.721 87.2739 557.84 85.8256C557.939 84.3801 558.144 82.9439 558.454 81.5285C559.43 78.1469 560.916 74.9342 562.862 72.0012C564.8 69.0799 566.96 66.3114 569.322 63.7201C571.824 60.9127 574.516 58.2792 577.377 55.8381C580.245 53.3988 583.458 51.3983 586.913 49.9019C588.376 49.2618 589.885 48.7284 591.426 48.3059C592.968 47.8653 594.568 47.6583 596.172 47.692C597.668 47.7259 599.137 48.0973 600.47 48.7786C601.325 49.2529 602.067 49.8952 602.655 50.6598C603.193 51.3588 604.285 51.5295 604.749 50.7798C605.034 50.3243 605.381 49.9111 605.781 49.552C606.151 49.2047 606.566 48.9094 607.015 48.6742C607.597 48.4116 608.22 48.2557 608.857 48.2138C610.49 48.066 612.13 48.0086 613.769 48.0419C615.86 48.0954 617.173 50.3589 616.131 52.1726C612.53 58.4426 608.877 64.6142 605.173 70.6876C600.67 78.0704 596.061 85.4961 591.346 92.9649L585.574 102.216C583.65 105.334 581.587 108.359 579.385 111.289C577.194 114.204 574.747 116.918 572.072 119.398C566.868 124.243 560.45 127.592 553.499 129.091C550.105 129.833 546.629 130.13 543.159 129.975C542.091 129.897 540.946 129.762 539.727 129.57C538.531 129.387 537.363 129.062 536.245 128.6C535.152 128.151 534.146 127.513 533.274 126.715C532.403 125.926 531.753 124.923 531.389 123.806C530.931 122.398 530.912 120.885 531.333 119.466C531.716 118.064 532.639 116.872 533.9 116.151C535.091 115.299 536.562 114.933 538.014 115.126C538.754 115.166 539.465 115.426 540.056 115.873C540.647 116.321 541.09 116.935 541.329 117.636C541.549 118.224 541.608 118.86 541.501 119.478C541.391 120.007 541.182 120.511 540.887 120.963C540.584 121.417 540.317 121.893 540.089 122.388C539.855 122.909 539.738 123.474 539.745 124.045C539.791 124.804 540.135 125.515 540.703 126.022C541.284 126.52 541.964 126.888 542.698 127.102C543.459 127.333 544.249 127.449 545.044 127.446C545.75 127.451 546.455 127.414 547.156 127.335C549.092 127.117 550.982 126.595 552.756 125.788C554.526 124.98 556.193 123.964 557.723 122.762C559.297 121.532 560.751 120.155 562.064 118.649C563.398 117.127 564.637 115.604 565.779 114.082C568.587 110.368 571.18 106.496 573.546 102.486C575.048 99.9479 576.517 97.3875 577.955 94.8049C578.422 93.966 577.271 93.0385 576.518 93.634C575.123 94.7391 573.631 95.715 572.06 96.5499C570.564 97.3406 568.941 97.8621 567.265 98.0907C565.586 98.3222 563.876 98.0487 562.353 97.3049ZM570.464 91.4793C572.195 91.5748 573.923 91.2394 575.492 90.5033C577.046 89.7632 578.472 88.781 579.717 87.5935C581.041 86.3539 582.273 85.0182 583.401 83.5972C584.543 82.1485 585.566 80.7775 586.471 79.4843C587.699 77.7368 588.955 76.0037 590.241 74.2848C591.526 72.566 592.783 70.8144 594.011 69.0301C595.217 67.2631 596.304 65.4173 597.265 63.5053C598.217 61.5963 599.002 59.608 599.61 57.563C599.787 56.9055 599.92 56.2369 600.009 55.5618C600.125 54.8061 600.144 54.0387 600.065 53.2782C600.017 52.6122 599.78 51.9735 599.383 51.4366C599.156 51.1773 598.871 50.9754 598.55 50.8473C597.914 50.5929 597.194 50.644 596.513 50.7179C595.902 50.7842 595.303 50.9495 594.741 51.2095C593.78 51.6362 592.861 52.1521 591.997 52.7503C591.119 53.365 590.28 54.0333 589.485 54.7515C588.667 55.4759 587.963 56.1429 587.373 56.7527C584.184 59.937 581.26 63.3758 578.63 67.035C576.003 70.6985 573.59 74.5109 571.403 78.453C571.096 79.0669 570.605 80.0736 569.917 81.4794C569.242 82.8615 568.688 84.2992 568.259 85.7765C567.857 87.03 567.739 88.3576 567.915 89.6623C568.091 90.7959 568.941 91.4016 570.464 91.4793Z" fill="url(#paint12_linear_18_503)"/>
<path d="M684.021 31.369C685.548 35.0195 687.052 38.846 688.534 42.8484C689.993 46.7465 691.085 50.7726 691.794 54.8741C692.475 58.8746 692.61 62.9491 692.193 66.9857C691.747 71.1148 690.401 75.096 688.251 78.6493C686.992 81.1119 685.311 83.335 683.284 85.2177C681.244 87.098 679.046 88.7986 676.714 90.3005C674.247 91.8767 671.646 93.2325 668.941 94.352C666.098 95.548 663.148 96.4709 660.13 97.1083C657.129 97.7508 654.062 98.0372 650.994 97.9616C648.032 97.9034 645.1 97.3643 642.312 96.3655C639.975 95.5017 637.773 94.309 635.772 92.8235C633.741 91.342 632.016 89.4803 630.695 87.3417C629.311 84.9854 628.388 82.3877 627.975 79.6867C627.554 77.0055 627.418 74.2873 627.569 71.5775C627.651 68.966 628.14 66.3834 629.018 63.9225C629.914 61.4009 631.081 58.9844 632.5 56.7157C633.933 54.4343 635.578 52.2927 637.412 50.3192C639.187 48.3931 641.1 46.598 643.134 44.9478C644.998 43.4828 647.03 42.2463 649.188 41.2646C651.564 40.143 654.082 39.3539 656.673 38.9196C659.122 38.4993 661.632 38.5976 664.041 39.2081C666.442 39.8464 668.494 41.4061 669.751 43.5482C670.509 44.7598 671.051 46.0931 671.354 47.4892C671.657 48.9152 671.791 50.372 671.753 51.8293C671.717 53.3072 671.544 54.7786 671.237 56.2246C670.961 57.5864 670.579 58.9245 670.095 60.227C669.586 61.9599 668.732 63.5719 667.584 64.9661C666.542 66.1181 665.395 67.1704 664.158 68.1091C663.624 68.4897 663.298 68.5818 663.188 68.3915C663.057 68.1055 663.016 67.7865 663.071 67.4768C663.122 67.0069 663.238 66.5462 663.415 66.1079C663.548 65.7295 663.718 65.3655 663.924 65.0214C664.44 64.2283 664.773 63.3311 664.901 62.394C664.995 61.422 665.201 60.4642 665.515 59.5395C666.046 57.3091 665.968 54.9766 665.288 52.7869C664.719 50.6376 663.669 48.6455 662.217 46.9613C660.609 45.1341 658.401 43.9394 655.992 43.5912C653.594 43.2502 651.15 43.6284 648.967 44.6777C646.713 45.8577 644.744 47.5147 643.196 49.5334C641.635 51.5054 640.277 53.63 639.143 55.8747C637.91 58.1135 637.004 60.5178 636.454 63.014C635.889 65.5426 635.682 68.1381 635.84 70.7242C635.996 73.2579 636.437 75.766 637.154 78.2011C637.84 80.6059 638.874 82.8973 640.224 85.0028C641.553 87.0544 643.237 88.8525 645.197 90.3128C647.295 91.8486 649.717 92.8838 652.277 93.3391C654.854 93.8753 657.507 93.9335 660.105 93.511C662.713 93.1492 665.242 92.3567 667.59 91.166C670.007 89.8911 672.128 88.1216 673.816 85.9727C675.495 83.8533 676.968 81.5777 678.212 79.1772C679.497 76.8505 680.367 74.3185 680.785 71.6941C681.203 69.0884 681.3 66.4413 681.073 63.812C680.833 61.1514 680.296 58.5261 679.471 55.9852C678.662 53.4635 677.635 51.0171 676.401 48.674C674.558 44.9795 673.212 41.0577 672.398 37.0105C671.567 33.0303 671.395 28.9409 671.888 24.905C672.367 20.9667 673.619 17.1617 675.572 13.708C677.689 10.0678 680.673 7.00774 684.26 4.80076C686.271 3.29675 688.507 2.11998 690.885 1.31399C693.325 0.452861 695.893 0.00875606 698.48 0.000310833C700.965 -0.0146877 703.423 0.513276 705.683 1.54726C707.998 2.63754 709.958 4.35893 711.338 6.51347C712.797 8.76676 713.626 11.3697 713.738 14.0518C713.891 16.8421 713.501 19.6356 712.59 22.2776C711.696 24.9141 710.278 27.3425 708.421 29.4169C706.649 31.4557 704.331 32.9464 701.741 33.714C700.88 34.0314 699.968 34.1855 699.051 34.1683C698.56 34.0946 698.309 33.9043 698.309 33.5974C698.343 33.2137 698.505 32.8527 698.769 32.5722C699.052 32.2073 699.4 31.8973 699.794 31.6576C700.824 30.8522 701.696 29.8636 702.367 28.7417C703.092 27.563 703.755 26.4765 704.369 25.4882C705.611 23.17 706.259 20.5799 706.254 17.9499C706.319 15.283 705.812 12.6331 704.768 10.1783C703.822 7.92031 702.206 6.00688 700.138 4.69641C698.942 3.94054 697.586 3.5356 696.071 3.48157C693.738 3.39837 691.456 4.29697 689.611 5.72648C688.453 6.62302 687.42 7.67791 686.544 8.86459C685.029 10.9483 683.905 13.2906 683.229 15.7768C682.542 18.3255 682.272 20.9687 682.43 23.6036C682.564 26.2577 683.1 28.8761 684.021 31.369Z" fill="url(#paint13_linear_18_503)"/>
<path d="M702.533 87.4523C702.762 89.2079 703.376 90.3702 704.375 90.939C705.437 91.5193 706.66 91.7349 707.856 91.5529C709.26 91.3854 710.63 91.0001 711.915 90.4111C713.106 89.8933 714.252 89.2773 715.341 88.5695C717.675 87.1179 719.839 85.4111 721.794 83.4805C723.968 81.3893 726.015 79.2571 727.934 77.084C729.854 74.9109 731.567 72.8647 733.074 70.9453C734.596 69.0423 735.824 67.5956 736.758 66.6053C737.286 65.9914 737.648 65.8625 737.838 66.2062C738.035 66.6568 738.057 67.1646 737.9 67.6304C737.334 69.1185 736.566 70.5212 735.616 71.7986C734.339 73.6046 732.966 75.3403 731.502 76.9981C729.897 78.8274 728.164 80.6936 726.301 82.5966C724.439 84.4996 722.597 86.2511 720.775 87.8513C718.945 89.4473 717.251 90.8551 715.691 92.0747C714.487 93.0524 713.206 93.931 711.86 94.7021C710.3 95.5867 708.63 96.2597 706.893 96.7033C705.105 97.1874 703.254 97.3944 701.403 97.3172C699.647 97.25 697.929 96.7817 696.381 95.9482C694.751 95.043 693.45 93.6437 692.666 91.9519C691.903 90.3428 691.495 88.5884 691.469 86.8077C691.431 84.9638 691.623 83.1224 692.04 81.3258C692.455 79.5092 693.028 77.7324 693.753 76.0159C694.45 74.3588 695.231 72.7382 696.092 71.1602C698.22 67.0078 700.926 63.1781 704.13 59.7852C707.372 56.4035 711.064 53.4829 715.102 51.1051C717.058 49.8223 719.145 48.7503 721.328 47.9068C723.487 47.0711 725.725 46.4541 728.008 46.0652C729.55 45.7576 731.129 45.681 732.693 45.8381C733.474 45.8846 734.229 46.1295 734.889 46.5495C735.549 46.9695 736.09 47.5507 736.463 48.2383C737.131 49.2302 737.452 50.415 737.378 51.6084C737.298 52.8037 737.029 53.9786 736.579 55.0891C736.126 56.2248 735.532 57.2993 734.811 58.2873C734.141 59.2337 733.396 60.1246 732.582 60.9515C730.747 62.9378 728.653 64.668 726.356 66.0958C724.099 67.5062 721.75 68.7654 719.326 69.8649C718.031 70.399 716.76 70.8716 715.501 71.2891C714.242 71.7065 712.928 72.1117 711.559 72.5168C710.652 72.6869 709.735 72.8017 708.814 72.8606C708.367 72.8617 707.924 72.953 707.513 73.1292C707.101 73.3053 706.729 73.5627 706.42 73.8858C705.717 74.6641 705.225 75.6084 704.989 76.6298C704.703 77.6783 704.34 78.7043 703.902 79.6991C703.356 80.9258 702.944 82.2081 702.674 83.5235C702.418 84.8172 702.371 86.1435 702.533 87.4523ZM712.398 63.8088C710.553 66.5177 712.717 69.7053 715.39 67.8085C717.557 66.2905 719.636 64.6509 721.616 62.8975C722.607 62.0632 723.542 61.165 724.416 60.2087C725.284 59.2698 726.069 58.2572 726.762 57.1824C727.216 56.3475 727.75 55.2978 728.358 54.0455C728.915 53.0112 729.192 51.8496 729.162 50.6754C729.083 49.8344 728.819 49.3433 728.358 49.1898C727.784 49.0445 727.178 49.1054 726.645 49.3617C725.855 49.6789 725.106 50.0912 724.416 50.5894C723.643 51.1422 722.899 51.7343 722.187 52.3635C721.506 52.9774 720.892 53.5605 720.345 54.1314C719.799 54.7023 719.467 55.0645 719.314 55.218C717.127 57.4756 715.121 59.9017 713.315 62.4739C713.008 62.9174 712.702 63.3624 712.398 63.8088Z" fill="url(#paint14_linear_18_503)"/>
<path d="M768.194 67.1514C769.113 66.0999 770.257 68.1256 769.599 69.3566C769.494 69.5521 769.374 69.7583 769.238 69.9752C767.715 72.1115 766.344 73.9981 765.124 75.6351C763.896 77.268 762.724 78.8149 761.582 80.2575C760.439 81.7001 759.279 83.155 758.1 84.5976C756.921 86.0402 755.527 87.6669 753.931 89.5085C753.016 90.4232 751.929 91.4177 750.671 92.4797C749.43 93.5373 748.092 94.4746 746.674 95.2789C745.327 96.0535 743.859 96.5952 742.333 96.8811C740.881 97.1523 739.381 96.9724 738.035 96.3655C737.228 96.0184 736.5 95.5138 735.891 94.8813C735.283 94.2488 734.807 93.5012 734.492 92.6822C733.952 91.0452 733.797 89.3061 734.037 87.5994C734.277 85.7301 734.777 83.9035 735.523 82.1728C736.285 80.3844 737.007 78.8436 737.691 77.5504C738.675 75.6552 739.863 73.8727 741.234 72.2343C742.605 70.5973 744.037 68.9992 745.532 67.4399C747.026 65.8807 748.491 64.3194 749.928 62.7561C750.715 61.9078 751.475 61.0358 752.209 60.1416C753.069 59.0929 752.402 57.5882 751.07 57.8452C750.825 57.8942 750.579 57.9242 750.332 57.9354C748.89 58.0008 747.495 57.4206 746.158 56.8753C744.866 56.3113 743.826 58.048 743.072 59.2386C741.25 62.115 739.442 65.0964 737.648 68.1827C735.478 71.915 733.161 75.541 730.697 79.0605C728.254 82.5627 725.562 85.8841 722.642 88.999C720.26 91.5391 717.584 93.7812 714.67 95.6784C713.465 96.4632 711.472 97.4266 710.976 96.0769C710.865 95.7417 710.839 95.3844 710.898 95.0365C711.017 94.3493 711.621 93.8921 712.201 93.5051C716.085 90.915 719.644 87.8669 722.801 84.4257C726.207 80.7136 729.319 76.7421 732.109 72.5473C734.943 68.3034 737.56 63.9189 739.95 59.4105C742.155 55.2527 744.342 51.1741 746.509 47.1748C746.885 46.4814 747.532 45.8247 748.288 46.0466C748.734 46.1735 749.158 46.3659 749.547 46.6175C749.965 46.8876 750.364 47.17 750.775 47.4769C751.091 47.7413 751.435 47.9698 751.8 48.1583C752.738 48.6025 753.742 48.8926 754.772 49.0177C755.761 49.1312 756.76 49.1127 757.744 48.9625C759.052 48.7273 760.333 48.3634 761.569 47.8759C762.762 47.3974 764.01 47.0715 765.284 46.906C766.199 46.8262 766.788 46.9613 767.052 47.305C767.183 47.4781 767.271 47.6791 767.31 47.8922C767.35 48.1052 767.339 48.3245 767.279 48.5328C767.14 49.0999 766.91 49.6409 766.598 50.135C766.254 50.7059 765.929 51.2215 765.628 51.6758C762.955 55.0275 760.46 58.4549 758.143 61.9581C755.826 65.4612 753.589 69.0872 751.432 72.8359C750.822 73.7526 750.208 74.7041 749.59 75.6903C748.976 76.6787 748.411 77.6916 747.877 78.7167C747.361 79.7195 746.949 80.7727 746.649 81.8597C746.34 82.9338 746.224 84.0539 746.305 85.1685C746.328 86.0617 746.481 86.9467 746.76 87.7958C747.067 88.7903 747.674 89.2077 748.602 89.0543C749.897 88.8271 751.322 88.0107 752.9 86.5988C754.629 85.0138 756.252 83.3158 757.756 81.516C759.48 79.4667 761.099 77.3318 762.607 75.1195C764.171 72.8359 765.603 70.7794 766.905 68.9501C767.288 68.3186 767.719 67.7173 768.194 67.1514Z" fill="url(#paint15_linear_18_503)"/>
<path d="M775.255 50.5371C776.027 48.5353 777.798 47.0392 779.94 46.9061L783.311 46.6728C783.992 46.5992 784.907 46.5009 786.049 46.3904C787.191 46.2799 787.953 46.5623 788.339 47.2437C788.488 47.6098 788.488 48.0195 788.339 48.3855C788.181 48.8564 787.99 49.3158 787.768 49.7606C787.535 50.2149 787.289 50.6753 787.025 51.1295C786.579 51.8375 786.337 52.6541 785.978 53.4101C784.899 55.6812 783.744 57.8921 782.513 60.0429C781.076 62.5516 779.608 65.0644 778.11 67.5812C776.624 70.094 775.177 72.6252 773.769 75.1748C772.364 77.7041 771.117 80.318 770.036 83.0016C769.715 83.8653 769.509 84.7671 769.422 85.6842C769.304 86.654 769.322 87.6355 769.477 88.6001C769.599 89.4476 770.001 90.23 770.619 90.8223C771.233 91.3932 772.142 91.5651 773.364 91.338C775.197 90.9192 776.914 90.0995 778.393 88.9377C779.923 87.784 781.338 86.4848 782.617 85.0581C785.51 81.6228 788.073 77.9234 790.274 74.0084C792.469 70.1126 794.342 66.0433 795.873 61.8415C796.713 59.6981 797.419 57.5044 797.985 55.2731C798.553 53.0527 798.652 50.7382 798.274 48.4776C798.121 47.7078 798.082 46.9199 798.157 46.1388C798.266 45.342 798.625 44.6004 799.183 44.0209C799.865 43.3706 800.686 42.8837 801.583 42.5967C802.473 42.296 803.44 42.3154 804.316 42.6517C805.193 42.988 805.925 43.6199 806.385 44.4383C806.775 45.278 806.97 46.1951 806.956 47.1209C806.954 48.1182 806.858 49.1131 806.667 50.0921C806.477 51.0804 806.268 51.9337 806.053 52.7194C805.439 54.8516 804.735 56.9265 803.941 58.9441C803.122 60.9944 802.187 62.9967 801.141 64.9416C799.122 68.9578 796.71 72.764 793.939 76.3043C791.102 79.9343 788.251 83.3843 785.386 86.6541C784.024 88.0797 782.59 89.4341 781.088 90.7118C779.441 92.1249 777.683 93.4038 775.832 94.5362C774.033 95.6495 772.092 96.5147 770.061 97.1083C768.167 97.6757 766.157 97.735 764.234 97.2802C761.778 96.7441 760.159 95.6023 759.377 93.8548C758.565 92.0056 758.251 89.9758 758.468 87.9678C758.674 85.7228 759.174 83.5145 759.954 81.3994C760.611 79.504 761.433 77.6697 762.41 75.9176C764.842 71.199 767.355 66.5151 769.95 61.8661C771.98 58.2163 773.753 54.4307 775.255 50.5371Z" fill="url(#paint16_linear_18_503)"/>
<path d="M826.039 49.5336C824.988 52.3898 823.713 55.1587 822.226 57.8147C820.814 60.2701 819.347 62.6867 817.824 65.0645C817.21 66.0589 816.596 67.0473 815.939 68.0356C815.282 69.0239 814.662 70.0552 814.054 71.1049C812.986 73.0161 811.844 74.9212 810.628 76.8201C809.412 78.719 808.27 80.5851 807.202 82.4185C806.753 83.0391 806.342 83.6869 805.974 84.3584C805.551 85.1286 805.189 85.9312 804.893 86.7586C804.593 87.5639 804.419 88.4108 804.377 89.2693C804.335 90.113 804.549 90.9497 804.991 91.6696C805.302 92.1718 805.791 92.5381 806.36 92.6947C807.277 93.0016 808.401 92.8113 809.731 92.1238C811.243 91.3167 812.646 90.3204 813.907 89.1588C815.455 87.7577 816.923 86.2697 818.303 84.7021C819.789 83.0242 821.178 81.3484 822.472 79.6745C823.765 78.0007 824.889 76.4026 825.843 74.8802C826.615 73.6816 827.312 72.4367 827.932 71.1528C827.943 71.1306 827.926 71.1049 827.902 71.1049C827.876 71.1049 827.86 71.0773 827.873 71.055L828.299 70.3069L829.441 68.7108C829.821 68.1768 830.086 68.2504 830.245 68.938C830.329 69.1954 830.348 69.4695 830.3 69.736C830.241 70.143 830.116 70.5376 829.932 70.9048C829.924 70.92 829.901 70.9145 829.901 70.8975C829.901 70.8817 829.881 70.8751 829.872 70.8879C829.241 71.7632 828.678 72.6854 828.188 73.6463C827.652 74.6776 827.118 75.6496 826.586 76.5622C825.063 79.3001 823.426 81.9602 821.674 84.5425C819.996 87.0407 818.042 89.341 815.847 91.3995C813.775 93.3344 811.426 94.9503 808.878 96.1938C806.274 97.4382 803.419 98.0682 800.534 98.0354C799.479 98.0387 798.435 97.8299 797.464 97.4215C796.394 96.9185 795.542 96.0467 795.063 94.966C794.278 93.657 793.882 92.1517 793.921 90.626C793.933 88.8111 794.261 87.0121 794.891 85.3099C795.542 83.5235 796.168 81.9397 796.776 80.5708C798.069 77.9066 799.422 75.3938 800.834 73.0325C802.247 70.6711 803.712 68.3855 805.231 66.1756C806.299 64.4281 807.365 62.6397 808.43 60.8104L811.629 55.3285C812.099 54.562 812.464 53.7362 812.715 52.873C812.868 52.2914 813.033 51.6978 813.203 51.0924C813.287 50.7955 813.306 50.4826 813.385 50.1843C813.458 49.8902 813.501 49.5867 813.6 49.3C813.693 49.028 813.773 48.7515 813.839 48.4716C813.993 47.7234 814.717 47.2754 815.455 47.0777C816.177 46.8842 816.92 46.7769 817.67 46.7589C819.04 46.6852 820.182 46.6422 821.097 46.6422C821.784 46.6422 822.564 46.6422 823.436 46.7036C824.195 46.7422 824.957 46.696 825.706 46.5659C825.802 46.5491 825.892 46.6229 825.892 46.7211C825.892 46.7459 825.898 46.7704 825.909 46.7925L825.965 46.9018C825.994 46.9577 826.015 47.0173 826.026 47.079C826.096 47.4545 826.147 47.8332 826.18 48.2137C826.225 48.6587 826.177 49.1082 826.039 49.5336ZM824.443 31.0254C824.454 30.0424 824.663 29.0716 825.057 28.1709C825.466 27.1955 826.025 26.2903 826.715 25.4883C827.372 24.7057 828.165 24.0467 829.054 23.5423C829.876 23.0672 830.792 22.7761 831.737 22.6891C832.577 22.5842 833.43 22.7227 834.193 23.0881C834.823 23.4095 835.326 23.9325 835.624 24.5736C835.933 25.2537 836.088 25.9936 836.078 26.7406C836.077 27.544 835.923 28.3399 835.624 29.0856C834.919 30.6551 833.816 32.0135 832.425 33.0266C831.179 34.0989 829.609 34.7215 827.967 34.7946C827.555 34.7963 827.146 34.7164 826.764 34.5594C826.383 34.4024 826.036 34.1715 825.745 33.8799C825.014 33.094 824.557 32.0925 824.443 31.0254Z" fill="url(#paint17_linear_18_503)"/>
<path d="M865.342 68.3791C863.131 71.3502 860.827 74.3398 858.428 77.3477C856.03 80.352 853.435 83.1943 850.661 85.856C847.905 88.4983 844.901 90.8686 841.69 92.9339C839.286 94.4783 836.7 95.7127 833.995 96.6104C832.22 97.1993 830.341 97.5715 828.496 97.274C825.554 96.756 822.908 95.1686 821.066 92.8173C820.046 91.3153 819.4 89.5917 819.181 87.7897C818.955 85.905 819.032 83.9963 819.408 82.1359C819.778 80.2505 820.314 78.4017 821.011 76.6111C822.716 72.4428 824.881 68.4773 827.464 64.788C830.041 61.0724 833.097 57.7123 836.551 54.7942C838.339 53.2378 840.228 51.8023 842.206 50.4971C844.224 49.1642 846.389 48.0703 848.659 47.2375C849.646 46.9346 850.788 46.6113 852.085 46.2675C853.397 45.9209 854.737 45.6928 856.089 45.5861C857.401 45.4687 858.722 45.4872 860.031 45.6414C861.208 45.7727 862.351 46.1203 863.401 46.6666C863.89 46.9098 864.321 47.2548 864.665 47.6783C865.009 48.1018 865.259 48.5941 865.397 49.122C865.587 50.0966 865.509 51.1045 865.17 52.0379C864.792 53.0929 864.273 54.0922 863.629 55.009C862.941 55.9974 862.333 56.8506 861.787 57.5198L861.216 58.3792C860.981 58.7273 860.714 59.0521 860.417 59.3491C860.124 59.646 859.773 59.88 859.386 60.0366C859.225 60.1105 859.05 60.1488 858.873 60.1488C858.522 60.1488 858.2 59.9422 857.994 59.6578C857.895 59.5217 857.815 59.3723 857.756 59.2133C857.634 58.8881 857.605 58.5356 857.673 58.195C857.747 57.354 857.789 56.7463 857.789 56.3534C857.789 55.7395 857.747 55.0397 857.673 54.2417C857.606 53.4841 857.454 52.7365 857.218 52.0134C856.998 51.338 856.648 50.7123 856.187 50.1717C855.943 49.9037 855.642 49.6932 855.306 49.5552C854.971 49.4172 854.609 49.3552 854.247 49.3737C853.17 49.3773 852.118 49.6952 851.22 50.2884C850.227 50.9295 849.306 51.6767 848.475 52.5167C847.594 53.3931 846.773 54.3284 846.019 55.316L844.079 57.8267C842.352 59.9209 840.749 62.1141 839.277 64.3951C837.828 66.6419 836.457 68.9459 835.164 71.3073C834.095 73.2839 832.992 75.3772 831.854 77.5872C830.744 79.6863 830.046 81.9784 829.797 84.3397C829.702 85.2555 829.789 86.1811 830.053 87.063C830.318 87.9449 830.755 88.7657 831.338 89.4778C831.76 89.9956 832.237 90.4013 832.771 90.6948C834.825 91.824 837.331 90.8499 839.458 89.8661C841.092 89.1107 842.669 88.2364 844.177 87.2495C846.695 85.6171 849.066 83.7685 851.263 81.7246C853.49 79.6678 855.578 77.4653 857.513 75.1317C859.195 73.0853 860.776 71.0129 862.256 68.9145C862.715 68.2639 863.055 67.5382 863.457 66.8506C863.733 66.338 864.038 65.842 864.372 65.365C864.692 64.8938 865.055 64.454 865.458 64.0513C865.591 63.8809 865.767 63.7485 865.968 63.6677C866.366 63.5071 866.855 63.5044 867.224 63.7233C867.416 63.8368 867.509 64.0226 867.509 64.2785C867.488 64.8044 867.331 65.316 867.055 65.764C866.739 66.3134 866.394 66.8461 866.023 67.3601C865.776 67.6856 865.548 68.0259 865.342 68.3791Z" fill="url(#paint18_linear_18_503)"/>
<path d="M864.543 87.4523C864.768 89.2079 865.382 90.3702 866.385 90.939C867.449 91.5206 868.674 91.7363 869.873 91.5529C871.275 91.3864 872.642 91.0011 873.925 90.4111C875.119 89.8945 876.267 89.2785 877.358 88.5695C879.69 87.1164 881.854 85.4096 883.811 83.4805C885.976 81.3893 888.023 79.2571 889.951 77.084C891.879 74.9109 893.594 72.8647 895.096 70.9453C896.619 69.0423 897.837 67.5956 898.749 66.6053C899.284 65.9914 899.646 65.8625 899.836 66.2062C900.033 66.657 900.053 67.1657 899.891 67.6304C899.326 69.1185 898.557 70.5212 897.607 71.7986C896.333 73.606 894.959 75.3418 893.494 76.9981C891.897 78.8397 890.159 80.6813 888.299 82.5966C886.439 84.5118 884.615 86.2491 882.773 87.8513C880.931 89.4535 879.249 90.8592 877.689 92.0747C876.471 93.0817 875.171 93.9852 873.802 94.7757C872.241 95.6601 870.568 96.3331 868.829 96.7769C867.044 97.2607 865.194 97.4677 863.346 97.3908C861.587 97.3244 859.867 96.8561 858.317 96.0219C856.698 95.1123 855.408 93.7133 854.633 92.0256C853.863 90.4177 853.444 88.6639 853.405 86.8814C853.371 85.0376 853.562 83.1965 853.976 81.3995C854.397 79.5844 854.97 77.8081 855.689 76.0895C856.386 74.4312 857.169 72.8105 858.035 71.2338C860.176 67.0501 862.905 63.1947 866.14 59.7852C869.381 56.4036 873.07 53.483 877.106 51.1051C879.065 49.8235 881.154 48.7515 883.338 47.9068C885.498 47.0711 887.735 46.4541 890.018 46.0652C891.56 45.7576 893.139 45.681 894.703 45.8381C895.483 45.8858 896.239 46.1311 896.898 46.551C897.558 46.9709 898.1 47.5515 898.473 48.2383C899.139 49.2314 899.46 50.4152 899.388 51.6084C899.306 52.8032 899.036 53.9777 898.59 55.0891C898.134 56.225 897.538 57.2995 896.815 58.2873C896.143 59.221 895.398 60.0995 894.586 60.9147C892.754 62.9038 890.66 64.6344 888.36 66.0589C886.105 67.4694 883.759 68.7285 881.336 69.8281C880.043 70.3642 878.768 70.8389 877.511 71.2523C876.254 71.6656 874.94 72.0748 873.569 72.48C872.662 72.6492 871.746 72.764 870.825 72.8238C870.376 72.8254 869.933 72.917 869.52 73.0931C869.108 73.2692 868.735 73.5262 868.424 73.8489C867.723 74.6271 867.232 75.5717 866.999 76.5929C866.714 77.6415 866.35 78.6675 865.913 79.6623C865.369 80.89 864.957 82.172 864.685 83.4867C864.428 84.7927 864.38 86.1313 864.543 87.4523ZM874.389 63.8127C872.549 66.5171 874.707 69.6994 877.376 67.8085C879.54 66.2875 881.619 64.648 883.602 62.8975C884.59 62.06 885.525 61.162 886.402 60.2087C887.268 59.2697 888.051 58.2571 888.741 57.1824C889.202 56.3475 889.73 55.2978 890.344 54.0455C890.9 53.0112 891.175 51.8492 891.142 50.6754C891.068 49.8344 890.798 49.3433 890.344 49.1898C889.77 49.044 889.164 49.1049 888.631 49.3617C887.839 49.6762 887.091 50.0887 886.402 50.5894C885.629 51.1422 884.885 51.7343 884.173 52.3635C883.485 52.9774 882.877 53.5605 882.331 54.1314C881.785 54.7023 881.459 55.0645 881.306 55.218C879.117 57.474 877.111 59.9003 875.307 62.4739C875 62.9187 874.694 63.365 874.389 63.8127Z" fill="url(#paint19_linear_18_503)"/>
</g>
<defs>
<linearGradient id="paint0_linear_18_503" x1="59.071" y1="1.71777" x2="59.071" y2="98.7578" gradientUnits="userSpaceOnUse">
<stop stop-color="#BC9A63"/>
<stop offset="0.48" stop-color="#715B38"/>
<stop offset="0.615" stop-color="#C4A067"/>
<stop offset="0.995" stop-color="#74654D"/>
</linearGradient>
<linearGradient id="paint1_linear_18_503" x1="114.535" y1="47.968" x2="114.535" y2="98.1214" gradientUnits="userSpaceOnUse">
<stop stop-color="#BC9A63"/>
<stop offset="0.48" stop-color="#715B38"/>
<stop offset="0.615" stop-color="#C4A067"/>
<stop offset="0.995" stop-color="#74654D"/>
</linearGradient>
<linearGradient id="paint2_linear_18_503" x1="162.606" y1="12.1248" x2="162.606" y2="97.966" gradientUnits="userSpaceOnUse">
<stop stop-color="#BC9A63"/>
<stop offset="0.48" stop-color="#715B38"/>
<stop offset="0.615" stop-color="#C4A067"/>
<stop offset="0.995" stop-color="#74654D"/>
</linearGradient>
<linearGradient id="paint3_linear_18_503" x1="221.808" y1="11.9917" x2="221.808" y2="30.9459" gradientUnits="userSpaceOnUse">
<stop stop-color="#BC9A63"/>
<stop offset="0.48" stop-color="#715B38"/>
<stop offset="0.615" stop-color="#C4A067"/>
<stop offset="0.995" stop-color="#74654D"/>
</linearGradient>
<linearGradient id="paint4_linear_18_503" x1="242.414" y1="1.22778" x2="242.414" y2="99.1275" gradientUnits="userSpaceOnUse">
<stop stop-color="#BC9A63"/>
<stop offset="0.48" stop-color="#715B38"/>
<stop offset="0.615" stop-color="#C4A067"/>
<stop offset="0.995" stop-color="#74654D"/>
</linearGradient>
<linearGradient id="paint5_linear_18_503" x1="321.012" y1="1.73926" x2="321.012" y2="98.9886" gradientUnits="userSpaceOnUse">
<stop stop-color="#BC9A63"/>
<stop offset="0.48" stop-color="#715B38"/>
<stop offset="0.615" stop-color="#C4A067"/>
<stop offset="0.995" stop-color="#74654D"/>
</linearGradient>
<linearGradient id="paint6_linear_18_503" x1="361.868" y1="11.9707" x2="361.868" y2="98.1309" gradientUnits="userSpaceOnUse">
<stop stop-color="#BC9A63"/>
<stop offset="0.48" stop-color="#715B38"/>
<stop offset="0.615" stop-color="#C4A067"/>
<stop offset="0.995" stop-color="#74654D"/>
</linearGradient>
<linearGradient id="paint7_linear_18_503" x1="382.236" y1="46.9497" x2="382.236" y2="98.53" gradientUnits="userSpaceOnUse">
<stop stop-color="#BC9A63"/>
<stop offset="0.48" stop-color="#715B38"/>
<stop offset="0.615" stop-color="#C4A067"/>
<stop offset="0.995" stop-color="#74654D"/>
</linearGradient>
<linearGradient id="paint8_linear_18_503" x1="424.159" y1="47.927" x2="424.159" y2="99.3506" gradientUnits="userSpaceOnUse">
<stop stop-color="#BC9A63"/>
<stop offset="0.48" stop-color="#715B38"/>
<stop offset="0.615" stop-color="#C4A067"/>
<stop offset="0.995" stop-color="#74654D"/>
</linearGradient>
<linearGradient id="paint9_linear_18_503" x1="469.638" y1="47.2322" x2="469.638" y2="99.0276" gradientUnits="userSpaceOnUse">
<stop stop-color="#BC9A63"/>
<stop offset="0.48" stop-color="#715B38"/>
<stop offset="0.615" stop-color="#C4A067"/>
<stop offset="0.995" stop-color="#74654D"/>
</linearGradient>
<linearGradient id="paint10_linear_18_503" x1="508.838" y1="23.8459" x2="508.838" y2="99.203" gradientUnits="userSpaceOnUse">
<stop stop-color="#BC9A63"/>
<stop offset="0.48" stop-color="#715B38"/>
<stop offset="0.615" stop-color="#C4A067"/>
<stop offset="0.995" stop-color="#74654D"/>
</linearGradient>
<linearGradient id="paint11_linear_18_503" x1="538.871" y1="47.2322" x2="538.871" y2="98.9969" gradientUnits="userSpaceOnUse">
<stop stop-color="#BC9A63"/>
<stop offset="0.48" stop-color="#715B38"/>
<stop offset="0.615" stop-color="#C4A067"/>
<stop offset="0.995" stop-color="#74654D"/>
</linearGradient>
<linearGradient id="paint12_linear_18_503" x1="574.742" y1="47.6885" x2="574.742" y2="130.015" gradientUnits="userSpaceOnUse">
<stop stop-color="#BC9A63"/>
<stop offset="0.48" stop-color="#715B38"/>
<stop offset="0.615" stop-color="#C4A067"/>
<stop offset="0.995" stop-color="#74654D"/>
</linearGradient>
<linearGradient id="paint13_linear_18_503" x1="670.64" y1="0" x2="670.64" y2="97.9734" gradientUnits="userSpaceOnUse">
<stop stop-color="#BC9A63"/>
<stop offset="0.48" stop-color="#715B38"/>
<stop offset="0.615" stop-color="#C4A067"/>
<stop offset="0.995" stop-color="#74654D"/>
</linearGradient>
<linearGradient id="paint14_linear_18_503" x1="714.734" y1="45.7588" x2="714.734" y2="97.3329" gradientUnits="userSpaceOnUse">
<stop stop-color="#BC9A63"/>
<stop offset="0.48" stop-color="#715B38"/>
<stop offset="0.615" stop-color="#C4A067"/>
<stop offset="0.995" stop-color="#74654D"/>
</linearGradient>
<linearGradient id="paint15_linear_18_503" x1="740.492" y1="45.9722" x2="740.492" y2="97.0041" gradientUnits="userSpaceOnUse">
<stop stop-color="#BC9A63"/>
<stop offset="0.48" stop-color="#715B38"/>
<stop offset="0.615" stop-color="#C4A067"/>
<stop offset="0.995" stop-color="#74654D"/>
</linearGradient>
<linearGradient id="paint16_linear_18_503" x1="782.679" y1="42.3845" x2="782.679" y2="97.5825" gradientUnits="userSpaceOnUse">
<stop stop-color="#BC9A63"/>
<stop offset="0.48" stop-color="#715B38"/>
<stop offset="0.615" stop-color="#C4A067"/>
<stop offset="0.995" stop-color="#74654D"/>
</linearGradient>
<linearGradient id="paint17_linear_18_503" x1="814.998" y1="22.655" x2="814.998" y2="98.0366" gradientUnits="userSpaceOnUse">
<stop stop-color="#BC9A63"/>
<stop offset="0.48" stop-color="#715B38"/>
<stop offset="0.615" stop-color="#C4A067"/>
<stop offset="0.995" stop-color="#74654D"/>
</linearGradient>
<linearGradient id="paint18_linear_18_503" x1="843.282" y1="45.51" x2="843.282" y2="97.4226" gradientUnits="userSpaceOnUse">
<stop stop-color="#BC9A63"/>
<stop offset="0.48" stop-color="#715B38"/>
<stop offset="0.615" stop-color="#C4A067"/>
<stop offset="0.995" stop-color="#74654D"/>
</linearGradient>
<linearGradient id="paint19_linear_18_503" x1="876.701" y1="45.7588" x2="876.701" y2="97.4065" gradientUnits="userSpaceOnUse">
<stop stop-color="#BC9A63"/>
<stop offset="0.48" stop-color="#715B38"/>
<stop offset="0.615" stop-color="#C4A067"/>
<stop offset="0.995" stop-color="#74654D"/>
</linearGradient>
<clipPath id="clip0_18_503">
<rect width="900" height="130.015" fill="white"/>
</clipPath>
</defs>
</svg>
