<svg width="508" height="244" viewBox="0 0 508 244" fill="none" xmlns="http://www.w3.org/2000/svg">
<path d="M132.659 82.3068C128.187 82.1975 123.729 81.6986 119.329 80.8147C114.924 79.9323 110.806 77.8104 107.382 74.6587C104.14 71.58 101.741 67.5816 100.451 63.1061C99.0776 58.6398 98.5215 53.9222 98.8144 49.2216C99.1981 44.863 100.36 40.6286 102.235 36.7577C104.115 32.8841 106.487 29.3198 109.281 26.1701C112.1 22.9888 115.243 20.1709 118.65 17.7715C122.003 15.3906 125.567 13.3851 129.288 11.7853C132.522 10.4712 135.901 9.63288 139.337 9.29248C143.287 8.8666 147.271 9.55575 150.908 11.2939C151.41 11.8351 151.8 12.4869 152.053 13.2059C152.296 13.8344 152.375 14.5238 152.282 15.1983C152.189 15.7895 151.897 16.3214 151.464 16.6904C150.853 17.117 150.113 17.2676 149.402 17.1103C148.441 17.0937 147.509 16.7432 146.742 16.1097C145.925 15.4731 145.026 14.9704 144.075 14.6176C142.977 14.1749 141.816 13.948 140.646 13.9475C139.499 13.9472 138.354 14.0609 137.226 14.287C133.374 14.8305 129.695 16.3613 126.489 18.7543C123.177 21.2156 120.29 24.298 117.963 27.8588C115.583 31.4449 113.756 35.4317 112.554 39.6615C111.364 43.665 110.899 47.8834 111.187 52.0807C111.463 56.1668 112.636 60.1203 114.608 63.6065C116.572 67.0838 119.25 70.0143 122.431 72.1659C123.793 73.306 125.308 74.2101 126.923 74.8463C128.561 75.5031 130.279 75.8944 132.021 76.0078C134.154 76.0078 135.753 75.3973 136.816 74.1762C138.022 72.7642 139.072 71.2017 139.942 69.5212C144.438 60.1241 149.472 51.0463 155.016 42.3419C160.546 33.6929 166.995 25.7901 174.229 18.799C177.501 15.5482 180.985 12.5621 184.655 9.8643C188.393 7.13459 192.404 4.87751 196.61 3.13648C198.132 2.58253 199.831 2.05538 201.708 1.55504C203.604 1.05235 205.543 0.773777 207.493 0.724112C209.417 0.664061 211.341 0.85907 213.221 1.30487C215.037 1.73706 216.725 2.65852 218.131 3.98527C220.003 5.85125 221.124 8.44933 221.249 11.2134C221.384 14.1758 220.998 17.1389 220.112 19.9426C219.198 22.9294 217.997 25.8016 216.527 28.511C215.279 30.8386 213.916 33.0904 212.444 35.2567C206.57 43.8853 199.693 51.6431 191.987 58.335C184.25 65.1666 175.597 70.66 166.333 74.623C164.226 75.5385 162.063 76.2909 159.86 76.8745C157.638 77.4421 155.608 78.6806 154.001 80.4484C151.281 83.4248 148.964 86.8094 147.119 90.4999C145.188 94.324 143.259 98.2314 141.333 102.222C139.431 106.167 137.297 109.972 134.943 113.614C132.607 117.213 129.659 120.289 126.26 122.674C128.59 123.674 130.873 124.616 133.11 125.497C135.346 126.379 137.632 127.272 139.967 128.178C142.395 129.178 144.806 130.119 147.201 131.001C149.654 131.91 152.176 132.58 154.737 133.002C156.607 133.227 158.49 133.281 160.367 133.163C162.218 133.084 163.989 132.322 165.392 131.001C166.027 130.418 166.591 129.748 167.069 129.008C167.307 128.603 167.655 128.289 168.064 128.109C168.473 127.93 168.924 127.894 169.352 128.008C170.171 128.231 170.572 128.651 170.572 129.259C170.565 129.901 170.347 130.519 169.958 131.001C169.391 132.605 168.508 134.054 167.372 135.245C166.226 136.43 164.917 137.413 163.493 138.158C162.02 138.934 160.49 139.574 158.919 140.07C157.348 140.561 155.899 140.963 154.582 141.312C152.232 141.868 149.822 142.064 147.422 141.892C144.947 141.721 142.486 141.359 140.057 140.811C137.571 140.258 135.113 139.566 132.692 138.738C130.254 137.91 127.968 137.106 125.835 136.326C124.009 135.724 122.267 134.856 120.655 133.744C119.056 132.626 117.223 131.971 115.328 131.841C114.266 131.828 113.218 132.111 112.284 132.663C111.367 133.226 110.402 133.78 109.387 134.334C107.147 135.492 104.802 136.391 102.39 137.014C100.257 137.687 98.0479 138.324 95.7622 138.926C93.4818 139.539 91.1662 139.984 88.8311 140.257C86.4807 140.533 84.1146 140.617 81.7528 140.507C79.3982 140.405 77.067 139.957 74.8218 139.176C73.1 138.527 71.4525 137.664 69.9119 136.603C68.2815 135.519 66.8406 134.128 65.6568 132.493C64.5791 131.05 63.9411 129.276 63.8319 127.418C63.7256 125.631 64.5439 123.737 66.2868 121.852C69.254 118.654 73.0006 116.455 77.0803 115.517C81.0761 114.49 85.1543 113.892 89.2566 113.73C91.9605 113.628 94.6665 113.853 97.3251 114.4C100.054 114.948 102.751 115.67 105.402 116.562C106.428 116.83 107.424 117.219 108.372 117.724C109.333 118.26 110.429 118.436 111.49 118.224C112.003 118.152 112.492 117.949 112.919 117.63C113.346 117.312 113.697 116.888 113.945 116.393C114.452 115.392 114.96 114.454 115.467 113.569C118.74 108.363 121.76 103.265 124.526 98.2731C127.291 93.2816 130.003 87.9595 132.659 82.3068ZM104.019 125.533C100.651 123.823 97.1656 122.407 93.5936 121.298C89.9607 120.147 86.1468 119.843 82.3993 120.404C81.2696 120.656 80.1547 120.981 79.0606 121.378C77.9162 121.791 76.837 122.393 75.861 123.165C74.9473 123.877 74.2355 124.856 73.8071 125.989C73.5803 126.612 73.47 127.278 73.4827 127.949C73.4953 128.619 73.6307 129.28 73.8807 129.893C74.2234 131.034 74.9249 132.006 75.861 132.636C76.8166 133.269 77.8753 133.693 78.9787 133.887C80.1352 134.108 81.3071 134.218 82.4811 134.217C83.6513 134.217 84.7887 134.164 85.9098 134.048C89.2831 133.736 92.5939 132.868 95.7294 131.474C98.8157 130.087 101.632 128.071 104.027 125.533H104.019ZM158.993 71.1742C161.627 70.0663 164.216 68.9018 166.758 67.6807C169.271 66.4743 171.627 64.909 173.763 63.0257C176.375 61.1637 178.866 59.1068 181.218 56.8697L188.222 50.2223C192.097 46.3241 195.712 42.129 199.04 37.6691C202.458 33.0844 205.472 28.1573 208.042 22.9536C209.088 21.0195 210.031 19.0207 210.865 16.9674C211.801 14.8498 212.087 12.4596 211.683 10.1502C211.447 8.93485 210.794 7.86407 209.858 7.15709C208.976 6.50999 207.949 6.13635 206.888 6.07599C205.759 6.03151 204.631 6.17308 203.541 6.49592C202.472 6.792 201.427 7.1804 200.415 7.65743C198.2 8.86437 196.151 10.4042 194.327 12.232C192.446 14.1191 190.713 16.1754 189.147 18.3791C187.51 20.6574 185.972 22.9804 184.507 25.366C183.042 27.7516 181.635 29.9942 180.318 32.1028C176.455 38.5238 172.825 44.9776 169.426 51.4642C166.027 57.9508 162.552 64.5208 159.001 71.1742H158.993Z" fill="url(#paint0_linear_8_62)"/>
<path d="M212.289 119.386C209.561 122.71 206.746 126.146 203.844 129.697C201.071 133.131 197.804 136.05 194.171 138.336C192.776 139.213 191.294 139.912 189.752 140.418C188.299 140.907 186.777 141.103 185.26 140.999C183.813 140.89 182.41 140.406 181.168 139.587C179.779 138.601 178.692 137.182 178.051 135.513C177.334 133.734 176.996 131.8 177.061 129.857C177.114 127.838 177.369 125.83 177.822 123.871C178.278 121.869 178.914 119.921 179.72 118.055C180.538 116.166 181.357 114.38 182.175 112.694C184.51 108.477 186.869 104.179 189.253 99.8011C191.637 95.4231 193.997 91.0748 196.332 86.7564C197.248 85.0946 198.088 83.4029 198.852 81.6815C199.613 79.966 200.341 78.1076 201.053 76.1152C201.16 75.6685 201.258 75.0877 201.364 74.3283C201.471 73.5688 201.561 72.8898 201.667 72.1661C201.764 71.4617 201.917 70.7681 202.125 70.0932C202.279 69.5028 202.597 68.9786 203.034 68.5922C203.339 68.5922 204.051 68.5654 205.169 68.5118L209.048 68.342C210.521 68.2884 211.994 68.2616 213.467 68.2616H217.043C217.24 68.3652 217.405 68.5316 217.514 68.7388C217.624 68.946 217.673 69.1846 217.657 69.4231V70.8437C217.738 72.9817 217.4 75.1139 216.667 77.098C215.98 79.0846 215.14 81.0035 214.154 82.8341C212.016 87.4861 209.73 91.9743 207.297 96.2987C205.066 100.742 202.731 105.067 200.292 109.272C197.854 113.477 195.47 117.745 193.14 122.075C192.403 123.603 191.766 125.185 191.234 126.811C190.568 128.746 190.797 130.325 191.921 131.546C192.239 131.911 192.635 132.183 193.074 132.339C193.512 132.495 193.979 132.53 194.433 132.439C195.444 132.254 196.419 131.888 197.322 131.358C198.265 130.821 199.137 130.148 199.916 129.357C200.677 128.589 201.307 127.919 201.814 127.365C205.11 124.079 208.063 120.405 210.619 116.411C213.254 112.307 215.791 108.316 218.229 104.438C220.864 100.227 223.319 95.9055 225.594 91.4739C227.86 87.0717 229.868 82.5179 231.609 77.8396C232.164 76.1439 232.798 74.4799 233.507 72.854C234.073 71.4842 234.709 70.1508 235.414 68.8602C237.05 68.753 239.104 68.5862 241.576 68.3599C244.031 68.1455 246.175 68.0293 247.901 68.0293H250.945C250.84 68.814 250.687 69.5901 250.487 70.3523C250.265 71.0894 250.087 71.8415 249.955 72.6039C249.834 73.3319 249.601 74.0326 249.268 74.6767C247.429 79.1364 245.293 83.4426 242.877 87.5605C240.438 91.7301 238.052 95.8996 235.717 100.069C233.382 104.239 231.2 108.48 229.17 112.792C227.133 117.126 225.549 121.697 224.449 126.418C224.146 129.196 224.629 130.769 225.897 131.162C227.165 131.555 228.663 130.965 230.389 129.375C234.983 125.135 239.12 120.339 242.721 115.079C246.382 109.76 249.832 104.328 253.073 98.7825C253.337 98.5214 253.655 98.3325 253.999 98.2316C254.343 98.1306 254.705 98.1204 255.053 98.2018C255.765 98.3715 256.019 99.0952 255.814 100.284C252.361 106.377 248.632 112.28 244.628 117.992C240.569 123.758 236.113 129.176 231.298 134.2C229.132 136.146 226.754 137.793 224.219 139.105C221.828 140.367 219.109 140.683 216.527 139.998C215.614 139.827 214.743 139.45 213.969 138.892C213.196 138.333 212.537 137.606 212.035 136.755C211.157 135.084 210.686 133.195 210.668 131.269C210.623 129.148 210.801 127.029 211.2 124.952C211.626 122.79 211.986 120.941 212.289 119.386Z" fill="url(#paint1_linear_8_62)"/>
<path d="M295.911 21.2917C296.028 20.3587 296.285 19.4531 296.672 18.6113C296.937 18.2686 297.262 17.9888 297.63 17.789C297.997 17.5892 298.398 17.4738 298.808 17.4498C300.7 17.1953 302.579 16.8344 304.438 16.3687C306.282 15.8827 308.189 15.7437 310.076 15.9577C311.713 16.1811 312.588 16.9494 312.735 18.2807C312.866 19.8297 312.685 21.3911 312.204 22.8553C311.686 24.5932 310.997 26.2648 310.15 27.8408C309.282 29.4491 308.652 30.6463 308.243 31.4147C303.977 39.3904 299.713 47.2619 295.453 55.0291C291.192 62.7963 286.828 70.6082 282.36 78.4648C284.084 77.0233 285.887 75.5015 287.769 73.8992C289.597 72.3273 291.531 70.9086 293.554 69.6552C295.508 68.4413 297.61 67.5387 299.798 66.9748C302.023 66.4197 304.328 66.365 306.574 66.814C308.16 67.03 309.66 67.7194 310.911 68.8064C311.945 69.7591 312.732 70.9914 313.194 72.3803C313.658 73.8128 313.863 75.3298 313.799 76.8476C313.741 78.5023 313.514 80.1447 313.12 81.7438C312.097 85.9521 310.438 89.9442 308.21 93.5555C305.974 97.2128 303.791 100.813 301.664 104.358C300.747 106.019 299.733 107.681 298.62 109.343C297.499 111.005 296.41 112.729 295.346 114.498C294.283 116.267 293.293 118.072 292.376 119.859C291.491 121.557 290.777 123.354 290.248 125.22C289.539 127.656 289.812 129.181 291.067 129.795C292.321 130.408 293.819 130.215 295.559 129.214C301.05 125.101 306.038 120.24 310.403 114.749C314.796 109.248 318.894 103.476 322.678 97.46C323.496 96.3521 324.314 95.8517 325.19 95.9589C326.066 96.0661 326.229 96.9596 325.722 98.6393C322.994 102.737 320.228 106.907 317.424 111.148C314.677 115.306 311.73 119.303 308.595 123.12C305.494 126.857 302.068 130.256 298.366 133.27C294.562 136.39 290.335 138.841 285.838 140.534C284.657 140.753 283.459 140.837 282.262 140.784C281.077 140.732 279.912 140.429 278.833 139.891C278.012 139.494 277.272 138.921 276.658 138.205C276.044 137.49 275.567 136.647 275.257 135.727C274.692 133.912 274.534 131.976 274.799 130.081C275.071 128.005 275.556 125.97 276.247 124.014C276.849 122.216 277.559 120.464 278.375 118.769C280.306 114.558 282.387 110.514 284.619 106.636C286.85 102.758 289.133 98.8865 291.468 95.0208C291.975 94.1392 292.793 92.7841 293.923 90.9555C295.066 89.0809 296.11 87.1358 297.049 85.1301C297.947 83.2786 298.587 81.2911 298.947 79.2332C299.252 77.345 298.898 75.9035 297.883 74.9088C297.065 74.2387 295.878 74.2744 294.307 74.9892C292.595 75.7999 290.952 76.7746 289.397 77.9019C287.717 79.0787 286.114 80.3834 284.602 81.8064C283.494 82.8093 282.45 83.8929 281.476 85.0497C278.33 88.9289 275.432 93.0396 272.802 97.3527C270.156 101.677 267.617 106.082 265.184 110.567C262.751 115.052 260.339 119.57 257.95 124.121C255.571 128.672 253.059 133.106 250.413 137.425C249.096 139.525 247.697 140.579 246.232 140.579H240.667C239.885 140.47 239.093 140.47 238.311 140.579C237.51 140.712 236.69 140.598 235.946 140.248C235.133 139.801 234.879 138.997 235.185 137.836C235.555 136.514 236.04 135.233 236.633 134.012C237.281 132.653 238.019 131.348 238.843 130.107C239.661 128.883 240.209 127.999 240.52 127.427C248.638 112.464 256.758 97.4451 264.881 82.3693C273.004 67.2935 280.852 52.1343 288.424 36.8917C289.847 34.3423 291.32 31.8227 292.842 29.3329C294.348 26.9039 295.392 24.1694 295.911 21.2917Z" fill="url(#paint2_linear_8_62)"/>
<path d="M369.739 25.2764C369.094 28.3375 367.79 31.1863 365.933 33.5857C363.585 36.2358 360.921 38.5287 358.012 40.4029C356.67 41.4662 355.178 42.2812 353.593 42.8152C352.479 43.2967 351.254 43.3842 350.091 43.0654C349.847 42.9677 349.59 42.9105 349.33 42.8956C349.077 42.5013 348.919 42.0433 348.872 41.5644C348.95 41.2604 349.123 40.9955 349.36 40.8147C349.597 40.6339 349.885 40.5484 350.173 40.5726C350.978 40.5407 351.773 40.3719 352.53 40.0723C353.244 39.7447 354.36 39.149 355.877 38.2853C357.172 37.657 358.205 36.5224 358.773 35.1046C358.9 34.6679 358.911 34.2006 358.804 33.7576C358.696 33.3145 358.476 32.914 358.168 32.6029C356.917 31.4657 355.837 30.121 354.968 28.618C354.508 27.8301 354.214 26.9403 354.108 26.0131C354.002 25.0859 354.086 24.1445 354.354 23.2572C355.009 20.7583 356.506 18.6226 358.544 17.2799C359.463 16.5428 360.521 16.0405 361.642 15.8101C362.762 15.5796 363.916 15.627 365.017 15.9486C365.854 16.1932 366.637 16.6211 367.318 17.2063C367.998 17.7915 368.563 18.5218 368.978 19.3527C369.477 20.2268 369.804 21.2058 369.935 22.2263C370.066 23.2468 369.999 24.2859 369.739 25.2764Z" fill="url(#paint3_linear_8_62)"/>
<path d="M404.746 45.5673C406.775 50.8805 408.78 56.4498 410.76 62.2752C412.708 67.9486 414.166 73.8084 415.114 79.7783C416.022 85.6009 416.201 91.5312 415.645 97.4064C415.051 103.416 413.258 109.211 410.392 114.382C408.713 117.969 406.47 121.205 403.764 123.942C401.049 126.683 398.119 129.159 395.008 131.34C391.724 133.636 388.26 135.61 384.656 137.237C380.872 138.971 376.946 140.308 372.93 141.231C368.93 142.166 364.843 142.583 360.754 142.473C356.804 142.387 352.894 141.603 349.175 140.15C346.063 138.891 343.132 137.155 340.468 134.995C337.76 132.838 335.462 130.129 333.701 127.016C331.853 123.588 330.622 119.807 330.075 115.874C329.515 111.972 329.334 108.016 329.535 104.072C329.645 100.271 330.296 96.5118 331.467 92.9301C332.658 89.2666 334.211 85.7555 336.098 82.4587C338.008 79.1382 340.2 76.0211 342.645 73.1487C345.009 70.3433 347.558 67.7304 350.271 65.3309C352.755 63.2111 355.464 61.4261 358.34 60.0147C361.505 58.3823 364.862 57.2338 368.315 56.6017C371.579 55.9899 374.924 56.133 378.134 57.0216C381.334 57.9506 384.069 60.2206 385.745 63.3384C386.744 65.0982 387.458 67.0325 387.856 69.0566C388.26 71.1321 388.439 73.2523 388.388 75.3735C388.34 77.5245 388.11 79.666 387.7 81.7707C387.332 83.7527 386.823 85.7004 386.178 87.5961C385.5 90.1183 384.362 92.4645 382.831 94.4937C381.441 96.1683 379.913 97.6996 378.265 99.0683C377.553 99.6222 377.12 99.7562 376.964 99.4793C376.793 99.0619 376.742 98.5978 376.817 98.148C376.885 97.464 377.039 96.7935 377.275 96.1556C377.447 95.6025 377.675 95.0721 377.954 94.5741C378.638 93.4179 379.082 92.1129 379.256 90.7501C379.381 89.3354 379.655 87.9413 380.074 86.5954C380.783 83.3491 380.678 79.9543 379.771 76.7673C379.013 73.639 377.614 70.7396 375.68 68.2883C373.535 65.6288 370.594 63.8899 367.382 63.3831C364.187 62.8819 360.927 63.4325 358.021 64.9645C355.017 66.682 352.392 69.0938 350.328 72.0319C348.247 74.9028 346.435 77.9949 344.919 81.2614C343.282 84.5221 342.077 88.0209 341.343 91.6525C340.586 95.3321 340.311 99.1104 340.525 102.874C340.729 106.563 341.317 110.214 342.276 113.757C343.191 117.257 344.569 120.592 346.368 123.657C348.139 126.643 350.383 129.26 352.996 131.385C355.792 133.62 359.019 135.127 362.431 135.79C365.854 136.575 369.379 136.669 372.832 136.067C376.307 135.54 379.678 134.387 382.807 132.654C386.028 130.798 388.855 128.223 391.105 125.095C393.343 122.01 395.305 118.698 396.964 115.204C398.675 111.818 399.835 108.133 400.392 104.313C400.949 100.52 401.078 96.6676 400.777 92.8408C400.457 88.9684 399.74 85.1473 398.641 81.4491C397.563 77.7788 396.194 74.2182 394.55 70.8078C392.091 65.4427 390.292 59.7468 389.198 53.8677C388.091 48.0746 387.861 42.1226 388.519 36.2484C389.157 30.5164 390.826 24.9783 393.429 19.9516C396.25 14.6533 400.227 10.1995 405.008 6.98733C407.686 4.79649 410.667 3.08357 413.837 1.91242C417.089 0.659069 420.511 0.0126868 423.959 0.000395037C427.27 -0.0199427 430.545 0.745238 433.558 2.243C436.642 3.83597 439.254 6.3438 441.095 9.4801C443.037 12.7604 444.139 16.549 444.286 20.4519C444.515 24.5087 444.018 28.5754 442.821 32.4244C441.63 36.2617 439.74 39.7962 437.265 42.8154C434.903 45.7828 431.814 47.9525 428.362 49.0697C427.215 49.5317 426 49.756 424.778 49.7309C424.123 49.6237 423.788 49.3467 423.788 48.9C423.833 48.3416 424.049 47.8161 424.401 47.4079C424.779 46.8767 425.242 46.4255 425.768 46.0766C427.14 44.9044 428.303 43.4656 429.197 41.8326C430.162 40.1172 431.046 38.5357 431.864 37.0972C433.52 33.7233 434.383 29.9533 434.376 26.1254C434.463 22.2439 433.788 18.3871 432.396 14.8141C431.136 11.5277 428.982 8.74279 426.226 6.83544C423.498 4.94724 420.149 4.56007 416.177 5.67392C412.98 7.31453 410.207 9.79865 408.109 12.9021C406.086 15.9328 404.588 19.3426 403.69 22.9626C402.771 26.6714 402.411 30.5192 402.626 34.3543C402.812 38.1871 403.527 41.9674 404.746 45.5673Z" fill="url(#paint4_linear_8_62)"/>
<path d="M35.0836 166.251C34.5605 166.882 34.1095 167.578 33.7401 168.325C33.3626 169.077 33.0809 169.881 32.9027 170.715C32.737 171.529 32.6961 172.367 32.7818 173.196C32.8732 174.053 33.1834 174.865 33.6774 175.542C34.0883 176.248 34.6523 176.834 35.3203 177.251C35.9884 177.667 36.7403 177.901 37.5107 177.931C39.0355 178.032 40.5582 177.698 41.9261 176.962C43.4249 176.179 44.7798 175.108 45.9251 173.802C47.1051 172.466 48.1141 170.965 48.9254 169.338C49.7597 167.681 50.4177 165.927 50.8868 164.109C51.3455 162.361 51.6101 160.56 51.6749 158.744C51.7235 157.102 51.513 155.463 51.0525 153.898C50.5974 152.303 49.6766 150.91 48.4283 149.929C47.7232 149.338 46.9141 148.909 46.0504 148.669C45.172 148.423 44.2706 148.287 43.3636 148.262C42.4439 148.232 41.5237 148.292 40.614 148.441C39.7302 148.585 38.8542 148.781 37.9898 149.028C34.5808 149.89 31.3887 151.552 28.6396 153.898C25.8753 156.255 23.4224 159.011 21.3492 162.088C19.0088 165.528 16.9457 169.18 15.1829 173.002C13.4071 176.84 11.9837 180.858 10.9331 184.997C10.542 186.499 10.2092 188.077 9.93451 189.732C9.65485 191.381 9.51545 193.056 9.51805 194.733C9.512 196.385 9.66205 198.033 9.96586 199.652C10.2661 201.23 10.8161 202.74 11.5914 204.115C12.4462 205.705 13.6846 207.014 15.1739 207.9C16.6287 208.754 18.2167 209.309 19.858 209.538C21.5605 209.781 23.2868 209.75 24.9809 209.446C26.6628 209.167 28.3218 208.746 29.9427 208.186C34.0724 206.611 37.8992 204.228 41.232 201.154C44.6015 198.102 47.3466 194.325 49.2926 190.061C49.4001 189.882 49.5702 189.577 49.7897 189.203C49.996 188.843 50.2494 188.516 50.542 188.234C50.7684 187.992 51.0601 187.834 51.3749 187.783C51.6525 187.754 51.872 187.953 52.0421 188.37C52.1542 188.719 52.1683 189.097 52.0825 189.455C51.9974 189.872 51.8854 190.308 51.7511 190.759C51.6147 191.194 51.447 191.617 51.2495 192.024C51.0911 192.361 50.91 192.685 50.7077 192.993C48.0312 197.337 45.0504 201.453 41.7918 205.303C38.5198 209.172 34.6926 212.445 30.4577 214.995C28.9165 215.917 27.315 216.716 25.6661 217.385C23.9929 218.068 22.2643 218.581 20.5028 218.916C18.7694 219.246 17.0045 219.337 15.25 219.187C13.4822 219.033 11.7507 218.559 10.1271 217.787C8.49531 217.033 7.02096 215.93 5.79226 214.545C4.57745 213.17 3.54098 211.623 2.71132 209.946C1.87296 208.247 1.22933 206.443 0.794696 204.576C0.347231 202.727 0.0859847 200.83 0.01551 198.92C-0.0932601 194.959 0.370597 191.003 1.39029 187.197C2.41619 183.357 3.82775 179.65 5.59971 176.143C7.38256 172.618 9.44581 169.267 11.7661 166.13C14.0418 163.034 16.5201 160.119 19.1818 157.407C21.9708 154.57 24.951 151.962 28.0977 149.604C31.2628 147.232 34.7111 145.336 38.3481 143.968C39.7509 143.468 41.1844 143.077 42.6381 142.795C44.134 142.502 45.6582 142.414 47.1744 142.533C48.6497 142.649 50.099 143.015 51.469 143.619C52.8561 144.241 54.0948 145.195 55.0917 146.411C56.2808 147.841 57.1023 149.584 57.4741 151.465C57.8313 153.319 57.9009 155.223 57.6801 157.101C57.4453 159.031 56.9941 160.922 56.3367 162.733C55.7265 164.485 54.9773 166.176 54.0976 167.788C53.235 169.45 52.2684 171.046 51.2047 172.566C50.1225 174.123 48.9244 175.582 47.6223 176.928C46.3354 178.264 44.9401 179.472 43.4531 180.538C42.0065 181.578 40.4268 182.383 38.7645 182.927C37.2209 183.399 35.6138 183.581 34.0133 183.465C32.4174 183.328 30.9151 182.595 29.7636 181.391C28.5152 180.074 27.7473 178.314 27.6006 176.433C27.4261 174.582 27.5951 172.712 28.0977 170.933C28.7067 169.015 29.6239 167.228 30.807 165.655C31.9805 164.085 33.4066 162.756 35.0164 161.735C35.4285 161.431 35.8594 161.159 36.3061 160.92C36.9488 160.56 37.6184 160.258 38.3078 160.019C38.9393 159.792 39.5993 159.671 40.2647 159.66C40.5153 159.629 40.7681 159.693 40.9803 159.84C41.1926 159.988 41.3511 160.21 41.429 160.47C41.548 160.752 41.5628 161.073 41.4704 161.366C41.378 161.66 41.1854 161.904 40.932 162.05C40.461 162.391 39.9582 162.679 39.4318 162.907C38.6526 163.392 37.8913 163.852 37.139 164.303C36.3412 164.798 35.6424 165.461 35.0836 166.251Z" fill="url(#paint5_linear_8_62)"/>
<path d="M76.6004 154.646C74.4377 158.993 72.1982 163.31 69.8819 167.597C67.5655 171.884 65.2333 176.203 62.8851 180.553C60.5368 184.9 58.2031 189.261 55.8838 193.637C53.5646 198.012 51.3526 202.461 49.2479 206.985C48.8887 207.64 48.5649 208.316 48.2782 209.012C47.9194 209.772 47.7785 210.631 47.8738 211.479C47.8717 211.734 47.9397 211.984 48.0691 212.197C48.1986 212.409 48.3834 212.575 48.6 212.672C49.087 212.933 49.7611 212.862 50.6221 212.45C52.0768 211.512 53.4228 210.388 54.6315 209.102C55.8402 207.814 56.9745 206.446 58.0277 205.006C59.0879 203.552 60.0736 202.036 60.9804 200.465C61.8994 198.886 62.7894 197.33 63.6504 195.796C63.8665 195.298 64.1241 194.822 64.4201 194.375C64.8231 193.744 65.2144 193.428 65.5942 193.428C65.7064 193.412 65.82 193.444 65.911 193.517C66.0019 193.59 66.063 193.7 66.0812 193.821C66.1335 194.112 66.1335 194.411 66.0812 194.702C66.0274 195.031 65.9307 195.35 65.7942 195.649C65.6594 195.943 65.5681 196.146 65.5116 196.265C64.1113 198.263 62.7227 200.422 61.3456 202.742C59.9726 205.049 58.4725 207.263 56.8536 209.372C55.2778 211.442 53.4857 213.304 51.5135 214.922C49.5774 216.505 47.3368 217.589 44.9602 218.094C43.015 218.214 41.693 217.7 40.9944 216.55C40.2663 215.301 39.8997 213.843 39.942 212.364C39.9527 210.645 40.1989 208.938 40.6726 207.298C41.0519 205.863 41.5391 204.464 42.1293 203.117C43.7401 199.486 45.536 195.955 47.5085 192.543C49.477 189.133 51.4063 185.661 53.2964 182.125C55.5635 178.021 57.8016 173.917 60.0106 169.813C62.2197 165.71 64.4317 161.595 66.6465 157.469C66.8481 157.088 67.0239 156.693 67.1727 156.285C67.307 155.901 67.4018 155.503 67.4554 155.096V153.941C67.4482 153.557 67.4759 153.173 67.538 152.795C67.7511 152.738 68.2512 152.653 69.0339 152.534C69.8166 152.416 70.6777 152.298 71.6213 152.179C72.5649 152.061 73.4564 151.947 74.2913 151.829C74.8951 151.731 75.5034 151.671 76.1134 151.649C76.5482 151.829 76.7483 152.298 76.7222 153.07C76.7116 153.597 76.6709 154.124 76.6004 154.646Z" fill="url(#paint6_linear_8_62)"/>
<path d="M64.5412 211.33C64.6986 212.734 65.1276 213.664 65.8284 214.119C66.5717 214.584 67.4281 214.757 68.2655 214.61C69.2454 214.477 70.2009 214.169 71.0974 213.697C71.9315 213.284 72.7339 212.791 73.4959 212.224C75.1264 211.063 76.6389 209.698 78.0053 208.154C79.5242 206.481 80.9545 204.776 82.296 203.038C83.6376 201.3 84.8347 199.672 85.8873 198.153C86.9514 196.631 87.8096 195.474 88.4617 194.682C88.835 194.191 89.0882 194.088 89.2212 194.363C89.3588 194.723 89.3741 195.129 89.2641 195.502C88.8654 196.691 88.327 197.813 87.6637 198.835C86.7731 200.28 85.8149 201.668 84.7932 202.994C83.6719 204.457 82.4605 205.949 81.159 207.471C79.8575 208.993 78.5703 210.394 77.2974 211.674C76.0102 212.95 74.8345 214.08 73.7447 215.052C72.9053 215.834 72.0113 216.537 71.0716 217.153C69.9802 217.86 68.8115 218.398 67.5962 218.754C66.3485 219.141 65.0562 219.306 63.7646 219.244C62.5238 219.204 61.3079 218.836 60.2119 218.169C59.0727 217.445 58.1637 216.326 57.6161 214.973C57.0774 213.687 56.7849 212.285 56.7579 210.859C56.7336 209.384 56.8676 207.912 57.157 206.475C57.4502 205.022 57.8522 203.601 58.3583 202.228C58.8438 200.902 59.3894 199.606 59.9931 198.345C61.4916 195.005 63.3987 191.927 65.6568 189.203C67.923 186.504 70.503 184.175 73.3242 182.28C74.6915 181.255 76.1499 180.397 77.675 179.723C79.1834 179.052 80.7476 178.558 82.3432 178.25C83.4206 178.004 84.5239 177.943 85.617 178.068C86.1626 178.105 86.6908 178.301 87.1518 178.637C87.6127 178.973 87.9912 179.438 88.2515 179.988C88.7165 180.782 88.9411 181.729 88.8908 182.683C88.8353 183.639 88.647 184.579 88.333 185.467C88.0146 186.375 87.598 187.235 87.093 188.025C86.6199 188.774 86.0962 189.48 85.5269 190.136C84.2439 191.726 82.779 193.109 81.1719 194.25C79.5949 195.376 77.9552 196.383 76.2633 197.264C75.3594 197.69 74.4684 198.07 73.5902 198.403C72.7121 198.737 71.7939 199.065 70.8356 199.385C70.2018 199.521 69.5613 199.613 68.9177 199.66C68.6044 199.662 68.2944 199.735 68.0063 199.876C67.7181 200.017 67.4576 200.222 67.2401 200.48C66.7524 201.104 66.41 201.859 66.2446 202.675C66.0449 203.513 65.791 204.334 65.4852 205.13C65.1034 206.111 64.8156 207.136 64.627 208.188C64.4525 209.224 64.4236 210.284 64.5412 211.33ZM68.45 197.628C70.2703 197.524 72.0268 196.827 73.513 195.62C75.0262 194.405 76.4788 193.093 77.8638 191.692C78.5542 191.022 79.2076 190.304 79.8203 189.542C80.4269 188.791 80.9753 187.981 81.4594 187.121C81.7769 186.454 82.1501 185.614 82.5749 184.613C82.9657 183.786 83.1582 182.856 83.1327 181.917C83.0812 181.245 82.8924 180.852 82.5749 180.729C82.1741 180.613 81.7504 180.662 81.3778 180.867C80.8249 181.118 80.3016 181.448 79.8203 181.848C79.2822 182.305 78.7652 182.793 78.2714 183.311C77.7951 183.802 77.3661 184.293 76.9842 184.725C76.6023 185.157 76.3706 185.472 76.2633 185.594C74.7339 187.399 73.3322 189.339 72.0714 191.398C70.8271 193.417 69.62 195.494 68.45 197.628Z" fill="url(#paint7_linear_8_62)"/>
<path d="M115.512 179.255H123.825C121.5 183.65 119.227 188.045 117.009 192.44C114.79 196.835 112.435 201.111 109.942 205.266C109.557 205.957 109.211 206.672 108.906 207.406C108.447 208.434 108.085 209.509 107.825 210.614C107.579 211.481 107.55 212.402 107.74 213.286C107.936 213.999 108.584 214.176 109.692 213.817C111.22 212.89 112.609 211.719 113.81 210.346C115.014 208.962 116.124 207.488 117.134 205.937C118.155 204.36 119.166 202.785 120.167 201.211C121.149 199.66 122.232 198.187 123.41 196.802C123.857 196.323 124.209 196.15 124.491 196.27C124.704 196.348 124.901 196.468 125.072 196.624C124.962 196.909 124.823 197.178 124.656 197.429C123.125 199.381 121.709 201.434 120.417 203.576C119.094 205.761 117.665 207.87 116.138 209.896C114.652 211.872 112.965 213.665 111.108 215.239C109.226 216.811 107.038 217.907 104.707 218.447C103.432 218.504 102.49 218.207 101.879 217.556C101.253 216.867 100.821 216.003 100.633 215.062C100.409 214.01 100.312 212.932 100.342 211.854C100.369 210.729 100.441 209.685 100.552 208.737C99.9389 209.449 99.1483 210.325 98.1804 211.366C97.2126 212.406 96.1465 213.46 94.9821 214.526C93.8398 215.579 92.6308 216.547 91.3638 217.422C90.2527 218.222 89.0142 218.796 87.7099 219.117C86.5937 219.389 85.4252 219.263 84.382 218.758C83.3605 218.257 82.5163 217.173 81.8492 215.507C81.1987 213.924 80.8858 212.205 80.9334 210.475C80.9945 208.764 81.2741 207.069 81.7643 205.439C82.266 203.776 82.9167 202.169 83.7074 200.641C84.5115 199.1 85.3289 197.646 86.1598 196.28C87.9808 193.322 90.1153 190.6 92.5208 188.169C94.9176 185.752 97.5837 183.662 100.459 181.945C101.577 181.293 102.732 180.714 103.916 180.212C105.136 179.67 106.425 179.325 107.74 179.188C108.921 179.057 110.112 179.272 111.188 179.81C112.242 180.346 113.047 181.415 113.6 183.018C113.937 182.379 114.269 181.755 114.597 181.146C114.936 180.535 115.242 179.904 115.512 179.255ZM104.541 199.564C104.91 198.859 105.312 198.175 105.747 197.515C106.382 196.506 107.061 195.349 107.784 194.044C108.529 192.686 109.207 191.288 109.817 189.855C110.402 188.545 110.852 187.171 111.157 185.756C111.412 184.733 111.398 183.655 111.117 182.64C110.84 181.806 110.095 181.328 108.883 181.203C107.954 181.4 107.067 181.778 106.266 182.319C105.365 182.917 104.517 183.603 103.733 184.368C102.915 185.153 102.138 185.986 101.406 186.862C100.682 187.724 99.9895 188.54 99.3284 189.309C97.9973 191.224 96.6944 193.184 95.4198 195.188C94.1453 197.193 92.9541 199.242 91.8462 201.336C91.5112 201.991 91.0958 202.805 90.6 203.787C90.0924 204.78 89.6448 205.806 89.2599 206.861C88.8838 207.879 88.6185 208.941 88.4692 210.025C88.3079 210.958 88.4665 211.922 88.9159 212.74C89.0538 213.078 89.2652 213.376 89.5326 213.608C89.8 213.841 90.1154 214.001 90.4526 214.076C91.1068 214.195 91.7784 214.134 92.4046 213.899C93.0944 213.65 93.7507 213.306 94.3567 212.874C94.9103 212.501 95.4267 212.068 95.8978 211.581C97.6195 209.856 99.2034 207.979 100.633 205.97C102.081 203.944 103.388 201.806 104.541 199.574V199.564Z" fill="url(#paint8_linear_8_62)"/>
<path d="M128.558 183.949C128.966 183.375 129.197 182.673 129.216 181.945C129.216 181.28 129.248 180.551 129.301 179.764C129.352 179.387 129.365 179.005 129.341 178.625C129.314 178.537 129.523 178.488 129.964 178.488C130.404 178.488 130.982 178.459 131.868 178.4C132.753 178.341 133.647 178.292 134.536 178.263C135.426 178.234 136.244 178.204 136.934 178.17L137.886 178.126C138.033 178.385 138.158 178.658 138.259 178.943C138.395 179.289 138.466 179.661 138.468 180.038C138.337 180.957 138.071 181.847 137.681 182.673C137.266 183.582 136.894 184.462 136.565 185.313C137.668 184.283 138.771 183.283 139.874 182.311C140.983 181.339 142.175 180.486 143.433 179.764C144.04 179.378 144.677 179.051 145.336 178.786C146.054 178.484 146.8 178.27 147.56 178.151C148.328 178.029 149.103 177.984 149.878 178.014C150.615 178.032 151.343 178.198 152.026 178.503C153.509 179.295 154.323 180.478 154.468 182.052C154.609 183.606 154.511 185.174 154.179 186.692C153.543 188.902 152.577 190.981 151.319 192.842C149.993 194.798 148.779 196.693 147.676 198.529C146.683 200.158 145.717 201.788 144.78 203.418C143.843 205.047 142.936 206.746 142.058 208.512C141.894 208.874 141.644 209.378 141.311 210.013C140.994 210.615 140.745 211.257 140.568 211.925C140.402 212.456 140.402 213.032 140.568 213.563C140.733 214.017 141.231 214.184 142.058 214.052C143.75 213.607 145.34 212.786 146.733 211.641C148.093 210.513 149.329 209.215 150.416 207.774C151.537 206.297 152.577 204.748 153.53 203.134C154.493 201.504 155.474 199.958 156.47 198.494C156.577 198.313 156.741 197.981 156.964 197.492C157.172 197.031 157.437 196.603 157.751 196.221C157.99 195.903 158.295 195.653 158.641 195.492C158.943 195.37 159.259 195.556 159.592 196.04C159.671 196.186 159.723 196.347 159.744 196.515C159.765 196.683 159.756 196.854 159.717 197.018C159.622 197.42 159.472 197.804 159.272 198.157C159.05 198.553 158.827 198.915 158.609 199.247C158.435 199.522 158.242 199.782 158.031 200.025C156.706 202.023 155.312 204.07 153.85 206.165C152.418 208.232 150.856 210.186 149.175 212.013C147.532 213.797 145.698 215.355 143.713 216.653C141.7 217.966 139.478 218.846 137.165 219.244C136.243 219.313 135.322 219.109 134.496 218.652C133.634 218.119 132.973 217.264 132.633 216.242C132.141 214.981 131.987 213.592 132.188 212.238C132.39 210.803 132.781 209.408 133.349 208.097C133.928 206.731 134.591 205.409 135.333 204.141C136.08 202.865 136.752 201.697 137.361 200.685C138.354 198.925 139.392 197.164 140.475 195.404C141.557 193.644 142.564 191.886 143.495 190.129C143.94 189.464 144.384 188.78 144.78 188.085C145.188 187.395 145.561 186.68 145.897 185.944C146.199 185.382 146.408 184.767 146.515 184.125C146.601 183.825 146.595 183.502 146.497 183.206C146.4 182.911 146.217 182.658 145.977 182.487C145.763 182.339 145.518 182.252 145.265 182.236C145.012 182.22 144.76 182.274 144.531 182.394C144.006 182.639 143.522 182.854 143.081 183.035C141.178 183.956 139.467 185.297 138.055 186.975C136.59 188.706 135.224 190.39 133.958 192.026C133.422 192.673 132.924 193.357 132.468 194.075C132.026 194.769 131.581 195.481 131.134 196.211C129.2 199.471 127.255 202.73 125.298 205.989C123.341 209.249 121.395 212.508 119.462 215.768C119.304 216.174 119.125 216.569 118.924 216.951C118.732 217.345 118.496 217.712 118.221 218.041C118.023 218.174 117.803 218.262 117.574 218.301C117.345 218.34 117.111 218.328 116.886 218.266C116.446 218.18 115.996 218.165 115.552 218.222H111.953C111.153 218.222 110.655 218.085 110.463 217.811C110.272 217.538 110.339 217.039 110.668 216.31C110.997 215.582 111.558 214.492 112.323 213.035C114.811 208.732 117.253 204.457 119.649 200.21C122.045 195.963 124.432 191.656 126.81 187.288C127.086 186.746 127.375 186.198 127.7 185.651C128.024 185.103 128.269 184.555 128.558 183.949Z" fill="url(#paint9_linear_8_62)"/>
<path d="M171.377 180.904C170.612 183.163 169.686 185.353 168.607 187.452C167.586 189.394 166.527 191.305 165.429 193.185C164.986 193.971 164.531 194.755 164.067 195.534C163.596 196.316 163.144 197.131 162.704 197.961C161.932 199.469 161.107 200.976 160.228 202.481C159.349 203.985 158.522 205.461 157.747 206.907C157.424 207.399 157.127 207.912 156.859 208.441C156.552 209.05 156.289 209.685 156.074 210.339C155.856 210.976 155.731 211.646 155.701 212.325C155.671 212.992 155.825 213.653 156.145 214.222C156.368 214.621 156.722 214.911 157.134 215.033C157.797 215.276 158.609 215.125 159.571 214.582C160.662 213.943 161.675 213.155 162.585 212.237C163.706 211.132 164.767 209.955 165.762 208.713C166.836 207.386 167.842 206.061 168.78 204.738C169.717 203.413 170.525 202.15 171.217 200.947C171.78 199.986 172.29 198.989 172.744 197.961H172.708L173.041 197.33L173.867 196.068C174.142 195.646 174.31 195.704 174.443 196.248C174.504 196.452 174.518 196.668 174.483 196.879C174.44 197.219 174.343 197.547 174.195 197.85V197.758C173.734 198.462 173.32 199.201 172.957 199.971C172.572 200.786 172.187 201.555 171.803 202.277C170.696 204.442 169.513 206.545 168.252 208.587C167.042 210.565 165.629 212.384 164.04 214.009C162.544 215.541 160.846 216.819 159.003 217.8C157.122 218.784 155.06 219.282 152.976 219.256C152.214 219.259 151.459 219.094 150.757 218.771C149.982 218.375 149.365 217.685 149.021 216.829C148.454 215.794 148.168 214.604 148.196 213.397C148.204 211.962 148.442 210.54 148.897 209.194C149.341 207.781 149.82 206.529 150.26 205.446C151.197 203.34 152.174 201.353 153.189 199.486C154.204 197.618 155.264 195.811 156.371 194.064C157.14 192.682 157.911 191.268 158.683 189.821C159.456 188.375 160.226 186.93 160.996 185.487C161.335 184.881 161.6 184.228 161.781 183.545C161.917 182.972 162.065 182.385 162.225 181.783C162.225 181.66 162.239 181.538 162.265 181.419C162.293 181.302 162.308 181.181 162.309 181.06C162.423 180.743 162.519 180.419 162.598 180.089C162.651 179.786 162.78 179.505 162.971 179.278C163.732 178.941 164.542 178.757 165.363 178.735C166.353 178.676 167.178 178.642 167.839 178.642C168.336 178.642 168.9 178.642 169.535 178.691C170.129 178.724 170.725 178.678 171.31 178.555V178.735L171.394 178.914C171.45 179.235 171.49 179.559 171.514 179.885C171.532 180.232 171.486 180.578 171.377 180.904ZM170.218 166.27C170.226 165.492 170.377 164.725 170.662 164.012C170.959 163.242 171.364 162.527 171.86 161.891C172.352 161.276 172.94 160.762 173.596 160.372C174.189 159.995 174.851 159.764 175.535 159.697C176.142 159.614 176.759 159.724 177.311 160.013C177.765 160.268 178.128 160.681 178.345 161.187C178.568 161.725 178.68 162.31 178.673 162.901C178.672 163.536 178.56 164.165 178.345 164.755C177.832 165.994 177.036 167.068 176.032 167.871C175.131 168.717 173.997 169.209 172.81 169.269C172.511 169.271 172.215 169.208 171.939 169.084C171.662 168.96 171.411 168.777 171.199 168.546C170.659 167.923 170.321 167.123 170.236 166.27H170.218Z" fill="url(#paint10_linear_8_62)"/>
<path d="M179.006 183.953C179.416 183.379 179.648 182.676 179.669 181.947C179.669 181.282 179.696 180.553 179.749 179.765C179.8 179.388 179.815 179.006 179.793 178.625C179.762 178.537 179.971 178.488 180.412 178.488C180.852 178.488 181.435 178.459 182.316 178.4C183.197 178.341 184.096 178.293 184.986 178.263C185.876 178.234 186.695 178.204 187.389 178.17L188.341 178.126C188.485 178.387 188.608 178.66 188.71 178.943C188.845 179.29 188.917 179.662 188.919 180.039C188.799 180.957 188.545 181.847 188.167 182.676C187.752 183.586 187.38 184.466 187.051 185.318C188.154 184.287 189.258 183.286 190.361 182.314C191.471 181.341 192.663 180.487 193.921 179.765C194.528 179.379 195.166 179.051 195.825 178.787C196.543 178.484 197.289 178.271 198.05 178.151C198.817 178.029 199.593 177.984 200.368 178.014C201.107 178.033 201.837 178.198 202.522 178.503C204.012 179.295 204.822 180.46 204.964 182.055C205.102 183.609 205.003 185.178 204.671 186.697C204.025 188.912 203.046 190.993 201.774 192.851C200.448 194.808 199.233 196.705 198.13 198.541C197.136 200.171 196.171 201.802 195.233 203.433C194.296 205.063 193.385 206.763 192.501 208.53C192.337 208.892 192.088 209.396 191.758 210.032C191.439 210.634 191.188 211.276 191.011 211.945C190.845 212.476 190.845 213.053 191.011 213.584C191.175 214.039 191.674 214.205 192.501 214.073C194.193 213.628 195.785 212.807 197.178 211.661C198.538 210.532 199.774 209.234 200.862 207.792C201.983 206.314 203.024 204.763 203.977 203.149C204.941 201.518 205.921 199.971 206.918 198.506C207.101 198.183 207.265 197.848 207.412 197.504C207.62 197.042 207.885 196.614 208.199 196.232C208.439 195.915 208.744 195.665 209.089 195.503C209.392 195.38 209.712 195.566 210.041 196.051C210.12 196.197 210.171 196.358 210.193 196.526C210.214 196.694 210.205 196.865 210.166 197.029C210.07 197.431 209.92 197.815 209.721 198.169C209.499 198.565 209.276 198.927 209.058 199.26C208.882 199.535 208.687 199.795 208.475 200.038C207.152 202.037 205.759 204.085 204.297 206.182C202.861 208.239 201.297 210.184 199.616 212.004C197.973 213.789 196.138 215.348 194.152 216.646C192.142 217.962 189.922 218.843 187.611 219.244C186.689 219.313 185.767 219.109 184.942 218.652C184.079 218.119 183.419 217.263 183.082 216.24C182.59 214.978 182.436 213.588 182.637 212.234C182.843 210.799 183.234 209.404 183.798 208.09C184.378 206.723 185.041 205.401 185.783 204.132L187.812 200.674C188.808 198.913 189.846 197.151 190.926 195.39C192.006 193.629 193.013 191.87 193.947 190.112C194.392 189.446 194.837 188.762 195.233 188.067C195.643 187.377 196.016 186.661 196.35 185.924C196.652 185.362 196.863 184.746 196.973 184.104C197.054 183.804 197.046 183.482 196.949 183.188C196.852 182.893 196.672 182.64 196.435 182.465C196.22 182.317 195.974 182.231 195.72 182.214C195.467 182.198 195.214 182.252 194.984 182.373C194.459 182.617 193.974 182.832 193.534 183.013C191.62 183.939 189.9 185.29 188.483 186.981C187.024 188.713 185.658 190.397 184.385 192.034C183.85 192.681 183.354 193.366 182.899 194.084C182.454 194.779 182.009 195.491 181.564 196.222C179.63 199.483 177.684 202.745 175.727 206.006C173.769 209.267 171.823 212.529 169.889 215.79C169.731 216.196 169.551 216.592 169.35 216.974C169.159 217.369 168.922 217.735 168.647 218.065C168.45 218.198 168.23 218.287 168.001 218.326C167.771 218.364 167.537 218.352 167.312 218.29C166.872 218.204 166.422 218.189 165.978 218.246H162.405C161.604 218.246 161.11 218.109 160.914 217.835C160.718 217.561 160.789 217.062 161.123 216.333C161.457 215.604 162.013 214.513 162.778 213.055C165.261 208.75 167.704 204.473 170.107 200.224C172.51 195.974 174.896 191.664 177.266 187.294C177.542 186.751 177.831 186.203 178.156 185.655C178.481 185.107 178.73 184.559 179.006 183.953Z" fill="url(#paint11_linear_8_62)"/>
<path d="M201.941 217.825C201.062 217.216 200.337 216.374 199.834 215.375C199.35 214.405 199.022 213.352 198.862 212.26C198.697 211.142 198.656 210.006 198.74 208.877C198.811 207.75 198.956 206.631 199.176 205.528C199.868 202.892 200.923 200.388 202.303 198.101C203.678 195.824 205.209 193.666 206.885 191.647C208.66 189.458 210.569 187.406 212.599 185.503C214.632 183.602 216.912 182.042 219.362 180.876C220.401 180.377 221.47 179.961 222.563 179.632C223.657 179.288 224.792 179.127 225.93 179.153C226.991 179.18 228.033 179.469 228.978 180C229.986 180.614 230.771 181.588 231.204 182.761C231.504 182.386 231.775 181.985 232.014 181.56C232.216 181.205 232.462 180.883 232.746 180.603C233.008 180.332 233.302 180.102 233.621 179.919C234.034 179.714 234.476 179.593 234.928 179.56C236.086 179.445 237.249 179.4 238.412 179.426C239.547 179.458 240.655 179.474 241.735 179.474C238.648 185.455 235.508 191.323 232.315 197.078C229.121 202.832 225.851 208.62 222.507 214.442L218.413 221.653C217.048 224.083 215.585 226.441 214.023 228.725C212.468 230.997 210.733 233.112 208.836 235.045C205.144 238.822 200.592 241.432 195.661 242.601C193.254 243.179 190.789 243.411 188.327 243.29C187.569 243.229 186.758 243.124 185.893 242.974C185.045 242.832 184.216 242.578 183.423 242.218C182.648 241.868 181.934 241.37 181.315 240.749C180.698 240.134 180.237 239.352 179.978 238.481C179.654 237.384 179.64 236.204 179.939 235.098C180.21 234.006 180.865 233.077 181.759 232.514C182.604 231.85 183.648 231.565 184.677 231.715C185.202 231.746 185.707 231.949 186.126 232.298C186.545 232.647 186.86 233.125 187.029 233.672C187.185 234.13 187.227 234.626 187.151 235.108C187.073 235.52 186.925 235.913 186.716 236.266C186.501 236.619 186.312 236.99 186.149 237.376C185.984 237.782 185.9 238.223 185.906 238.668C185.938 239.259 186.183 239.813 186.585 240.208C186.997 240.596 187.479 240.884 188 241.05C188.54 241.231 189.101 241.321 189.664 241.318C190.165 241.322 190.665 241.294 191.162 241.232C192.536 241.062 193.876 240.655 195.134 240.026C196.39 239.396 197.572 238.604 198.658 237.668C199.774 236.709 200.805 235.635 201.737 234.462C202.683 233.275 203.562 232.088 204.372 230.902C206.364 228.007 208.203 224.989 209.881 221.863C211.559 218.747 213.181 215.587 214.746 212.384C213.936 213.21 213.017 214.07 211.989 214.963C211 215.825 209.941 216.585 208.827 217.236C207.766 217.853 206.615 218.259 205.426 218.437C204.235 218.618 203.022 218.404 201.941 217.825ZM207.695 213.284C208.923 213.358 210.148 213.097 211.262 212.523C212.363 211.946 213.375 211.181 214.258 210.255C215.198 209.289 216.071 208.248 216.871 207.14C217.681 206.011 218.407 204.942 219.049 203.934C219.92 202.572 220.811 201.221 221.723 199.881C222.634 198.542 223.526 197.176 224.397 195.786C225.253 194.408 226.024 192.97 226.705 191.479C227.381 189.991 227.937 188.441 228.369 186.847C228.494 186.335 228.589 185.814 228.652 185.288C228.734 184.699 228.747 184.1 228.691 183.508C228.657 182.988 228.489 182.491 228.208 182.072C228.046 181.87 227.844 181.713 227.617 181.613C227.39 181.513 227.145 181.474 226.901 181.498C226.219 181.443 225.536 181.58 224.915 181.895C224.233 182.228 223.582 182.63 222.968 183.096C222.346 183.575 221.751 184.096 221.187 184.656C220.606 185.221 220.107 185.741 219.689 186.216C217.427 188.698 215.353 191.378 213.487 194.231C211.624 197.086 209.912 200.058 208.361 203.13C208.143 203.609 207.795 204.394 207.307 205.489C206.828 206.567 206.435 207.687 206.131 208.839C205.846 209.816 205.762 210.851 205.887 211.868C206.012 212.751 206.615 213.223 207.695 213.284Z" fill="url(#paint12_linear_8_62)"/>
<path d="M322.412 171.833C323.733 175.249 325.035 178.829 326.316 182.574C327.579 186.222 328.523 189.989 329.137 193.826C329.726 197.57 329.843 201.382 329.482 205.159C329.096 209.023 327.932 212.748 326.072 216.072C324.983 218.377 323.528 220.457 321.775 222.218C320.011 223.978 318.109 225.569 316.092 226.974C313.958 228.449 311.707 229.718 309.367 230.765C306.908 231.884 304.356 232.748 301.745 233.344C299.149 233.945 296.496 234.213 293.841 234.143C291.28 234.088 288.743 233.584 286.331 232.649C284.309 231.841 282.404 230.725 280.674 229.335C278.917 227.949 277.425 226.207 276.281 224.206C275.084 222.001 274.286 219.57 273.928 217.043C273.564 214.534 273.447 211.991 273.578 209.455C273.649 207.012 274.072 204.595 274.831 202.293C275.606 199.933 276.615 197.672 277.843 195.55C279.083 193.415 280.505 191.411 282.092 189.564C283.628 187.762 285.283 186.083 287.043 184.539C288.655 183.168 290.413 182.011 292.28 181.092C294.335 180.043 296.513 179.304 298.755 178.898C300.873 178.505 303.045 178.597 305.129 179.168C307.205 179.765 308.981 181.225 310.068 183.229C310.723 184.363 311.192 185.61 311.455 186.917C311.717 188.251 311.833 189.614 311.8 190.977C311.769 192.36 311.62 193.737 311.354 195.09C311.115 196.364 310.784 197.616 310.366 198.835C309.926 200.456 309.187 201.965 308.193 203.269C307.292 204.347 306.3 205.332 305.229 206.21C304.767 206.566 304.486 206.652 304.39 206.474C304.277 206.207 304.242 205.908 304.289 205.619C304.333 205.179 304.434 204.748 304.587 204.338C304.702 203.984 304.849 203.643 305.028 203.321C305.473 202.579 305.762 201.739 305.872 200.863C305.953 199.953 306.132 199.057 306.403 198.192C306.863 196.105 306.795 193.922 306.207 191.874C305.715 189.862 304.807 187.998 303.551 186.423C302.159 184.713 300.25 183.595 298.165 183.269C296.091 182.95 293.976 183.304 292.089 184.286C290.139 185.39 288.435 186.94 287.096 188.829C285.745 190.674 284.571 192.662 283.59 194.763C282.523 196.857 281.739 199.107 281.264 201.443C280.775 203.809 280.596 206.237 280.732 208.657C280.867 211.028 281.249 213.375 281.869 215.653C282.463 217.903 283.357 220.047 284.525 222.017C285.674 223.937 287.131 225.619 288.827 226.986C290.642 228.423 292.737 229.391 294.952 229.817C297.181 230.319 299.476 230.374 301.724 229.978C303.98 229.64 306.168 228.898 308.199 227.784C310.289 226.591 312.125 224.936 313.585 222.925C315.037 220.942 316.311 218.812 317.388 216.566C318.499 214.389 319.252 212.02 319.613 209.565C319.975 207.126 320.058 204.65 319.863 202.189C319.655 199.7 319.19 197.244 318.477 194.866C317.777 192.507 316.888 190.218 315.821 188.025C314.227 184.568 313.062 180.899 312.358 177.112C311.639 173.388 311.49 169.561 311.917 165.785C312.331 162.1 313.414 158.54 315.104 155.308C316.935 151.902 319.517 149.039 322.62 146.974C324.359 145.566 326.293 144.465 328.351 143.711C330.462 142.905 332.683 142.49 334.921 142.482C337.071 142.468 339.197 142.962 341.152 143.929C343.154 144.95 344.85 146.56 346.044 148.576C347.306 150.685 348.023 153.12 348.121 155.63C348.252 158.241 347.915 160.854 347.127 163.327C346.354 165.793 345.127 168.066 343.521 170.007C341.987 171.914 339.983 173.309 337.742 174.027C336.997 174.324 336.208 174.469 335.415 174.452C334.99 174.383 334.773 174.205 334.773 173.918C334.802 173.559 334.942 173.221 335.171 172.959C335.416 172.618 335.716 172.327 336.058 172.103C336.949 171.35 337.703 170.425 338.284 169.375C338.91 168.272 339.484 167.255 340.015 166.331C341.09 164.162 341.65 161.738 341.646 159.277C341.702 156.782 341.264 154.302 340.36 152.005C339.542 149.893 338.144 148.102 336.355 146.876C334.585 145.666 332.411 145.417 329.833 146.129C327.757 147.184 325.957 148.781 324.596 150.776C323.284 152.726 322.312 154.917 321.727 157.244C321.133 159.629 320.9 162.102 321.037 164.567C321.152 167.051 321.616 169.501 322.412 171.833Z" fill="url(#paint13_linear_8_62)"/>
<path d="M338.479 224.933C338.671 226.572 339.184 227.656 340.018 228.187C340.906 228.729 341.928 228.93 342.927 228.76C344.1 228.604 345.244 228.244 346.319 227.695C347.314 227.211 348.271 226.636 349.181 225.976C351.131 224.621 352.94 223.029 354.573 221.227C356.39 219.276 358.1 217.286 359.704 215.258C361.308 213.23 362.74 211.321 363.998 209.529C365.271 207.754 366.297 206.404 367.077 205.479C367.518 204.907 367.82 204.786 367.98 205.107C368.144 205.528 368.162 206.001 368.031 206.436C367.558 207.825 366.916 209.134 366.122 210.326C365.056 212.011 363.908 213.631 362.685 215.178C361.344 216.885 359.896 218.626 358.339 220.402C356.783 222.178 355.244 223.813 353.722 225.306C352.193 226.795 350.777 228.109 349.474 229.247C348.468 230.159 347.397 230.979 346.272 231.699C344.969 232.524 343.573 233.152 342.122 233.566C340.628 234.018 339.081 234.211 337.535 234.139C336.067 234.076 334.632 233.639 333.338 232.862C331.976 232.017 330.889 230.711 330.234 229.132C329.597 227.631 329.255 225.994 329.234 224.332C329.202 222.611 329.363 220.893 329.711 219.216C330.058 217.521 330.537 215.863 331.142 214.261C331.725 212.715 332.377 211.203 333.097 209.73C334.875 205.855 337.136 202.281 339.813 199.115C342.523 195.959 345.608 193.234 348.981 191.015C350.616 189.818 352.36 188.818 354.184 188.03C355.988 187.251 357.858 186.675 359.766 186.312C361.054 186.025 362.373 185.953 363.68 186.1C364.332 186.143 364.964 186.372 365.515 186.764C366.067 187.156 366.519 187.698 366.83 188.34C367.389 189.265 367.657 190.371 367.595 191.485C367.528 192.6 367.303 193.697 366.928 194.733C366.549 195.793 366.052 196.795 365.45 197.717C364.89 198.6 364.267 199.432 363.588 200.204C362.054 202.057 360.305 203.672 358.385 205.004C356.499 206.32 354.537 207.495 352.511 208.521C351.428 209.02 350.366 209.461 349.315 209.85C348.263 210.24 347.165 210.618 346.021 210.996C345.263 211.155 344.497 211.262 343.728 211.317C343.354 211.318 342.984 211.403 342.64 211.567C342.296 211.732 341.985 211.972 341.727 212.273C341.14 213 340.728 213.881 340.531 214.834C340.292 215.813 339.989 216.77 339.623 217.698C339.167 218.843 338.823 220.04 338.597 221.267C338.383 222.474 338.343 223.712 338.479 224.933ZM343.158 208.945C345.338 208.826 347.442 208.013 349.222 206.602C351.033 205.186 352.77 203.656 354.425 202.019C355.253 201.241 356.034 200.403 356.764 199.51C357.49 198.634 358.145 197.689 358.724 196.686C359.104 195.907 359.55 194.928 360.058 193.759C360.523 192.794 360.755 191.71 360.73 190.614C360.663 189.829 360.443 189.371 360.058 189.228C359.579 189.092 359.072 189.149 358.627 189.388C357.966 189.684 357.341 190.069 356.764 190.534C356.118 191.05 355.497 191.602 354.902 192.189C354.332 192.762 353.819 193.306 353.363 193.839C352.906 194.372 352.629 194.71 352.501 194.853C350.673 196.96 348.997 199.224 347.488 201.624C346.004 204.019 344.56 206.459 343.158 208.945Z" fill="url(#paint14_linear_8_62)"/>
<path d="M396.425 205.705C396.628 206.197 396.393 207.005 395.731 208.124C394.407 210.091 393.216 211.828 392.155 213.335C391.088 214.838 390.069 216.262 389.076 217.59C388.083 218.918 387.075 220.258 386.05 221.586C385.025 222.914 383.814 224.412 382.426 226.107C381.631 226.949 380.686 227.865 379.592 228.843C378.514 229.816 377.351 230.679 376.118 231.42C374.948 232.133 373.672 232.631 372.345 232.895C371.083 233.144 369.779 232.979 368.609 232.42C367.908 232.1 367.275 231.636 366.746 231.054C366.217 230.471 365.804 229.783 365.53 229.029C365.061 227.522 364.926 225.921 365.135 224.35C365.343 222.629 365.778 220.947 366.426 219.354C367.088 217.707 367.716 216.289 368.31 215.098C369.166 213.353 370.199 211.712 371.39 210.204C372.581 208.697 373.827 207.226 375.125 205.79C376.424 204.355 377.698 202.917 378.947 201.478C380.219 200.025 381.413 198.496 382.522 196.9C381.664 196.764 380.791 196.783 379.939 196.957C379.106 197.134 378.241 197.041 377.458 196.691C376.849 196.525 376.252 196.315 375.67 196.064C375.205 195.849 374.645 196.024 373.983 196.589C372.062 199.743 370.159 203.038 368.273 206.474C366.387 209.91 364.373 213.248 362.232 216.488C360.108 219.713 357.768 222.77 355.23 225.638C352.728 228.464 349.852 230.89 346.691 232.838C345.831 232.979 345.298 232.753 345.09 232.154C344.993 231.846 344.97 231.517 345.023 231.196C345.075 230.876 345.2 230.574 345.388 230.318C349.063 227.822 352.417 224.834 355.368 221.428C358.329 218.01 361.034 214.354 363.459 210.492C365.922 206.585 368.197 202.548 370.274 198.398C372.363 194.227 374.432 190.143 376.481 186.145C376.813 186.006 377.179 185.988 377.522 186.095C377.909 186.211 378.278 186.389 378.616 186.62C378.979 186.869 379.325 187.129 379.683 187.411C379.957 187.655 380.256 187.865 380.574 188.039C381.39 188.448 382.262 188.715 383.157 188.83C384.017 188.934 384.885 188.917 385.74 188.779C386.877 188.563 387.991 188.227 389.065 187.779C390.102 187.338 391.187 187.038 392.294 186.886C393.089 186.812 393.602 186.937 393.831 187.253C393.944 187.412 394.021 187.597 394.055 187.794C394.09 187.99 394.08 188.192 394.029 188.383C393.907 188.906 393.707 189.404 393.436 189.858C393.137 190.384 392.854 190.859 392.593 191.277C390.27 194.363 388.101 197.518 386.087 200.743C384.074 203.968 382.129 207.307 380.254 210.758C379.724 211.602 379.19 212.478 378.653 213.386C378.119 214.296 377.628 215.228 377.164 216.172C376.716 217.095 376.358 218.065 376.097 219.065C375.828 220.054 375.727 221.085 375.798 222.112C375.818 222.934 375.951 223.749 376.193 224.53C376.46 225.446 376.988 225.83 377.794 225.689C378.92 225.48 380.158 224.728 381.53 223.428C383.033 221.969 384.443 220.406 385.751 218.749C387.249 216.862 388.656 214.897 389.967 212.86C391.326 210.758 392.572 208.864 393.703 207.18C394.036 206.599 394.411 206.045 394.824 205.524C395.24 205.02 395.774 205.08 396.425 205.705Z" fill="url(#paint15_linear_8_62)"/>
<path d="M401.614 187.128C402.603 186.99 403.608 186.881 404.634 186.812L407.552 186.594C408.143 186.526 408.935 186.434 409.924 186.331C410.912 186.227 411.572 186.491 411.906 187.128C412.035 187.47 412.035 187.852 411.906 188.194C411.769 188.634 411.604 189.063 411.412 189.479C411.21 189.903 410.997 190.333 410.769 190.758C410.575 191.089 410.425 191.448 410.322 191.824C409.259 194.321 408.105 196.741 406.861 199.085C405.617 201.428 404.347 203.776 403.05 206.127C401.763 208.474 400.51 210.839 399.291 213.221C398.075 215.584 396.995 218.025 396.059 220.532C395.781 221.339 395.602 222.182 395.527 223.039C395.425 223.944 395.441 224.861 395.575 225.763C395.68 226.554 396.028 227.285 396.564 227.839C397.095 228.372 397.882 228.532 398.94 228.32C400.527 227.929 402.014 227.163 403.294 226.078C404.619 225 405.844 223.786 406.952 222.454C409.456 219.244 411.676 215.788 413.581 212.131C415.482 208.492 417.104 204.69 418.43 200.765C419.157 198.763 419.768 196.713 420.258 194.629C420.75 192.554 420.835 190.392 420.508 188.28C420.376 187.561 420.342 186.825 420.407 186.095C420.501 185.351 420.812 184.658 421.295 184.117C421.886 183.51 422.596 183.055 423.374 182.787C424.144 182.506 424.981 182.524 425.74 182.838C426.499 183.152 427.133 183.742 427.531 184.507C427.869 185.291 428.038 186.148 428.025 187.013C428.024 187.945 427.94 188.874 427.775 189.789C427.611 190.712 427.43 191.509 427.244 192.243C426.712 194.235 426.103 196.173 425.415 198.058C424.705 199.973 423.896 201.844 422.991 203.661C421.243 207.413 419.154 210.969 416.755 214.276C414.299 217.667 411.83 220.89 409.349 223.945C408.17 225.276 406.928 226.542 405.628 227.735C404.202 229.055 402.68 230.25 401.077 231.308C399.519 232.348 397.839 233.156 396.08 233.711C394.441 234.241 392.701 234.296 391.035 233.871C388.908 233.371 387.507 232.304 386.83 230.671C386.126 228.944 385.855 227.048 386.043 225.172C386.221 223.075 386.654 221.012 387.33 219.036C387.899 217.265 388.61 215.551 389.456 213.915C391.561 209.507 393.737 205.131 395.984 200.788C398.234 196.424 400.118 191.853 401.614 187.128Z" fill="url(#paint16_linear_8_62)"/>
<path d="M444.491 189.178C443.573 191.826 442.461 194.394 441.164 196.857C439.932 199.134 438.651 201.375 437.323 203.579C436.787 204.501 436.251 205.418 435.678 206.334C435.105 207.251 434.564 208.207 434.033 209.181C433.101 210.953 432.105 212.719 431.044 214.48C429.983 216.241 428.987 217.971 428.055 219.671C427.663 220.247 427.305 220.848 426.983 221.47C426.614 222.184 426.299 222.929 426.04 223.696C425.778 224.443 425.626 225.228 425.59 226.024C425.553 226.806 425.74 227.582 426.126 228.25C426.397 228.715 426.824 229.055 427.321 229.2C428.121 229.485 429.101 229.308 430.262 228.671C431.581 227.923 432.805 226.999 433.905 225.922C435.256 224.622 436.537 223.243 437.741 221.789C439.037 220.233 440.25 218.679 441.378 217.127C442.507 215.575 443.487 214.093 444.319 212.681C445.001 211.556 445.617 210.387 446.162 209.181H446.066L446.462 208.441L447.459 206.961C447.791 206.465 448.021 206.534 448.161 207.171C448.234 207.41 448.25 207.664 448.209 207.911C448.154 208.309 448.036 208.694 447.861 209.05V208.941C447.3 209.764 446.8 210.632 446.366 211.537C445.898 212.493 445.432 213.395 444.968 214.241C443.639 216.78 442.21 219.246 440.682 221.641C439.218 223.957 437.513 226.09 435.598 227.999C433.79 229.794 431.74 231.292 429.517 232.445C427.245 233.599 424.755 234.183 422.237 234.153C421.317 234.156 420.406 233.962 419.558 233.583C418.625 233.117 417.881 232.309 417.463 231.306C416.778 230.093 416.433 228.697 416.467 227.282C416.477 225.599 416.764 223.931 417.313 222.353C417.881 220.696 418.428 219.227 418.958 217.958C420.087 215.488 421.267 213.158 422.499 210.968C423.731 208.778 425.01 206.659 426.335 204.61C427.267 202.989 428.198 201.331 429.126 199.635L431.917 194.551C432.327 193.841 432.646 193.075 432.866 192.274C433.032 191.603 433.214 190.914 433.401 190.208C433.399 190.064 433.415 189.92 433.449 189.781C433.482 189.643 433.498 189.502 433.498 189.36C433.641 188.981 433.757 188.591 433.846 188.193C433.914 187.84 434.07 187.512 434.296 187.242C435.216 186.846 436.196 186.63 437.189 186.605C438.383 186.537 439.38 186.497 440.178 186.497C440.778 186.497 441.459 186.497 442.219 186.554C442.937 186.592 443.657 186.539 444.362 186.394V186.605L444.464 186.816C444.533 187.192 444.583 187.572 444.614 187.954C444.653 188.367 444.611 188.783 444.491 189.178ZM443.098 172.016C443.107 171.104 443.29 170.204 443.634 169.369C443.99 168.464 444.478 167.625 445.08 166.881C445.654 166.155 446.345 165.544 447.121 165.077C447.839 164.636 448.637 164.366 449.462 164.285C450.195 164.188 450.939 164.317 451.605 164.655C452.155 164.953 452.594 165.438 452.854 166.033C453.123 166.664 453.259 167.35 453.25 168.042C453.249 168.787 453.114 169.525 452.854 170.217C452.238 171.672 451.276 172.932 450.062 173.871C448.976 174.866 447.606 175.443 446.173 175.511C445.813 175.512 445.456 175.438 445.124 175.293C444.791 175.147 444.488 174.933 444.234 174.663C443.596 173.934 443.197 173.005 443.098 172.016Z" fill="url(#paint17_linear_8_62)"/>
<path d="M477.645 206.587C475.728 209.407 473.728 212.244 471.647 215.099C469.566 217.951 467.315 220.649 464.908 223.175C462.517 225.683 459.911 227.933 457.125 229.893C454.354 231.84 451.306 233.268 448.106 234.118C447.295 234.189 446.48 234.154 445.677 234.013C443.124 233.521 440.828 232.014 439.231 229.783C438.346 228.357 437.785 226.721 437.595 225.011C437.399 223.222 437.465 221.41 437.792 219.644C438.113 217.855 438.578 216.1 439.183 214.4C440.662 210.444 442.54 206.68 444.782 203.178C447.018 199.651 449.669 196.462 452.666 193.692C454.217 192.215 455.856 190.853 457.572 189.614C459.323 188.349 461.202 187.31 463.171 186.52C464.027 186.232 465.018 185.925 466.144 185.599C467.282 185.27 468.444 185.054 469.617 184.952C470.756 184.841 471.902 184.858 473.037 185.005C474.059 185.13 475.05 185.459 475.962 185.978C476.386 186.209 476.76 186.536 477.058 186.938C477.357 187.34 477.574 187.807 477.693 188.309C477.858 189.234 477.79 190.19 477.496 191.076C477.168 192.078 476.718 193.026 476.159 193.896C475.562 194.834 475.035 195.644 474.561 196.279L474.066 197.095C473.862 197.425 473.63 197.734 473.373 198.016C473.118 198.298 472.814 198.52 472.478 198.668C472.338 198.738 472.187 198.775 472.033 198.775C471.88 198.775 471.728 198.738 471.588 198.668C471.351 198.466 471.169 198.196 471.063 197.887C470.958 197.578 470.933 197.244 470.992 196.92C471.056 196.122 471.093 195.545 471.093 195.172C471.093 194.59 471.056 193.925 470.992 193.168C470.934 192.449 470.802 191.739 470.597 191.053C470.407 190.412 470.102 189.818 469.703 189.305C469.49 189.05 469.23 188.851 468.938 188.72C468.647 188.589 468.333 188.53 468.019 188.547C467.085 188.551 466.172 188.853 465.393 189.416C464.531 190.024 463.733 190.733 463.011 191.531C462.247 192.363 461.535 193.25 460.881 194.188L459.197 196.571C457.699 198.558 456.308 200.64 455.031 202.805C453.774 204.938 452.584 207.125 451.462 209.366C450.535 211.242 449.578 213.229 448.591 215.327C447.628 217.319 447.022 219.495 446.806 221.736C446.723 222.605 446.799 223.484 447.028 224.321C447.258 225.158 447.637 225.937 448.143 226.613C449.166 227.988 450.571 228.53 452.357 228.238C454.795 227.302 457.12 226.045 459.282 224.498C461.467 222.948 463.524 221.194 465.43 219.254C467.362 217.302 469.174 215.211 470.853 212.996C472.54 210.751 474.11 208.473 475.562 206.161C475.685 205.807 475.835 205.464 476.01 205.136C476.249 204.649 476.514 204.179 476.804 203.726C477.081 203.279 477.397 202.861 477.747 202.479C477.862 202.317 478.014 202.191 478.188 202.115C478.362 202.038 478.552 202.013 478.738 202.042C479.27 202.042 479.526 202.263 479.526 202.695C479.507 203.194 479.372 203.679 479.132 204.105C478.857 204.626 478.559 205.132 478.237 205.619C478.022 205.928 477.824 206.251 477.645 206.587Z" fill="url(#paint18_linear_8_62)"/>
<path d="M477.514 224.878C477.707 226.514 478.234 227.597 479.093 228.127C480.005 228.669 481.055 228.87 482.082 228.699C483.284 228.544 484.456 228.185 485.556 227.635C486.579 227.154 487.563 226.58 488.497 225.919C490.496 224.565 492.351 222.975 494.028 221.177C495.884 219.228 497.638 217.241 499.291 215.216C500.943 213.191 502.413 211.285 503.701 209.496C505.006 207.723 506.049 206.375 506.832 205.452C507.29 204.88 507.6 204.76 507.763 205.08C507.932 205.5 507.949 205.974 507.811 206.407C507.326 207.794 506.667 209.101 505.853 210.291C504.761 211.975 503.583 213.593 502.327 215.136C500.959 216.852 499.47 218.568 497.875 220.353C496.281 222.138 494.718 223.757 493.139 225.25C491.56 226.743 490.118 228.053 488.781 229.185C487.738 230.124 486.623 230.966 485.45 231.702C484.112 232.526 482.678 233.154 481.188 233.567C479.657 234.018 478.072 234.211 476.488 234.139C474.981 234.077 473.506 233.641 472.178 232.864C470.79 232.016 469.685 230.712 469.021 229.14C468.36 227.641 468.001 226.007 467.968 224.346C467.938 222.628 468.103 220.912 468.458 219.238C468.818 217.546 469.309 215.891 469.926 214.29C470.523 212.744 471.194 211.234 471.936 209.765C473.771 205.866 476.11 202.274 478.883 199.096C481.66 195.945 484.823 193.224 488.282 191.008C489.961 189.814 491.751 188.815 493.623 188.028C495.474 187.249 497.392 186.674 499.349 186.312C500.67 186.025 502.023 185.954 503.364 186.1C504.033 186.144 504.68 186.373 505.245 186.764C505.811 187.155 506.275 187.697 506.595 188.337C507.165 189.262 507.441 190.365 507.379 191.477C507.308 192.59 507.078 193.685 506.695 194.72C506.304 195.779 505.794 196.78 505.174 197.701C504.598 198.571 503.959 199.389 503.264 200.149C501.693 202.003 499.898 203.615 497.928 204.943C495.995 206.257 493.983 207.43 491.907 208.455C490.799 208.954 489.706 209.397 488.629 209.782C487.552 210.167 486.426 210.549 485.25 210.926C484.473 211.084 483.687 211.191 482.898 211.246C482.514 211.248 482.134 211.333 481.78 211.497C481.427 211.662 481.107 211.901 480.84 212.202C480.239 212.927 479.819 213.807 479.619 214.759C479.374 215.736 479.063 216.692 478.688 217.619C478.222 218.763 477.869 219.958 477.635 221.183C477.415 222.4 477.375 223.647 477.514 224.878ZM482.293 208.913C484.529 208.791 486.686 207.98 488.513 206.573C490.368 205.156 492.15 203.628 493.849 201.997C494.696 201.216 495.497 200.379 496.249 199.491C496.991 198.616 497.662 197.673 498.254 196.671C498.649 195.893 499.101 194.915 499.627 193.748C500.104 192.784 500.34 191.701 500.312 190.607C500.248 189.824 500.017 189.366 499.627 189.223C499.136 189.087 498.616 189.144 498.159 189.383C497.481 189.676 496.839 190.061 496.249 190.527C495.587 191.042 494.949 191.594 494.339 192.181C493.749 192.753 493.228 193.296 492.76 193.828C492.292 194.36 492.013 194.698 491.881 194.841C490.005 196.943 488.286 199.204 486.74 201.602C485.221 203.993 483.738 206.43 482.293 208.913Z" fill="url(#paint19_linear_8_62)"/>
<defs>
<linearGradient id="paint0_linear_8_62" x1="142.549" y1="0.713501" x2="142.549" y2="141.952" gradientUnits="userSpaceOnUse">
<stop stop-color="#BC9A63"/>
<stop offset="0.48" stop-color="#715B38"/>
<stop offset="0.615" stop-color="#C4A067"/>
<stop offset="0.995" stop-color="#74654D"/>
</linearGradient>
<linearGradient id="paint1_linear_8_62" x1="216.468" y1="68.0293" x2="216.468" y2="141.026" gradientUnits="userSpaceOnUse">
<stop stop-color="#BC9A63"/>
<stop offset="0.48" stop-color="#715B38"/>
<stop offset="0.615" stop-color="#C4A067"/>
<stop offset="0.995" stop-color="#74654D"/>
</linearGradient>
<linearGradient id="paint2_linear_8_62" x1="280.534" y1="15.8602" x2="280.534" y2="140.8" gradientUnits="userSpaceOnUse">
<stop stop-color="#BC9A63"/>
<stop offset="0.48" stop-color="#715B38"/>
<stop offset="0.615" stop-color="#C4A067"/>
<stop offset="0.995" stop-color="#74654D"/>
</linearGradient>
<linearGradient id="paint3_linear_8_62" x1="359.436" y1="15.6664" x2="359.436" y2="43.2538" gradientUnits="userSpaceOnUse">
<stop stop-color="#BC9A63"/>
<stop offset="0.48" stop-color="#715B38"/>
<stop offset="0.615" stop-color="#C4A067"/>
<stop offset="0.995" stop-color="#74654D"/>
</linearGradient>
<linearGradient id="paint4_linear_8_62" x1="386.898" y1="0" x2="386.898" y2="142.49" gradientUnits="userSpaceOnUse">
<stop stop-color="#BC9A63"/>
<stop offset="0.48" stop-color="#715B38"/>
<stop offset="0.615" stop-color="#C4A067"/>
<stop offset="0.995" stop-color="#74654D"/>
</linearGradient>
<linearGradient id="paint5_linear_8_62" x1="28.9031" y1="142.482" x2="28.9031" y2="219.257" gradientUnits="userSpaceOnUse">
<stop stop-color="#BC9A63"/>
<stop offset="0.48" stop-color="#715B38"/>
<stop offset="0.615" stop-color="#C4A067"/>
<stop offset="0.995" stop-color="#74654D"/>
</linearGradient>
<linearGradient id="paint6_linear_8_62" x1="58.3316" y1="151.649" x2="58.3316" y2="218.111" gradientUnits="userSpaceOnUse">
<stop stop-color="#BC9A63"/>
<stop offset="0.48" stop-color="#715B38"/>
<stop offset="0.615" stop-color="#C4A067"/>
<stop offset="0.995" stop-color="#74654D"/>
</linearGradient>
<linearGradient id="paint7_linear_8_62" x1="73.046" y1="178.005" x2="73.046" y2="219.257" gradientUnits="userSpaceOnUse">
<stop stop-color="#BC9A63"/>
<stop offset="0.48" stop-color="#715B38"/>
<stop offset="0.615" stop-color="#C4A067"/>
<stop offset="0.995" stop-color="#74654D"/>
</linearGradient>
<linearGradient id="paint8_linear_8_62" x1="103" y1="179.151" x2="103" y2="219.257" gradientUnits="userSpaceOnUse">
<stop stop-color="#BC9A63"/>
<stop offset="0.48" stop-color="#715B38"/>
<stop offset="0.615" stop-color="#C4A067"/>
<stop offset="0.995" stop-color="#74654D"/>
</linearGradient>
<linearGradient id="paint9_linear_8_62" x1="135.056" y1="178.005" x2="135.056" y2="219.257" gradientUnits="userSpaceOnUse">
<stop stop-color="#BC9A63"/>
<stop offset="0.48" stop-color="#715B38"/>
<stop offset="0.615" stop-color="#C4A067"/>
<stop offset="0.995" stop-color="#74654D"/>
</linearGradient>
<linearGradient id="paint10_linear_8_62" x1="163.434" y1="159.67" x2="163.434" y2="219.257" gradientUnits="userSpaceOnUse">
<stop stop-color="#BC9A63"/>
<stop offset="0.48" stop-color="#715B38"/>
<stop offset="0.615" stop-color="#C4A067"/>
<stop offset="0.995" stop-color="#74654D"/>
</linearGradient>
<linearGradient id="paint11_linear_8_62" x1="185.505" y1="178.005" x2="185.505" y2="219.257" gradientUnits="userSpaceOnUse">
<stop stop-color="#BC9A63"/>
<stop offset="0.48" stop-color="#715B38"/>
<stop offset="0.615" stop-color="#C4A067"/>
<stop offset="0.995" stop-color="#74654D"/>
</linearGradient>
<linearGradient id="paint12_linear_8_62" x1="210.73" y1="179.151" x2="210.73" y2="243.321" gradientUnits="userSpaceOnUse">
<stop stop-color="#BC9A63"/>
<stop offset="0.48" stop-color="#715B38"/>
<stop offset="0.615" stop-color="#C4A067"/>
<stop offset="0.995" stop-color="#74654D"/>
</linearGradient>
<linearGradient id="paint13_linear_8_62" x1="310.837" y1="142.482" x2="310.837" y2="234.154" gradientUnits="userSpaceOnUse">
<stop stop-color="#BC9A63"/>
<stop offset="0.48" stop-color="#715B38"/>
<stop offset="0.615" stop-color="#C4A067"/>
<stop offset="0.995" stop-color="#74654D"/>
</linearGradient>
<linearGradient id="paint14_linear_8_62" x1="348.674" y1="186.026" x2="348.674" y2="234.154" gradientUnits="userSpaceOnUse">
<stop stop-color="#BC9A63"/>
<stop offset="0.48" stop-color="#715B38"/>
<stop offset="0.615" stop-color="#C4A067"/>
<stop offset="0.995" stop-color="#74654D"/>
</linearGradient>
<linearGradient id="paint15_linear_8_62" x1="370.745" y1="186.026" x2="370.745" y2="233.008" gradientUnits="userSpaceOnUse">
<stop stop-color="#BC9A63"/>
<stop offset="0.48" stop-color="#715B38"/>
<stop offset="0.615" stop-color="#C4A067"/>
<stop offset="0.995" stop-color="#74654D"/>
</linearGradient>
<linearGradient id="paint16_linear_8_62" x1="407.006" y1="182.588" x2="407.006" y2="234.154" gradientUnits="userSpaceOnUse">
<stop stop-color="#BC9A63"/>
<stop offset="0.48" stop-color="#715B38"/>
<stop offset="0.615" stop-color="#C4A067"/>
<stop offset="0.995" stop-color="#74654D"/>
</linearGradient>
<linearGradient id="paint17_linear_8_62" x1="434.857" y1="164.254" x2="434.857" y2="234.154" gradientUnits="userSpaceOnUse">
<stop stop-color="#BC9A63"/>
<stop offset="0.48" stop-color="#715B38"/>
<stop offset="0.615" stop-color="#C4A067"/>
<stop offset="0.995" stop-color="#74654D"/>
</linearGradient>
<linearGradient id="paint18_linear_8_62" x1="458.506" y1="184.88" x2="458.506" y2="234.154" gradientUnits="userSpaceOnUse">
<stop stop-color="#BC9A63"/>
<stop offset="0.48" stop-color="#715B38"/>
<stop offset="0.615" stop-color="#C4A067"/>
<stop offset="0.995" stop-color="#74654D"/>
</linearGradient>
<linearGradient id="paint19_linear_8_62" x1="487.934" y1="186.026" x2="487.934" y2="234.154" gradientUnits="userSpaceOnUse">
<stop stop-color="#BC9A63"/>
<stop offset="0.48" stop-color="#715B38"/>
<stop offset="0.615" stop-color="#C4A067"/>
<stop offset="0.995" stop-color="#74654D"/>
</linearGradient>
</defs>
</svg>
