<svg width="408" height="206" viewBox="0 0 408 206" fill="none" xmlns="http://www.w3.org/2000/svg">
<path d="M58.103 189V181.025C64.8864 181.025 69.7447 180.658 72.678 179.925C75.6114 179.192 77.4447 177.633 78.178 175.25C78.9114 172.867 79.278 169.292 79.278 164.525V31.975C79.278 27.2083 78.9114 23.725 78.178 21.525C77.4447 19.1417 75.6114 17.5833 72.678 16.85C69.7447 15.9333 64.8864 15.475 58.103 15.475V7.49999H126.028V15.475C119.245 15.475 114.295 15.9333 111.178 16.85C108.245 17.5833 106.411 19.1417 105.678 21.525C104.945 23.725 104.578 27.2083 104.578 31.975V157.65C104.578 164.25 105.403 169.108 107.053 172.225C108.886 175.342 112.186 177.358 116.953 178.275C121.72 179.192 128.595 179.65 137.578 179.65C148.028 179.65 156.278 178.733 162.328 176.9C168.378 174.883 173.053 171.125 176.353 165.625C179.653 160.125 182.403 152.242 184.603 141.975H192.028L189.003 189H58.103ZM292.446 192.3C273.929 192.3 258.163 188.542 245.146 181.025C232.313 173.508 222.596 162.875 215.996 149.125C209.396 135.375 206.096 119.15 206.096 100.45C206.096 80.4667 209.579 63.325 216.546 49.025C223.513 34.5417 233.596 23.45 246.796 15.75C259.996 8.04999 275.946 4.19999 294.646 4.19999C303.446 4.19999 310.688 5.02499 316.371 6.67499C322.054 8.32499 326.638 10.0667 330.121 11.9C333.788 13.55 336.813 14.375 339.196 14.375C341.213 14.375 342.679 14.0083 343.596 13.275C344.696 12.3583 345.429 11.4417 345.796 10.525L346.896 7.49999H354.046L356.796 57H349.646C348.546 52.4167 346.804 47.65 344.421 42.7C342.221 37.5667 339.104 32.8 335.071 28.4C331.038 24 325.813 20.425 319.396 17.675C313.163 14.925 305.463 13.55 296.296 13.55C286.396 13.55 277.963 15.3833 270.996 19.05C264.029 22.7167 258.254 27.6667 253.671 33.9C249.088 39.95 245.421 46.7333 242.671 54.25C240.104 61.5833 238.271 69.1 237.171 76.8C236.071 84.3167 235.521 91.375 235.521 97.975C235.521 108.425 236.621 118.692 238.821 128.775C241.021 138.858 244.504 148.025 249.271 156.275C254.221 164.342 260.546 170.85 268.246 175.8C276.129 180.567 285.571 182.95 296.571 182.95C305.554 182.95 313.071 181.758 319.121 179.375C325.354 176.992 330.488 173.875 334.521 170.025C338.554 166.175 341.854 162.05 344.421 157.65C346.988 153.067 349.188 148.758 351.021 144.725L358.171 148.3C356.521 152.517 354.229 157.192 351.296 162.325C348.363 167.275 344.421 172.042 339.471 176.625C334.521 181.208 328.196 184.967 320.496 187.9C312.979 190.833 303.629 192.3 292.446 192.3Z" fill="#1D1D1D" fill-opacity="0.88"/>
<path d="M264 92.3L292 121L320 92.3L306.747 80H277.253L264 92.3Z" fill="#1D1D1D" fill-opacity="0.88"/>
<path d="M106.566 66.1165C102.973 66.0288 99.3921 65.628 95.8576 64.9179C92.319 64.2091 89.011 62.5046 86.2603 59.9728C83.6556 57.4997 81.7285 54.2877 80.6926 50.6926C79.5893 47.1047 79.1426 43.315 79.3779 39.5391C79.6861 36.0377 80.6196 32.6362 82.1256 29.5268C83.6362 26.4151 85.5416 23.5518 87.7854 21.0217C90.0499 18.4661 92.5752 16.2025 95.312 14.275C98.0052 12.3625 100.868 10.7514 103.857 9.46626C106.455 8.41065 109.17 7.73725 111.93 7.4638C115.103 7.12169 118.304 7.67528 121.225 9.07151C121.628 9.50633 121.942 10.0299 122.145 10.6074C122.34 11.1123 122.404 11.6661 122.329 12.208C122.254 12.6829 122.02 13.1102 121.672 13.4066C121.18 13.7493 120.586 13.8702 120.015 13.7439C119.243 13.7306 118.495 13.449 117.879 12.9401C117.222 12.4287 116.5 12.0249 115.736 11.7415C114.854 11.3859 113.921 11.2036 112.981 11.2032C112.06 11.203 111.14 11.2943 110.234 11.4759C107.14 11.9125 104.185 13.1423 101.609 15.0645C98.9486 17.0417 96.6296 19.5178 94.7598 22.3782C92.8479 25.2589 91.3802 28.4616 90.4147 31.8594C89.4587 35.0754 89.0859 38.464 89.317 41.8358C89.5386 45.1182 90.4811 48.294 92.0647 51.0945C93.6423 53.8879 95.7939 56.2419 98.3489 57.9703C99.4434 58.8862 100.661 59.6124 101.958 60.1235C103.274 60.6511 104.654 60.9654 106.053 61.0565C107.767 61.0565 109.051 60.5661 109.905 59.5852C110.874 58.4509 111.717 57.1958 112.416 55.8458C116.027 48.2971 120.072 41.0048 124.524 34.0126C128.967 27.0648 134.148 20.7164 139.959 15.1004C142.587 12.4891 145.386 10.0903 148.334 7.92315C151.337 5.73036 154.559 3.91723 157.937 2.51865C159.16 2.07366 160.525 1.6502 162.033 1.24828C163.555 0.844468 165.114 0.620685 166.68 0.580789C168.226 0.53255 169.771 0.689202 171.282 1.04731C172.74 1.3945 174.096 2.13471 175.226 3.2005C176.729 4.69944 177.63 6.78649 177.73 9.00692C177.838 11.3866 177.528 13.7668 176.816 16.0191C176.083 18.4184 175.118 20.7257 173.937 22.9021C172.934 24.7719 171.839 26.5808 170.657 28.321C165.938 35.2524 160.414 41.4843 154.223 46.8599C148.008 52.3478 141.058 56.7606 133.616 59.9441C131.923 60.6795 130.186 61.2839 128.416 61.7527C126.632 62.2087 125.001 63.2036 123.709 64.6237C121.525 67.0147 119.663 69.7335 118.181 72.6981C116.63 75.77 115.081 78.9088 113.534 82.1147C112.006 85.2832 110.291 88.34 108.4 91.2657C106.523 94.1569 104.156 96.6276 101.425 98.5435C103.297 99.3473 105.131 100.103 106.927 100.812C108.724 101.52 110.56 102.237 112.436 102.965C114.386 103.769 116.323 104.525 118.247 105.233C120.217 105.963 122.243 106.501 124.301 106.84C125.803 107.021 127.315 107.064 128.824 106.97C130.31 106.906 131.733 106.294 132.86 105.233C133.37 104.765 133.823 104.227 134.207 103.632C134.398 103.307 134.678 103.054 135.006 102.91C135.335 102.766 135.697 102.737 136.041 102.828C136.699 103.008 137.021 103.345 137.021 103.833C137.015 104.349 136.84 104.846 136.528 105.233C136.072 106.521 135.363 107.685 134.45 108.642C133.53 109.594 132.478 110.383 131.335 110.982C130.151 111.605 128.922 112.119 127.66 112.518C126.398 112.912 125.234 113.235 124.176 113.515C122.288 113.963 120.352 114.12 118.424 113.982C116.436 113.844 114.459 113.554 112.508 113.113C110.511 112.669 108.537 112.113 106.592 111.448C104.633 110.783 102.797 110.137 101.083 109.51C99.6171 109.027 98.2174 108.329 96.9225 107.436C95.638 106.538 94.1653 106.012 92.6432 105.907C91.7899 105.897 90.9484 106.125 90.1978 106.568C89.4616 107.02 88.6859 107.465 87.8708 107.91C86.0716 108.841 84.1878 109.562 82.2505 110.063C80.537 110.604 78.7622 111.116 76.926 111.599C75.0942 112.092 73.2341 112.449 71.3582 112.668C69.4701 112.89 67.5695 112.957 65.6722 112.869C63.7808 112.787 61.908 112.427 60.1045 111.8C58.7213 111.279 57.3979 110.585 56.1604 109.733C54.8506 108.862 53.6932 107.745 52.7422 106.431C51.8765 105.272 51.364 103.847 51.2763 102.355C51.1908 100.919 51.8482 99.3976 53.2483 97.8832C55.6319 95.3144 58.6415 93.548 61.9187 92.7945C65.1286 91.9695 68.4046 91.4887 71.7001 91.359C73.8721 91.2768 76.0458 91.4574 78.1815 91.8973C80.3734 92.3372 82.5398 92.9172 84.6695 93.6342C85.4938 93.8491 86.2939 94.1619 87.0557 94.5673C87.8274 94.9981 88.7076 95.1393 89.5602 94.9692C89.9719 94.9113 90.3653 94.7479 90.7081 94.4921C91.0508 94.2364 91.3332 93.8957 91.5322 93.4979C91.9398 92.694 92.3473 91.9404 92.7549 91.2298C95.3843 87.0479 97.8099 82.952 100.032 78.9423C102.254 74.9326 104.432 70.6574 106.566 66.1165ZM83.5586 100.84C80.8536 99.4669 78.0533 98.3293 75.184 97.4382C72.2656 96.5139 69.202 96.2694 66.1915 96.7205C65.2841 96.9227 64.3885 97.184 63.5095 97.5028C62.5903 97.8341 61.7233 98.3183 60.9393 98.9382C60.2053 99.5102 59.6335 100.296 59.2894 101.206C59.1072 101.707 59.0186 102.242 59.0288 102.781C59.0389 103.32 59.1477 103.851 59.3485 104.343C59.6238 105.259 60.1874 106.04 60.9393 106.546C61.7069 107.054 62.5574 107.396 63.4438 107.551C64.3728 107.728 65.3141 107.817 66.2572 107.817C67.1972 107.817 68.111 107.773 69.0115 107.68C71.7214 107.43 74.3809 106.733 76.8997 105.613C79.3789 104.499 81.6411 102.879 83.5652 100.84H83.5586ZM127.719 57.1736C129.836 56.2837 131.915 55.3482 133.957 54.3673C135.976 53.3982 137.868 52.1408 139.584 50.628C141.682 49.1322 143.683 47.4799 145.573 45.6828L151.2 40.3429C154.312 37.2115 157.216 33.8416 159.89 30.2588C162.636 26.5759 165.057 22.618 167.121 18.4379C167.961 16.8842 168.718 15.2785 169.388 13.6291C170.14 11.928 170.371 10.008 170.046 8.15282C169.856 7.17652 169.332 6.31635 168.58 5.74843C167.871 5.22861 167.046 4.92847 166.194 4.87998C165.287 4.84425 164.381 4.95797 163.505 5.21731C162.647 5.45515 161.807 5.76715 160.994 6.15036C159.215 7.11989 157.568 8.35684 156.103 9.82512C154.592 11.3411 153.2 12.9929 151.942 14.7631C150.628 16.5933 149.392 18.4594 148.215 20.3757C147.039 22.2921 145.908 24.0936 144.85 25.7874C141.747 30.9455 138.831 36.1299 136.1 41.3406C133.37 46.5513 130.579 51.829 127.726 57.1736H127.719Z" fill="#BA9864"/>
<path d="M170.532 95.902C168.341 98.5719 166.08 101.333 163.748 104.185C161.521 106.944 158.897 109.288 155.978 111.125C154.858 111.829 153.667 112.39 152.429 112.797C151.262 113.19 150.039 113.348 148.82 113.264C147.658 113.176 146.531 112.787 145.533 112.13C144.417 111.338 143.544 110.197 143.029 108.857C142.453 107.427 142.181 105.874 142.233 104.314C142.276 102.691 142.481 101.079 142.845 99.505C143.211 97.8965 143.722 96.3315 144.37 94.8326C145.027 93.3158 145.684 91.8803 146.342 90.5262C148.217 87.1385 150.113 83.6863 152.028 80.1694C153.943 76.6525 155.838 73.1596 157.714 69.6906C158.45 68.3556 159.125 66.9967 159.739 65.6139C160.35 64.2358 160.935 62.7429 161.507 61.1424C161.592 60.7835 161.671 60.317 161.757 59.707C161.842 59.0969 161.914 58.5514 162 57.9701C162.077 57.4043 162.201 56.8471 162.368 56.3049C162.492 55.8306 162.747 55.4095 163.098 55.0991C163.343 55.0991 163.915 55.0776 164.813 55.0345L167.929 54.8982C169.112 54.8551 170.296 54.8336 171.479 54.8336H174.351C174.51 54.9168 174.642 55.0504 174.73 55.2169C174.818 55.3834 174.858 55.575 174.844 55.7666V56.9078C174.91 58.6252 174.638 60.3381 174.049 61.9319C173.498 63.5277 172.822 65.0692 172.031 66.5397C170.313 70.2767 168.477 73.8821 166.522 77.3559C164.73 80.9254 162.854 84.3992 160.895 87.7773C158.937 91.1554 157.021 94.5838 155.15 98.0623C154.558 99.2892 154.046 100.56 153.619 101.866C153.084 103.421 153.268 104.689 154.171 105.67C154.426 105.963 154.745 106.182 155.097 106.307C155.449 106.433 155.824 106.46 156.189 106.388C157.001 106.239 157.784 105.945 158.509 105.52C159.267 105.088 159.968 104.547 160.593 103.912C161.204 103.295 161.711 102.756 162.118 102.311C164.766 99.6721 167.138 96.721 169.191 93.5119C171.308 90.2152 173.346 87.0093 175.304 83.8944C177.421 80.5115 179.393 77.0401 181.221 73.4802C183.04 69.9438 184.654 66.2857 186.052 62.5276C186.498 61.1654 187.007 59.8288 187.577 58.5227C188.031 57.4223 188.543 56.3512 189.109 55.3145C190.423 55.2283 192.073 55.0944 194.059 54.9125C196.031 54.7403 197.753 54.647 199.14 54.647H201.585C201.501 55.2773 201.378 55.9008 201.217 56.5131C201.039 57.1052 200.896 57.7094 200.79 58.3217C200.692 58.9066 200.506 59.4695 200.238 59.9869C198.761 63.5694 197.045 67.0285 195.104 70.3365C193.145 73.6859 191.228 77.0353 189.352 80.3847C187.476 83.7341 185.723 87.1409 184.093 90.6051C182.457 94.0865 181.184 97.7581 180.3 101.551C180.057 103.783 180.445 105.046 181.464 105.362C182.483 105.677 183.686 105.204 185.073 103.926C188.763 100.52 192.086 96.6679 194.979 92.4425C197.919 88.1697 200.691 83.8059 203.294 79.3512C203.507 79.1414 203.762 78.9897 204.038 78.9086C204.315 78.8275 204.605 78.8193 204.885 78.8847C205.457 79.021 205.661 79.6024 205.496 80.557C202.722 85.4519 199.727 90.1937 196.511 94.7823C193.25 99.4137 189.67 103.766 185.802 107.802C184.062 109.365 182.153 110.689 180.116 111.742C178.195 112.756 176.011 113.01 173.937 112.46C173.203 112.322 172.503 112.02 171.882 111.571C171.261 111.123 170.732 110.538 170.328 109.855C169.623 108.513 169.245 106.995 169.231 105.448C169.194 103.744 169.337 102.041 169.658 100.373C170 98.6365 170.289 97.1508 170.532 95.902Z" fill="#BA9864"/>
<path d="M237.706 17.1029C237.8 16.3534 238.007 15.6259 238.318 14.9497C238.53 14.6744 238.792 14.4496 239.087 14.2891C239.382 14.1287 239.704 14.0359 240.033 14.0166C241.553 13.8122 243.063 13.5223 244.556 13.1482C246.037 12.7578 247.569 12.6461 249.085 12.818C250.4 12.9975 251.103 13.6147 251.221 14.6841C251.326 15.9284 251.181 17.1827 250.794 18.3589C250.378 19.755 249.825 21.0977 249.144 22.3638C248.447 23.6557 247.941 24.6175 247.613 25.2347C244.186 31.6417 240.761 37.9648 237.338 44.2043C233.916 50.4437 230.41 56.7191 226.821 63.0303C228.205 61.8724 229.654 60.6498 231.166 59.3627C232.634 58.1 234.187 56.9603 235.813 55.9535C237.382 54.9784 239.071 54.2533 240.829 53.8003C242.616 53.3544 244.468 53.3104 246.272 53.6711C247.546 53.8447 248.751 54.3985 249.755 55.2717C250.586 56.0369 251.219 57.0269 251.589 58.1426C251.962 59.2933 252.127 60.5119 252.076 61.7312C252.029 63.0604 251.846 64.3797 251.53 65.6644C250.709 69.0449 249.376 72.2518 247.586 75.1527C245.789 78.0906 244.037 80.9831 242.327 83.83C241.591 85.165 240.776 86.5 239.882 87.835C238.982 89.1699 238.107 90.5552 237.253 91.9763C236.398 93.3974 235.603 94.8472 234.867 96.2826C234.155 97.6462 233.582 99.0901 233.157 100.589C232.588 102.546 232.807 103.771 233.815 104.264C234.823 104.757 236.026 104.601 237.424 103.797C241.835 100.493 245.842 96.5882 249.348 92.1772C252.876 87.7587 256.169 83.1217 259.208 78.2892C259.865 77.3992 260.523 76.9973 261.226 77.0834C261.93 77.1695 262.061 77.8873 261.653 79.2366C259.462 82.5286 257.24 85.878 254.988 89.2848C252.781 92.6252 250.413 95.8356 247.895 98.9023C245.404 101.904 242.652 104.634 239.678 107.056C236.623 109.562 233.227 111.531 229.614 112.891C228.666 113.067 227.703 113.134 226.742 113.092C225.79 113.05 224.854 112.806 223.987 112.374C223.328 112.055 222.734 111.595 222.24 111.02C221.747 110.446 221.364 109.769 221.115 109.029C220.661 107.572 220.534 106.016 220.747 104.493C220.965 102.826 221.355 101.191 221.91 99.6201C222.393 98.1757 222.964 96.7682 223.619 95.407C225.171 92.0241 226.843 88.7752 228.635 85.6603C230.427 82.5453 232.261 79.4352 234.137 76.3298C234.544 75.6216 235.202 74.5331 236.109 73.0641C237.028 71.5582 237.866 69.9958 238.62 68.3845C239.342 66.8972 239.856 65.3006 240.145 63.6475C240.39 62.1307 240.106 60.9728 239.29 60.1737C238.633 59.6354 237.68 59.6641 236.418 60.2383C235.042 60.8896 233.723 61.6726 232.474 62.5781C231.124 63.5234 229.837 64.5715 228.622 65.7146C227.732 66.5202 226.893 67.3907 226.111 68.32C223.583 71.4361 221.255 74.7383 219.143 78.2031C217.017 81.6769 214.977 85.2153 213.023 88.8183C211.068 92.4213 209.131 96.0506 207.212 99.7062C205.301 103.362 203.283 106.924 201.158 110.393C200.099 112.08 198.975 112.927 197.799 112.927H193.329C192.7 112.839 192.064 112.839 191.436 112.927C190.792 113.034 190.134 112.942 189.536 112.661C188.883 112.302 188.679 111.656 188.925 110.723C189.222 109.661 189.612 108.633 190.088 107.651C190.608 106.56 191.201 105.511 191.863 104.515C192.52 103.532 192.961 102.821 193.21 102.362C199.731 90.3422 206.254 78.2772 212.78 66.1668C219.305 54.0563 225.609 41.8788 231.692 29.6344C232.835 27.5865 234.019 25.5625 235.241 23.5624C236.451 21.6112 237.289 19.4146 237.706 17.1029Z" fill="#BA9864"/>
<path d="M297.013 20.3052C296.496 22.7642 295.448 25.0527 293.957 26.9801C292.07 29.1089 289.93 30.9509 287.594 32.4563C286.516 33.3105 285.316 33.9652 284.044 34.3942C283.148 34.781 282.164 34.8513 281.23 34.5952C281.034 34.5167 280.828 34.4707 280.619 34.4588C280.416 34.142 280.289 33.7741 280.251 33.3894C280.314 33.1452 280.453 32.9324 280.643 32.7872C280.834 32.6419 281.064 32.5732 281.296 32.5927C281.943 32.567 282.581 32.4314 283.189 32.1908C283.763 31.9276 284.66 31.4491 285.878 30.7553C286.918 30.2505 287.748 29.3391 288.205 28.2002C288.307 27.8494 288.315 27.4741 288.229 27.1182C288.143 26.7623 287.966 26.4405 287.718 26.1906C286.713 25.277 285.846 24.1969 285.148 22.9895C284.779 22.3566 284.543 21.6418 284.457 20.897C284.372 20.1521 284.44 19.3959 284.655 18.6831C285.181 16.6757 286.384 14.9602 288.021 13.8815C288.759 13.2894 289.609 12.8859 290.509 12.7008C291.409 12.5157 292.336 12.5537 293.22 12.8121C293.893 13.0086 294.522 13.3524 295.069 13.8225C295.615 14.2925 296.069 14.8792 296.402 15.5467C296.804 16.2488 297.066 17.0352 297.171 17.855C297.276 18.6748 297.222 19.5095 297.013 20.3052Z" fill="#BA9864"/>
<path d="M325.133 36.6045C326.763 40.8725 328.374 45.3464 329.965 50.026C331.529 54.5834 332.7 59.2907 333.462 64.0863C334.191 68.7636 334.335 73.5274 333.889 78.247C333.412 83.0747 331.971 87.7294 329.669 91.8839C328.32 94.765 326.518 97.3645 324.344 99.5635C322.164 101.765 319.81 103.754 317.311 105.506C314.673 107.351 311.89 108.936 308.995 110.243C305.956 111.636 302.801 112.71 299.576 113.452C296.362 114.203 293.079 114.538 289.794 114.449C286.622 114.381 283.48 113.75 280.493 112.583C277.993 111.571 275.639 110.177 273.499 108.442C271.324 106.71 269.477 104.533 268.062 102.033C266.578 99.2791 265.59 96.2412 265.15 93.0825C264.7 89.9476 264.554 86.7695 264.716 83.6013C264.804 80.548 265.328 77.5284 266.268 74.6512C267.225 71.7083 268.472 68.8878 269.988 66.2394C271.523 63.5721 273.283 61.0681 275.247 58.7607C277.146 56.5071 279.194 54.4081 281.374 52.4806C283.369 50.7777 285.545 49.3439 287.855 48.2101C290.398 46.8987 293.094 45.9762 295.868 45.4684C298.49 44.9769 301.177 45.0919 303.756 45.8057C306.327 46.552 308.523 48.3755 309.87 50.8801C310.672 52.2937 311.246 53.8475 311.566 55.4735C311.89 57.1407 312.034 58.8439 311.993 60.5479C311.955 62.2758 311.77 63.9961 311.441 65.6868C311.145 67.2789 310.736 68.8435 310.218 70.3664C309.673 72.3924 308.759 74.2772 307.529 75.9072C306.413 77.2525 305.185 78.4826 303.861 79.582C303.29 80.027 302.941 80.1347 302.816 79.9122C302.679 79.5768 302.638 79.2041 302.698 78.8427C302.753 78.2933 302.877 77.7547 303.066 77.2422C303.204 76.7979 303.387 76.3719 303.612 75.9718C304.161 75.043 304.517 73.9947 304.657 72.9C304.757 71.7635 304.978 70.6436 305.314 69.5625C305.884 66.9547 305.8 64.2277 305.071 61.6675C304.462 59.1545 303.338 56.8255 301.784 54.8563C300.062 52.7199 297.699 51.3231 295.119 50.916C292.552 50.5133 289.934 50.9556 287.599 52.1863C285.186 53.566 283.077 55.5033 281.42 57.8636C279.747 60.1698 278.292 62.6536 277.075 65.2777C275.759 67.897 274.792 70.7076 274.202 73.6249C273.594 76.5807 273.372 79.6158 273.545 82.6395C273.708 85.6023 274.18 88.5352 274.951 91.3815C275.686 94.193 276.793 96.8722 278.238 99.3339C279.661 101.733 281.464 103.835 283.563 105.542C285.809 107.338 288.401 108.548 291.142 109.081C293.891 109.711 296.723 109.786 299.497 109.303C302.288 108.88 304.996 107.954 307.51 106.561C310.097 105.071 312.368 103.002 314.175 100.489C315.973 98.0114 317.549 95.3508 318.882 92.5442C320.257 89.8238 321.189 86.8635 321.636 83.7951C322.083 80.7485 322.187 77.6536 321.945 74.5794C321.688 71.4687 321.113 68.3992 320.229 65.4284C319.364 62.48 318.264 59.6198 316.943 56.8803C314.968 52.5704 313.522 47.9949 312.644 43.2721C311.754 38.6186 311.57 33.8373 312.098 29.1185C312.611 24.514 313.951 20.0652 316.042 16.0272C318.308 11.7711 321.504 8.19332 325.344 5.61295C327.496 3.85305 329.89 2.47704 332.436 1.53626C335.049 0.529433 337.798 0.0101914 340.568 0.000317335C343.227 -0.0160201 345.858 0.598653 348.278 1.80181C350.756 3.08145 352.854 5.096 354.333 7.61541C355.893 10.2505 356.778 13.2939 356.896 16.4291C357.08 19.688 356.681 22.9548 355.72 26.0467C354.762 29.1292 353.244 31.9685 351.256 34.3938C349.359 36.7775 346.878 38.5205 344.104 39.4179C343.183 39.7891 342.207 39.9692 341.225 39.9491C340.699 39.8629 340.43 39.6404 340.43 39.2816C340.466 38.833 340.64 38.4109 340.923 38.083C341.226 37.6563 341.598 37.2938 342.02 37.0136C343.123 36.0719 344.057 34.9161 344.775 33.6043C345.55 32.2263 346.26 30.9559 346.918 29.8004C348.248 27.0901 348.941 24.0616 348.936 20.9867C349.005 17.8686 348.463 14.7704 347.345 11.9002C346.333 9.26027 344.603 7.02312 342.389 5.49094C340.197 3.97414 337.507 3.66312 334.316 4.55789C331.748 5.87579 329.52 7.8713 327.835 10.3643C326.21 12.7989 325.007 15.538 324.285 18.4459C323.547 21.4253 323.258 24.5162 323.431 27.597C323.58 30.6759 324.154 33.7126 325.133 36.6045Z" fill="#BA9864"/>
<path d="M28.1828 133.551C27.7626 134.058 27.4003 134.617 27.1036 135.217C26.8003 135.821 26.5741 136.467 26.4309 137.137C26.2978 137.791 26.2649 138.464 26.3338 139.13C26.4072 139.818 26.6564 140.471 27.0532 141.014C27.3833 141.581 27.8363 142.053 28.373 142.387C28.9096 142.722 29.5136 142.909 30.1325 142.933C31.3574 143.015 32.5806 142.746 33.6794 142.155C34.8834 141.526 35.9718 140.666 36.8918 139.617C37.8397 138.543 38.6503 137.337 39.302 136.031C39.9722 134.7 40.5008 133.291 40.8776 131.83C41.2461 130.426 41.4586 128.98 41.5107 127.521C41.5497 126.202 41.3806 124.885 41.0107 123.628C40.6451 122.346 39.9054 121.228 38.9027 120.439C38.3363 119.965 37.6863 119.62 36.9925 119.427C36.2869 119.23 35.5627 119.12 34.8341 119.1C34.0954 119.076 33.3562 119.124 32.6254 119.244C31.9154 119.36 31.2118 119.517 30.5174 119.715C27.7789 120.408 25.2147 121.743 23.0063 123.628C20.7857 125.521 18.8153 127.735 17.1499 130.207C15.2698 132.971 13.6126 135.904 12.1965 138.974C10.7699 142.057 9.62653 145.285 8.78263 148.61C8.46847 149.816 8.20107 151.084 7.98044 152.413C7.75579 153.738 7.64381 155.083 7.64589 156.431C7.64103 157.758 7.76157 159.082 8.00562 160.382C8.24682 161.65 8.68859 162.863 9.31144 163.968C9.99807 165.245 10.9929 166.296 12.1893 167.008C13.3579 167.694 14.6336 168.14 15.952 168.324C17.3197 168.519 18.7064 168.494 20.0673 168.25C21.4183 168.026 22.751 167.687 24.0531 167.238C27.3705 165.973 30.4446 164.058 33.1218 161.589C35.8286 159.137 38.0338 156.103 39.5969 152.678C39.6833 152.534 39.82 152.288 39.9963 151.989C40.162 151.699 40.3655 151.437 40.6006 151.21C40.7825 151.016 41.0168 150.889 41.2697 150.848C41.4927 150.825 41.669 150.984 41.8057 151.319C41.8957 151.6 41.907 151.903 41.8381 152.191C41.7697 152.526 41.6798 152.876 41.5718 153.238C41.4623 153.588 41.3276 153.928 41.169 154.254C41.0417 154.525 40.8962 154.785 40.7337 155.033C38.5837 158.523 36.1892 161.829 33.5715 164.921C30.9431 168.03 27.8687 170.659 24.4668 172.708C23.2287 173.448 21.9423 174.09 20.6177 174.627C19.2736 175.176 17.885 175.588 16.47 175.857C15.0776 176.122 13.6598 176.195 12.2504 176.075C10.8303 175.951 9.43941 175.57 8.13512 174.95C6.82432 174.344 5.63996 173.458 4.65295 172.346C3.67709 171.241 2.84449 169.998 2.17802 168.651C1.50456 167.286 0.987524 165.838 0.638383 164.337C0.278932 162.852 0.0690719 161.329 0.0124592 159.794C-0.0749162 156.612 0.297703 153.435 1.11683 150.377C1.94094 147.292 3.07485 144.314 4.49827 141.497C5.93044 138.665 7.58786 135.974 9.45172 133.454C11.2798 130.967 13.2706 128.625 15.4088 126.446C17.6493 124.168 20.0433 122.073 22.571 120.179C25.1136 118.273 27.8836 116.749 30.8052 115.651C31.932 115.25 33.0836 114.935 34.2514 114.709C35.4531 114.473 36.6774 114.403 37.8954 114.499C39.0806 114.591 40.2448 114.886 41.3452 115.371C42.4596 115.87 43.4546 116.637 44.2554 117.613C45.2106 118.762 45.8705 120.162 46.1692 121.673C46.4561 123.162 46.512 124.692 46.3347 126.201C46.146 127.751 45.7836 129.27 45.2555 130.725C44.7653 132.132 44.1635 133.49 43.4568 134.785C42.7639 136.121 41.9875 137.403 41.133 138.624C40.2636 139.875 39.3011 141.047 38.2552 142.128C37.2215 143.201 36.1006 144.172 34.9061 145.028C33.744 145.863 32.475 146.51 31.1397 146.947C29.8997 147.326 28.6087 147.473 27.323 147.379C26.041 147.269 24.8343 146.68 23.9092 145.713C22.9064 144.655 22.2895 143.241 22.1717 141.731C22.0315 140.244 22.1673 138.741 22.571 137.312C23.0602 135.771 23.797 134.336 24.7474 133.072C25.6901 131.811 26.8356 130.744 28.1288 129.923C28.4599 129.679 28.806 129.461 29.1648 129.269C29.6811 128.979 30.219 128.737 30.7728 128.545C31.2801 128.362 31.8103 128.265 32.3448 128.257C32.5461 128.232 32.7492 128.283 32.9197 128.401C33.0902 128.52 33.2175 128.698 33.2801 128.907C33.3757 129.134 33.3875 129.391 33.3133 129.627C33.2391 129.863 33.0844 130.059 32.8808 130.176C32.5025 130.451 32.0986 130.682 31.6757 130.865C31.0498 131.254 30.4383 131.624 29.8339 131.986C29.193 132.384 28.6317 132.916 28.1828 133.551Z" fill="#BA9864"/>
<path d="M61.5338 124.23C59.7965 127.722 57.9974 131.19 56.1367 134.634C54.276 138.077 52.4025 141.547 50.5161 145.041C48.6298 148.533 46.7551 152.036 44.892 155.551C43.029 159.066 41.2521 162.64 39.5614 166.274C39.2728 166.8 39.0127 167.343 38.7824 167.902C38.4942 168.512 38.381 169.203 38.4575 169.884C38.4558 170.089 38.5105 170.29 38.6145 170.46C38.7184 170.631 38.8669 170.764 39.0409 170.843C39.4321 171.052 39.9736 170.995 40.6652 170.664C41.8338 169.911 42.9151 169.008 43.886 167.974C44.857 166.94 45.7682 165.841 46.6142 164.684C47.4658 163.517 48.2577 162.299 48.9861 161.036C49.7243 159.768 50.4393 158.518 51.1309 157.286C51.3045 156.885 51.5115 156.503 51.7492 156.144C52.0729 155.637 52.3873 155.384 52.6924 155.384C52.7825 155.37 52.8738 155.396 52.9469 155.455C53.0199 155.514 53.069 155.602 53.0837 155.699C53.1257 155.933 53.1257 156.173 53.0837 156.407C53.0404 156.671 52.9627 156.927 52.8531 157.168C52.7448 157.404 52.6715 157.567 52.626 157.662C51.5012 159.267 50.3857 161.002 49.2795 162.866C48.1765 164.719 46.9715 166.497 45.671 168.191C44.4052 169.854 42.9656 171.35 41.3814 172.649C39.826 173.921 38.0261 174.793 36.1171 175.198C34.5544 175.294 33.4925 174.881 32.9312 173.958C32.3464 172.955 32.0519 171.783 32.0859 170.595C32.0945 169.214 32.2923 167.843 32.6728 166.525C32.9775 165.372 33.3688 164.249 33.843 163.166C35.1369 160.25 36.5796 157.414 38.1641 154.672C39.7454 151.934 41.2952 149.144 42.8136 146.304C44.6347 143.007 46.4325 139.711 48.2071 136.414C49.9817 133.117 51.7586 129.812 53.5378 126.497C53.6997 126.192 53.8409 125.874 53.9605 125.546C54.0683 125.238 54.1445 124.918 54.1875 124.591V123.663C54.1818 123.355 54.204 123.047 54.2539 122.743C54.425 122.697 54.8268 122.629 55.4555 122.534C56.0843 122.438 56.776 122.343 57.534 122.248C58.292 122.153 59.0082 122.062 59.6789 121.967C60.1638 121.888 60.6525 121.84 61.1425 121.822C61.4918 121.967 61.6525 122.343 61.6316 122.963C61.6231 123.387 61.5904 123.81 61.5338 124.23Z" fill="#BA9864"/>
<path d="M51.8464 169.761C51.9728 170.889 52.3175 171.635 52.8804 172.001C53.4775 172.375 54.1654 172.513 54.8382 172.395C55.6253 172.288 56.3929 172.041 57.113 171.662C57.7831 171.33 58.4276 170.934 59.0397 170.479C60.3495 169.546 61.5645 168.449 62.6622 167.209C63.8823 165.866 65.0312 164.496 66.1089 163.1C67.1866 161.703 68.1482 160.395 68.9938 159.175C69.8486 157.953 70.538 157.023 71.0619 156.387C71.3617 155.993 71.5651 155.91 71.6719 156.131C71.7825 156.42 71.7948 156.747 71.7064 157.046C71.3861 158.001 70.9536 158.902 70.4208 159.724C69.7054 160.884 68.9356 161.999 68.1149 163.064C67.2142 164.239 66.241 165.438 65.1955 166.661C64.15 167.884 63.116 169.009 62.0935 170.037C61.0595 171.062 60.1151 171.969 59.2396 172.75C58.5653 173.379 57.8472 173.944 57.0923 174.438C56.2156 175.006 55.2767 175.439 54.3005 175.724C53.2982 176.035 52.2601 176.168 51.2226 176.118C50.2258 176.086 49.249 175.79 48.3687 175.255C47.4535 174.673 46.7233 173.774 46.2834 172.687C45.8507 171.654 45.6157 170.527 45.5941 169.382C45.5745 168.198 45.6821 167.015 45.9146 165.86C46.1502 164.694 46.473 163.552 46.8797 162.449C47.2696 161.384 47.708 160.342 48.1929 159.329C49.3966 156.646 50.9286 154.174 52.7425 151.986C54.563 149.818 56.6355 147.947 58.9018 146.425C60.0002 145.601 61.1717 144.912 62.3968 144.37C63.6086 143.832 64.865 143.435 66.1468 143.187C67.0123 142.989 67.8986 142.94 68.7767 143.041C69.2149 143.071 69.6392 143.228 70.0096 143.498C70.3799 143.768 70.6839 144.141 70.893 144.583C71.2665 145.221 71.447 145.982 71.4065 146.748C71.3619 147.516 71.2107 148.271 70.9584 148.985C70.7026 149.714 70.368 150.405 69.9624 151.039C69.5823 151.641 69.1616 152.208 68.7043 152.735C67.6737 154.012 66.4969 155.124 65.2059 156.04C63.9391 156.945 62.6219 157.754 61.2628 158.462C60.5367 158.803 59.821 159.108 59.1155 159.377C58.4101 159.645 57.6725 159.908 56.9027 160.165C56.3936 160.275 55.879 160.348 55.362 160.386C55.1103 160.387 54.8614 160.446 54.6299 160.559C54.3984 160.672 54.1891 160.838 54.0144 161.045C53.6226 161.546 53.3476 162.153 53.2147 162.808C53.0543 163.481 52.8504 164.141 52.6047 164.78C52.298 165.568 52.0668 166.392 51.9153 167.237C51.7752 168.069 51.7519 168.921 51.8464 169.761ZM54.9864 158.753C56.4486 158.67 57.8596 158.11 59.0535 157.14C60.2691 156.164 61.4359 155.111 62.5485 153.985C63.1031 153.447 63.628 152.87 64.1202 152.258C64.6075 151.655 65.048 151.004 65.4368 150.314C65.6919 149.777 65.9917 149.103 66.333 148.298C66.6469 147.635 66.8015 146.887 66.781 146.133C66.7397 145.593 66.588 145.277 66.333 145.179C66.011 145.085 65.6707 145.125 65.3713 145.289C64.9271 145.491 64.5068 145.756 64.1202 146.078C63.6879 146.445 63.2726 146.837 62.8759 147.253C62.4933 147.648 62.1487 148.042 61.8419 148.389C61.5351 148.736 61.349 148.989 61.2628 149.087C60.0342 150.536 58.9082 152.095 57.8954 153.749C56.8958 155.371 55.9262 157.039 54.9864 158.753Z" fill="#BA9864"/>
<path d="M92.7913 143.996H99.4692C97.6008 147.526 95.7756 151.057 93.9934 154.588C92.2112 158.118 90.3189 161.553 88.3166 164.891C88.0074 165.446 87.7294 166.02 87.4841 166.61C87.1154 167.436 86.8245 168.299 86.6157 169.187C86.4186 169.884 86.3951 170.624 86.5476 171.333C86.7054 171.906 87.2257 172.048 88.1157 171.76C89.3435 171.015 90.459 170.075 91.4241 168.972C92.3906 167.86 93.2827 166.676 94.0938 165.429C94.9144 164.163 95.7265 162.897 96.5303 161.633C97.3189 160.388 98.1895 159.204 99.1355 158.091C99.4943 157.707 99.7778 157.568 100.004 157.664C100.175 157.727 100.333 157.823 100.47 157.949C100.382 158.177 100.27 158.394 100.137 158.595C98.9065 160.163 97.7691 161.813 96.7313 163.533C95.6682 165.288 94.5207 166.983 93.2936 168.61C92.1003 170.198 90.7451 171.637 89.2532 172.902C87.7418 174.165 85.9841 175.045 84.1111 175.479C83.0872 175.525 82.3301 175.287 81.8397 174.764C81.3366 174.21 80.9895 173.515 80.8385 172.76C80.659 171.915 80.5806 171.049 80.6053 170.183C80.6268 169.279 80.6842 168.441 80.7739 167.679C80.2811 168.251 79.646 168.955 78.8685 169.791C78.091 170.627 77.2346 171.473 76.2993 172.329C75.3816 173.176 74.4105 173.953 73.3927 174.656C72.5001 175.298 71.5053 175.76 70.4575 176.017C69.5608 176.236 68.6222 176.134 67.7841 175.729C66.9636 175.326 66.2854 174.456 65.7496 173.118C65.227 171.846 64.9757 170.465 65.0139 169.075C65.063 167.7 65.2876 166.339 65.6814 165.029C66.0844 163.694 66.6071 162.403 67.2423 161.176C67.8882 159.937 68.5449 158.769 69.2123 157.672C70.6751 155.296 72.3898 153.11 74.3221 151.157C76.2475 149.215 78.3892 147.536 80.6986 146.157C81.5972 145.633 82.5247 145.168 83.4759 144.765C84.4563 144.329 85.4914 144.052 86.5476 143.942C87.4961 143.837 88.4535 144.01 89.3178 144.442C90.1646 144.873 90.8105 145.731 91.2555 147.019C91.5258 146.506 91.7925 146.005 92.0557 145.515C92.3284 145.024 92.5741 144.517 92.7913 143.996ZM83.9783 160.31C84.2742 159.744 84.5976 159.194 84.9472 158.664C85.4567 157.854 86.0021 156.925 86.5835 155.876C87.1813 154.785 87.7263 153.662 88.2161 152.511C88.6863 151.459 89.0473 150.355 89.2926 149.219C89.4974 148.397 89.4862 147.53 89.2603 146.715C89.0379 146.046 88.4398 145.661 87.4662 145.561C86.72 145.719 86.0073 146.023 85.3634 146.457C84.6396 146.938 83.9585 147.489 83.3288 148.103C82.672 148.734 82.0479 149.403 81.4593 150.107C80.878 150.799 80.3218 151.454 79.7907 152.072C78.7214 153.611 77.6748 155.185 76.6509 156.795C75.627 158.405 74.6701 160.051 73.7802 161.733C73.5111 162.26 73.1774 162.914 72.7791 163.703C72.3713 164.5 72.0118 165.325 71.7026 166.172C71.4005 166.99 71.1874 167.843 71.0675 168.714C70.9379 169.463 71.0653 170.238 71.4263 170.895C71.537 171.166 71.7069 171.405 71.9217 171.592C72.1365 171.779 72.3899 171.907 72.6607 171.968C73.1862 172.063 73.7257 172.014 74.2288 171.825C74.7829 171.626 75.3101 171.349 75.7969 171.002C76.2416 170.702 76.6565 170.354 77.0349 169.964C78.4179 168.578 79.6903 167.07 80.8385 165.456C82.0021 163.829 83.0516 162.112 83.9783 160.318V160.31Z" fill="#BA9864"/>
<path d="M103.271 147.765C103.599 147.304 103.784 146.74 103.8 146.155C103.8 145.621 103.825 145.036 103.868 144.403C103.908 144.101 103.919 143.794 103.9 143.488C103.878 143.418 104.046 143.378 104.4 143.378C104.754 143.378 105.218 143.355 105.929 143.308C106.64 143.261 107.359 143.221 108.073 143.198C108.788 143.174 109.445 143.151 109.999 143.123L110.764 143.088C110.882 143.296 110.982 143.515 111.064 143.744C111.172 144.022 111.229 144.321 111.232 144.623C111.126 145.362 110.912 146.077 110.599 146.74C110.266 147.471 109.967 148.178 109.703 148.861C110.589 148.034 111.475 147.23 112.361 146.45C113.252 145.668 114.209 144.983 115.22 144.403C115.708 144.093 116.219 143.83 116.749 143.618C117.325 143.375 117.924 143.204 118.535 143.107C119.152 143.01 119.775 142.973 120.397 142.997C120.989 143.013 121.574 143.146 122.123 143.39C123.314 144.026 123.968 144.977 124.085 146.242C124.198 147.489 124.119 148.749 123.852 149.969C123.341 151.744 122.565 153.414 121.555 154.909C120.49 156.48 119.514 158.003 118.628 159.477C117.83 160.786 117.055 162.095 116.302 163.405C115.549 164.714 114.82 166.078 114.115 167.497C113.983 167.788 113.783 168.192 113.515 168.703C113.261 169.187 113.061 169.702 112.918 170.238C112.785 170.665 112.785 171.128 112.918 171.554C113.051 171.919 113.451 172.053 114.115 171.947C115.474 171.589 116.752 170.93 117.871 170.011C118.963 169.104 119.956 168.062 120.829 166.904C121.73 165.717 122.565 164.473 123.331 163.177C124.105 161.868 124.892 160.625 125.692 159.45C125.778 159.304 125.91 159.037 126.089 158.645C126.256 158.274 126.469 157.93 126.722 157.623C126.914 157.368 127.159 157.167 127.436 157.038C127.679 156.94 127.933 157.089 128.201 157.478C128.264 157.595 128.305 157.725 128.322 157.86C128.34 157.995 128.332 158.132 128.301 158.264C128.225 158.587 128.104 158.895 127.944 159.179C127.765 159.497 127.586 159.787 127.411 160.054C127.271 160.275 127.116 160.484 126.947 160.679C125.882 162.284 124.762 163.928 123.588 165.612C122.438 167.272 121.183 168.842 119.832 170.309C118.513 171.742 117.039 172.994 115.445 174.036C113.828 175.091 112.043 175.798 110.185 176.118C109.444 176.173 108.704 176.009 108.041 175.643C107.348 175.214 106.817 174.527 106.544 173.706C106.149 172.693 106.025 171.578 106.187 170.49C106.349 169.337 106.663 168.217 107.119 167.163C107.585 166.066 108.117 165.004 108.713 163.986C109.313 162.961 109.853 162.022 110.342 161.209C111.14 159.795 111.974 158.381 112.843 156.967C113.713 155.554 114.522 154.141 115.27 152.73C115.627 152.196 115.984 151.646 116.302 151.088C116.63 150.533 116.929 149.959 117.199 149.368C117.442 148.917 117.61 148.422 117.696 147.907C117.765 147.666 117.76 147.406 117.681 147.169C117.603 146.931 117.456 146.728 117.263 146.591C117.091 146.472 116.895 146.402 116.691 146.389C116.488 146.376 116.286 146.42 116.102 146.516C115.68 146.713 115.291 146.886 114.937 147.031C113.408 147.771 112.034 148.848 110.9 150.197C109.723 151.587 108.626 152.939 107.609 154.254C107.178 154.773 106.778 155.323 106.412 155.899C106.057 156.457 105.699 157.029 105.34 157.616C103.787 160.234 102.224 162.852 100.652 165.47C99.0795 168.089 97.5168 170.707 95.9637 173.325C95.8372 173.652 95.6928 173.969 95.5313 174.276C95.3773 174.593 95.1877 174.887 94.9668 175.152C94.8079 175.258 94.6313 175.329 94.4473 175.36C94.2633 175.391 94.0755 175.382 93.8948 175.332C93.541 175.263 93.1798 175.251 92.8229 175.297H89.9322C89.289 175.297 88.8888 175.187 88.7352 174.967C88.5815 174.747 88.6351 174.347 88.8995 173.761C89.1639 173.176 89.6142 172.3 90.2288 171.13C92.2273 167.674 94.189 164.24 96.1138 160.828C98.0385 157.417 99.9561 153.956 101.867 150.448C102.088 150.012 102.32 149.572 102.581 149.132C102.842 148.692 103.039 148.252 103.271 147.765Z" fill="#BA9864"/>
<path d="M137.668 145.322C137.054 147.137 136.31 148.896 135.443 150.582C134.623 152.142 133.772 153.677 132.89 155.187C132.534 155.819 132.169 156.448 131.796 157.074C131.418 157.702 131.054 158.357 130.701 159.024C130.081 160.235 129.418 161.446 128.712 162.654C128.006 163.863 127.342 165.048 126.719 166.21C126.459 166.606 126.221 167.017 126.006 167.443C125.759 167.932 125.548 168.442 125.375 168.967C125.2 169.479 125.099 170.017 125.075 170.562C125.051 171.098 125.175 171.629 125.432 172.087C125.611 172.406 125.896 172.639 126.227 172.738C126.759 172.933 127.412 172.812 128.184 172.375C129.061 171.862 129.874 171.23 130.605 170.492C131.506 169.604 132.358 168.659 133.158 167.661C134.021 166.595 134.829 165.531 135.582 164.467C136.334 163.403 136.983 162.389 137.539 161.422C137.992 160.65 138.401 159.85 138.766 159.024H138.737L139.005 158.517L139.668 157.503C139.889 157.164 140.024 157.211 140.131 157.648C140.18 157.811 140.191 157.985 140.163 158.155C140.129 158.427 140.05 158.691 139.932 158.934V158.86C139.561 159.426 139.229 160.02 138.937 160.638C138.628 161.293 138.319 161.911 138.01 162.491C137.121 164.23 136.17 165.919 135.158 167.56C134.186 169.148 133.051 170.61 131.774 171.915C130.572 173.146 129.208 174.172 127.728 174.96C126.217 175.751 124.561 176.151 122.886 176.13C122.274 176.133 121.668 176 121.104 175.74C120.481 175.422 119.986 174.868 119.71 174.181C119.254 173.349 119.024 172.393 119.046 171.424C119.053 170.271 119.244 169.128 119.61 168.047C119.966 166.912 120.351 165.906 120.704 165.037C121.458 163.345 122.242 161.748 123.057 160.248C123.873 158.749 124.725 157.297 125.614 155.893C126.232 154.783 126.851 153.647 127.471 152.485C128.092 151.323 128.711 150.162 129.329 149.003C129.602 148.516 129.814 147.992 129.96 147.443C130.069 146.983 130.188 146.511 130.316 146.028C130.316 145.929 130.327 145.831 130.348 145.735C130.371 145.641 130.383 145.544 130.384 145.447C130.475 145.192 130.553 144.932 130.616 144.667C130.658 144.424 130.762 144.198 130.915 144.016C131.526 143.745 132.177 143.597 132.837 143.579C133.632 143.532 134.295 143.505 134.826 143.505C135.226 143.505 135.678 143.505 136.188 143.544C136.666 143.57 137.145 143.534 137.614 143.435V143.579L137.682 143.723C137.727 143.981 137.759 144.242 137.778 144.503C137.793 144.782 137.755 145.06 137.668 145.322ZM136.737 133.566C136.744 132.941 136.865 132.325 137.094 131.753C137.333 131.134 137.657 130.559 138.056 130.049C138.451 129.555 138.923 129.142 139.45 128.828C139.927 128.525 140.459 128.34 141.008 128.286C141.496 128.22 141.991 128.308 142.435 128.54C142.799 128.745 143.091 129.077 143.265 129.483C143.445 129.915 143.535 130.385 143.529 130.86C143.528 131.37 143.439 131.876 143.265 132.349C142.853 133.345 142.214 134.207 141.408 134.853C140.684 135.532 139.772 135.927 138.819 135.976C138.579 135.977 138.341 135.926 138.119 135.827C137.897 135.727 137.695 135.58 137.525 135.395C137.091 134.894 136.82 134.252 136.751 133.566H136.737Z" fill="#BA9864"/>
<path d="M143.795 147.768C144.125 147.307 144.311 146.743 144.328 146.157C144.328 145.623 144.349 145.037 144.392 144.404C144.433 144.101 144.445 143.794 144.428 143.489C144.403 143.418 144.571 143.379 144.925 143.379C145.279 143.379 145.747 143.355 146.455 143.308C147.162 143.261 147.884 143.221 148.599 143.198C149.314 143.174 149.972 143.151 150.529 143.123L151.294 143.088C151.41 143.297 151.509 143.517 151.591 143.744C151.7 144.022 151.757 144.322 151.759 144.624C151.662 145.361 151.458 146.077 151.155 146.743C150.821 147.473 150.522 148.181 150.258 148.865C151.144 148.037 152.031 147.232 152.917 146.452C153.808 145.67 154.766 144.984 155.777 144.404C156.265 144.094 156.777 143.831 157.306 143.618C157.883 143.375 158.482 143.204 159.094 143.107C159.71 143.01 160.333 142.973 160.956 142.997C161.549 143.013 162.135 143.146 162.686 143.39C163.883 144.027 164.534 144.962 164.648 146.243C164.758 147.492 164.679 148.753 164.412 149.973C163.894 151.752 163.107 153.423 162.085 154.917C161.02 156.488 160.044 158.012 159.158 159.487C158.36 160.797 157.584 162.107 156.831 163.417C156.078 164.727 155.347 166.092 154.636 167.512C154.504 167.802 154.304 168.207 154.039 168.718C153.783 169.201 153.581 169.717 153.439 170.255C153.306 170.681 153.306 171.144 153.439 171.571C153.571 171.937 153.972 172.07 154.636 171.964C155.996 171.606 157.274 170.947 158.393 170.027C159.486 169.12 160.479 168.077 161.353 166.918C162.253 165.731 163.089 164.486 163.855 163.189C164.629 161.879 165.417 160.636 166.217 159.459C166.364 159.2 166.497 158.931 166.614 158.654C166.781 158.283 166.994 157.939 167.247 157.632C167.439 157.377 167.684 157.177 167.962 157.047C168.205 156.948 168.462 157.098 168.726 157.487C168.79 157.604 168.831 157.734 168.848 157.869C168.865 158.004 168.858 158.141 168.827 158.273C168.749 158.596 168.629 158.904 168.469 159.188C168.29 159.507 168.112 159.797 167.937 160.065C167.795 160.286 167.639 160.495 167.468 160.689C166.406 162.295 165.287 163.941 164.112 165.625C162.958 167.278 161.702 168.84 160.352 170.302C159.032 171.736 157.558 172.988 155.962 174.031C154.348 175.088 152.564 175.796 150.708 176.118C149.968 176.173 149.227 176.009 148.564 175.642C147.871 175.214 147.34 174.527 147.07 173.705C146.675 172.691 146.551 171.575 146.712 170.486C146.878 169.334 147.192 168.213 147.645 167.158C148.111 166.06 148.643 164.998 149.239 163.979L150.869 161.2C151.67 159.786 152.504 158.371 153.371 156.956C154.238 155.541 155.047 154.128 155.798 152.716C156.155 152.181 156.513 151.631 156.831 151.073C157.16 150.519 157.46 149.944 157.728 149.352C157.971 148.9 158.14 148.405 158.229 147.89C158.294 147.649 158.287 147.391 158.209 147.154C158.131 146.917 157.987 146.713 157.796 146.574C157.623 146.454 157.426 146.385 157.222 146.372C157.019 146.359 156.815 146.402 156.631 146.499C156.209 146.695 155.82 146.868 155.466 147.014C153.928 147.757 152.547 148.842 151.409 150.201C150.236 151.592 149.139 152.945 148.117 154.26C147.687 154.78 147.288 155.33 146.923 155.907C146.566 156.465 146.208 157.037 145.851 157.624C144.297 160.244 142.734 162.864 141.161 165.484C139.588 168.104 138.025 170.724 136.472 173.343C136.345 173.67 136.201 173.987 136.039 174.294C135.885 174.611 135.695 174.906 135.474 175.171C135.316 175.278 135.139 175.349 134.955 175.38C134.771 175.411 134.583 175.401 134.402 175.352C134.048 175.283 133.687 175.271 133.33 175.316H130.46C129.816 175.316 129.419 175.206 129.262 174.986C129.105 174.766 129.162 174.365 129.43 173.78C129.698 173.194 130.145 172.318 130.76 171.147C132.754 167.688 134.717 164.252 136.647 160.839C138.577 157.425 140.494 153.963 142.398 150.452C142.619 150.016 142.852 149.576 143.113 149.136C143.374 148.696 143.574 148.256 143.795 147.768Z" fill="#BA9864"/>
<path d="M162.22 174.979C161.514 174.49 160.932 173.813 160.527 173.011C160.139 172.232 159.875 171.386 159.747 170.509C159.614 169.611 159.581 168.698 159.649 167.791C159.706 166.886 159.822 165.987 159.999 165.101C160.555 162.983 161.402 160.972 162.511 159.135C163.615 157.306 164.846 155.573 166.191 153.95C167.617 152.192 169.151 150.543 170.781 149.015C172.415 147.488 174.246 146.235 176.215 145.298C177.049 144.897 177.908 144.563 178.786 144.299C179.665 144.023 180.577 143.893 181.49 143.914C182.343 143.936 183.18 144.168 183.939 144.595C184.749 145.088 185.379 145.87 185.727 146.812C185.968 146.511 186.186 146.189 186.378 145.848C186.54 145.563 186.738 145.304 186.966 145.079C187.176 144.861 187.413 144.677 187.669 144.529C188 144.365 188.356 144.267 188.718 144.241C189.649 144.148 190.583 144.113 191.517 144.133C192.429 144.159 193.319 144.172 194.187 144.172C191.707 148.976 189.185 153.69 186.619 158.313C184.054 162.936 181.427 167.585 178.741 172.262L175.452 178.054C174.356 180.007 173.18 181.9 171.925 183.735C170.677 185.561 169.282 187.26 167.759 188.813C164.793 191.846 161.136 193.943 157.176 194.882C155.242 195.347 153.261 195.533 151.284 195.435C150.675 195.387 150.023 195.302 149.328 195.182C148.647 195.067 147.981 194.863 147.345 194.574C146.722 194.293 146.148 193.894 145.651 193.394C145.155 192.9 144.785 192.272 144.577 191.572C144.317 190.691 144.306 189.743 144.546 188.855C144.764 187.978 145.29 187.231 146.008 186.779C146.687 186.246 147.525 186.017 148.352 186.137C148.774 186.162 149.179 186.326 149.516 186.606C149.852 186.886 150.105 187.27 150.241 187.71C150.367 188.078 150.4 188.476 150.339 188.863C150.276 189.194 150.158 189.509 149.989 189.793C149.817 190.077 149.665 190.375 149.535 190.685C149.401 191.011 149.335 191.365 149.339 191.722C149.365 192.198 149.561 192.643 149.885 192.96C150.215 193.272 150.603 193.502 151.022 193.637C151.455 193.781 151.905 193.854 152.358 193.852C152.76 193.855 153.162 193.832 153.562 193.783C154.665 193.646 155.742 193.319 156.752 192.814C157.761 192.308 158.711 191.672 159.582 190.919C160.479 190.149 161.308 189.286 162.056 188.344C162.816 187.39 163.522 186.437 164.173 185.484C165.773 183.159 167.25 180.734 168.598 178.223C169.946 175.72 171.249 173.182 172.506 170.609C171.855 171.273 171.117 171.963 170.292 172.681C169.497 173.373 168.647 173.984 167.752 174.506C166.899 175.001 165.974 175.328 165.019 175.471C164.063 175.616 163.088 175.445 162.22 174.979ZM166.842 171.331C167.828 171.391 168.813 171.181 169.707 170.72C170.592 170.257 171.405 169.642 172.114 168.898C172.869 168.122 173.571 167.286 174.213 166.396C174.864 165.489 175.447 164.631 175.963 163.821C176.662 162.727 177.378 161.641 178.111 160.565C178.843 159.489 179.559 158.392 180.259 157.275C180.946 156.169 181.566 155.013 182.113 153.816C182.656 152.62 183.103 151.375 183.45 150.095C183.55 149.683 183.626 149.265 183.677 148.842C183.743 148.369 183.754 147.888 183.708 147.412C183.681 146.995 183.546 146.595 183.32 146.259C183.191 146.097 183.028 145.97 182.846 145.89C182.663 145.81 182.466 145.778 182.271 145.798C181.723 145.754 181.174 145.863 180.675 146.117C180.128 146.384 179.604 146.707 179.111 147.082C178.611 147.466 178.134 147.885 177.681 148.335C177.214 148.788 176.813 149.206 176.477 149.588C174.66 151.581 172.994 153.735 171.495 156.026C169.998 158.32 168.623 160.707 167.377 163.175C167.202 163.56 166.922 164.19 166.531 165.07C166.146 165.936 165.83 166.836 165.586 167.761C165.357 168.546 165.29 169.377 165.39 170.194C165.49 170.904 165.974 171.283 166.842 171.331Z" fill="#BA9864"/>
<path d="M258.995 138.035C260.056 140.779 261.101 143.655 262.131 146.664C263.145 149.594 263.904 152.62 264.396 155.702C264.87 158.709 264.963 161.772 264.674 164.806C264.364 167.91 263.429 170.902 261.935 173.573C261.059 175.424 259.891 177.095 258.483 178.51C257.065 179.923 255.538 181.201 253.917 182.33C252.203 183.515 250.395 184.534 248.515 185.376C246.54 186.275 244.49 186.968 242.392 187.447C240.307 187.93 238.176 188.145 236.043 188.089C233.985 188.045 231.948 187.64 230.01 186.889C228.386 186.24 226.856 185.343 225.466 184.227C224.054 183.113 222.856 181.714 221.937 180.106C220.976 178.335 220.334 176.383 220.047 174.353C219.755 172.337 219.66 170.294 219.765 168.257C219.823 166.295 220.162 164.353 220.772 162.504C221.395 160.608 222.206 158.792 223.192 157.087C224.188 155.372 225.331 153.762 226.605 152.279C227.839 150.831 229.168 149.482 230.582 148.242C231.877 147.14 233.289 146.211 234.789 145.473C236.44 144.63 238.19 144.037 239.99 143.71C241.692 143.395 243.437 143.468 245.11 143.927C246.779 144.407 248.205 145.579 249.079 147.19C249.605 148.1 249.982 149.102 250.192 150.152C250.403 151.224 250.496 152.319 250.47 153.414C250.445 154.525 250.325 155.631 250.111 156.718C249.919 157.741 249.654 158.747 249.318 159.726C248.964 161.028 248.37 162.24 247.572 163.288C246.849 164.154 246.051 164.945 245.191 165.65C244.82 165.936 244.594 166.006 244.517 165.863C244.426 165.648 244.398 165.408 244.436 165.175C244.472 164.822 244.552 164.476 244.675 164.146C244.768 163.862 244.886 163.588 245.029 163.33C245.387 162.733 245.619 162.059 245.708 161.355C245.773 160.624 245.916 159.904 246.134 159.209C246.504 157.533 246.449 155.78 245.977 154.134C245.581 152.518 244.852 151.021 243.843 149.755C242.725 148.382 241.191 147.484 239.517 147.222C237.851 146.966 236.152 147.25 234.635 148.039C233.069 148.925 231.7 150.171 230.625 151.688C229.54 153.17 228.596 154.767 227.808 156.455C226.951 158.137 226.322 159.945 225.94 161.821C225.547 163.721 225.403 165.672 225.513 167.616C225.621 169.52 225.928 171.406 226.426 173.236C226.903 175.043 227.622 176.766 228.559 178.348C229.483 179.89 230.653 181.242 232.016 182.34C233.473 183.494 235.156 184.272 236.935 184.614C238.726 185.017 240.57 185.061 242.375 184.743C244.187 184.471 245.945 183.876 247.577 182.981C249.256 182.023 250.73 180.693 251.903 179.077C253.07 177.484 254.093 175.774 254.958 173.97C255.851 172.221 256.456 170.318 256.746 168.345C257.036 166.386 257.104 164.397 256.947 162.421C256.78 160.421 256.406 158.447 255.833 156.538C255.271 154.642 254.557 152.803 253.7 151.042C252.419 148.265 251.484 145.318 250.918 142.276C250.34 139.284 250.221 136.21 250.563 133.177C250.896 130.216 251.766 127.356 253.124 124.76C254.594 122.024 256.669 119.724 259.161 118.065C260.558 116.935 262.112 116.05 263.765 115.445C265.461 114.797 267.245 114.464 269.043 114.457C270.77 114.446 272.478 114.843 274.048 115.62C275.657 116.44 277.019 117.733 277.978 119.353C278.992 121.046 279.568 123.003 279.646 125.019C279.752 127.116 279.481 129.216 278.848 131.202C278.227 133.183 277.241 135.009 275.951 136.568C274.719 138.1 273.109 139.221 271.309 139.798C270.711 140.036 270.077 140.152 269.44 140.139C269.099 140.084 268.924 139.941 268.924 139.71C268.947 139.422 269.06 139.15 269.244 138.94C269.44 138.665 269.682 138.432 269.956 138.252C270.672 137.647 271.278 136.904 271.744 136.06C272.247 135.174 272.708 134.358 273.135 133.615C273.998 131.873 274.448 129.926 274.445 127.949C274.49 125.944 274.138 123.953 273.412 122.107C272.755 120.41 271.632 118.972 270.195 117.987C268.773 117.015 267.026 116.815 264.955 117.387C263.288 118.234 261.842 119.517 260.748 121.12C259.695 122.686 258.914 124.447 258.444 126.315C257.967 128.231 257.78 130.218 257.89 132.198C257.982 134.193 258.355 136.161 258.995 138.035Z" fill="#BA9864"/>
<path d="M271.902 180.69C272.056 182.006 272.468 182.877 273.138 183.304C273.851 183.739 274.672 183.9 275.475 183.764C276.418 183.638 277.337 183.35 278.199 182.908C278.999 182.52 279.768 182.058 280.499 181.528C282.065 180.439 283.518 179.16 284.831 177.713C286.29 176.145 287.663 174.547 288.952 172.918C290.241 171.289 291.391 169.755 292.402 168.316C293.424 166.889 294.248 165.805 294.874 165.063C295.229 164.602 295.472 164.506 295.6 164.763C295.732 165.101 295.747 165.482 295.641 165.831C295.262 166.947 294.746 167.998 294.108 168.956C293.251 170.309 292.329 171.611 291.347 172.853C290.27 174.225 289.106 175.624 287.856 177.05C286.606 178.477 285.369 179.79 284.147 180.989C282.918 182.186 281.781 183.241 280.734 184.155C279.926 184.888 279.066 185.547 278.162 186.125C277.116 186.788 275.994 187.292 274.828 187.625C273.628 187.988 272.386 188.143 271.144 188.085C269.965 188.035 268.811 187.684 267.772 187.059C266.678 186.38 265.805 185.331 265.279 184.063C264.767 182.857 264.493 181.542 264.475 180.207C264.45 178.825 264.579 177.444 264.859 176.098C265.137 174.736 265.522 173.404 266.008 172.117C266.476 170.875 267.001 169.66 267.579 168.477C269.007 165.364 270.823 162.493 272.974 159.95C275.15 157.415 277.628 155.226 280.338 153.443C281.652 152.482 283.053 151.678 284.518 151.046C285.967 150.419 287.469 149.957 289.002 149.665C290.036 149.435 291.096 149.377 292.146 149.495C292.67 149.53 293.178 149.713 293.62 150.028C294.063 150.343 294.427 150.779 294.677 151.294C295.125 152.038 295.341 152.926 295.291 153.821C295.237 154.717 295.057 155.597 294.755 156.43C294.451 157.281 294.052 158.087 293.568 158.827C293.118 159.537 292.618 160.205 292.072 160.824C290.84 162.313 289.435 163.61 287.893 164.681C286.378 165.738 284.801 166.682 283.174 167.506C282.304 167.906 281.451 168.261 280.606 168.574C279.761 168.887 278.879 169.19 277.96 169.494C277.352 169.622 276.736 169.708 276.118 169.752C275.818 169.753 275.521 169.821 275.244 169.953C274.968 170.085 274.719 170.278 274.511 170.52C274.039 171.104 273.709 171.812 273.551 172.577C273.359 173.363 273.115 174.132 272.821 174.878C272.454 175.798 272.178 176.759 271.997 177.745C271.825 178.715 271.793 179.709 271.902 180.69ZM275.661 167.847C277.412 167.751 279.102 167.098 280.532 165.965C281.986 164.827 283.382 163.598 284.711 162.283C285.376 161.658 286.004 160.984 286.591 160.268C287.173 159.564 287.7 158.805 288.165 157.999C288.47 157.373 288.828 156.586 289.236 155.647C289.61 154.872 289.796 154.001 289.776 153.121C289.723 152.491 289.546 152.123 289.236 152.008C288.851 151.899 288.444 151.944 288.087 152.136C287.556 152.374 287.054 152.683 286.591 153.057C286.072 153.471 285.572 153.915 285.094 154.387C284.637 154.847 284.225 155.284 283.858 155.712C283.491 156.14 283.269 156.411 283.166 156.526C281.698 158.219 280.351 160.037 279.139 161.966C277.947 163.889 276.787 165.849 275.661 167.847Z" fill="#BA9864"/>
<path d="M318.45 165.244C318.613 165.639 318.425 166.288 317.893 167.187C316.83 168.767 315.872 170.162 315.021 171.373C314.163 172.58 313.344 173.724 312.547 174.791C311.75 175.858 310.939 176.934 310.116 178.001C309.293 179.068 308.32 180.271 307.205 181.633C306.567 182.309 305.808 183.045 304.929 183.83C304.063 184.612 303.128 185.306 302.138 185.9C301.198 186.473 300.173 186.874 299.107 187.085C298.093 187.286 297.046 187.153 296.106 186.704C295.543 186.447 295.034 186.074 294.61 185.606C294.185 185.139 293.852 184.586 293.632 183.98C293.256 182.769 293.147 181.483 293.315 180.221C293.482 178.839 293.832 177.488 294.353 176.208C294.884 174.885 295.389 173.746 295.866 172.789C296.553 171.388 297.383 170.069 298.34 168.858C299.297 167.647 300.297 166.465 301.341 165.312C302.384 164.159 303.407 163.004 304.41 161.848C305.432 160.681 306.391 159.453 307.282 158.171C306.593 158.061 305.892 158.076 305.208 158.216C304.538 158.359 303.843 158.284 303.214 158.003C302.725 157.869 302.245 157.701 301.778 157.499C301.405 157.326 300.955 157.467 300.423 157.921C298.88 160.454 297.351 163.101 295.836 165.861C294.321 168.622 292.703 171.303 290.983 173.906C289.277 176.496 287.397 178.953 285.358 181.256C283.349 183.526 281.038 185.475 278.499 187.04C277.809 187.153 277.38 186.972 277.213 186.491C277.135 186.243 277.117 185.978 277.159 185.721C277.201 185.464 277.302 185.221 277.453 185.015C280.404 183.011 283.099 180.61 285.47 177.874C287.848 175.129 290.021 172.192 291.969 169.089C293.947 165.951 295.775 162.708 297.444 159.374C299.121 156.023 300.783 152.743 302.429 149.531C302.696 149.42 302.99 149.405 303.265 149.491C303.577 149.584 303.873 149.727 304.144 149.913C304.436 150.113 304.714 150.321 305.002 150.548C305.222 150.744 305.462 150.913 305.718 151.052C306.373 151.381 307.073 151.595 307.793 151.688C308.483 151.772 309.181 151.758 309.868 151.647C310.781 151.473 311.675 151.204 312.538 150.843C313.371 150.49 314.243 150.249 315.132 150.126C315.771 150.067 316.183 150.167 316.367 150.421C316.458 150.549 316.52 150.698 316.547 150.855C316.575 151.013 316.567 151.175 316.526 151.329C316.428 151.749 316.267 152.149 316.05 152.514C315.81 152.936 315.582 153.318 315.372 153.654C313.506 156.132 311.764 158.667 310.146 161.258C308.529 163.849 306.967 166.53 305.46 169.303C305.035 169.981 304.606 170.684 304.174 171.414C303.746 172.145 303.351 172.894 302.978 173.652C302.618 174.393 302.331 175.172 302.121 175.976C301.905 176.771 301.824 177.599 301.881 178.423C301.897 179.084 302.004 179.738 302.198 180.366C302.412 181.102 302.837 181.411 303.484 181.297C304.389 181.129 305.383 180.525 306.485 179.481C307.693 178.309 308.826 177.053 309.876 175.722C311.079 174.206 312.21 172.628 313.263 170.991C314.355 169.303 315.355 167.782 316.264 166.429C316.532 165.962 316.833 165.517 317.164 165.099C317.499 164.693 317.927 164.742 318.45 165.244Z" fill="#BA9864"/>
<path d="M322.619 150.322C323.413 150.211 324.22 150.124 325.045 150.068L327.389 149.893C327.863 149.838 328.499 149.764 329.294 149.682C330.088 149.599 330.618 149.81 330.887 150.322C330.99 150.597 330.99 150.904 330.887 151.179C330.776 151.532 330.644 151.877 330.49 152.211C330.327 152.552 330.156 152.897 329.973 153.238C329.817 153.504 329.697 153.793 329.614 154.095C328.76 156.1 327.833 158.044 326.834 159.927C325.835 161.809 324.814 163.695 323.772 165.584C322.739 167.47 321.732 169.369 320.753 171.282C319.775 173.181 318.908 175.142 318.156 177.156C317.933 177.804 317.79 178.481 317.729 179.169C317.647 179.897 317.66 180.633 317.768 181.357C317.852 181.993 318.132 182.58 318.562 183.025C318.989 183.453 319.621 183.582 320.471 183.412C321.746 183.098 322.94 182.483 323.968 181.611C325.033 180.745 326.017 179.77 326.907 178.699C328.919 176.121 330.702 173.345 332.232 170.407C333.759 167.484 335.062 164.43 336.127 161.277C336.711 159.668 337.202 158.022 337.596 156.347C337.991 154.681 338.059 152.944 337.796 151.248C337.69 150.67 337.663 150.079 337.715 149.493C337.791 148.895 338.041 148.338 338.429 147.903C338.903 147.415 339.474 147.05 340.098 146.835C340.717 146.609 341.389 146.623 341.999 146.876C342.609 147.128 343.118 147.602 343.438 148.217C343.709 148.847 343.845 149.535 343.835 150.23C343.834 150.978 343.767 151.725 343.634 152.459C343.502 153.201 343.357 153.841 343.207 154.431C342.78 156.031 342.291 157.588 341.738 159.102C341.168 160.641 340.518 162.144 339.791 163.603C338.386 166.617 336.708 169.473 334.781 172.13C332.808 174.854 330.826 177.443 328.833 179.897C327.885 180.967 326.888 181.983 325.843 182.942C324.698 184.002 323.475 184.962 322.188 185.812C320.936 186.648 319.586 187.297 318.173 187.742C316.856 188.168 315.459 188.213 314.121 187.871C312.412 187.469 311.286 186.612 310.743 185.301C310.177 183.913 309.96 182.39 310.11 180.883C310.254 179.198 310.601 177.541 311.144 175.954C311.601 174.531 312.173 173.155 312.852 171.84C314.543 168.299 316.291 164.784 318.096 161.295C319.904 157.79 321.417 154.117 322.619 150.322Z" fill="#BA9864"/>
<path d="M357.061 151.966C356.324 154.093 355.43 156.156 354.388 158.134C353.399 159.963 352.37 161.764 351.303 163.535C350.872 164.275 350.442 165.012 349.982 165.748C349.521 166.484 349.086 167.252 348.66 168.034C347.912 169.458 347.111 170.877 346.259 172.291C345.407 173.706 344.607 175.096 343.858 176.461C343.543 176.924 343.255 177.406 342.997 177.906C342.7 178.48 342.447 179.078 342.24 179.694C342.029 180.294 341.907 180.925 341.878 181.565C341.848 182.193 341.999 182.816 342.308 183.352C342.526 183.727 342.869 183.999 343.268 184.116C343.911 184.345 344.698 184.203 345.631 183.691C346.691 183.09 347.674 182.348 348.557 181.482C349.643 180.439 350.671 179.33 351.638 178.163C352.68 176.913 353.654 175.664 354.561 174.418C355.467 173.171 356.255 171.98 356.923 170.846C357.471 169.942 357.965 169.003 358.404 168.034H358.326L358.645 167.44L359.445 166.251C359.712 165.853 359.897 165.908 360.009 166.42C360.068 166.612 360.081 166.816 360.048 167.014C360.004 167.334 359.909 167.643 359.768 167.929V167.842C359.318 168.503 358.916 169.2 358.567 169.927C358.191 170.695 357.817 171.419 357.444 172.099C356.377 174.139 355.229 176.12 354.001 178.044C352.826 179.904 351.455 181.618 349.917 183.151C348.465 184.593 346.819 185.796 345.033 186.723C343.208 187.649 341.207 188.119 339.184 188.094C338.445 188.097 337.713 187.941 337.032 187.637C336.283 187.262 335.685 186.613 335.35 185.808C334.8 184.833 334.522 183.712 334.549 182.575C334.558 181.223 334.788 179.883 335.229 178.615C335.685 177.285 336.124 176.105 336.55 175.085C337.457 173.101 338.405 171.229 339.395 169.47C340.385 167.711 341.412 166.008 342.476 164.362C343.225 163.061 343.972 161.728 344.718 160.366L346.961 156.282C347.29 155.712 347.546 155.096 347.722 154.453C347.856 153.914 348.002 153.361 348.153 152.793C348.151 152.678 348.164 152.562 348.191 152.451C348.217 152.34 348.23 152.226 348.23 152.112C348.345 151.807 348.438 151.494 348.51 151.175C348.565 150.891 348.689 150.627 348.871 150.411C349.611 150.093 350.398 149.919 351.195 149.899C352.155 149.844 352.955 149.812 353.597 149.812C354.079 149.812 354.625 149.812 355.236 149.858C355.813 149.889 356.391 149.846 356.958 149.73V149.899L357.039 150.068C357.095 150.371 357.135 150.676 357.16 150.983C357.191 151.314 357.158 151.649 357.061 151.966ZM355.942 138.179C355.95 137.447 356.096 136.724 356.372 136.053C356.659 135.327 357.051 134.652 357.534 134.055C357.995 133.472 358.551 132.981 359.174 132.605C359.75 132.251 360.392 132.035 361.055 131.97C361.643 131.892 362.241 131.995 362.776 132.267C363.217 132.506 363.57 132.896 363.779 133.373C363.995 133.88 364.104 134.431 364.097 134.988C364.096 135.586 363.988 136.179 363.779 136.734C363.284 137.904 362.512 138.915 361.537 139.67C360.664 140.469 359.563 140.933 358.412 140.987C358.123 140.988 357.837 140.929 357.569 140.812C357.302 140.695 357.059 140.523 356.854 140.306C356.342 139.72 356.022 138.974 355.942 138.179Z" fill="#BA9864"/>
<path d="M383.694 165.954C382.154 168.219 380.548 170.498 378.876 172.792C377.204 175.083 375.396 177.25 373.462 179.279C371.542 181.294 369.448 183.101 367.21 184.676C364.984 186.24 362.536 187.387 359.965 188.069C359.314 188.127 358.659 188.099 358.014 187.985C355.963 187.59 354.119 186.38 352.836 184.587C352.125 183.442 351.674 182.127 351.522 180.754C351.364 179.317 351.418 177.861 351.68 176.443C351.938 175.005 352.312 173.595 352.797 172.23C353.986 169.052 355.494 166.028 357.295 163.215C359.091 160.382 361.22 157.82 363.628 155.595C364.874 154.409 366.191 153.314 367.57 152.319C368.976 151.303 370.485 150.469 372.067 149.834C372.755 149.603 373.551 149.356 374.455 149.094C375.369 148.83 376.303 148.656 377.245 148.575C378.16 148.485 379.081 148.499 379.993 148.617C380.813 148.717 381.61 148.982 382.342 149.398C382.683 149.584 382.983 149.847 383.223 150.17C383.463 150.493 383.637 150.868 383.733 151.271C383.865 152.014 383.811 152.782 383.574 153.494C383.311 154.298 382.95 155.06 382.5 155.759C382.021 156.513 381.597 157.163 381.217 157.674L380.819 158.329C380.655 158.594 380.469 158.842 380.262 159.068C380.058 159.295 379.813 159.473 379.543 159.593C379.431 159.649 379.309 159.678 379.186 159.678C379.063 159.678 378.941 159.649 378.829 159.593C378.638 159.43 378.492 159.213 378.407 158.965C378.322 158.717 378.302 158.448 378.349 158.189C378.401 157.547 378.431 157.084 378.431 156.784C378.431 156.316 378.401 155.783 378.349 155.174C378.303 154.597 378.197 154.027 378.033 153.475C377.879 152.96 377.635 152.483 377.314 152.071C377.143 151.867 376.934 151.706 376.7 151.601C376.466 151.496 376.214 151.448 375.961 151.463C375.211 151.465 374.478 151.708 373.852 152.16C373.16 152.649 372.518 153.218 371.939 153.859C371.325 154.527 370.753 155.24 370.227 155.993L368.875 157.908C367.671 159.504 366.554 161.177 365.528 162.916C364.518 164.629 363.563 166.386 362.661 168.186C361.916 169.693 361.148 171.289 360.354 172.974C359.581 174.575 359.094 176.323 358.921 178.123C358.854 178.821 358.915 179.527 359.099 180.199C359.284 180.872 359.588 181.498 359.995 182.041C360.817 183.145 361.945 183.581 363.38 183.347C365.338 182.594 367.206 181.585 368.943 180.342C370.698 179.097 372.35 177.687 373.882 176.129C375.434 174.561 376.889 172.882 378.238 171.102C379.593 169.299 380.854 167.469 382.021 165.612C382.12 165.327 382.24 165.051 382.381 164.788C382.573 164.397 382.786 164.019 383.018 163.655C383.241 163.296 383.495 162.961 383.776 162.654C383.868 162.524 383.991 162.423 384.13 162.361C384.27 162.3 384.422 162.279 384.572 162.303C385 162.303 385.205 162.481 385.205 162.827C385.19 163.228 385.081 163.618 384.888 163.96C384.668 164.379 384.428 164.785 384.169 165.177C383.997 165.425 383.838 165.684 383.694 165.954Z" fill="#BA9864"/>
<path d="M383.588 180.646C383.743 181.96 384.166 182.83 384.856 183.256C385.589 183.691 386.432 183.852 387.257 183.715C388.223 183.59 389.164 183.302 390.047 182.86C390.869 182.474 391.66 182.013 392.411 181.482C394.016 180.394 395.506 179.116 396.854 177.672C398.344 176.107 399.754 174.511 401.081 172.884C402.408 171.258 403.589 169.726 404.623 168.289C405.672 166.865 406.51 165.782 407.139 165.04C407.507 164.581 407.756 164.484 407.887 164.742C408.023 165.079 408.036 165.46 407.925 165.808C407.536 166.922 407.007 167.972 406.352 168.928C405.475 170.281 404.529 171.58 403.52 172.82C402.421 174.199 401.225 175.577 399.944 177.011C398.663 178.444 397.407 179.745 396.139 180.944C394.871 182.144 393.713 183.196 392.639 184.106C391.8 184.859 390.905 185.536 389.963 186.128C388.888 186.79 387.736 187.293 386.539 187.626C385.309 187.988 384.036 188.143 382.764 188.085C381.553 188.035 380.368 187.685 379.301 187.06C378.186 186.379 377.299 185.332 376.765 184.069C376.234 182.865 375.946 181.553 375.92 180.218C375.896 178.838 376.028 177.46 376.313 176.115C376.602 174.756 376.997 173.426 377.492 172.14C377.972 170.899 378.511 169.685 379.107 168.505C380.581 165.373 382.46 162.487 384.687 159.935C386.918 157.404 389.459 155.218 392.237 153.438C393.586 152.478 395.025 151.676 396.528 151.043C398.015 150.418 399.556 149.956 401.127 149.665C402.189 149.435 403.276 149.377 404.353 149.495C404.89 149.531 405.41 149.714 405.864 150.029C406.318 150.343 406.691 150.777 406.949 151.292C407.407 152.035 407.628 152.921 407.578 153.814C407.522 154.709 407.336 155.588 407.029 156.42C406.715 157.27 406.305 158.074 405.807 158.814C405.345 159.513 404.831 160.17 404.273 160.781C403.011 162.27 401.569 163.565 399.986 164.631C398.433 165.687 396.818 166.63 395.15 167.453C394.259 167.854 393.381 168.209 392.516 168.519C391.651 168.828 390.746 169.135 389.802 169.438C389.178 169.565 388.547 169.651 387.913 169.695C387.604 169.696 387.299 169.765 387.015 169.897C386.731 170.029 386.474 170.221 386.26 170.463C385.777 171.045 385.439 171.752 385.279 172.517C385.082 173.302 384.832 174.07 384.531 174.814C384.156 175.733 383.873 176.693 383.685 177.677C383.508 178.655 383.476 179.657 383.588 180.646ZM387.426 167.82C389.223 167.723 390.956 167.071 392.423 165.941C393.913 164.802 395.344 163.575 396.71 162.265C397.39 161.638 398.034 160.966 398.637 160.252C399.234 159.549 399.773 158.791 400.248 157.987C400.565 157.362 400.929 156.576 401.351 155.639C401.734 154.864 401.924 153.995 401.901 153.116C401.85 152.486 401.664 152.119 401.351 152.004C400.957 151.895 400.539 151.94 400.172 152.133C399.627 152.368 399.112 152.677 398.637 153.052C398.105 153.465 397.593 153.909 397.103 154.38C396.629 154.839 396.211 155.276 395.835 155.703C395.458 156.13 395.234 156.401 395.129 156.516C393.622 158.205 392.241 160.021 390.999 161.948C389.778 163.869 388.588 165.826 387.426 167.82Z" fill="#BA9864"/>
</svg>
