<svg width="300" height="40" viewBox="0 0 398 57" fill="none" xmlns="http://www.w3.org/2000/svg">
<g clip-path="url(#navbar-luhs-cleaning-service)">
<path d="M22.8378 25.0041C21.3539 24.9709 19.8751 24.8194 18.4153 24.5508C16.9538 24.2828 15.5876 23.6382 14.4516 22.6807C13.3758 21.7454 12.5799 20.5307 12.1521 19.1711C11.6964 17.8143 11.5119 16.3811 11.6091 14.9531C11.7364 13.629 12.1219 12.3426 12.7439 11.1667C13.3678 9.98992 14.1548 8.90709 15.0814 7.95026C16.0167 6.98381 17.0597 6.12774 18.19 5.39883C19.3023 4.67554 20.4847 4.06627 21.7193 3.58026C22.792 3.18105 23.9132 2.92639 25.0532 2.82297C26.3637 2.6936 27.6856 2.90295 28.892 3.43097C29.0585 3.59541 29.1881 3.79342 29.2721 4.01183C29.3526 4.20276 29.3789 4.4122 29.3481 4.61712C29.3171 4.7967 29.2203 4.95831 29.0766 5.0704C28.8737 5.2 28.6284 5.24574 28.3924 5.19797C28.0735 5.19293 27.7645 5.08645 27.5101 4.89397C27.2388 4.70058 26.9406 4.54788 26.6251 4.44069C26.2609 4.30622 25.8758 4.23729 25.4875 4.23712C25.1069 4.23704 24.7271 4.27157 24.3527 4.34026C23.075 4.50539 21.8544 4.97044 20.7908 5.6974C19.6919 6.44512 18.7341 7.38154 17.9619 8.46326C17.1723 9.5527 16.5661 10.7639 16.1674 12.0488C15.7726 13.2651 15.6186 14.5466 15.714 15.8217C15.8055 17.063 16.1948 18.264 16.8488 19.3231C17.5004 20.3795 18.389 21.2698 19.4442 21.9234C19.8963 22.2698 20.399 22.5444 20.9347 22.7377C21.4782 22.9372 22.0481 23.0561 22.6261 23.0905C23.3337 23.0905 23.864 22.9051 24.217 22.5341C24.6171 22.1051 24.9652 21.6305 25.2541 21.12C26.7455 18.2652 28.4158 15.5074 30.2548 12.8631C32.0896 10.2356 34.2293 7.83482 36.6294 5.71097C37.7148 4.72342 38.8708 3.81626 40.0881 2.99669C41.3286 2.16743 42.6592 1.48174 44.0545 0.952831C44.5595 0.784546 45.1233 0.624403 45.7459 0.472403C46.3748 0.319692 47.0183 0.235062 47.6653 0.219975C48.3036 0.201732 48.9417 0.260974 49.5657 0.396403C50.1681 0.527701 50.7281 0.807632 51.1946 1.21069C51.8157 1.77756 52.1875 2.56683 52.229 3.40655C52.2737 4.30648 52.1456 5.20664 51.8516 6.0584C51.5487 6.96575 51.1501 7.83832 50.6625 8.6614C50.2484 9.36849 49.7961 10.0526 49.3078 10.7107C47.359 13.332 45.0775 15.6888 42.5206 17.7217C39.9538 19.7971 37.0832 21.4659 34.0095 22.6698C33.3106 22.948 32.593 23.1765 31.8621 23.3538C31.1251 23.5263 30.4515 23.9025 29.9182 24.4395C29.0159 25.3438 28.2471 26.372 27.635 27.4931C26.9943 28.6548 26.3545 29.8419 25.7156 31.0543C25.0845 32.2525 24.3763 33.4085 23.5953 34.515C22.8203 35.6083 21.8424 36.5427 20.7148 37.2673C21.4876 37.5713 22.2451 37.8572 22.9871 38.125C23.7292 38.3928 24.4876 38.6642 25.2622 38.9393C26.0676 39.2433 26.8676 39.5292 27.6621 39.797C28.4759 40.0733 29.3127 40.2768 30.1625 40.405C30.7827 40.4732 31.4075 40.4896 32.0304 40.4538C32.6444 40.4298 33.232 40.1982 33.6973 39.797C33.908 39.6199 34.0951 39.4165 34.2539 39.1917C34.3328 39.0685 34.4482 38.9731 34.5839 38.9186C34.7197 38.8641 34.8691 38.8533 35.0113 38.8877C35.2828 38.9555 35.4158 39.0831 35.4158 39.2677C35.4136 39.4628 35.3413 39.6506 35.2122 39.797C35.0241 40.2843 34.7312 40.7244 34.3543 41.0863C33.974 41.4463 33.5398 41.7448 33.0675 41.9711C32.5788 42.207 32.0711 42.4013 31.5498 42.552C31.0286 42.7013 30.5481 42.8234 30.111 42.9293C29.3312 43.0984 28.5316 43.1578 27.7354 43.1057C26.9143 43.0535 26.0978 42.9438 25.2921 42.7773C24.4674 42.6091 23.6519 42.3989 22.8487 42.1475C22.0396 41.896 21.2813 41.6517 20.5736 41.4147C19.968 41.232 19.3899 40.9681 18.8551 40.6303C18.3246 40.2907 17.7164 40.0918 17.0877 40.0521C16.7353 40.0483 16.3878 40.1343 16.0778 40.3018C15.7737 40.4728 15.4534 40.6411 15.1167 40.8094C14.3737 41.1614 13.5956 41.4343 12.7955 41.6237C12.0878 41.8282 11.3548 42.0218 10.5965 42.2045C9.83993 42.3908 9.07169 42.526 8.29697 42.609C7.51718 42.6928 6.7322 42.7182 5.94861 42.685C5.16744 42.6539 4.394 42.5179 3.64912 42.2805C3.07788 42.0835 2.53129 41.8212 2.02019 41.4988C1.47926 41.1697 1.00123 40.7469 0.608461 40.2503C0.250926 39.812 0.0392638 39.273 0.00304522 38.7085C-0.0322481 38.1657 0.239239 37.5903 0.817506 37.0175C1.80191 36.0461 3.04492 35.3781 4.39842 35.0931C5.72411 34.7811 7.07711 34.5993 8.43815 34.5503C9.33521 34.5192 10.233 34.5874 11.115 34.7538C12.0203 34.9202 12.915 35.1395 13.7946 35.4107C14.135 35.4919 14.4655 35.6103 14.7801 35.7635C15.0988 35.9265 15.4623 35.9799 15.8145 35.9155C15.9845 35.8937 16.147 35.8318 16.2885 35.7351C16.4301 35.6384 16.5467 35.5096 16.6289 35.3591C16.7972 35.0551 16.9656 34.7701 17.1339 34.5014C18.2198 32.9199 19.2216 31.3709 20.1392 29.8545C21.0569 28.3382 21.9564 26.7214 22.8378 25.0041ZM13.3358 38.1358C12.2186 37.6165 11.0621 37.1863 9.87703 36.8493C8.67173 36.4997 7.40642 36.4072 6.16309 36.5778C5.78831 36.6543 5.41843 36.7531 5.05542 36.8737C4.67577 36.999 4.31772 37.1821 3.99391 37.4165C3.69076 37.6329 3.45462 37.9301 3.31247 38.2743C3.23725 38.4636 3.20066 38.6661 3.20486 38.8698C3.20905 39.0735 3.25395 39.2743 3.33691 39.4604C3.4506 39.807 3.68335 40.1022 3.99391 40.2937C4.31093 40.4859 4.66218 40.615 5.02827 40.6737C5.41195 40.7408 5.80073 40.7744 6.19024 40.7741C6.57846 40.7741 6.95583 40.7578 7.32777 40.7225C8.44694 40.6278 9.54533 40.3642 10.5856 39.9408C11.6095 39.5194 12.5438 38.9068 13.3385 38.1358H13.3358ZM31.5743 21.6221C32.4485 21.2855 33.3073 20.9318 34.1507 20.5608C34.9845 20.1943 35.766 19.7188 36.4746 19.1467C37.3411 18.581 38.1675 17.9561 38.9479 17.2765L41.2718 15.2571C42.5573 14.0729 43.7567 12.7984 44.8609 11.4435C45.9949 10.0508 46.9948 8.55396 47.8472 6.97312C48.1943 6.38555 48.5071 5.77834 48.7838 5.15455C49.0943 4.51123 49.1895 3.78512 49.0553 3.08355C48.9769 2.71433 48.7604 2.38904 48.4499 2.17426C48.1572 1.97768 47.8166 1.86417 47.4644 1.84583C47.09 1.83232 46.7156 1.87533 46.354 1.9734C45.9995 2.06335 45.6527 2.18134 45.317 2.32626C44.5821 2.69292 43.9022 3.1607 43.2971 3.71597C42.673 4.28927 42.0981 4.91394 41.5786 5.5834C41.0356 6.27555 40.5252 6.98126 40.0392 7.70597C39.5533 8.43069 39.0863 9.11197 38.6492 9.75255C37.3678 11.7032 36.1633 13.6638 35.0357 15.6344C33.9082 17.605 32.7552 19.6009 31.577 21.6221H31.5743Z" fill="#BC9A63"/>
<path d="M49.2563 36.2684C48.3513 37.2781 47.4174 38.3222 46.4545 39.4007C45.5347 40.4442 44.4508 41.3307 43.2456 42.0254C42.7828 42.2918 42.2909 42.504 41.7795 42.6578C41.2975 42.8062 40.7925 42.866 40.2891 42.8343C39.809 42.801 39.3437 42.654 38.9316 42.4054C38.4705 42.1059 38.1101 41.6746 37.8973 41.1677C37.6595 40.6271 37.5472 40.0397 37.5688 39.4495C37.5863 38.836 37.671 38.2261 37.8213 37.631C37.9725 37.0227 38.1835 36.4308 38.4511 35.864C38.7226 35.2904 38.9941 34.7475 39.2656 34.2354C40.0402 32.9543 40.823 31.6487 41.6139 30.3187C42.4049 28.9887 43.1876 27.6677 43.9623 26.3558C44.2664 25.851 44.5451 25.3371 44.7985 24.8141C45.051 24.293 45.2926 23.7284 45.5288 23.1231C45.5641 22.9874 45.5966 22.811 45.6319 22.5803C45.6672 22.3495 45.6971 22.1433 45.7324 21.9234C45.7644 21.7094 45.8153 21.4987 45.8844 21.2937C45.9356 21.1143 46.0408 20.9551 46.1858 20.8377C46.2871 20.8377 46.5233 20.8295 46.8944 20.8133L48.1812 20.7617C48.6699 20.7454 49.1586 20.7373 49.6472 20.7373H50.8336C50.8991 20.7687 50.9536 20.8193 50.99 20.8822C51.0263 20.9452 51.0428 21.0176 51.0372 21.0901V21.5217C51.0642 22.1712 50.9522 22.8189 50.7087 23.4217C50.481 24.0252 50.2022 24.6082 49.8753 25.1643C49.1658 26.5775 48.4074 27.941 47.6002 29.2547C46.86 30.6046 46.0853 31.9183 45.2763 33.1958C44.4673 34.4734 43.6763 35.7699 42.9035 37.0854C42.6589 37.5494 42.4475 38.0301 42.2709 38.524C42.0501 39.1121 42.1261 39.5916 42.499 39.9625C42.6045 40.0733 42.7359 40.1561 42.8814 40.2035C43.0269 40.2509 43.1819 40.2613 43.3324 40.234C43.6677 40.1775 43.9914 40.0665 44.2908 39.9055C44.6037 39.7424 44.8931 39.5379 45.1514 39.2975C45.4039 39.0641 45.6129 38.8605 45.7813 38.6923C46.8748 37.6942 47.8545 36.5781 48.7025 35.3645C49.5766 34.1178 50.4183 32.9054 51.2273 31.7274C52.1015 30.4481 52.9159 29.1353 53.6707 27.789C54.4222 26.4516 55.0887 25.0682 55.6661 23.647C55.8504 23.1318 56.0606 22.6263 56.2959 22.1324C56.4835 21.7163 56.6947 21.3112 56.9285 20.9191C57.4715 20.8865 58.1529 20.8359 58.9728 20.7671C59.7873 20.702 60.4986 20.6667 61.0714 20.6667H62.0813C62.0466 20.9051 61.9958 21.1408 61.9293 21.3724C61.8557 21.5963 61.7967 21.8248 61.7528 22.0564C61.7126 22.2776 61.6355 22.4905 61.5248 22.6861C60.9148 24.0409 60.2062 25.3491 59.4045 26.6001C58.5954 27.8668 57.8036 29.1334 57.029 30.4001C56.2543 31.6668 55.5304 32.9552 54.8571 34.2653C54.1811 35.5818 53.6556 36.9704 53.2906 38.4045C53.1901 39.2487 53.3503 39.7264 53.7711 39.8458C54.1919 39.9653 54.6887 39.7861 55.2616 39.303C56.7855 38.015 58.1581 36.558 59.3529 34.9601C60.5673 33.3442 61.7121 31.6939 62.7872 30.0093C62.8749 29.9299 62.9802 29.8726 63.0944 29.8419C63.2087 29.8112 63.3285 29.8081 63.4442 29.8328C63.6804 29.8844 63.7646 30.1043 63.6967 30.4653C62.551 32.3164 61.3139 34.1096 59.9855 35.845C58.6389 37.5965 57.1604 39.2425 55.5629 40.7687C54.8443 41.36 54.0556 41.8604 53.2146 42.2588C52.4211 42.6424 51.519 42.7383 50.6626 42.5303C50.3595 42.4782 50.0704 42.3637 49.8139 42.1941C49.5573 42.0245 49.3388 41.8034 49.1721 41.545C48.8808 41.0374 48.7246 40.4636 48.7187 39.8784C48.7036 39.2341 48.7628 38.5902 48.8952 37.9594C49.0364 37.3025 49.1558 36.7407 49.2563 36.2684Z" fill="#BC9A63"/>
<path d="M76.9995 6.46826C77.0384 6.18481 77.1237 5.9097 77.252 5.65397C77.3397 5.54988 77.4478 5.46486 77.5697 5.40417C77.6916 5.34348 77.8246 5.30841 77.9606 5.30112C78.5884 5.22379 79.2118 5.11417 79.8284 4.97269C80.4403 4.82505 81.0729 4.78282 81.6989 4.84783C82.2419 4.91569 82.5324 5.14912 82.5813 5.55355C82.6247 6.02411 82.5644 6.49847 82.4048 6.94326C82.233 7.47122 82.0045 7.97903 81.7234 8.45783C81.4356 8.9464 81.2266 9.31012 81.0908 9.54355C79.6755 11.9665 78.261 14.3578 76.8475 16.7174C75.4339 19.077 73.986 21.4502 72.5037 23.837C73.0756 23.3991 73.6738 22.9367 74.2982 22.45C74.9046 21.9724 75.5462 21.5415 76.2176 21.1607C76.8657 20.7919 77.5633 20.5177 78.2891 20.3464C79.0273 20.1778 79.7921 20.1611 80.537 20.2975C81.0632 20.3632 81.561 20.5726 81.9759 20.9028C82.319 21.1922 82.5802 21.5666 82.7333 21.9885C82.8872 22.4237 82.9554 22.8846 82.9342 23.3457C82.915 23.8484 82.8394 24.3473 82.7089 24.8331C82.3695 26.1115 81.819 27.3243 81.08 28.4214C80.3379 29.5324 79.6139 30.6263 78.9081 31.703C78.604 32.2078 78.2673 32.7127 77.8981 33.2175C77.5262 33.7224 77.1651 34.2463 76.8122 34.7837C76.4592 35.3211 76.1307 35.8694 75.8267 36.4123C75.533 36.9279 75.2963 37.474 75.1208 38.0408C74.8855 38.7809 74.976 39.2442 75.3923 39.4305C75.8086 39.6169 76.3054 39.5581 76.8828 39.2541C78.7045 38.0045 80.3594 36.5278 81.8075 34.8597C83.2648 33.1887 84.6245 31.4351 85.8798 29.6075C86.1513 29.271 86.4228 29.119 86.7133 29.1515C87.0038 29.1841 87.0581 29.4555 86.8898 29.9658C85.9848 31.2108 85.0672 32.4774 84.1369 33.7658C83.2254 35.0291 82.2476 36.2432 81.2076 37.403C80.1787 38.5381 79.0422 39.5707 77.814 40.4864C76.552 41.4341 75.1496 42.1787 73.6575 42.6931C73.2658 42.7597 72.8681 42.7852 72.4711 42.7691C72.0779 42.7534 71.6915 42.6612 71.3336 42.4977C71.0611 42.3771 70.8157 42.203 70.6119 41.9857C70.4081 41.7684 70.2501 41.5124 70.1472 41.2328C69.9596 40.6815 69.9074 40.0931 69.9951 39.5174C70.0853 38.8869 70.2465 38.2686 70.4757 37.6744C70.6752 37.1282 70.911 36.5959 71.1815 36.0811C71.8222 34.8018 72.5127 33.5731 73.253 32.3951C73.9932 31.2171 74.7507 30.0409 75.5253 28.8665C75.6936 28.5987 75.9651 28.1871 76.3398 27.6315C76.7192 27.062 77.0655 26.4712 77.3769 25.8618C77.6749 25.2994 77.8871 24.6956 78.0067 24.0704C78.1081 23.4968 77.9904 23.0589 77.6538 22.7567C77.3823 22.5531 76.9886 22.564 76.4674 22.7811C75.8993 23.0274 75.3542 23.3235 74.8385 23.666C74.2809 24.0235 73.7493 24.4198 73.2475 24.8521C72.88 25.1568 72.5335 25.486 72.2105 25.8374C71.1667 27.0159 70.2052 28.2647 69.3327 29.575C68.4549 30.8887 67.6124 32.2268 66.8052 33.5894C65.9979 34.952 65.198 36.3245 64.4052 37.707C63.6161 39.0895 62.7826 40.4366 61.9048 41.7485C61.4677 42.3864 61.0035 42.7067 60.5175 42.7067H58.6714C58.4118 42.6737 58.1491 42.6737 57.8895 42.7067C57.6237 42.7473 57.3519 42.7125 57.1049 42.6063C56.8353 42.4705 56.7511 42.2263 56.8524 41.8734C56.9754 41.4718 57.1363 41.0828 57.333 40.7117C57.5478 40.2988 57.7928 39.9023 58.066 39.5255C58.3375 39.1537 58.5194 38.885 58.6225 38.7113C61.3157 34.1657 64.0097 29.603 66.7047 25.0231C69.3997 20.4432 72.0032 15.838 74.5154 11.2074C74.9878 10.4329 75.4765 9.6675 75.9814 8.91112C76.481 8.17321 76.8272 7.34249 76.9995 6.46826Z" fill="#BC9A63"/>
<path d="M101.493 7.67882C101.279 8.60876 100.846 9.4742 100.231 10.2031C99.4515 11.0082 98.5675 11.7048 97.6026 12.2741C97.1574 12.5971 96.6621 12.8447 96.1365 13.007C95.7667 13.1532 95.3603 13.1798 94.9746 13.083C94.8935 13.0533 94.8084 13.0359 94.7221 13.0314C94.6381 12.9116 94.5858 12.7724 94.5701 12.627C94.5961 12.5346 94.6534 12.4541 94.7321 12.3992C94.8108 12.3443 94.906 12.3183 95.0017 12.3257C95.2687 12.316 95.5325 12.2647 95.7836 12.1737C96.0207 12.0742 96.3908 11.8932 96.894 11.6308C97.3237 11.4399 97.6665 11.0953 97.8551 10.6645C97.8972 10.5319 97.9007 10.3899 97.8652 10.2553C97.8296 10.1207 97.7564 9.99905 97.6542 9.90453C97.2391 9.55905 96.8809 9.15056 96.5926 8.69396C96.44 8.4546 96.3426 8.18429 96.3073 7.90261C96.2721 7.62093 96.3 7.33495 96.389 7.06539C96.6062 6.30624 97.1028 5.65745 97.779 5.24953C98.0838 5.02561 98.435 4.87301 98.8067 4.80301C99.1784 4.73301 99.5611 4.7474 99.9265 4.8451C100.204 4.91942 100.464 5.04941 100.69 5.22719C100.916 5.40497 101.103 5.62682 101.241 5.87925C101.406 6.14477 101.515 6.44219 101.558 6.75221C101.602 7.06222 101.579 7.37792 101.493 7.67882Z" fill="#BC9A63"/>
<path d="M113.107 13.843C113.781 15.4571 114.446 17.149 115.103 18.9187C115.749 20.6422 116.232 22.4224 116.547 24.236C116.848 26.0048 116.908 27.8064 116.723 29.5913C116.526 31.417 115.931 33.1773 114.981 34.7484C114.424 35.838 113.679 36.8211 112.781 37.6527C111.881 38.4854 110.909 39.2374 109.877 39.9001C108.787 40.5976 107.638 41.1971 106.442 41.6915C105.187 42.2182 103.884 42.6244 102.552 42.9048C101.225 43.1889 99.8688 43.3155 98.5121 43.2821C97.2019 43.2561 95.9045 43.0178 94.6706 42.5764C93.6384 42.1938 92.6658 41.6665 91.782 41.0103C90.8837 40.3552 90.1212 39.532 89.5368 38.5864C88.9237 37.5451 88.5155 36.3963 88.3341 35.2017C88.148 34.0162 88.088 32.8143 88.1549 31.6161C88.1912 30.4614 88.4074 29.3195 88.7956 28.2314C89.1909 27.1185 89.7061 26.0518 90.3322 25.0503C90.9659 24.0415 91.6931 23.0946 92.5041 22.222C93.2885 21.3697 94.1342 20.5759 95.0344 19.847C95.8585 19.203 96.7572 18.6607 97.7112 18.232C98.7615 17.736 99.8751 17.3871 101.021 17.1951C102.104 17.0093 103.213 17.0527 104.279 17.3227C105.34 17.6049 106.247 18.2945 106.803 19.2417C107.135 19.7763 107.372 20.3639 107.504 20.9788C107.638 21.6093 107.697 22.2535 107.68 22.8978C107.664 23.5513 107.588 24.2019 107.452 24.8413C107.33 25.4434 107.161 26.0351 106.947 26.611C106.722 27.3772 106.345 28.09 105.837 28.7064C105.376 29.2151 104.868 29.6803 104.322 30.0961C104.086 30.2644 103.942 30.3051 103.89 30.221C103.834 30.0942 103.817 29.9532 103.841 29.8165C103.864 29.6088 103.915 29.4051 103.993 29.2113C104.05 29.0433 104.126 28.8821 104.219 28.7308C104.445 28.3796 104.593 27.9831 104.65 27.5691C104.692 27.1394 104.783 26.7158 104.922 26.307C105.157 25.3208 105.122 24.2895 104.821 23.3213C104.57 22.3709 104.106 21.4901 103.464 20.7454C102.753 19.9375 101.777 19.4092 100.711 19.2553C99.6511 19.103 98.5698 19.2703 97.6054 19.7357C96.6087 20.2574 95.7379 20.9901 95.0534 21.8827C94.3628 22.7549 93.7616 23.6942 93.2588 24.6866C92.7154 25.6771 92.3159 26.74 92.0724 27.8433C91.8212 28.9611 91.7298 30.1089 91.801 31.2524C91.8686 32.3729 92.0635 33.482 92.3819 34.5584C92.6854 35.6217 93.1427 36.6349 93.7394 37.5658C94.3269 38.473 95.0716 39.268 95.9384 39.9137C96.866 40.5928 97.9368 41.0505 99.0687 41.2518C100.204 41.4903 101.374 41.5188 102.519 41.336C103.672 41.176 104.791 40.8256 105.829 40.2991C106.897 39.7354 107.835 38.953 108.582 38.0028C109.324 37.0657 109.975 36.0595 110.525 34.9981C111.093 33.9693 111.478 32.8498 111.663 31.6894C111.848 30.5373 111.891 29.3668 111.791 28.2043C111.684 27.0279 111.447 25.867 111.082 24.7436C110.724 23.6285 110.27 22.5469 109.725 21.5108C108.909 19.881 108.312 18.1506 107.949 16.3645C107.582 14.6047 107.506 12.7965 107.724 11.012C107.936 9.27062 108.489 7.5882 109.353 6.06112C110.289 4.45155 111.608 3.09853 113.194 2.12269C114.083 1.45713 115.072 0.936762 116.123 0.580977C117.202 0.20022 118.338 0.00385415 119.482 0.000120009C120.58 -0.00605844 121.667 0.226397 122.666 0.681406C123.69 1.16534 124.556 1.92719 125.167 2.87998C125.811 3.87651 126.177 5.02746 126.226 6.21312C126.301 7.44555 126.136 8.68098 125.74 9.85026C125.344 11.016 124.717 12.0898 123.896 13.007C123.112 13.9084 122.088 14.5676 120.942 14.907C120.562 15.0473 120.159 15.1155 119.753 15.1078C119.536 15.0753 119.425 14.9911 119.425 14.8554C119.44 14.6858 119.512 14.5261 119.628 14.4021C119.754 14.2408 119.907 14.1037 120.082 13.9977C120.537 13.6416 120.923 13.2045 121.219 12.7084C121.54 12.1873 121.833 11.7068 122.104 11.2698C122.654 10.2448 122.94 9.09957 122.938 7.93669C122.967 6.75751 122.743 5.58584 122.281 4.50041C121.863 3.50203 121.148 2.65599 120.234 2.07655C119.329 1.50293 118.218 1.38531 116.9 1.72369C115.839 2.22209 114.919 2.97675 114.223 3.91955C113.552 4.84026 113.055 5.87612 112.757 6.97583C112.452 8.10255 112.333 9.27147 112.404 10.4365C112.466 11.6009 112.703 12.7493 113.107 13.843Z" fill="#BC9A63"/>
<path d="M145.686 13.539C145.369 13.8922 145.095 14.2822 144.871 14.7007C144.642 15.1218 144.472 15.5719 144.364 16.0388C144.263 16.4949 144.238 16.9644 144.29 17.4285C144.346 17.9084 144.534 18.3633 144.833 18.7423C145.082 19.1377 145.424 19.4662 145.829 19.6995C146.234 19.9327 146.69 20.0634 147.157 20.0804C148.082 20.137 149.005 19.9498 149.834 19.5375C150.743 19.0993 151.564 18.4996 152.258 17.7678C152.974 17.0196 153.586 16.1788 154.077 15.268C154.583 14.3398 154.982 13.3573 155.266 12.3393C155.545 11.3602 155.705 10.3515 155.744 9.33455C155.774 8.41492 155.646 7.497 155.367 6.62026C155.091 5.72676 154.533 4.94677 153.776 4.39726C153.349 4.06632 152.858 3.82617 152.334 3.69155C151.802 3.55398 151.255 3.47749 150.705 3.46355C150.148 3.44684 149.59 3.48045 149.039 3.56398C148.503 3.64483 147.972 3.75446 147.448 3.89241C145.381 4.37522 143.446 5.3065 141.779 6.62026C140.103 7.94038 138.616 9.48377 137.359 11.2074C135.94 13.1341 134.69 15.1792 133.621 17.32C132.544 19.4696 131.681 21.7197 131.044 24.0378C130.807 24.8793 130.605 25.7632 130.439 26.6897C130.269 27.6137 130.185 28.5514 130.186 29.4908C130.183 30.416 130.274 31.3392 130.458 32.2458C130.64 33.1297 130.973 33.9754 131.443 34.7457C131.962 35.6362 132.712 36.369 133.615 36.8656C134.497 37.3436 135.46 37.6546 136.455 37.783C137.487 37.9188 138.534 37.9014 139.561 37.7314C140.581 37.5751 141.586 37.3392 142.569 37.0257C145.073 36.1436 147.393 34.8086 149.413 33.0873C151.456 31.378 153.12 29.2621 154.3 26.8743C154.365 26.7738 154.468 26.6028 154.601 26.3938C154.726 26.1919 154.88 26.009 155.057 25.851C155.195 25.7154 155.372 25.627 155.562 25.5985C155.731 25.5823 155.864 25.6936 155.967 25.927C156.035 26.1228 156.043 26.3343 155.991 26.535C155.94 26.7684 155.872 27.0127 155.79 27.2651C155.708 27.5088 155.606 27.7457 155.486 27.9735C155.39 28.1623 155.281 28.3437 155.158 28.5164C153.535 30.9494 151.728 33.2543 149.753 35.4107C147.769 37.5778 145.449 39.4108 142.881 40.8393C141.947 41.3556 140.976 41.8028 139.976 42.1774C138.962 42.5603 137.914 42.8474 136.846 43.0351C135.795 43.2196 134.725 43.2707 133.662 43.1871C132.59 43.1004 131.54 42.8353 130.556 42.4027C129.566 41.9803 128.673 41.3627 127.928 40.5868C127.191 39.8168 126.563 38.9503 126.06 38.011C125.552 37.0595 125.161 36.0496 124.898 35.0036C124.627 33.9678 124.468 32.9058 124.426 31.836C124.36 29.6173 124.641 27.402 125.259 25.2701C125.881 23.1194 126.737 21.0432 127.811 19.0788C128.892 17.1046 130.143 15.2283 131.549 13.4711C132.929 11.737 134.431 10.1042 136.045 8.58541C137.736 6.99671 139.543 5.53601 141.451 4.21541C143.369 2.88658 145.46 1.82462 147.665 1.05869C148.515 0.778918 149.384 0.559421 150.266 0.401834C151.173 0.237559 152.097 0.188313 153.016 0.255262C153.91 0.319935 154.789 0.525118 155.619 0.863262C156.46 1.21157 157.211 1.74613 157.816 2.42669C158.537 3.22778 159.035 4.20395 159.26 5.25769C159.477 6.29571 159.519 7.36253 159.385 8.4144C159.243 9.49491 158.969 10.554 158.57 11.5684C158.201 12.5495 157.746 13.4967 157.213 14.3994C156.69 15.3304 156.104 16.2246 155.459 17.0757C154.803 17.9478 154.077 18.7649 153.287 19.5186C152.507 20.267 151.661 20.9438 150.76 21.5407C149.883 22.1231 148.925 22.574 147.917 22.8788C146.981 23.1432 146.007 23.2451 145.037 23.1801C144.069 23.1032 143.159 22.6925 142.46 22.0184C141.704 21.2806 141.238 20.2948 141.149 19.2417C141.043 18.205 141.146 17.1576 141.451 16.161C141.82 15.0867 142.376 14.0861 143.093 13.2051C143.804 12.3255 144.669 11.5816 145.645 11.0093C145.895 10.8395 146.156 10.6871 146.427 10.5533C146.816 10.3513 147.222 10.1824 147.64 10.0484C148.023 9.92111 148.423 9.85336 148.827 9.84755C148.979 9.83004 149.132 9.86562 149.261 9.94824C149.389 10.0309 149.485 10.1554 149.533 10.3008C149.605 10.4589 149.614 10.6386 149.558 10.8031C149.502 10.9676 149.385 11.1044 149.231 11.1857C148.946 11.3772 148.641 11.5382 148.322 11.6661C147.849 11.9375 147.388 12.1954 146.932 12.4478C146.448 12.7252 146.024 13.0962 145.686 13.539Z" fill="#BC9A63"/>
<path d="M171.409 6.46825C170.059 8.95996 168.661 11.4345 167.215 13.8918C165.769 16.3492 164.312 18.8246 162.846 21.3181C161.38 23.8098 159.923 26.3097 158.476 28.8177C157.028 31.3257 155.647 33.8762 154.333 36.4692C154.108 36.8444 153.906 37.2323 153.727 37.631C153.503 38.0664 153.415 38.5591 153.475 39.0451C153.473 39.1913 153.516 39.3346 153.597 39.4565C153.677 39.5784 153.793 39.6733 153.928 39.7291C154.232 39.8784 154.653 39.8377 155.191 39.6015C156.099 39.0643 156.939 38.42 157.694 37.6825C158.448 36.9445 159.156 36.1604 159.814 35.3347C160.476 34.5016 161.091 33.6326 161.657 32.7317C162.231 31.8269 162.787 30.9348 163.324 30.0554C163.459 29.7698 163.62 29.4973 163.805 29.2411C164.056 28.8792 164.301 28.6982 164.538 28.6982C164.608 28.6888 164.679 28.7071 164.736 28.7492C164.792 28.7913 164.831 28.8538 164.842 28.9235C164.875 29.0902 164.875 29.2617 164.842 29.4284C164.808 29.6169 164.748 29.7997 164.663 29.9712C164.579 30.1395 164.522 30.2562 164.486 30.3241C163.612 31.4695 162.745 32.7072 161.885 34.0372C161.028 35.3594 160.092 36.6284 159.081 37.8372C158.097 39.0236 156.978 40.0912 155.747 41.0184C154.538 41.9259 153.139 42.5477 151.656 42.837C150.441 42.9057 149.616 42.6108 149.18 41.9521C148.725 41.2362 148.496 40.4002 148.523 39.5527C148.529 38.5673 148.683 37.5884 148.979 36.6484C149.216 35.8259 149.52 35.0243 149.888 34.2517C150.894 32.1704 152.015 30.1469 153.247 28.1907C154.476 26.2364 155.68 24.2459 156.86 22.2192C158.276 19.8669 159.673 17.5145 161.052 15.1621C162.431 12.8097 163.812 10.451 165.195 8.08596C165.321 7.86804 165.43 7.64125 165.523 7.40739C165.607 7.18752 165.666 6.95903 165.7 6.72611V6.06382C165.695 5.84371 165.713 5.62369 165.751 5.40696C165.884 5.37439 166.197 5.32554 166.685 5.25768C167.174 5.18982 167.712 5.12196 168.301 5.05411C168.89 4.98625 169.446 4.92111 169.968 4.85325C170.344 4.79728 170.724 4.76284 171.105 4.75011C171.377 4.85325 171.501 5.12196 171.485 5.56439C171.479 5.86696 171.453 6.16883 171.409 6.46825Z" fill="#BC9A63"/>
<path d="M163.628 38.6407C163.728 39.417 163.999 39.9309 164.443 40.1824C164.913 40.4396 165.455 40.5349 165.985 40.4538C166.605 40.3802 167.209 40.2099 167.777 39.949C168.304 39.7206 168.812 39.4482 169.294 39.1347C170.326 38.4929 171.283 37.7382 172.147 36.8846C173.109 35.9599 174.013 35.0171 174.862 34.0563C175.711 33.0954 176.469 32.1952 177.135 31.3555C177.808 30.5141 178.351 29.8745 178.764 29.4366C179 29.1651 179.16 29.1081 179.244 29.2601C179.331 29.4593 179.341 29.6839 179.271 29.8898C179.019 30.5473 178.678 31.1673 178.259 31.7328C177.695 32.5314 177.089 33.2988 176.442 34.0318C175.733 34.8407 174.966 35.6658 174.143 36.5073C173.319 37.3487 172.505 38.1232 171.7 38.8307C170.885 39.5364 170.141 40.1607 169.452 40.6981C168.92 41.1309 168.355 41.5194 167.76 41.8598C167.07 42.2509 166.33 42.5484 165.561 42.7447C164.772 42.9587 163.954 43.0503 163.137 43.0161C162.352 42.9939 161.582 42.7905 160.889 42.4217C160.168 42.0215 159.593 41.4027 159.246 40.6547C158.906 39.9438 158.72 39.1683 158.703 38.3801C158.688 37.5649 158.773 36.7508 158.956 35.9563C159.141 35.1533 159.396 34.3678 159.716 33.6084C160.023 32.8752 160.368 32.1586 160.75 31.4614C161.699 29.615 162.905 27.9132 164.334 26.4074C165.768 24.9152 167.4 23.6274 169.186 22.5803C170.051 22.0131 170.973 21.5391 171.938 21.1661C172.893 20.7954 173.883 20.5225 174.892 20.3518C175.574 20.2158 176.272 20.182 176.964 20.2514C177.309 20.272 177.643 20.3803 177.935 20.566C178.226 20.7517 178.466 21.0087 178.631 21.3127C178.925 21.7518 179.067 22.2753 179.035 22.8028C179 23.3313 178.881 23.8508 178.682 24.3418C178.481 24.8441 178.217 25.3192 177.898 25.756C177.598 26.1703 177.267 26.5605 176.907 26.9231C176.095 27.802 175.168 28.5672 174.151 29.1977C173.153 29.8203 172.116 30.377 171.045 30.8643C170.473 31.0995 169.91 31.3094 169.354 31.494C168.798 31.6786 168.217 31.8595 167.611 32.0368C167.21 32.112 166.805 32.1628 166.397 32.1888C166.199 32.1896 166.003 32.2301 165.821 32.3079C165.638 32.3858 165.473 32.4994 165.336 32.6421C165.027 32.9872 164.811 33.4045 164.706 33.8554C164.58 34.3191 164.419 34.7727 164.225 35.2126C163.984 35.7549 163.802 36.3219 163.683 36.9035C163.572 37.476 163.554 38.0624 163.628 38.6407ZM166.101 31.0651C167.253 31.0075 168.365 30.6224 169.305 29.955C170.262 29.2831 171.182 28.5582 172.058 27.7835C172.495 27.4132 172.908 27.0162 173.296 26.5947C173.68 26.1795 174.027 25.7318 174.333 25.2565C174.534 24.8874 174.77 24.4233 175.039 23.8695C175.286 23.4127 175.408 22.8986 175.392 22.3794C175.359 22.0075 175.24 21.7904 175.039 21.7225C174.785 21.6583 174.517 21.6852 174.281 21.7985C173.931 21.9376 173.6 22.12 173.296 22.3414C172.955 22.5939 172.628 22.8639 172.316 23.1503C172.014 23.4217 171.743 23.6931 171.501 23.932C171.26 24.1708 171.113 24.3445 171.045 24.4124C170.078 25.4099 169.191 26.4827 168.393 27.6207C167.605 28.7372 166.842 29.8853 166.101 31.0651Z" fill="#BC9A63"/>
<path d="M195.151 20.7074H200.203C198.789 23.1991 197.408 25.6908 196.06 28.1825C194.712 30.6743 193.28 33.0981 191.765 35.4541C191.531 35.8457 191.321 36.2508 191.135 36.6674C190.856 37.2502 190.636 37.8594 190.478 38.486C190.329 38.9777 190.311 39.4998 190.427 40.0005C190.546 40.405 190.94 40.5054 191.613 40.3018C192.542 39.776 193.386 39.1125 194.116 38.334C194.847 37.5492 195.522 36.7138 196.136 35.8341C196.757 34.9402 197.371 34.0472 197.979 33.1551C198.576 32.276 199.235 31.4406 199.95 30.6553C200.222 30.3838 200.436 30.2861 200.607 30.354C200.737 30.3981 200.856 30.4663 200.96 30.5548C200.894 30.7159 200.809 30.8689 200.708 31.0108C199.777 32.1177 198.917 33.2817 198.131 34.496C197.327 35.7345 196.459 36.9304 195.531 38.0788C194.628 39.1993 193.602 40.2154 192.474 41.108C191.33 41.999 190 42.6206 188.583 42.9265C187.809 42.9591 187.236 42.7908 186.865 42.4217C186.484 42.031 186.222 41.5408 186.107 41.0075C185.971 40.4113 185.912 39.8002 185.931 39.189C185.947 38.5511 185.991 37.9594 186.058 37.422C185.686 37.8255 185.205 38.3222 184.617 38.9121C184.029 39.502 183.381 40.0992 182.673 40.7035C181.979 41.301 181.244 41.8497 180.474 42.3457C179.799 42.7989 179.046 43.1246 178.253 43.3065C177.575 43.4606 176.865 43.3891 176.231 43.103C175.61 42.8189 175.097 42.2045 174.691 41.26C174.296 40.3623 174.106 39.3877 174.135 38.4073C174.172 37.4369 174.342 36.4761 174.64 35.5518C174.945 34.6093 175.34 33.6984 175.821 32.8321C176.309 31.9581 176.806 31.1339 177.311 30.3594C178.418 28.6826 179.715 27.1396 181.177 25.7614C182.634 24.3912 184.254 23.206 186.001 22.2328C186.681 21.8631 187.383 21.535 188.103 21.2503C188.844 20.943 189.628 20.7472 190.427 20.6694C191.144 20.5956 191.869 20.7175 192.523 21.0223C193.163 21.3263 193.652 21.9324 193.989 22.8408C194.193 22.4789 194.395 22.1252 194.594 21.7795C194.8 21.4334 194.986 21.0754 195.151 20.7074ZM188.483 32.2214C188.707 31.8216 188.951 31.4338 189.216 31.0597C189.601 30.4879 190.014 29.8319 190.454 29.0918C190.906 28.3219 191.318 27.5292 191.689 26.7168C192.045 25.9745 192.318 25.1954 192.504 24.3934C192.658 23.8134 192.65 23.2019 192.479 22.6264C192.311 22.1541 191.858 21.8827 191.122 21.8121C190.557 21.9238 190.018 22.1382 189.531 22.4445C188.983 22.7838 188.468 23.1727 187.991 23.6063C187.494 24.0515 187.022 24.5236 186.577 25.0204C186.137 25.509 185.716 25.9713 185.315 26.4074C184.506 27.4931 183.714 28.6042 182.939 29.7405C182.164 30.8769 181.44 32.0386 180.767 33.2257C180.564 33.5975 180.311 34.059 180.01 34.6154C179.701 35.1782 179.429 35.7603 179.195 36.358C178.967 36.9356 178.805 37.5376 178.715 38.1521C178.617 38.6811 178.713 39.2276 178.986 39.6911C179.07 39.8828 179.198 40.0516 179.361 40.1834C179.523 40.3151 179.715 40.406 179.92 40.4484C180.318 40.5158 180.726 40.4812 181.106 40.348C181.526 40.2071 181.925 40.0118 182.293 39.7671C182.629 39.5555 182.943 39.31 183.23 39.0343C184.276 38.0561 185.239 36.992 186.107 35.8531C186.988 34.7047 187.782 33.4926 188.483 32.2268V32.2214Z" fill="#BC9A63"/>
<path d="M203.689 23.6415C203.938 23.3228 204.079 22.9329 204.091 22.5287C204.091 22.1595 204.11 21.7551 204.142 21.3181C204.173 21.1088 204.182 20.8968 204.167 20.6857C204.15 20.6368 204.278 20.6097 204.547 20.6097C204.816 20.6097 205.169 20.5934 205.709 20.5608C206.249 20.5283 206.795 20.5011 207.338 20.4848C207.881 20.4685 208.38 20.4523 208.801 20.4333L209.382 20.4088C209.472 20.5526 209.548 20.7043 209.61 20.8621C209.693 21.0543 209.736 21.261 209.738 21.4701C209.657 21.9804 209.495 22.4744 209.257 22.9331C209.004 23.438 208.777 23.9265 208.576 24.3988C209.249 23.827 209.922 23.2715 210.596 22.7323C211.272 22.1923 212 21.7187 212.767 21.3181C213.138 21.1037 213.527 20.922 213.929 20.7753C214.367 20.6073 214.823 20.4889 215.287 20.4224C215.755 20.3551 216.229 20.3297 216.701 20.3464C217.151 20.3568 217.596 20.4488 218.013 20.6178C218.918 21.0575 219.414 21.7144 219.503 22.5884C219.589 23.4508 219.529 24.3216 219.327 25.1643C218.938 26.3915 218.348 27.5454 217.581 28.5788C216.772 29.6645 216.031 30.7168 215.357 31.7355C214.751 32.6403 214.162 33.5451 213.59 34.4498C213.018 35.3546 212.464 36.2974 211.929 37.2781C211.828 37.479 211.676 37.7585 211.472 38.1114C211.279 38.4457 211.127 38.802 211.019 39.1727C210.918 39.4673 210.918 39.7873 211.019 40.082C211.12 40.3344 211.424 40.4267 211.929 40.3534C212.961 40.1063 213.932 39.651 214.782 39.0153C215.612 38.3889 216.366 37.6684 217.03 36.8683C217.714 36.0483 218.349 35.1881 218.93 34.2924C219.518 33.3876 220.117 32.529 220.725 31.7165C220.79 31.6161 220.89 31.4315 221.026 31.1601C221.153 30.9039 221.315 30.6664 221.507 30.4544C221.653 30.278 221.839 30.1393 222.05 30.05C222.234 29.9821 222.427 30.0853 222.631 30.354C222.679 30.4349 222.71 30.5246 222.723 30.6178C222.736 30.711 222.73 30.8058 222.707 30.8968C222.649 31.1202 222.557 31.3335 222.435 31.5293C222.299 31.7491 222.164 31.95 222.031 32.1345C221.924 32.2872 221.806 32.4315 221.678 32.5661C220.869 33.6754 220.018 34.8117 219.126 35.9753C218.252 37.1227 217.298 38.2075 216.272 39.2215C215.27 40.2121 214.15 41.077 212.939 41.7974C211.71 42.5266 210.354 43.0148 208.942 43.236C208.38 43.2744 207.817 43.161 207.313 42.9075C206.787 42.6112 206.383 42.1367 206.176 41.5694C205.876 40.8692 205.782 40.0981 205.904 39.3464C206.028 38.5498 206.267 37.7754 206.613 37.0474C206.967 36.289 207.371 35.5554 207.824 34.8515C208.28 34.1431 208.69 33.4944 209.062 32.9325C209.668 31.9554 210.301 30.9783 210.962 30.0011C211.623 29.024 212.237 28.0477 212.805 27.0724C213.077 26.7033 213.348 26.3233 213.59 25.9378C213.839 25.5544 214.066 25.1575 214.272 24.749C214.456 24.4372 214.584 24.0954 214.649 23.7393C214.701 23.5726 214.697 23.3935 214.638 23.2292C214.579 23.065 214.467 22.9247 214.32 22.83C214.19 22.7476 214.04 22.6996 213.886 22.6906C213.732 22.6816 213.578 22.7118 213.438 22.7784C213.118 22.9141 212.822 23.0335 212.553 23.134C211.391 23.6452 210.347 24.3899 209.485 25.3217C208.591 26.2825 207.758 27.2172 206.985 28.1255C206.657 28.4845 206.353 28.8644 206.075 29.2628C205.806 29.6483 205.534 30.0436 205.261 30.449C204.081 32.2585 202.893 34.068 201.699 35.8775C200.504 37.6871 199.317 39.4966 198.137 41.3061C198.041 41.5315 197.931 41.7509 197.809 41.963C197.692 42.1819 197.547 42.3853 197.38 42.5683C197.259 42.642 197.125 42.691 196.985 42.7125C196.845 42.7339 196.702 42.7273 196.565 42.6931C196.296 42.6455 196.022 42.6372 195.751 42.6687H193.554C193.066 42.6687 192.762 42.5927 192.645 42.4407C192.528 42.2887 192.569 42.0118 192.77 41.6074C192.971 41.203 193.313 40.5977 193.78 39.7888C195.298 37.4003 196.789 35.0271 198.251 32.6693C199.713 30.3115 201.17 27.9202 202.622 25.4954C202.79 25.1941 202.967 24.8901 203.165 24.5861C203.363 24.2821 203.512 23.9781 203.689 23.6415Z" fill="#BC9A63"/>
<path d="M229.847 21.8745C229.379 23.1377 228.813 24.362 228.153 25.5361C227.528 26.6218 226.88 27.6904 226.209 28.7417C225.937 29.1814 225.659 29.6193 225.375 30.0554C225.088 30.4924 224.811 30.9484 224.542 31.4125C224.069 32.2558 223.564 33.0981 223.027 33.9395C222.489 34.781 221.984 35.6061 221.509 36.415C221.312 36.6901 221.13 36.9764 220.966 37.2727C220.778 37.6132 220.618 37.9681 220.486 38.334C220.353 38.69 220.276 39.0645 220.258 39.4441C220.239 39.8171 220.334 40.1871 220.529 40.5054C220.666 40.7281 220.882 40.8902 221.135 40.9587C221.54 41.0944 222.037 41.0103 222.625 40.7063C223.293 40.3493 223.912 39.9088 224.469 39.3953C225.155 38.7771 225.804 38.1191 226.412 37.4247C227.069 36.6828 227.685 35.9418 228.259 35.2017C228.831 34.4607 229.325 33.755 229.749 33.0818C230.093 32.5446 230.405 31.9872 230.683 31.4125H230.661L230.865 31.0597L231.37 30.354C231.538 30.1178 231.641 30.1504 231.723 30.4544C231.76 30.5682 231.768 30.6894 231.747 30.8073C231.721 30.9972 231.661 31.181 231.571 31.3501V31.2985C231.288 31.6922 231.035 32.1059 230.813 32.5363C230.578 32.9923 230.343 33.422 230.107 33.8255C229.43 35.0361 228.706 36.2123 227.935 37.3541C227.195 38.46 226.331 39.4772 225.359 40.386C224.444 41.2428 223.405 41.9573 222.278 42.5058C221.127 43.0563 219.866 43.3349 218.591 43.3201C218.125 43.3219 217.663 43.2295 217.233 43.0487C216.76 42.8275 216.382 42.4416 216.172 41.963C215.825 41.3842 215.65 40.7186 215.667 40.044C215.672 39.2415 215.817 38.4461 216.096 37.6934C216.367 36.9035 216.661 36.2033 216.929 35.598C217.503 34.42 218.1 33.3089 218.721 32.2648C219.342 31.2207 219.991 30.2101 220.668 29.233C221.138 28.4603 221.61 27.6695 222.082 26.8607C222.555 26.0518 223.026 25.2439 223.497 24.4368C223.704 24.0979 223.866 23.7328 223.977 23.3511C224.06 23.0308 224.151 22.7024 224.249 22.3658C224.249 22.2972 224.257 22.2289 224.273 22.1623C224.29 22.0967 224.299 22.0292 224.3 21.9614C224.37 21.7841 224.429 21.6028 224.477 21.4185C224.509 21.2492 224.588 21.0922 224.705 20.9653C225.17 20.7766 225.666 20.6736 226.168 20.6613C226.773 20.6287 227.278 20.6097 227.683 20.6097C227.987 20.6097 228.332 20.6097 228.72 20.6368C229.084 20.6552 229.448 20.6297 229.806 20.5608V20.6613L229.858 20.7617C229.891 20.9412 229.916 21.1224 229.931 21.3045C229.942 21.4983 229.913 21.6923 229.847 21.8745ZM229.138 13.691C229.143 13.2563 229.235 12.8271 229.41 12.4288C229.591 11.9981 229.839 11.598 230.143 11.2427C230.443 10.8989 230.803 10.6112 231.204 10.3931C231.567 10.1822 231.972 10.0534 232.391 10.0158C232.762 9.96948 233.139 10.0307 233.476 10.1923C233.754 10.3352 233.977 10.5662 234.109 10.8491C234.246 11.1498 234.314 11.477 234.31 11.8073C234.309 12.1625 234.241 12.5143 234.109 12.8441C233.796 13.5371 233.308 14.1373 232.695 14.5867C232.143 15.0597 231.449 15.3349 230.724 15.3684C230.541 15.3694 230.36 15.3342 230.19 15.2647C230.021 15.1953 229.868 15.0931 229.738 14.964C229.408 14.6154 229.201 14.1683 229.149 13.691H229.138Z" fill="#BC9A63"/>
<path d="M234.302 23.6415C234.552 23.3231 234.693 22.9332 234.706 22.5287C234.706 22.1595 234.723 21.7551 234.755 21.3181C234.786 21.1088 234.795 20.8969 234.782 20.6857C234.763 20.6368 234.891 20.6097 235.16 20.6097C235.428 20.6097 235.784 20.5934 236.322 20.5608C236.859 20.5283 237.408 20.5011 237.951 20.4848C238.494 20.4685 238.993 20.4523 239.417 20.4333L239.998 20.4088C240.085 20.5534 240.161 20.705 240.223 20.8621C240.305 21.0543 240.349 21.261 240.35 21.4701C240.277 21.9792 240.122 22.4731 239.892 22.9331C239.638 23.438 239.411 23.9265 239.21 24.3988C239.884 23.827 240.557 23.2715 241.23 22.7323C241.907 22.1923 242.634 21.7187 243.402 21.3181C243.773 21.1037 244.162 20.922 244.564 20.7753C245.002 20.6073 245.457 20.4889 245.921 20.4224C246.39 20.3551 246.863 20.3297 247.336 20.3464C247.787 20.3569 248.232 20.4488 248.65 20.6178C249.559 21.0575 250.053 21.7035 250.14 22.5884C250.224 23.451 250.164 24.3215 249.961 25.1643C249.567 26.3933 248.97 27.5476 248.194 28.5788C247.385 29.6645 246.644 30.7168 245.97 31.7355C245.364 32.6403 244.775 33.5451 244.203 34.4498C243.631 35.3546 243.075 36.2974 242.536 37.2781C242.436 37.479 242.283 37.7585 242.083 38.1114C241.888 38.4451 241.734 38.8015 241.626 39.1727C241.525 39.4673 241.525 39.7873 241.626 40.082C241.727 40.3344 242.031 40.4267 242.536 40.3534C243.568 40.1063 244.539 39.651 245.389 39.0153C246.219 38.3889 246.973 37.6684 247.637 36.8683C248.321 36.0483 248.956 35.1881 249.538 34.2924C250.126 33.3876 250.724 32.529 251.332 31.7165C251.444 31.5373 251.544 31.3514 251.634 31.1601C251.76 30.9039 251.922 30.6664 252.114 30.4544C252.26 30.2786 252.447 30.14 252.657 30.05C252.842 29.9821 253.037 30.0853 253.238 30.354C253.286 30.4349 253.317 30.5246 253.33 30.6178C253.343 30.711 253.338 30.8058 253.314 30.8968C253.255 31.1199 253.164 31.333 253.043 31.5293C252.907 31.7491 252.771 31.95 252.638 32.1345C252.531 32.2873 252.412 32.4316 252.282 32.5661C251.475 33.6754 250.625 34.8117 249.733 35.9753C248.857 37.1165 247.902 38.1958 246.877 39.2053C245.874 40.1958 244.755 41.0607 243.543 41.7811C242.317 42.511 240.962 43.0002 239.552 43.2224C238.99 43.2608 238.427 43.1474 237.923 42.894C237.397 42.5983 236.994 42.1234 236.789 41.5558C236.489 40.8557 236.395 40.0846 236.517 39.3328C236.643 38.5368 236.882 37.7627 237.226 37.0338C237.579 36.2755 237.984 35.5419 238.437 34.838L239.674 32.919C240.283 31.9418 240.916 30.9647 241.575 29.9875C242.234 29.0104 242.848 28.0342 243.418 27.0588C243.69 26.6897 243.961 26.3097 244.203 25.9243C244.453 25.5414 244.68 25.1445 244.884 24.7354C245.068 24.4233 245.197 24.0817 245.264 23.7257C245.314 23.5589 245.309 23.3807 245.25 23.217C245.191 23.0534 245.081 22.913 244.936 22.8164C244.805 22.734 244.655 22.6861 244.5 22.6771C244.345 22.668 244.191 22.6982 244.051 22.7648C243.731 22.9005 243.435 23.02 243.166 23.1204C241.998 23.634 240.949 24.3835 240.084 25.3217C239.194 26.2825 238.36 27.2172 237.584 28.1255C237.257 28.4845 236.954 28.8644 236.677 29.2628C236.406 29.6483 236.134 30.0436 235.863 30.449C234.683 32.2585 233.495 34.068 232.301 35.8775C231.106 37.6871 229.919 39.4966 228.739 41.3061C228.643 41.5315 228.533 41.7509 228.411 41.963C228.294 42.1819 228.149 42.3853 227.982 42.5683C227.861 42.6423 227.727 42.6915 227.587 42.7129C227.447 42.7344 227.304 42.7276 227.167 42.6931C226.898 42.6455 226.624 42.6372 226.353 42.6687H224.173C223.684 42.6687 223.383 42.5927 223.263 42.4407C223.144 42.2887 223.187 42.0118 223.391 41.6074C223.594 41.203 223.934 40.5977 224.401 39.7888C225.916 37.4003 227.406 35.0271 228.872 32.6693C230.338 30.3115 231.794 27.9202 233.24 25.4954C233.409 25.1941 233.585 24.8901 233.783 24.5861C233.981 24.2821 234.133 23.9781 234.302 23.6415Z" fill="#BC9A63"/>
<path d="M248.65 42.4814C248.102 42.1362 247.65 41.6582 247.336 41.0917C247.035 40.5416 246.83 39.944 246.731 39.3247C246.627 38.6905 246.602 38.0461 246.655 37.4057C246.698 36.7666 246.789 36.1315 246.926 35.5057C247.358 34.0105 248.015 32.5899 248.875 31.2931C249.732 30.0014 250.687 28.7773 251.731 27.6315C252.838 26.3902 254.028 25.2258 255.293 24.1464C256.561 23.0679 257.982 22.1833 259.509 21.5217C260.157 21.2386 260.824 21.0028 261.505 20.816C262.187 20.6212 262.894 20.5297 263.603 20.5445C264.265 20.5595 264.915 20.7238 265.504 21.025C266.132 21.3732 266.621 21.9259 266.891 22.5911C267.078 22.3784 267.247 22.1506 267.396 21.9098C267.522 21.7085 267.676 21.5257 267.852 21.367C268.016 21.2134 268.199 21.0828 268.398 20.9788C268.655 20.8627 268.931 20.7938 269.212 20.7753C269.934 20.7099 270.659 20.6845 271.384 20.6993C272.092 20.7174 272.782 20.7264 273.456 20.7264C271.532 24.1193 269.574 27.4479 267.583 30.7123C265.593 33.9766 263.555 37.26 261.47 40.5624L258.918 44.6528C258.067 46.0317 257.155 47.3689 256.181 48.6645C255.212 49.9536 254.13 51.1536 252.948 52.2501C250.646 54.3924 247.809 55.8732 244.735 56.536C243.235 56.8641 241.698 56.9955 240.163 56.9268C239.691 56.8925 239.185 56.8327 238.646 56.7477C238.117 56.667 237.6 56.523 237.106 56.3188C236.623 56.1201 236.178 55.8381 235.792 55.4855C235.407 55.1365 235.12 54.693 234.959 54.199C234.757 53.5765 234.748 52.9074 234.934 52.28C235.104 51.6604 235.512 51.1332 236.069 50.8143C236.596 50.4377 237.246 50.2756 237.888 50.361C238.215 50.3787 238.53 50.4938 238.791 50.6917C239.052 50.8895 239.249 51.161 239.354 51.4711C239.451 51.731 239.478 52.012 239.43 52.2854C239.381 52.5193 239.289 52.7421 239.159 52.9423C239.025 53.1426 238.907 53.3532 238.806 53.572C238.702 53.8023 238.651 54.0524 238.654 54.3048C238.674 54.6406 238.826 54.9547 239.077 55.1788C239.334 55.399 239.635 55.5619 239.96 55.6565C240.296 55.7588 240.645 55.81 240.997 55.8085C241.309 55.8108 241.621 55.7945 241.931 55.7597C242.787 55.6633 243.622 55.4324 244.407 55.0757C245.189 54.7182 245.926 54.269 246.603 53.7375C247.299 53.1936 247.942 52.5846 248.522 51.919C249.112 51.2458 249.66 50.5727 250.165 49.8995C251.407 48.2574 252.553 46.5455 253.599 44.7723C254.645 43.0044 255.656 41.212 256.632 39.3953C256.127 39.8639 255.554 40.3516 254.913 40.8583C254.297 41.3469 253.637 41.7784 252.942 42.1475C252.281 42.4972 251.563 42.7278 250.822 42.8288C250.079 42.9312 249.323 42.8103 248.65 42.4814ZM252.236 39.9055C253.002 39.9478 253.766 39.7995 254.46 39.474C255.147 39.1468 255.777 38.7125 256.328 38.1874C256.913 37.6393 257.458 37.0487 257.957 36.4204C258.461 35.7798 258.914 35.1736 259.314 34.6018C259.857 33.8292 260.413 33.0628 260.981 32.3028C261.549 31.5428 262.105 30.7684 262.648 29.9794C263.181 29.1981 263.662 28.382 264.087 27.5365C264.508 26.6925 264.855 25.8133 265.124 24.9091C265.202 24.6184 265.261 24.3228 265.3 24.0243C265.351 23.6901 265.36 23.3508 265.325 23.0145C265.303 22.7201 265.199 22.4377 265.023 22.2003C264.923 22.0856 264.797 21.9963 264.655 21.9397C264.514 21.8831 264.361 21.8608 264.209 21.8745C263.784 21.8434 263.358 21.9209 262.971 22.0998C262.546 22.2885 262.14 22.5166 261.757 22.7811C261.369 23.0529 260.998 23.3484 260.647 23.666C260.285 23.9863 259.974 24.2812 259.713 24.5508C258.303 25.9588 257.01 27.4793 255.847 29.0973C254.685 30.7171 253.619 32.4028 252.652 34.1458C252.516 34.4173 252.299 34.8624 251.995 35.484C251.696 36.0951 251.451 36.7308 251.262 37.384C251.084 37.9382 251.032 38.5252 251.11 39.1021C251.187 39.6034 251.563 39.8712 252.236 39.9055Z" fill="#BC9A63"/>
<path d="M302.447 13.3273C303.122 14.9414 303.787 16.6333 304.442 18.403C305.087 20.1266 305.57 21.9068 305.884 23.7203C306.185 25.4891 306.244 27.2907 306.06 29.0756C305.863 30.9013 305.268 32.6616 304.317 34.2327C303.76 35.3216 303.017 36.3045 302.121 37.137C301.219 37.9684 300.247 38.7203 299.216 39.3844C298.125 40.0814 296.975 40.6808 295.779 41.1758C294.522 41.7047 293.217 42.1127 291.883 42.3946C290.556 42.6786 289.2 42.8053 287.843 42.7719C286.534 42.7461 285.238 42.5078 284.005 42.0661C282.971 41.6842 281.998 41.1568 281.113 40.5C280.215 39.8449 279.453 39.0217 278.868 38.0761C278.256 37.0343 277.848 35.8857 277.665 34.6914C277.479 33.5059 277.419 32.304 277.486 31.1058C277.522 29.9512 277.739 28.8092 278.127 27.7211C278.523 26.6062 279.039 25.5377 279.666 24.5346C280.3 23.5258 281.027 22.5789 281.838 21.7063C282.623 20.8547 283.469 20.0609 284.368 19.3313C285.192 18.6835 286.091 18.1368 287.045 17.7027C288.096 17.2068 289.209 16.8579 290.355 16.6658C291.438 16.48 292.547 16.5235 293.613 16.7934C294.674 17.0756 295.581 17.7652 296.137 18.7124C296.472 19.2481 296.712 19.8377 296.846 20.455C296.98 21.0855 297.039 21.7296 297.022 22.374C297.007 23.0275 296.93 23.678 296.794 24.3174C296.672 24.9195 296.503 25.5112 296.289 26.0871C296.064 26.8533 295.687 27.5661 295.179 28.1826C294.718 28.6919 294.211 29.1572 293.664 29.5723C293.428 29.7406 293.284 29.7813 293.235 29.6971C293.177 29.5707 293.159 29.4296 293.184 29.2927C293.206 29.0849 293.257 28.8812 293.336 28.6874C293.394 28.5201 293.47 28.3591 293.561 28.207C293.789 27.8563 293.936 27.4596 293.993 27.0453C294.034 26.6155 294.125 26.192 294.264 25.7831C294.499 24.7969 294.465 23.7656 294.164 22.7974C293.912 21.8471 293.448 20.9663 292.806 20.2216C292.095 19.4136 291.119 18.8854 290.053 18.7314C288.993 18.5806 287.912 18.7479 286.948 19.2119C285.951 19.7336 285.08 20.4663 284.396 21.3588C283.705 22.2308 283.105 23.1702 282.604 24.1627C282.058 25.1526 281.658 26.2157 281.415 27.3194C281.165 28.4375 281.073 29.5851 281.143 30.7286C281.212 31.8489 281.407 32.9579 281.724 34.0346C282.028 35.0978 282.485 36.111 283.082 37.042C283.669 37.9491 284.414 38.7442 285.281 39.3899C286.208 40.0689 287.279 40.5267 288.411 40.728C289.55 40.965 290.724 40.9908 291.872 40.804C293.025 40.644 294.144 40.2936 295.182 39.7671C296.25 39.2034 297.188 38.421 297.935 37.4708C298.677 36.5337 299.328 35.5275 299.878 34.4661C300.446 33.4374 300.831 32.3178 301.016 31.1574C301.201 30.0053 301.244 28.8348 301.144 27.6723C301.037 26.4959 300.8 25.3351 300.435 24.2116C300.077 23.0966 299.623 22.0149 299.078 20.9788C298.263 19.3453 297.668 17.6112 297.307 15.8217C296.94 14.0618 296.864 12.2536 297.082 10.4691C297.294 8.72778 297.848 7.04535 298.711 5.51828C299.647 3.9087 300.967 2.55568 302.553 1.57984C303.442 0.91483 304.43 0.394507 305.482 0.0381325C306.561 -0.342625 307.696 -0.53899 308.84 -0.542725C309.939 -0.549356 311.026 -0.315912 312.025 0.141277C313.048 0.623354 313.915 1.38448 314.525 2.33713C315.17 3.33345 315.537 4.48438 315.587 5.67028C315.654 6.90406 315.482 8.1392 315.079 9.30742C314.684 10.4732 314.057 11.5469 313.236 12.4641C312.452 13.3656 311.427 14.0247 310.282 14.3641C309.901 14.5045 309.498 14.5726 309.093 14.565C308.876 14.5324 308.764 14.4483 308.764 14.3126C308.779 14.1429 308.851 13.9833 308.968 13.8593C309.093 13.6979 309.247 13.5608 309.421 13.4548C309.877 13.0987 310.262 12.6616 310.559 12.1656C310.879 11.6444 311.172 11.164 311.444 10.727C311.993 9.702 312.28 8.55673 312.277 7.39385C312.306 6.21467 312.082 5.043 311.62 3.95756C311.202 2.95918 310.488 2.11314 309.573 1.5337C308.668 0.961893 307.557 0.844277 306.239 1.18085C305.179 1.67925 304.259 2.43391 303.563 3.3767C302.892 4.29804 302.396 5.3337 302.096 6.43299C301.793 7.55995 301.674 8.72865 301.744 9.8937C301.802 11.0673 302.04 12.225 302.447 13.3273Z" fill="#BC9A63"/>
<path d="M310.632 38.125C310.733 38.9013 311.005 39.4152 311.447 39.6667C311.916 39.9233 312.457 40.0186 312.986 39.9381C313.607 39.864 314.212 39.6937 314.78 39.4333C315.307 39.2043 315.814 38.9319 316.295 38.619C317.327 37.9772 318.284 37.2225 319.149 36.3688C320.11 35.4442 321.015 34.5014 321.863 33.5406C322.712 32.5797 323.47 31.6749 324.136 30.8263C324.809 29.9848 325.352 29.3452 325.765 28.9073C325.998 28.6358 326.158 28.5788 326.243 28.7308C326.33 28.9301 326.339 29.1546 326.27 29.3606C326.02 30.0185 325.68 30.6387 325.26 31.2036C324.695 32.0021 324.088 32.7695 323.441 33.5026C322.731 34.3114 321.965 35.1366 321.141 35.978C320.318 36.8194 319.503 37.5939 318.698 38.3014C317.889 39.0071 317.14 39.6296 316.45 40.1688C315.918 40.6011 315.351 40.9896 314.756 41.3306C314.066 41.7217 313.328 42.0193 312.56 42.2154C311.769 42.4295 310.951 42.521 310.133 42.4868C309.356 42.4572 308.596 42.2501 307.912 41.8816C307.191 41.4813 306.616 40.8626 306.269 40.1146C305.932 39.4031 305.751 38.6273 305.74 37.84C305.723 37.0247 305.808 36.2105 305.992 35.4161C306.176 34.6129 306.429 33.8273 306.75 33.0683C307.058 32.3356 307.403 31.619 307.784 30.9213C308.725 29.0853 309.922 27.3919 311.338 25.8917C312.772 24.3965 314.404 23.1051 316.189 22.0537C317.055 21.4865 317.977 21.0125 318.942 20.6396C319.897 20.27 320.887 19.9972 321.896 19.8253C322.578 19.6893 323.276 19.6554 323.968 19.7248C324.313 19.7454 324.647 19.8537 324.939 20.0394C325.23 20.2251 325.47 20.4821 325.634 20.7861C325.93 21.2247 326.072 21.7486 326.039 22.2763C326.004 22.8048 325.885 23.3243 325.686 23.8153C325.485 24.3174 325.223 24.7925 324.904 25.2294C324.608 25.6479 324.278 26.0418 323.919 26.4074C323.107 27.2856 322.181 28.0507 321.166 28.682C320.168 29.3056 319.129 29.8624 318.057 30.3486C317.484 30.5847 316.922 30.7937 316.366 30.9783C315.809 31.1628 315.228 31.342 314.623 31.5211C314.222 31.5963 313.817 31.6471 313.409 31.6731C313.211 31.6736 313.016 31.714 312.834 31.7919C312.652 31.8698 312.488 31.9836 312.351 32.1264C312.04 32.4705 311.822 32.8881 311.718 33.3397C311.592 33.8033 311.431 34.257 311.237 34.6968C310.996 35.2392 310.814 35.8062 310.695 36.3878C310.581 36.9599 310.56 37.5463 310.632 38.125ZM313.108 30.5494C314.262 30.4928 315.375 30.1077 316.317 29.4393C317.275 28.7681 318.194 28.0431 319.07 27.2678C319.508 26.899 319.922 26.5018 320.308 26.079C320.692 25.6638 321.039 25.2161 321.345 24.7408C321.546 24.3717 321.782 23.9076 322.051 23.3538C322.297 22.8965 322.42 22.3829 322.406 21.8637C322.371 21.4918 322.254 21.2747 322.051 21.2068C321.797 21.1426 321.529 21.1695 321.293 21.2828C320.944 21.4231 320.613 21.6054 320.308 21.8257C319.966 22.0701 319.637 22.3319 319.322 22.6101C319.021 22.8816 318.75 23.1394 318.508 23.3918C318.266 23.6443 318.12 23.8044 318.052 23.8723C317.085 24.8705 316.198 25.9432 315.399 27.0806C314.614 28.2151 313.85 29.3714 313.108 30.5494Z" fill="#BC9A63"/>
<path d="M340.479 29.2357C340.583 29.4718 340.463 29.86 340.126 30.3974C339.453 31.342 338.847 32.1762 338.307 32.9C337.765 33.622 337.246 34.306 336.741 34.9438C336.236 35.5817 335.723 36.225 335.202 36.8628C334.68 37.5007 334.064 38.22 333.358 39.0343C332.954 39.4387 332.473 39.8784 331.917 40.348C331.368 40.8156 330.776 41.2301 330.149 41.5857C329.554 41.9282 328.905 42.1677 328.23 42.2941C327.588 42.414 326.925 42.3345 326.329 42.0661C325.973 41.9127 325.651 41.6896 325.382 41.4099C325.113 41.1302 324.902 40.7996 324.763 40.4375C324.524 39.7137 324.456 38.9447 324.562 38.1901C324.668 37.3636 324.889 36.5559 325.219 35.7907C325.556 34.9999 325.875 34.3186 326.177 33.7468C326.613 32.9089 327.138 32.1207 327.744 31.3963C328.35 30.6725 328.984 29.9658 329.644 29.2764C330.305 28.587 330.953 27.8966 331.588 27.2054C332.235 26.5074 332.843 25.7734 333.407 25.0068C332.971 24.9412 332.526 24.9504 332.093 25.034C331.669 25.119 331.229 25.0746 330.831 24.9064C330.521 24.8266 330.217 24.7259 329.921 24.6051C329.685 24.502 329.4 24.5861 329.063 24.8575C328.086 26.3721 327.118 27.9545 326.158 29.6048C325.199 31.2551 324.175 32.8584 323.085 34.4145C322.005 35.9631 320.815 37.4317 319.523 38.809C318.251 40.1663 316.788 41.3311 315.179 42.267C314.742 42.3348 314.471 42.2263 314.365 41.9385C314.316 41.7903 314.304 41.6323 314.331 41.4785C314.357 41.3247 314.421 41.1797 314.517 41.0564C316.386 39.8579 318.093 38.4229 319.594 36.7868C321.1 35.1455 322.476 33.3895 323.71 31.5347C324.963 29.6582 326.12 27.7195 327.177 25.7261C328.239 23.723 329.291 21.7614 330.334 19.8415C330.503 19.7746 330.689 19.766 330.863 19.8171C331.06 19.8732 331.248 19.9583 331.42 20.0695C331.604 20.189 331.781 20.3138 331.963 20.4495C332.102 20.5664 332.254 20.6675 332.416 20.7508C332.831 20.9472 333.275 21.0755 333.73 21.1308C334.167 21.181 334.609 21.1728 335.044 21.1064C335.622 21.0024 336.189 20.8415 336.736 20.626C337.263 20.4144 337.815 20.2703 338.378 20.1971C338.783 20.1618 339.043 20.2215 339.16 20.3735C339.218 20.4501 339.257 20.539 339.274 20.6332C339.292 20.7274 339.287 20.8243 339.26 20.9164C339.199 21.1672 339.097 21.4064 338.959 21.6248C338.807 21.8773 338.663 22.1053 338.53 22.3061C337.348 23.7881 336.245 25.3036 335.221 26.8525C334.196 28.4015 333.207 30.0047 332.253 31.6623C331.984 32.0676 331.712 32.4883 331.439 32.9244C331.167 33.3614 330.918 33.8093 330.681 34.2625C330.453 34.7059 330.271 35.1716 330.138 35.6523C330.002 36.1271 329.95 36.6224 329.986 37.1153C329.997 37.5102 330.064 37.9015 330.187 38.277C330.323 38.7167 330.592 38.9013 331.002 38.8334C331.575 38.733 332.204 38.372 332.902 37.7477C333.667 37.0468 334.384 36.2961 335.05 35.5003C335.812 34.5941 336.527 33.6502 337.194 32.672C337.886 31.6623 338.519 30.753 339.095 29.9441C339.264 29.6649 339.455 29.399 339.665 29.1488C339.877 28.9064 340.148 28.9353 340.479 29.2357Z" fill="#BC9A63"/>
<path d="M343.316 20.3464C343.821 20.2813 344.334 20.2297 344.858 20.1971L346.349 20.094C346.65 20.0614 347.055 20.018 347.56 19.9691C348.065 19.9203 348.401 20.0451 348.572 20.3464C348.638 20.5083 348.638 20.6894 348.572 20.8513C348.502 21.0595 348.418 21.2626 348.32 21.4593C348.217 21.6601 348.108 21.8637 347.991 22.0646C347.892 22.2215 347.816 22.3914 347.763 22.5694C347.22 23.751 346.631 24.8965 345.996 26.0057C345.361 27.115 344.712 28.226 344.049 29.3389C343.392 30.4499 342.753 31.5691 342.13 32.6964C341.509 33.8148 340.957 34.9706 340.479 36.1571C340.338 36.539 340.246 36.9378 340.208 37.3433C340.156 37.7721 340.164 38.2061 340.232 38.6326C340.286 39.0073 340.464 39.3532 340.737 39.6151C341.009 39.8676 341.411 39.9436 341.951 39.8431C342.761 39.658 343.521 39.2955 344.174 38.7818C344.851 38.2717 345.476 37.6972 346.042 37.0664C347.321 35.5475 348.455 33.9117 349.428 32.1807C350.399 30.4581 351.227 28.6589 351.904 26.801C352.275 25.8533 352.587 24.8833 352.837 23.8967C353.089 22.9149 353.132 21.8915 352.965 20.892C352.898 20.5516 352.88 20.2032 352.913 19.8578C352.961 19.5056 353.12 19.1776 353.367 18.9214C353.668 18.6339 354.031 18.4186 354.428 18.2917C354.822 18.1587 355.249 18.1673 355.637 18.316C356.024 18.4647 356.348 18.7441 356.551 19.106C356.724 19.4773 356.81 19.8828 356.804 20.2921C356.803 20.7331 356.76 21.173 356.676 21.6058C356.592 22.0428 356.5 22.4201 356.405 22.7676C356.133 23.7103 355.822 24.6278 355.471 25.5199C355.108 26.4264 354.695 27.3118 354.233 28.1717C353.34 29.9475 352.273 31.6305 351.048 33.1959C349.794 34.8009 348.533 36.3263 347.267 37.7721C346.664 38.4025 346.03 39.0013 345.366 39.5663C344.638 40.1911 343.861 40.7565 343.042 41.2573C342.247 41.7495 341.388 42.1321 340.49 42.3946C339.653 42.6454 338.764 42.6716 337.914 42.4706C336.828 42.2335 336.112 41.7287 335.766 40.956C335.407 40.1384 335.269 39.2409 335.365 38.353C335.456 37.3603 335.676 36.3839 336.022 35.4487C336.312 34.6106 336.675 33.7996 337.107 33.0248C338.183 30.9385 339.294 28.8675 340.441 26.8119C341.59 24.7465 342.552 22.5828 343.316 20.3464Z" fill="#BC9A63"/>
<path d="M365.242 21.3588C364.777 22.6217 364.213 23.8461 363.556 25.0204C362.931 26.1061 362.282 27.1746 361.609 28.226C361.338 28.6657 361.066 29.1027 360.776 29.5397C360.485 29.9767 360.211 30.4327 359.942 30.8968C359.47 31.7419 358.965 32.5842 358.427 33.4238C357.89 34.2635 357.385 35.0886 356.912 35.8993C356.714 36.1736 356.533 36.4601 356.37 36.757C356.182 37.0976 356.023 37.4524 355.892 37.8183C355.759 38.1743 355.682 38.5488 355.664 38.9284C355.645 39.3014 355.74 39.6714 355.935 39.9897C356.072 40.2118 356.289 40.3737 356.541 40.443C356.946 40.5787 357.443 40.4945 358.031 40.1905C358.7 39.8337 359.32 39.3932 359.877 38.8795C360.562 38.26 361.211 37.6021 361.821 36.909C362.478 36.1671 363.092 35.4261 363.664 34.686C364.236 33.9459 364.733 33.2393 365.155 32.5661C365.5 32.0295 365.812 31.472 366.089 30.8968H366.04L366.241 30.544L366.746 29.8383C366.914 29.6021 367.031 29.6347 367.101 29.9387C367.138 30.0525 367.147 30.1737 367.126 30.2915C367.098 30.4811 367.038 30.6647 366.949 30.8344V30.7828C366.665 31.1752 366.412 31.589 366.192 32.0205C365.955 32.4765 365.719 32.9063 365.483 33.3098C364.81 34.5204 364.086 35.6966 363.311 36.8384C362.57 37.943 361.706 38.9601 360.735 39.8703C359.819 40.7258 358.78 41.4403 357.654 41.9901C356.502 42.5403 355.24 42.8189 353.964 42.8044C353.498 42.8059 353.036 42.7136 352.607 42.533C352.134 42.3106 351.757 41.9251 351.545 41.4473C351.198 40.8685 351.023 40.2029 351.04 39.5283C351.046 38.7258 351.191 37.9303 351.469 37.1777C351.757 36.3878 352.034 35.6875 352.303 35.0823C352.875 33.9043 353.473 32.7932 354.097 31.7491C354.722 30.705 355.37 29.6944 356.041 28.7173C356.513 27.9446 356.985 27.1538 357.455 26.345L358.87 23.9211C359.078 23.5822 359.239 23.2171 359.35 22.8354C359.435 22.5151 359.527 22.1867 359.622 21.8501C359.621 21.7815 359.629 21.713 359.646 21.6465C359.663 21.5808 359.671 21.5134 359.671 21.4457C359.743 21.2648 359.802 21.0788 359.847 20.8893C359.882 20.7207 359.961 20.5643 360.075 20.436C360.542 20.247 361.038 20.1441 361.541 20.132C362.147 20.0994 362.652 20.0804 363.056 20.0804C363.36 20.0804 363.705 20.0804 364.091 20.1075C364.454 20.126 364.819 20.1005 365.177 20.0315V20.132L365.228 20.2324C365.263 20.4119 365.288 20.5931 365.304 20.7753C365.324 20.972 365.303 21.1707 365.242 21.3588ZM364.536 13.1753C364.541 12.7406 364.633 12.3113 364.807 11.9131C364.988 11.4818 365.235 11.0816 365.54 10.727C365.831 10.3809 366.181 10.0896 366.575 9.86655C366.938 9.65647 367.343 9.52774 367.761 9.48926C368.133 9.44291 368.509 9.50415 368.847 9.66569C369.125 9.8078 369.348 10.0391 369.48 10.3225C369.616 10.6232 369.685 10.9504 369.681 11.2807C369.68 11.6359 369.612 11.9878 369.48 12.3175C369.168 13.0115 368.68 13.6122 368.065 14.0601C367.514 14.5342 366.82 14.8095 366.094 14.8418C365.912 14.8426 365.731 14.8073 365.562 14.7379C365.394 14.6684 365.24 14.5663 365.111 14.4374C364.788 14.0899 364.586 13.6471 364.536 13.1753Z" fill="#BC9A63"/>
<path d="M382.62 29.6917C381.642 31.0054 380.623 32.3273 379.563 33.6573C378.502 34.9857 377.355 36.2424 376.128 37.4193C374.91 38.5876 373.582 39.6357 372.162 40.5488C370.75 41.4558 369.197 42.1209 367.566 42.5167C367.152 42.5502 366.737 42.5338 366.328 42.4678C365.027 42.2388 363.857 41.5369 363.043 40.4973C362.592 39.8332 362.306 39.0711 362.209 38.2743C362.109 37.441 362.143 36.597 362.31 35.7744C362.473 34.9408 362.71 34.1233 363.018 33.3316C363.772 31.4885 364.729 29.7351 365.872 28.1038C367.011 26.461 368.362 24.9752 369.89 23.685C370.68 22.9968 371.515 22.3621 372.39 21.785C373.282 21.1956 374.24 20.712 375.243 20.3437C375.679 20.2098 376.184 20.0668 376.758 19.9148C377.338 19.7616 377.93 19.6607 378.528 19.6136C379.109 19.5616 379.693 19.5698 380.271 19.638C380.792 19.6961 381.297 19.8497 381.762 20.0913C381.978 20.1988 382.168 20.3514 382.32 20.5386C382.473 20.7259 382.583 20.9436 382.644 21.177C382.728 21.6079 382.693 22.0536 382.544 22.4663C382.376 22.9327 382.147 23.3746 381.862 23.78C381.558 24.217 381.289 24.5943 381.048 24.8901L380.795 25.2701C380.692 25.424 380.573 25.5676 380.442 25.699C380.312 25.8303 380.157 25.9337 379.986 26.003C379.915 26.0357 379.838 26.0526 379.759 26.0526C379.681 26.0526 379.604 26.0357 379.533 26.003C379.412 25.9088 379.319 25.7827 379.265 25.639C379.212 25.4952 379.199 25.3393 379.229 25.1887C379.261 24.8168 379.28 24.5481 379.28 24.3744C379.28 24.103 379.261 23.7936 379.229 23.4407C379.199 23.1057 379.132 22.7752 379.028 22.4554C378.93 22.1568 378.776 21.8801 378.572 21.6411C378.464 21.5226 378.331 21.4295 378.182 21.3685C378.034 21.3075 377.874 21.2801 377.714 21.2883C377.238 21.2899 376.773 21.4304 376.375 21.6927C375.936 21.9762 375.529 22.3065 375.162 22.678C374.772 23.0655 374.409 23.479 374.076 23.9157L373.218 25.0258C372.454 25.9518 371.745 26.9216 371.095 27.9301C370.454 28.9236 369.848 29.9423 369.276 30.9864C368.804 31.8604 368.316 32.786 367.813 33.7631C367.322 34.6913 367.013 35.7047 366.903 36.7488C366.861 37.1538 366.9 37.563 367.016 37.953C367.133 38.3429 367.327 38.7058 367.585 39.0207C368.106 39.6613 368.822 39.9137 369.732 39.778C370.974 39.3415 372.16 38.7564 373.261 38.0354C374.375 37.3136 375.423 36.4963 376.394 35.5926C377.379 34.6831 378.302 33.7093 379.158 32.6774C380.018 31.6315 380.818 30.5702 381.558 29.4936C381.621 29.3283 381.697 29.1685 381.786 29.0158C381.908 28.7892 382.043 28.5699 382.191 28.359C382.332 28.1507 382.493 27.9562 382.671 27.7781C382.73 27.7028 382.808 27.6442 382.896 27.6085C382.985 27.5727 383.081 27.561 383.176 27.5746C383.448 27.5746 383.578 27.6777 383.578 27.8786C383.568 28.1111 383.499 28.3373 383.377 28.5354C383.237 28.7783 383.085 29.0139 382.921 29.2411C382.811 29.3851 382.711 29.5355 382.62 29.6917Z" fill="#BC9A63"/>
<path d="M382.267 38.125C382.366 38.9013 382.638 39.4152 383.081 39.6667C383.551 39.9238 384.093 40.0192 384.623 39.9381C385.243 39.8645 385.848 39.6942 386.415 39.4333C386.943 39.2049 387.45 38.9325 387.933 38.619C388.964 37.9765 389.921 37.2218 390.786 36.3688C391.743 35.4442 392.648 34.5014 393.501 33.5406C394.353 32.5797 395.112 31.6749 395.776 30.8263C396.449 29.9848 396.988 29.3452 397.391 28.9073C397.627 28.6358 397.788 28.5788 397.872 28.7308C397.959 28.9302 397.968 29.1551 397.896 29.3606C397.646 30.0185 397.306 30.6387 396.886 31.2036C396.323 32.0027 395.715 32.7702 395.067 33.5026C394.361 34.3168 393.593 35.1311 392.77 35.978C391.948 36.8248 391.142 37.593 390.327 38.3014C389.513 39.0098 388.769 39.6314 388.079 40.1688C387.541 40.6141 386.966 41.0136 386.361 41.3631C385.67 41.7542 384.931 42.0517 384.162 42.248C383.372 42.4619 382.554 42.5534 381.737 42.5194C380.96 42.49 380.199 42.283 379.514 41.9141C378.798 41.5119 378.227 40.8934 377.885 40.1471C377.544 39.4362 377.359 38.6607 377.342 37.8726C377.326 37.0573 377.411 36.2433 377.594 35.4487C377.78 34.6461 378.034 33.8607 378.352 33.1008C378.66 32.3676 379.006 31.651 379.389 30.9538C380.335 29.104 381.542 27.3992 382.973 25.8917C384.405 24.3965 386.037 23.1051 387.821 22.0537C388.688 21.487 389.611 21.013 390.577 20.6396C391.532 20.27 392.521 19.9972 393.531 19.8253C394.212 19.6893 394.91 19.6554 395.602 19.7248C395.947 19.7459 396.281 19.8544 396.573 20.0401C396.864 20.2257 397.104 20.4824 397.269 20.7861C397.563 21.2252 397.705 21.7487 397.674 22.2763C397.637 22.8046 397.518 23.3239 397.321 23.8153C397.119 24.3175 396.856 24.7926 396.536 25.2294C396.239 25.6422 395.909 26.0307 395.55 26.3911C394.74 27.2706 393.814 28.0358 392.798 28.6657C391.8 29.2893 390.763 29.8461 389.692 30.3323C389.12 30.5693 388.556 30.7792 388 30.962C387.445 31.1447 386.864 31.3257 386.257 31.5048C385.856 31.5797 385.451 31.6304 385.044 31.6568C384.846 31.6576 384.65 31.6981 384.467 31.7759C384.285 31.8538 384.12 31.9674 383.982 32.1101C383.672 32.4542 383.456 32.8719 383.353 33.3234C383.226 33.7871 383.066 34.2407 382.872 34.6806C382.632 35.2234 382.45 35.7903 382.329 36.3716C382.216 36.949 382.194 37.5409 382.267 38.125ZM384.732 30.5494C385.885 30.4919 386.998 30.1068 387.941 29.4393C388.898 28.7668 389.817 28.0418 390.694 27.2678C391.13 26.8975 391.544 26.5005 391.932 26.079C392.315 25.6638 392.661 25.216 392.966 24.7408C393.17 24.3717 393.403 23.9076 393.675 23.3538C393.92 22.8965 394.042 22.3827 394.027 21.8637C393.995 21.4918 393.875 21.2747 393.675 21.2068C393.421 21.1424 393.153 21.1693 392.917 21.2828C392.567 21.4219 392.236 21.6043 391.932 21.8257C391.59 22.0701 391.261 22.3319 390.946 22.6101C390.642 22.8816 390.373 23.1394 390.132 23.3918C389.89 23.6443 389.746 23.8044 389.678 23.8723C388.71 24.8698 387.824 25.9426 387.026 27.0806C386.242 28.2151 385.477 29.3714 384.732 30.5494Z" fill="#BC9A63"/>
</g>
<defs>
<clipPath id="navbar-luhs-cleaning-service">
<rect width="398" height="57" fill="white"/>
</clipPath>
</defs>
</svg>
