<svg width="276" height="275" viewBox="0 0 276 275" fill="none" xmlns="http://www.w3.org/2000/svg">
<g clip-path="url(#clip0_41_5)">
<path d="M240.234 0H35.2344C15.9044 0 0.234375 15.67 0.234375 35V240C0.234375 259.33 15.9044 275 35.2344 275H240.234C259.564 275 275.234 259.33 275.234 240V35C275.234 15.67 259.564 0 240.234 0Z" fill="#D9D9D9"/>
<path d="M121.564 22H110.234V33.33H121.564V22Z" fill="#363232"/>
<path d="M132.564 22H121.234V33.33H132.564V22Z" fill="#363232"/>
<path d="M143.564 22H132.234V33.33H143.564V22Z" fill="#363232"/>
<path d="M154.564 22H143.234V33.33H154.564V22Z" fill="#363232"/>
<path d="M121.564 33H110.234V44.33H121.564V33Z" fill="#363232"/>
<path d="M165.564 33H154.234V44.33H165.564V33Z" fill="#363232"/>
<path d="M121.564 44H110.234V55.33H121.564V44Z" fill="#363232"/>
<path d="M132.564 44H121.234V55.33H132.564V44Z" fill="#363232"/>
<path d="M165.564 44H154.234V55.33H165.564V44Z" fill="#363232"/>
<path d="M143.564 55H132.234V66.33H143.564V55Z" fill="#363232"/>
<path d="M165.564 55H154.234V66.33H165.564V55Z" fill="#363232"/>
<path d="M132.564 66H121.234V77.33H132.564V66Z" fill="#363232"/>
<path d="M143.564 66H132.234V77.33H143.564V66Z" fill="#363232"/>
<path d="M154.564 66H143.234V77.33H154.564V66Z" fill="#363232"/>
<path d="M165.564 66H154.234V77.33H165.564V66Z" fill="#363232"/>
<path d="M121.564 77H110.234V88.33H121.564V77Z" fill="#363232"/>
<path d="M143.564 77H132.234V88.33H143.564V77Z" fill="#363232"/>
<path d="M121.564 88H110.234V99.33H121.564V88Z" fill="#363232"/>
<path d="M143.564 88H132.234V99.33H143.564V88Z" fill="#363232"/>
<path d="M165.564 88H154.234V99.33H165.564V88Z" fill="#363232"/>
<path d="M121.564 99H110.234V110.33H121.564V99Z" fill="#363232"/>
<path d="M132.564 99H121.234V110.33H132.564V99Z" fill="#363232"/>
<path d="M143.564 99H132.234V110.33H143.564V99Z" fill="#363232"/>
<path d="M165.564 99H154.234V110.33H165.564V99Z" fill="#363232"/>
<path d="M55.5644 110H44.2344V121.33H55.5644V110Z" fill="#363232"/>
<path d="M66.5644 110H55.2344V121.33H66.5644V110Z" fill="#363232"/>
<path d="M77.5644 110H66.2344V121.33H77.5644V110Z" fill="#363232"/>
<path d="M99.5644 110H88.2344V121.33H99.5644V110Z" fill="#363232"/>
<path d="M121.564 110H110.234V121.33H121.564V110Z" fill="#363232"/>
<path d="M132.564 110H121.234V121.33H132.564V110Z" fill="#363232"/>
<path d="M154.564 110H143.234V121.33H154.564V110Z" fill="#363232"/>
<path d="M176.564 110H165.234V121.33H176.564V110Z" fill="#363232"/>
<path d="M187.564 110H176.234V121.33H187.564V110Z" fill="#363232"/>
<path d="M198.564 110H187.234V121.33H198.564V110Z" fill="#363232"/>
<path d="M231.564 110H220.234V121.33H231.564V110Z" fill="#363232"/>
<path d="M242.564 110H231.234V121.33H242.564V110Z" fill="#363232"/>
<path d="M253.564 110H242.234V121.33H253.564V110Z" fill="#363232"/>
<path d="M55.5644 121H44.2344V132.33H55.5644V121Z" fill="#363232"/>
<path d="M66.5644 121H55.2344V132.33H66.5644V121Z" fill="#363232"/>
<path d="M77.5644 121H66.2344V132.33H77.5644V121Z" fill="#363232"/>
<path d="M110.564 121H99.2344V132.33H110.564V121Z" fill="#363232"/>
<path d="M132.564 121H121.234V132.33H132.564V121Z" fill="#363232"/>
<path d="M143.564 121H132.234V132.33H143.564V121Z" fill="#363232"/>
<path d="M154.564 121H143.234V132.33H154.564V121Z" fill="#363232"/>
<path d="M176.564 121H165.234V132.33H176.564V121Z" fill="#363232"/>
<path d="M198.564 121H187.234V132.33H198.564V121Z" fill="#363232"/>
<path d="M220.564 121H209.234V132.33H220.564V121Z" fill="#363232"/>
<path d="M253.564 121H242.234V132.33H253.564V121Z" fill="#363232"/>
<path d="M33.5644 132H22.2344V143.33H33.5644V132Z" fill="#363232"/>
<path d="M44.5644 132H33.2344V143.33H44.5644V132Z" fill="#363232"/>
<path d="M88.5644 132H77.2344V143.33H88.5644V132Z" fill="#363232"/>
<path d="M99.5644 132H88.2344V143.33H99.5644V132Z" fill="#363232"/>
<path d="M110.564 132H99.2344V143.33H110.564V132Z" fill="#363232"/>
<path d="M165.564 132H154.234V143.33H165.564V132Z" fill="#363232"/>
<path d="M176.564 132H165.234V143.33H176.564V132Z" fill="#363232"/>
<path d="M198.564 132H187.234V143.33H198.564V132Z" fill="#363232"/>
<path d="M231.564 132H220.234V143.33H231.564V132Z" fill="#363232"/>
<path d="M242.564 132H231.234V143.33H242.564V132Z" fill="#363232"/>
<path d="M44.5644 143H33.2344V154.33H44.5644V143Z" fill="#363232"/>
<path d="M88.5644 143H77.2344V154.33H88.5644V143Z" fill="#363232"/>
<path d="M121.564 143H110.234V154.33H121.564V143Z" fill="#363232"/>
<path d="M132.564 143H121.234V154.33H132.564V143Z" fill="#363232"/>
<path d="M143.564 143H132.234V154.33H143.564V143Z" fill="#363232"/>
<path d="M154.564 143H143.234V154.33H154.564V143Z" fill="#363232"/>
<path d="M176.564 143H165.234V154.33H176.564V143Z" fill="#363232"/>
<path d="M187.564 143H176.234V154.33H187.564V143Z" fill="#363232"/>
<path d="M198.564 143H187.234V154.33H198.564V143Z" fill="#363232"/>
<path d="M209.564 143H198.234V154.33H209.564V143Z" fill="#363232"/>
<path d="M220.564 143H209.234V154.33H220.564V143Z" fill="#363232"/>
<path d="M231.564 143H220.234V154.33H231.564V143Z" fill="#363232"/>
<path d="M242.564 143H231.234V154.33H242.564V143Z" fill="#363232"/>
<path d="M44.5644 154H33.2344V165.33H44.5644V154Z" fill="#363232"/>
<path d="M55.5644 154H44.2344V165.33H55.5644V154Z" fill="#363232"/>
<path d="M66.5644 154H55.2344V165.33H66.5644V154Z" fill="#363232"/>
<path d="M88.5644 154H77.2344V165.33H88.5644V154Z" fill="#363232"/>
<path d="M99.5644 154H88.2344V165.33H99.5644V154Z" fill="#363232"/>
<path d="M132.564 154H121.234V165.33H132.564V154Z" fill="#363232"/>
<path d="M165.564 154H154.234V165.33H165.564V154Z" fill="#363232"/>
<path d="M176.564 154H165.234V165.33H176.564V154Z" fill="#363232"/>
<path d="M187.564 154H176.234V165.33H187.564V154Z" fill="#363232"/>
<path d="M198.564 154H187.234V165.33H198.564V154Z" fill="#363232"/>
<path d="M209.564 154H198.234V165.33H209.564V154Z" fill="#363232"/>
<path d="M121.564 165H110.234V176.33H121.564V165Z" fill="#363232"/>
<path d="M132.564 165H121.234V176.33H132.564V165Z" fill="#363232"/>
<path d="M143.564 165H132.234V176.33H143.564V165Z" fill="#363232"/>
<path d="M154.564 165H143.234V176.33H154.564V165Z" fill="#363232"/>
<path d="M165.564 165H154.234V176.33H165.564V165Z" fill="#363232"/>
<path d="M176.564 165H165.234V176.33H176.564V165Z" fill="#363232"/>
<path d="M187.564 165H176.234V176.33H187.564V165Z" fill="#363232"/>
<path d="M198.564 165H187.234V176.33H198.564V165Z" fill="#363232"/>
<path d="M220.564 165H209.234V176.33H220.564V165Z" fill="#363232"/>
<path d="M231.564 165H220.234V176.33H231.564V165Z" fill="#363232"/>
<path d="M253.564 165H242.234V176.33H253.564V165Z" fill="#363232"/>
<path d="M143.564 176H132.234V187.33H143.564V176Z" fill="#363232"/>
<path d="M154.564 176H143.234V187.33H154.564V176Z" fill="#363232"/>
<path d="M176.564 176H165.234V187.33H176.564V176Z" fill="#363232"/>
<path d="M198.564 176H187.234V187.33H198.564V176Z" fill="#363232"/>
<path d="M242.564 176H231.234V187.33H242.564V176Z" fill="#363232"/>
<path d="M132.564 187H121.234V198.33H132.564V187Z" fill="#363232"/>
<path d="M143.564 187H132.234V198.33H143.564V187Z" fill="#363232"/>
<path d="M154.564 187H143.234V198.33H154.564V187Z" fill="#363232"/>
<path d="M165.564 187H154.234V198.33H165.564V187Z" fill="#363232"/>
<path d="M220.564 187H209.234V198.33H220.564V187Z" fill="#363232"/>
<path d="M231.564 187H220.234V198.33H231.564V187Z" fill="#363232"/>
<path d="M242.564 187H231.234V198.33H242.564V187Z" fill="#363232"/>
<path d="M253.564 187H242.234V198.33H253.564V187Z" fill="#363232"/>
<path d="M121.564 198H110.234V209.33H121.564V198Z" fill="#363232"/>
<path d="M132.564 198H121.234V209.33H132.564V198Z" fill="#363232"/>
<path d="M154.564 198H143.234V209.33H154.564V198Z" fill="#363232"/>
<path d="M165.564 198H154.234V209.33H165.564V198Z" fill="#363232"/>
<path d="M242.564 198H231.234V209.33H242.564V198Z" fill="#363232"/>
<path d="M121.564 209H110.234V220.33H121.564V209Z" fill="#363232"/>
<path d="M143.564 209H132.234V220.33H143.564V209Z" fill="#363232"/>
<path d="M176.564 209H165.234V220.33H176.564V209Z" fill="#363232"/>
<path d="M187.564 209H176.234V220.33H187.564V209Z" fill="#363232"/>
<path d="M198.564 209H187.234V220.33H198.564V209Z" fill="#363232"/>
<path d="M209.564 209H198.234V220.33H209.564V209Z" fill="#363232"/>
<path d="M231.564 209H220.234V220.33H231.564V209Z" fill="#363232"/>
<path d="M121.564 220H110.234V231.33H121.564V220Z" fill="#363232"/>
<path d="M143.564 220H132.234V231.33H143.564V220Z" fill="#363232"/>
<path d="M154.564 220H143.234V231.33H154.564V220Z" fill="#363232"/>
<path d="M176.564 220H165.234V231.33H176.564V220Z" fill="#363232"/>
<path d="M187.564 220H176.234V231.33H187.564V220Z" fill="#363232"/>
<path d="M220.564 220H209.234V231.33H220.564V220Z" fill="#363232"/>
<path d="M231.564 220H220.234V231.33H231.564V220Z" fill="#363232"/>
<path d="M132.564 231H121.234V242.33H132.564V231Z" fill="#363232"/>
<path d="M154.564 231H143.234V242.33H154.564V231Z" fill="#363232"/>
<path d="M176.564 231H165.234V242.33H176.564V231Z" fill="#363232"/>
<path d="M209.564 231H198.234V242.33H209.564V231Z" fill="#363232"/>
<path d="M220.564 231H209.234V242.33H220.564V231Z" fill="#363232"/>
<path d="M231.564 231H220.234V242.33H231.564V231Z" fill="#363232"/>
<path d="M132.564 242H121.234V253.33H132.564V242Z" fill="#363232"/>
<path d="M143.564 242H132.234V253.33H143.564V242Z" fill="#363232"/>
<path d="M165.564 242H154.234V253.33H165.564V242Z" fill="#363232"/>
<path d="M176.564 242H165.234V253.33H176.564V242Z" fill="#363232"/>
<path d="M198.564 242H187.234V253.33H198.564V242Z" fill="#363232"/>
<path d="M242.564 242H231.234V253.33H242.564V242Z" fill="#363232"/>
<path d="M22.2344 22V99H99.2344V22H22.2344ZM88.2344 88H33.2344V33H88.2344V88Z" fill="#363232"/>
<path d="M176.234 22V99H253.234V22H176.234ZM242.234 88H187.234V33H242.234V88Z" fill="#363232"/>
<path d="M22.2344 176V253H99.2344V176H22.2344ZM88.2344 242H33.2344V187H88.2344V242Z" fill="#363232"/>
<path d="M77.2344 44H44.2344V77H77.2344V44Z" fill="#363232"/>
<path d="M231.234 44H198.234V77H231.234V44Z" fill="#363232"/>
<path d="M77.2344 198H44.2344V231H77.2344V198Z" fill="#363232"/>
<g clip-path="url(#clip1_41_5)">
<path d="M282 -7H-6V281H282V-7Z" fill="#D9D9D9"/>
<path d="M22.0977 84.3172H29.122H36.1464V77.2928H43.1708V84.3172H50.1952V91.3416V98.366H57.2196V91.3416V84.3172V77.2928H64.244H71.2684H78.2928H85.3172V70.2684H92.3416V63.244H99.366V70.2684H106.39V63.244H113.415V70.2684V77.2928H106.39V84.3172V91.3416H113.415V98.366H106.39V105.39H99.366V98.366V91.3416V84.3172V77.2928H92.3416V84.3172V91.3416H85.3172V84.3172H78.2928H71.2684H64.244V91.3416H71.2684H78.2928H85.3172V98.366H78.2928H71.2684H64.244V105.39H57.2196H50.1952V112.415V119.439H57.2196V126.464H50.1952H43.1708H36.1464H29.122V119.439V112.415H22.0977V105.39H29.122V98.366H36.1464H43.1708V91.3416H36.1464H29.122H22.0977V84.3172ZM22.0977 140.512H29.122H36.1464H43.1708H50.1952V147.537H43.1708H36.1464V154.561V161.585H29.122V154.561V147.537H22.0977V140.512ZM22.0977 161.585H29.122V168.61H22.0977V161.585ZM22.0977 175.634H29.122V168.61H36.1464V175.634V182.659H29.122H22.0977V175.634ZM22.0977 189.683H29.122H36.1464V182.659H43.1708V189.683V196.707H36.1464H29.122H22.0977V189.683ZM36.1464 105.39V112.415H43.1708V105.39H36.1464ZM36.1464 161.585H43.1708V168.61H36.1464V161.585ZM43.1708 168.61H50.1952V161.585V154.561V147.537H57.2196V154.561V161.585V168.61V175.634H64.244H71.2684V182.659H64.244V189.683H71.2684V182.659H78.2928V189.683H85.3172H92.3416V196.707V203.732V210.756H99.366V217.781H106.39V224.805H99.366V231.829H106.39V224.805H113.415V231.829V238.854H106.39V245.878H99.366V238.854H92.3416V231.829H85.3172V224.805H92.3416V217.781H85.3172H78.2928V210.756V203.732V196.707H71.2684H64.244H57.2196V189.683V182.659H50.1952H43.1708V175.634V168.61ZM57.2196 126.464H64.244V133.488H71.2684V140.512H64.244V147.537H57.2196V140.512V133.488V126.464ZM64.244 105.39H71.2684V112.415H64.244V105.39ZM64.244 119.439H71.2684V112.415H78.2928V105.39H85.3172V98.366H92.3416V105.39V112.415H99.366V119.439V126.464H106.39H113.415V133.488H120.439V140.512H113.415H106.39V147.537H99.366V140.512V133.488H92.3416V140.512H85.3172V147.537H92.3416H99.366V154.561V161.585H106.39H113.415V154.561V147.537H120.439V154.561H127.464V161.585H134.488V154.561H141.512H148.537V147.537H155.561V154.561V161.585V168.61H162.585H169.61V161.585H176.634V168.61H183.659V175.634H176.634V182.659H169.61V189.683H162.585H155.561H148.537V182.659H155.561V175.634H148.537V168.61V161.585H141.512V168.61H134.488V175.634H127.464V168.61H120.439V175.634H113.415V168.61H106.39V175.634H99.366V182.659V189.683H92.3416V182.659V175.634V168.61H85.3172V161.585H92.3416V154.561H85.3172V161.585H78.2928V168.61H71.2684H64.244V161.585H71.2684V154.561H78.2928V147.537H71.2684V140.512H78.2928V133.488H85.3172V126.464H92.3416V119.439H85.3172V126.464H78.2928V133.488H71.2684V126.464H64.244V119.439ZM64.244 147.537H71.2684V154.561H64.244V147.537ZM78.2928 28.122H85.3172V21.0977H92.3416V28.122H99.366V21.0977H106.39V28.122H113.415H120.439V35.1464H113.415V42.1708H106.39V35.1464H99.366V42.1708H92.3416V49.1952H85.3172V56.2196H92.3416V63.244H85.3172V70.2684H78.2928V63.244V56.2196V49.1952V42.1708V35.1464V28.122ZM78.2928 175.634H85.3172V182.659H78.2928V175.634ZM78.2928 231.829H85.3172V238.854H78.2928V231.829ZM85.3172 238.854H92.3416V245.878H99.366V252.903H92.3416H85.3172V245.878V238.854ZM92.3416 49.1952H99.366V56.2196H92.3416V49.1952ZM99.366 56.2196H106.39V63.244H99.366V56.2196ZM99.366 203.732H106.39H113.415H120.439V210.756H113.415V217.781H106.39V210.756H99.366V203.732ZM106.39 105.39H113.415H120.439H127.464V98.366H134.488V105.39V112.415H141.512V119.439H134.488V126.464V133.488H141.512V140.512H134.488H127.464V133.488H120.439V126.464H127.464V119.439V112.415H120.439H113.415V119.439H106.39V112.415V105.39ZM106.39 175.634H113.415V182.659V189.683V196.707H106.39V189.683V182.659V175.634ZM106.39 245.878H113.415H120.439V252.903H113.415H106.39V245.878ZM113.415 49.1952H120.439V56.2196H127.464V49.1952H120.439V42.1708V35.1464H127.464V28.122H134.488V21.0977H141.512V28.122V35.1464H134.488V42.1708V49.1952H141.512V56.2196H134.488V63.244H127.464V70.2684H120.439V63.244H113.415V56.2196V49.1952ZM113.415 77.2928H120.439H127.464V70.2684H134.488V77.2928H141.512V70.2684H148.537V77.2928V84.3172H155.561V77.2928V70.2684H162.585V77.2928H169.61V84.3172H162.585V91.3416H155.561V98.366V105.39H162.585V112.415H155.561V119.439V126.464H148.537V133.488H141.512V126.464V119.439H148.537V112.415V105.39V98.366V91.3416H141.512V98.366H134.488V91.3416V84.3172H127.464V91.3416H120.439H113.415V84.3172V77.2928ZM113.415 119.439H120.439V126.464H113.415V119.439ZM120.439 140.512H127.464V147.537H120.439V140.512ZM120.439 182.659H127.464H134.488V189.683H127.464H120.439V182.659ZM120.439 217.781H127.464V224.805V231.829H134.488V238.854H127.464H120.439V231.829V224.805V217.781ZM127.464 147.537H134.488V154.561H127.464V147.537ZM127.464 210.756H134.488H141.512V217.781H148.537V210.756V203.732V196.707H155.561H162.585H169.61H176.634H183.659V189.683H190.683H197.707H204.732H211.756V182.659H204.732H197.707V175.634H204.732H211.756H218.781H225.805V182.659H218.781V189.683H225.805V196.707H232.829V203.732H239.854V210.756H232.829H225.805V217.781V224.805H232.829H239.854H246.878V231.829H239.854H232.829H225.805H218.781H211.756V224.805H204.732V231.829H197.707V224.805H190.683H183.659V217.781H190.683V210.756V203.732H183.659H176.634H169.61H162.585H155.561V210.756V217.781H162.585V210.756H169.61H176.634V217.781V224.805V231.829H169.61H162.585V238.854H169.61V245.878H162.585V252.903H155.561V245.878V238.854V231.829H148.537V224.805H141.512H134.488V217.781H127.464V210.756ZM127.464 245.878H134.488V252.903H127.464V245.878ZM134.488 63.244H141.512V70.2684H134.488V63.244ZM134.488 175.634H141.512H148.537V182.659H141.512H134.488V175.634ZM134.488 189.683H141.512V196.707H134.488V189.683ZM134.488 238.854H141.512V231.829H148.537V238.854V245.878V252.903H141.512V245.878H134.488V238.854ZM141.512 35.1464H148.537V42.1708H155.561V49.1952H148.537H141.512V42.1708V35.1464ZM148.537 56.2196H155.561V49.1952H162.585V42.1708H155.561V35.1464V28.122V21.0977H162.585H169.61V28.122H162.585V35.1464H169.61V28.122H176.634V21.0977H183.659V28.122V35.1464H176.634V42.1708V49.1952V56.2196V63.244H169.61V56.2196H162.585V63.244H155.561V70.2684H148.537V63.244V56.2196ZM155.561 133.488H162.585V140.512H155.561V133.488ZM162.585 63.244H169.61V70.2684H162.585V63.244ZM162.585 91.3416H169.61H176.634V84.3172V77.2928H183.659V84.3172H190.683H197.707V77.2928H204.732V84.3172H211.756V77.2928H218.781H225.805H232.829H239.854H246.878V84.3172H239.854H232.829H225.805H218.781V91.3416H225.805H232.829V98.366V105.39H225.805V98.366H218.781V105.39H211.756V112.415V119.439V126.464V133.488V140.512H218.781V147.537H211.756H204.732H197.707V140.512H204.732V133.488V126.464V119.439V112.415V105.39V98.366H211.756V91.3416H204.732H197.707H190.683V98.366H197.707V105.39V112.415H190.683V105.39H183.659V112.415H190.683V119.439V126.464H183.659V119.439H176.634H169.61V112.415V105.39H176.634V98.366H169.61V105.39H162.585V98.366V91.3416ZM162.585 126.464H169.61V133.488H162.585V126.464ZM162.585 140.512H169.61V147.537H162.585V140.512ZM176.634 63.244H183.659V70.2684H176.634V63.244ZM176.634 126.464H183.659V133.488V140.512H176.634V133.488V126.464ZM176.634 147.537H183.659V140.512H190.683V147.537V154.561V161.585V168.61H183.659V161.585H176.634V154.561V147.537ZM176.634 182.659H183.659V189.683H176.634V182.659ZM176.634 238.854H183.659H190.683V231.829H197.707V238.854H204.732H211.756V245.878V252.903H204.732H197.707H190.683V245.878H183.659H176.634V238.854ZM183.659 42.1708H190.683V49.1952V56.2196V63.244H183.659V56.2196V49.1952V42.1708ZM183.659 70.2684H190.683V63.244H197.707V70.2684V77.2928H190.683H183.659V70.2684ZM183.659 175.634H190.683V182.659H183.659V175.634ZM190.683 21.0977H197.707V28.122H190.683V21.0977ZM190.683 35.1464H197.707V42.1708H190.683V35.1464ZM197.707 196.707V203.732V210.756V217.781H204.732H211.756H218.781V210.756V203.732V196.707H211.756H204.732H197.707ZM204.732 154.561H211.756V161.585H204.732V154.561ZM204.732 203.732H211.756V210.756H204.732V203.732ZM211.756 161.585H218.781V168.61H211.756V161.585ZM218.781 105.39H225.805V112.415H218.781V105.39ZM218.781 119.439H225.805H232.829V126.464H225.805H218.781V119.439ZM218.781 133.488H225.805H232.829H239.854V126.464H246.878V119.439V112.415H239.854V105.39H246.878V98.366V91.3416V84.3172H253.903V91.3416V98.366V105.39V112.415V119.439V126.464V133.488H246.878V140.512H253.903V147.537V154.561H246.878V147.537H239.854V154.561H232.829V161.585H225.805H218.781V154.561V147.537H225.805H232.829V140.512H225.805H218.781V133.488ZM225.805 182.659H232.829V189.683H225.805V182.659ZM232.829 168.61H239.854V175.634V182.659H232.829V175.634V168.61ZM239.854 154.561H246.878V161.585H253.903V168.61H246.878H239.854V161.585V154.561ZM239.854 182.659H246.878V175.634H253.903V182.659V189.683V196.707V203.732V210.756V217.781H246.878H239.854V210.756H246.878V203.732V196.707V189.683H239.854V182.659Z" fill="#363232"/>
<path d="M226.961 246.056C228.397 246.031 228.63 244.62 228.63 243.784C228.63 242.547 227.997 242.114 227.232 242.037C226.286 242.456 225.592 243.169 225.509 244.27C225.495 244.451 225.49 244.693 225.505 244.976C225.543 245.729 226.095 246.071 226.961 246.056ZM234.388 247.773C233.361 247.773 232.281 247.141 232.23 245.959C231.062 247.195 229.261 247.784 226.961 247.784C224.641 247.784 223.672 246.203 223.672 244.971C223.731 240.864 223.637 239.325 223.618 239.009C223.616 238.981 223.615 238.963 223.614 238.953L223.614 238.943C223.608 238.786 223.599 238.553 223.451 238.537C223.358 238.527 223.299 238.555 223.193 238.687C223.034 238.899 222.713 238.982 222.517 238.869C222.281 238.733 222.237 238.432 222.357 238.154C222.688 237.415 223.219 237.088 223.935 237.098C225.172 237.116 225.527 237.923 225.527 238.932C225.527 238.932 225.499 240.386 225.499 241.205C225.937 240.848 226.58 240.466 227.653 240.466C229.889 240.466 231.308 243.234 229.85 245.882C231.719 245.019 232.11 243.535 232.182 242.06L232.175 241.563C232.175 241.005 232.535 240.532 233.096 240.532C233.656 240.532 234.028 241.037 234.008 241.569C233.941 243.364 233.914 244.545 233.914 245.17C233.914 245.532 234.111 246.086 234.695 246.086C235.839 246.086 236.215 245.19 236.304 243.083C236.308 242.298 236.313 241.641 236.313 241.641C235.794 241.641 235.539 241.369 235.539 241.029C235.539 240.688 235.809 240.373 236.253 240.373C236.253 240.373 236.254 239.19 236.254 238.7C236.254 238.142 236.687 237.679 237.247 237.679C237.808 237.679 238.253 238.142 238.253 238.7C238.253 238.885 238.245 239.101 238.238 239.339C238.228 239.645 238.216 239.987 238.217 240.348L238.299 240.348C238.45 240.347 238.794 240.346 239.252 240.341C239.797 240.335 240.019 240.639 240.019 241.02C240.019 241.401 239.725 241.667 239.343 241.669C238.988 241.67 238.205 241.666 238.205 241.666C238.169 242.795 238.136 244.156 238.136 245.245C238.136 245.637 238.407 246.086 239.063 246.086C240.386 246.086 240.88 244.91 240.98 242.678C240.972 241.124 240.953 240.224 240.939 239.546C240.929 239.07 240.922 238.704 240.922 238.297C240.922 237.739 241.387 237.24 241.947 237.24C242.507 237.24 242.921 237.688 242.921 238.246C242.921 238.676 242.904 239.179 242.88 239.864C242.84 241.024 242.782 242.706 242.76 245.445C242.757 245.81 242.935 246.066 243.407 246.066C244.669 246.066 245.019 244.699 245.13 242.79C245.131 242.698 245.131 242.608 245.132 242.52C245.134 242.339 245.136 242.164 245.136 241.993C245.136 241.435 245.507 240.983 246.068 240.983C246.628 240.983 246.958 241.446 246.958 242.004C246.958 242.402 246.945 242.774 246.931 243.158C246.92 243.496 246.907 243.844 246.904 244.227C246.894 245.213 247.231 246.08 248.051 246.078C248.838 246.076 249.702 245.744 249.723 244.057C249.729 243.588 249.723 243.227 249.716 242.864C249.711 242.594 249.706 242.323 249.706 242.004C249.706 241.446 250.095 240.983 250.655 240.983C251.215 240.983 251.605 241.446 251.605 242.004C251.605 242.338 251.593 242.67 251.579 243.039C251.562 243.497 251.544 244.011 251.544 244.652C251.544 244.652 251.509 246.99 251.591 247.507C251.848 247.421 252.219 247.17 252.612 246.561C252.849 246.193 253.303 246.114 253.582 246.277C253.967 246.501 253.953 246.94 253.81 247.26C253.438 248.086 252.955 248.591 251.734 249.01C251.738 250.411 251.64 252.479 249.049 252.853C246.83 253.173 245.827 251.886 245.824 250.791C245.818 249.062 247.546 248.558 250.04 247.93L249.96 247.073C249.96 247.073 249.405 247.802 247.997 247.767C246.911 247.74 246.165 247.227 245.712 246.503C245.189 247.361 244.37 247.776 243.136 247.776C242.323 247.776 241.549 247.347 241.165 246.724C240.599 247.401 239.811 247.767 238.75 247.767C237.827 247.767 237.144 247.448 236.736 246.951C236.208 247.54 235.449 247.773 234.388 247.773ZM250.203 249.31C248.943 249.582 247.363 249.979 247.381 250.756C247.399 251.484 248.15 251.616 248.777 251.487C250.078 251.218 250.23 250.434 250.203 249.31ZM234.117 238.703C234.117 238.139 233.66 237.684 233.094 237.684C232.528 237.684 232.071 238.139 232.071 238.703C232.071 239.266 232.528 239.722 233.094 239.722C233.66 239.722 234.117 239.266 234.117 238.703Z" fill="#363232"/>
<path d="M22.0977 21.0977H29.122H36.1464H43.1708H50.1952H57.2196H64.244H71.2684V28.122V35.1464V42.1708V49.1952V56.2196V63.244V70.2684H64.244H57.2196H50.1952H43.1708H36.1464H29.122H22.0977V63.244V56.2196V49.1952V42.1708V35.1464V28.122V21.0977ZM29.122 28.122V35.1464V42.1708V49.1952V56.2196V63.244H36.1464H43.1708H50.1952H57.2196H64.244V56.2196V49.1952V42.1708V35.1464V28.122H57.2196H50.1952H43.1708H36.1464H29.122Z" fill="#363232"/>
<path d="M36.1462 35.1462H43.1706H50.195H57.2194V42.1706V49.195V56.2194H50.195H43.1706H36.1462V49.195V42.1706V35.1462Z" fill="#363232"/>
<path d="M204.732 21.0977H211.756H218.78H225.805H232.829H239.854H246.878H253.902V28.122V35.1464V42.1708V49.1952V56.2196V63.244V70.2684H246.878H239.854H232.829H225.805H218.78H211.756H204.732V63.244V56.2196V49.1952V42.1708V35.1464V28.122V21.0977ZM211.756 28.122V35.1464V42.1708V49.1952V56.2196V63.244H218.78H225.805H232.829H239.854H246.878V56.2196V49.1952V42.1708V35.1464V28.122H239.854H232.829H225.805H218.78H211.756Z" fill="#363232"/>
<path d="M218.781 35.1462H225.805H232.829H239.854V42.1706V49.195V56.2194H232.829H225.805H218.781V49.195V42.1706V35.1462Z" fill="#363232"/>
<path d="M22.0977 203.732H29.122H36.1464H43.1708H50.1952H57.2196H64.244H71.2684V210.756V217.781V224.805V231.829V238.854V245.878V252.903H64.244H57.2196H50.1952H43.1708H36.1464H29.122H22.0977V245.878V238.854V231.829V224.805V217.781V210.756V203.732ZM29.122 210.756V217.781V224.805V231.829V238.854V245.878H36.1464H43.1708H50.1952H57.2196H64.244V238.854V231.829V224.805V217.781V210.756H57.2196H50.1952H43.1708H36.1464H29.122Z" fill="#363232"/>
<path d="M36.1462 217.78H43.1706H50.195H57.2194V224.805V231.829V238.853H50.195H43.1706H36.1462V231.829V224.805V217.78Z" fill="#363232"/>
<rect x="217" y="236" width="37" height="17" fill="#363232"/>
</g>
</g>
<defs>
<clipPath id="clip0_41_5">
<rect width="275" height="275" fill="white" transform="translate(0.234375)"/>
</clipPath>
<clipPath id="clip1_41_5">
<rect x="-6" y="-7" width="288" height="288" rx="85" fill="white"/>
</clipPath>
</defs>
</svg>
